<svg xmlns="http://www.w3.org/2000/svg" width="36.758" height="12.491" fill="#fff"><path d="M4.983 4.178c-.116-.15-.394-.394-.54-.54a.706.706 0 0 1-.283-.673V1.34c0-.232-.357-.2-.357.008v3.07c.025.24-.094.428.3.672a4.8 4.8 0 0 0 1.038.448l.016-.855a.678.678 0 0 0-.166-.506m-.18.885h0c-.6-.243-.7-.2-.626-1.1.705.43.656.6.627 1.1m.7-.378l.016.854a4.834 4.834 0 0 0 1.037-.447c.385-.244.266-.432.29-.672s0-3.07 0-3.07c0-.208-.357-.24-.357-.008v1.626a.709.709 0 0 1-.282.672l-.54.54a.678.678 0 0 0-.166.506m.973-.72c.075.906-.03.86-.626 1.1h0c-.028-.51-.077-.668.627-1.1"/><path d="M5.8 2.523l-.3-.484V.244a.179.179 0 1 0-.354 0v1.793l-.387.712a.623.623 0 0 0 .089.772 3.647 3.647 0 0 0 .476.487L5.347 4l.366-.366c.455-.45.292-.736.084-1.11M5.335 3.57c-.687-.368-.2-.866 0-1.2l.017.027c.5.756.368.87-.017 1.17m-.214 2.8c-.017-.353-.142-.664-.863-.934a11.608 11.608 0 0 0-2.085-.376A4.436 4.436 0 0 1 0 4.3a2.886 2.886 0 0 0 2.343 2.036 8.444 8.444 0 0 1 2.725.764l.062.043c-.035-.3.01-.417-.01-.77m-.308.17a10.654 10.654 0 0 0-1.851-.451 3.423 3.423 0 0 1-2.055-.918 20.6 20.6 0 0 0 2.9.59c.73.155.928.344 1.006.777z"/><path d="M5.512 7.14l.06-.04A8.459 8.459 0 0 1 8.3 6.336 2.885 2.885 0 0 0 10.643 4.3a4.446 4.446 0 0 1-2.173.764 11.7 11.7 0 0 0-2.085.375c-.722.27-.846.582-.863.934s.026.472-.01.77m.317-.6c.078-.432.276-.62 1.006-.776a20.752 20.752 0 0 0 2.9-.591 3.424 3.424 0 0 1-2.055.917 10.671 10.671 0 0 0-1.851.45zM5.085 8.01c.008-.693-.39-.888-.98-1.043L1.987 6.49a2.83 2.83 0 0 1-1.564-.849 2.4 2.4 0 0 0 1.665 2.016 7.631 7.631 0 0 0 1.284.359c.467.116.553.286.553.576v.59h1.16V8.01m-.337.8h-.473a4.3 4.3 0 0 0-.016-.532c-.037-.444-.555-.483-1.406-.72A2.667 2.667 0 0 1 1.164 6.6a6.193 6.193 0 0 0 1.3.406l1.607.33a.754.754 0 0 1 .675.846z"/><path d="M5.536 9.186H6.7v-.592c0-.287.086-.46.553-.576a7.5 7.5 0 0 0 1.279-.358A2.4 2.4 0 0 0 10.2 5.645a2.841 2.841 0 0 1-1.565.848c-.7.2-1.525.32-2.117.475s-.988.35-.98 1.043-.024-.163 0 1.175m.337-1a.754.754 0 0 1 .675-.846L8.157 7a6.1 6.1 0 0 0 1.3-.407 2.666 2.666 0 0 1-1.688.957c-.852.237-1.37.276-1.406.72a4.293 4.293 0 0 0-.017.532h-.473zm-3.133 4.24a2.075 2.075 0 0 1-.464.064.977.977 0 0 1-1.117-1.018 1.01 1.01 0 0 1 1.117-1.088 1.34 1.34 0 0 1 .461.085l-.028.344a.849.849 0 0 0-.441-.108.68.68 0 0 0-.682.738.67.67 0 0 0 .691.727 1.134 1.134 0 0 0 .446-.084zm1.9-1.613a1.333 1.333 0 0 0-.525-.108.694.694 0 0 0-.738.738.672.672 0 0 0 .692.727 1.152 1.152 0 0 0 .268-.029v-.53H3.9v-.322h.82v1.1a2.54 2.54 0 0 1-.659.105c-.66 0-1.118-.33-1.118-1.017a1.009 1.009 0 0 1 1.118-1.088 2.02 2.02 0 0 1 .6.084zm.482-.394h.408v2.036h-.408zm1.948 1.25h-.6l.295-.84h.005zm-1.312.787h.422l.18-.467h.825l.175.467h.45L7 10.42h-.457zm2.7-1.715h.134c.2 0 .432.02.432.265s-.23.284-.432.284H8.44zm-.408 1.715h.408V11.6h.13c.172 0 .225.06.283.2l.245.636h.455l-.327-.8c-.04-.1-.105-.2-.215-.2v-.006a.466.466 0 0 0 .42-.472c0-.566-.523-.552-.96-.552h-.44zM14.1 1.406h.555c.208 0 .377.094.377.3a.274.274 0 0 1-.225.294h0c.1.027.107.115.166.258l.115.318h-.325l-.067-.2c-.064-.2-.1-.25-.22-.25H14.4v.462h-.3zm.312.485h.082c.1 0 .227 0 .227-.135 0-.1-.1-.13-.227-.13h-.082zm.913-.485h.822v.22h-.512v.24h.486v.22h-.484v.264h.53v.222H15.3zm1.14.88a.68.68 0 0 0 .322.077c.1 0 .192-.02.192-.115 0-.217-.552-.08-.552-.505 0-.28.274-.36.508-.36a1 1 0 0 1 .3.044l-.02.24a.644.644 0 0 0-.26-.054c-.078 0-.2.007-.2.1 0 .2.552.062.552.484 0 .3-.254.385-.514.385a1.246 1.246 0 0 1-.348-.05zm1.12-.88h.822v.22h-.512v.24h.484v.22h-.484v.264h.53v.222h-.842zm1.487 0h.383l.45 1.168h-.342l-.086-.25h-.438l-.092.25H18.6zm.2.24h0l-.15.457h.293zm.864-.24h.555c.208 0 .377.094.377.3a.273.273 0 0 1-.224.294h0c.1.027.107.115.165.258l.115.318h-.325l-.07-.212c-.064-.2-.1-.25-.22-.25h-.065v.462h-.312zm.312.485h.08c.1 0 .227 0 .227-.135 0-.1-.108-.13-.227-.13h-.082zm1.9.657a1.3 1.3 0 0 1-.346.047A.6.6 0 0 1 21.3 2a.593.593 0 0 1 .669-.61 1.2 1.2 0 0 1 .347.061l-.026.252a.621.621 0 0 0-.3-.082.357.357 0 0 0-.366.345V2a.357.357 0 0 0 .345.369.338.338 0 0 0 .045 0A.827.827 0 0 0 22.3 2.3zm.25-1.142h.3v.447h.368v-.447h.312v1.17h-.312v-.5h-.368v.5h-.3zm-8.5 2h.373c.356 0 .524.12.524.383 0 .236-.173.377-.464.377h-.12v.408h-.3zm.3.54h.08c.107 0 .192-.04.192-.16s-.085-.157-.192-.157h-.08zm.83-.54h.555c.207 0 .376.093.376.294a.273.273 0 0 1-.223.291h0c.1.026.107.115.166.258l.115.318h-.325l-.067-.2c-.064-.2-.1-.25-.22-.25h-.066v.462h-.3zm.3.485h.08c.1 0 .228 0 .228-.136 0-.108-.1-.128-.228-.128h-.082zm1.463-.5a.54.54 0 0 1 .586.6.586.586 0 1 1-1.169 0 .54.54 0 0 1 .584-.6zm0 .978c.2 0 .265-.182.265-.374s-.076-.373-.265-.373-.263.17-.263.37.08.373.264.373zm1.95.177a1.684 1.684 0 0 1-.452.053.6.6 0 0 1-.672-.6c0-.44.3-.6.74-.6a1.115 1.115 0 0 1 .353.052l-.025.254a.6.6 0 0 0-.285-.075c-.253 0-.46.1-.46.378a.358.358 0 0 0 .345.37h.045a.275.275 0 0 0 .11-.02v-.236h-.182V3.9h.484zm.323-1.135h.554c.208 0 .377.093.377.294a.274.274 0 0 1-.223.286h0c.1.026.107.115.165.258l.115.318h-.325l-.067-.2c-.064-.2-.1-.25-.22-.25h-.066v.462h-.3zm.3.485h.082c.1 0 .228 0 .228-.136 0-.108-.1-.128-.228-.128h-.082zm1.27-.485h.383l.45 1.168h-.34l-.086-.25h-.45l-.092.25H20.4zm.2.24h0l-.15.457h.293zm.865-.24h.5l.25.776.26-.776h.472v1.163h-.3v-.9l-.3.9h-.283l-.285-.9.007.9h-.305zm2.952-.02a.54.54 0 0 1 .586.6.586.586 0 1 1-1.172 0 .54.54 0 0 1 .587-.6zm0 .978c.2 0 .264-.182.264-.374s-.075-.373-.264-.373-.264.17-.264.372.075.373.264.373zm.874-.958h.4l.395.793V3.42h.284v1.163H26.4l-.4-.798v.8h-.287zm-11.74 2.35h1.062v.252h-.775v.584h.74v.253h-.74v.9h-.286zm2.044.5a.72.72 0 0 1 .741.765.743.743 0 1 1-1.485.042.294.294 0 0 1 0-.042.721.721 0 0 1 .744-.761zm0 1.3a.489.489 0 0 0 .455-.546.464.464 0 1 0-.913 0 .49.49 0 0 0 .458.547zM17.1 6.295h.252v.227h.006a.443.443 0 0 1 .381-.261.814.814 0 0 1 .177.02v.24a.4.4 0 0 0-.149-.026c-.24 0-.4.23-.4.595v.664h-.27zm2.207 1.4a1.11 1.11 0 0 1-.461.094.7.7 0 0 1-.756-.79.678.678 0 0 1 .684-.738c.487 0 .644.354.644.824h-1.05a.477.477 0 0 0 .468.487h.012a.868.868 0 0 0 .45-.146zm-.175-.8a.369.369 0 0 0-.363-.407.4.4 0 0 0-.393.407zm.5.584a.726.726 0 0 0 .335.1c.123 0 .275-.052.275-.2 0-.266-.633-.243-.633-.653 0-.3.227-.45.516-.45a1.12 1.12 0 0 1 .334.057l-.023.235a.8.8 0 0 0-.283-.075c-.137 0-.258.058-.258.178 0 .3.633.212.633.678a.459.459 0 0 1-.51.455.837.837 0 0 1-.4-.08zm1.972-.956h-.386v.8a.232.232 0 0 0 .2.259h.025a.33.33 0 0 0 .183-.052v.23a.81.81 0 0 1-.229.04c-.277 0-.45-.13-.45-.423v-.85h-.33V6.31h.33v-.34l.27-.086v.423h.387zm.2.956a.718.718 0 0 0 .335.1c.123 0 .275-.052.275-.2 0-.266-.633-.243-.633-.653 0-.3.226-.45.515-.45a1.121 1.121 0 0 1 .335.057l-.023.235a.8.8 0 0 0-.283-.075c-.138 0-.258.058-.258.178 0 .3.63.212.63.678a.458.458 0 0 1-.509.455.841.841 0 0 1-.4-.08zm1.2-.035h.32l-.243.7h-.258zM24.97 6.02h-.62v-.25h1.53v.252h-.62v1.746h-.287zm1.14.286h.252v.226h.006a.443.443 0 0 1 .38-.26.759.759 0 0 1 .178.02v.24a.4.4 0 0 0-.149-.025c-.24 0-.4.23-.4.595v.664h-.27zm2.206 1.4a1.1 1.1 0 0 1-.46.094.7.7 0 0 1-.756-.79.678.678 0 0 1 .684-.738c.487 0 .644.354.644.824h-1.033a.478.478 0 0 0 .468.487h.013a.868.868 0 0 0 .449-.146zm-.174-.8a.368.368 0 0 0-.363-.407.4.4 0 0 0-.392.407zm1.74.8a1.11 1.11 0 0 1-.461.094.7.7 0 0 1-.756-.79.678.678 0 0 1 .684-.738c.487 0 .644.354.644.824h-1.034a.477.477 0 0 0 .468.487h.012a.868.868 0 0 0 .45-.146zM29.7 6.9a.369.369 0 0 0-.363-.407.406.406 0 0 0-.393.407zm.5.584a.726.726 0 0 0 .335.1c.123 0 .275-.052.275-.2 0-.266-.633-.243-.633-.653 0-.3.226-.45.516-.45a1.12 1.12 0 0 1 .334.057l-.023.235a.777.777 0 0 0-.283-.075c-.137 0-.258.058-.258.178 0 .3.633.212.633.678a.459.459 0 0 1-.51.455.837.837 0 0 1-.4-.08zM32.25 6.4a.929.929 0 0 1 .481-.137c.418 0 .586.206.586.6v.6a2.28 2.28 0 0 0 .012.286h-.252v-.18h-.006a.541.541 0 0 1-.452.223c-.316 0-.536-.137-.536-.455 0-.366.4-.48.678-.48l.287.006c0-.252-.092-.38-.36-.38a.694.694 0 0 0-.424.149zm.8.66h-.172c-.146 0-.506.023-.506.28a.257.257 0 0 0 .271.238.368.368 0 0 0 .407-.383zm.7-.764H34v.232a.526.526 0 0 1 .479-.266c.377 0 .546.235.546.627v.867h-.27V7c0-.34-.074-.507-.3-.52-.306 0-.443.246-.443.6v.676h-.27zM36.5 7.56h-.006a.586.586 0 0 1-.5.24c-.44 0-.626-.392-.626-.8s.206-.738.63-.738a.521.521 0 0 1 .484.234h.006V5.62h.27v2.147H36.5zm-.44.024c.3 0 .43-.3.43-.544 0-.272-.14-.55-.432-.55s-.406.275-.4.54c-.005.23.115.553.4.553zM14.627 8.8h.3l.845 2h-.312l-.2-.5h-.98l-.2.5h-.3zm.14.27l-.4 1h.8zm2.533 1.666c0 .443-.23.7-.753.7a1.469 1.469 0 0 1-.524-.1l.03-.25a1.109 1.109 0 0 0 .526.132.441.441 0 0 0 .452-.5v-.147h-.005a.606.606 0 0 1-.489.226.641.641 0 0 1-.624-.717.7.7 0 0 1 .652-.775.479.479 0 0 1 .481.252h.006V9.35h.25zm-.27-.65c0-.3-.14-.564-.427-.564s-.406.295-.406.544c0 .275.154.515.406.515a.455.455 0 0 0 .427-.5zm.7-.747h.25v.226h.006a.443.443 0 0 1 .381-.26.707.707 0 0 1 .177.02v.24a.4.4 0 0 0-.149-.026c-.24 0-.4.23-.4.6v.663h-.27zm1.734-.035a.721.721 0 0 1 .741.766.743.743 0 0 1-1.486.041v-.04a.722.722 0 0 1 .746-.766zm0 1.3a.489.489 0 0 0 .455-.547.464.464 0 1 0-.913 0 .49.49 0 0 0 .458.547zm1.25-1.058h-.343v-.218h.344v-.135c0-.353.092-.586.5-.586a1.1 1.1 0 0 1 .18.017l-.012.217a.425.425 0 0 0-.128-.017c-.232 0-.26.15-.26.347v.157h.387v.218h-.388v1.242h-.27zm1.56-.252a.72.72 0 0 1 .741.765.743.743 0 1 1-1.485.044.323.323 0 0 1 0-.044.721.721 0 0 1 .744-.765zm0 1.3a.489.489 0 0 0 .455-.546.464.464 0 1 0-.913 0 .489.489 0 0 0 .458.546zm1.073-1.276h.252v.226h.006a.443.443 0 0 1 .381-.26.707.707 0 0 1 .177.02v.24a.4.4 0 0 0-.149-.026c-.24 0-.4.23-.4.6v.664h-.27zm2.206 1.4a1.122 1.122 0 0 1-.461.094.7.7 0 0 1-.755-.79.678.678 0 0 1 .684-.738c.486 0 .644.354.644.824h-1.04a.477.477 0 0 0 .468.486h.013a.85.85 0 0 0 .449-.146zm-.175-.8a.368.368 0 0 0-.363-.407.4.4 0 0 0-.392.407zm.5.583a.719.719 0 0 0 .334.1c.123 0 .275-.052.275-.2 0-.267-.632-.244-.632-.653 0-.3.226-.45.515-.45a1.121 1.121 0 0 1 .335.057l-.023.235a.777.777 0 0 0-.284-.075c-.137 0-.257.058-.257.178 0 .3.632.2.632.678a.459.459 0 0 1-.509.455.841.841 0 0 1-.4-.08zm1.972-.955h-.386v.8a.232.232 0 0 0 .2.259h.026a.332.332 0 0 0 .183-.052v.228a.81.81 0 0 1-.229.04c-.278 0-.45-.13-.45-.423v-.852h-.33v-.218h.33V9l.27-.086v.424h.386zm.312-.218h.252v.226h.006a.443.443 0 0 1 .38-.26.715.715 0 0 1 .178.02v.24a.4.4 0 0 0-.149-.026c-.24 0-.4.23-.4.6v.664h-.27zm.98 1.855a.413.413 0 0 0 .126.023c.24 0 .32-.332.32-.36a.852.852 0 0 0-.051-.155l-.5-1.362h.3l.392 1.208h.006l.4-1.208h.272l-.538 1.492c-.1.28-.207.6-.56.6a.879.879 0 0 1-.184-.02zM12.36 0h.096v12.44h-.096z"/></svg>