<svg xmlns="http://www.w3.org/2000/svg" width="100%" height="100%" viewBox="0 0 975 378" fill-rule="nonzero" stroke-linejoin="round" stroke-miterlimit="2" fill="#fff"><path d="M547.543 123.73V95.668h-13.096v18.916c-4.053 1.144-5.82 1.455-8.938 1.455-15.28 0-27.023-10.705-27.023-24.736 0-13.615 10.705-23.073 26.087-23.073 4.366 0 9.25.83 14.135 2.494 1.248.416 3.12 1.04 5.613 1.975l3.118-10.913c-4.78-2.08-6.86-2.807-10.186-3.638-4.365-1.04-9.354-1.56-14.343-1.56-11.848 0-19.747 2.702-26.815 9.146-7.38 6.756-11.328 15.798-11.328 26.192 0 21.202 15.798 35.753 38.56 35.753 5.717 0 9.978-.624 17.253-2.287 1.56-.415 3.846-.935 6.964-1.662zm12.784-73.17h12.368v75.768h-12.368zm68.7 51.552c0-14.447-10.497-25.464-24.32-25.464s-24.32 11.017-24.32 25.464c0 14.55 10.498 25.568 24.32 25.568s24.32-11.017 24.32-25.568zm-12.887 0c0 8.627-5.197 15.694-11.433 15.694s-11.433-7.067-11.433-15.694c0-8.522 5.197-15.6 11.433-15.6s11.433 7.068 11.433 15.6zm65.8-2.182c0-14.24-8.003-23.282-20.475-23.282-4.47 0-8.523.832-12.056 2.6V50.56h-12.37v74.417c3.118 1.04 4.366 1.35 6.86 1.767 3.326.623 6.756 1.04 9.77 1.04 17.46 0 28.27-10.705 28.27-27.854zm-12.992.623c0 10.186-6.028 17.98-13.823 17.98-1.767 0-3.014-.312-5.716-1.35v-28.8c3.014-1.56 4.988-2.183 7.587-2.183 7.275 0 11.952 5.613 11.952 14.343zm60.5 17.045c-3.326-.3-3.846-1.04-3.846-5.404V92.03c0-10.602-5.196-15.383-16.733-15.383-13.096 0-20.58 4.885-20.58 13.408 0 1.35.104 1.87.624 3.326l11.848-2.6c-.208-.623-.312-.83-.312-1.247 0-2.4 3.014-4.365 6.756-4.365 4.054 0 5.924 2.4 5.924 7.587V96.8l-13.72 3.95c-7.068 2.08-9.978 4.365-11.64 8.834-.52 1.56-.83 3.222-.83 4.885 0 7.692 5.82 13.096 14.03 13.096 4.885 0 8.938-1.767 13.512-5.924 2.182 4.26 4.157 5.3 10.393 5.3h2.598l1.975-9.354zm-16.318-3.326c-1.767 1.352-2.4 1.767-3.222 2.183-1.663.936-3.533 1.455-5.092 1.455-3.118 0-5-1.87-5-5 0-1.247.208-2.182.935-4.053l12.368-4.054v9.458zm24.84-63.712h12.368v75.768H737.95zM532.057 218v-11.12h-28.063v-57.476H490.9V218h41.158zm46.043-8.73c-3.326-.312-3.846-1.04-3.846-5.405V183.7c0-10.602-5.197-15.383-16.733-15.383-13.096 0-20.58 4.885-20.58 13.408 0 1.35.104 1.87.623 3.326l11.85-2.6c-.208-.623-.312-.83-.312-1.247 0-2.4 3.014-4.365 6.756-4.365 4.053 0 5.924 2.4 5.924 7.587v4.054l-13.72 3.95c-7.068 2.08-9.978 4.365-11.64 8.835-.52 1.56-.832 3.222-.832 4.884 0 7.692 5.82 13.096 14.032 13.096 4.885 0 8.938-1.767 13.5-5.924 2.183 4.26 4.157 5.3 10.394 5.3h2.598l1.975-9.354zm-16.318-3.326c-1.767 1.35-2.4 1.766-3.222 2.182-1.663.936-3.534 1.455-5.093 1.455-3.118 0-5-1.87-5-5 0-1.247.208-2.182.936-4.053l12.368-4.053v9.458zM630.067 218v-35.546c0-9.146-4.365-13.72-13.096-13.72-6.132 0-10.913 2.598-16.733 8.938v-8.002h-12.472V218h12.472v-29.102l1.663-1.767c5.404-5.82 9.042-8.418 11.64-8.418 3.014 0 4.054 2.182 4.054 8.2V218h12.472zm54.565 0v-75.77h-12.368v29.413c-2.702-1.87-3.845-2.286-6.444-2.9-1.455-.312-2.9-.52-4.26-.52-12.784 0-23.074 12.057-23.074 27.023 0 13.928 8.42 24.113 19.852 24.113 3.222 0 6.236-.935 9.042-2.702 2.287-1.455 3.118-2.4 4.885-5.197V218h12.368zm-12.368-16.1c-3.014 4.677-6.86 7.276-10.705 7.276-5.924 0-9.978-6.133-9.978-14.863 0-9.146 5.093-15.902 11.953-15.902 3.845 0 7.275 1.87 8.107 4.47.3 1.04.623 3.534.623 6.236V201.9zm60.594-28.905c-4.365-2.494-6.028-3.118-10.6-4.053-3.015-.624-5.717-.935-8.003-.935-11.745 0-19.644 6.132-19.644 15.174 0 6.444 3.95 10.913 12.472 14.24l8.315 3.222c3.326 1.247 4.885 2.9 4.885 5.093 0 2.598-2.806 4.157-7.587 4.157-1.767 0-3.534-.312-5.405-.935-3.534-1.144-5.508-2.08-10.393-5.093l-3.95 10.082c5.3 2.702 7.483 3.533 11.953 4.47 2.9.623 5.508.935 7.9.935 11.64 0 19.33-5.82 19.33-14.655 0-4.26-1.974-8.522-4.988-10.705-2.183-1.56-9.147-4.78-14.55-6.652-4.366-1.56-6.028-2.9-6.028-5.092 0-2.703 3.118-4.574 7.9-4.574 3.533 0 7.7 1.248 11.12 3.326.936.52 2.08 1.248 3.326 2.08l3.95-10.082zm48.018 41.678l-4.574-10.082c-5.3 3.118-8.314 4.158-12.472 4.158-7.483 0-12.68-5.924-12.68-14.55 0-9.042 5.82-15.486 14.03-15.486 3.742 0 6.133.935 9.77 3.74l5.925-9.458c-4.054-2.4-5.717-3.118-9.25-3.95-2.598-.52-5.196-.832-7.9-.832-15.382 0-25.67 10.498-25.67 26.088 0 15.174 9.666 25.048 24.632 25.048 4.78 0 9.666-.935 14.135-2.806l4.054-1.87zm45.94-5.403c-3.326-.312-3.846-1.04-3.846-5.405V183.7c0-10.602-5.197-15.383-16.733-15.383-13.096 0-20.58 4.885-20.58 13.408 0 1.35.103 1.87.623 3.326l11.85-2.6c-.208-.623-.312-.83-.312-1.247 0-2.4 3.014-4.365 6.756-4.365 4.053 0 5.924 2.4 5.924 7.587v4.054l-13.72 3.95c-7.068 2.08-9.978 4.365-11.64 8.835-.52 1.56-.832 3.222-.832 4.884 0 7.692 5.82 13.096 14.032 13.096 4.884 0 8.938-1.767 13.5-5.924 2.183 4.26 4.157 5.3 10.393 5.3h2.6l1.975-9.354zm-16.318-3.326c-1.767 1.35-2.4 1.766-3.222 2.182-1.663.936-3.534 1.455-5.093 1.455-3.118 0-5-1.87-5-5 0-1.247.208-2.182.936-4.053l12.368-4.053v9.458zm71.09-13.514c0-13.927-8.42-24.113-20.06-24.113-3.118 0-5.925.832-8.315 2.4-1.663 1.143-2.9 2.4-5.3 5.508v-6.547H835.44v72.546h12.472v-26.192c2.4 2.08 3.43 2.6 6.34 3.118 1.247.208 2.6.312 3.846.312 13.2 0 23.5-11.745 23.5-27.023zm-12.992.832c0 9.042-5.197 16.1-11.848 16.1-2.08 0-4.47-.623-6.132-1.455-2.08-1.143-2.703-2.4-2.703-5.82v-16.1c3.014-5.093 6.548-7.587 10.705-7.587 5.82 0 9.978 6.132 9.978 14.863zm62.257 20.06l-4.573-9.458c-4.47 2.806-6.34 3.742-9.25 4.573-1.975.624-3.846.832-5.717.832-4.573 0-8.73-2.287-10.8-5.82-1.143-1.975-1.455-3.638-1.663-7.7h32.012v-5.3c0-13.095-8.315-22.138-20.267-22.138-13.824 0-24.217 11.537-24.217 26.815 0 14.76 9.042 24.217 23.385 24.217a38.05 38.05 0 0 0 15.902-3.43c1.143-.52 2.9-1.35 5.197-2.598zm-12.472-25.36h-18.916c1.04-6.548 4.78-10.3 10.3-10.3 5.82 0 8.315 2.9 8.627 10.3zm55.916-14.967c-4.365-2.494-6.028-3.118-10.6-4.053-3.014-.624-5.716-.935-8.003-.935-11.744 0-19.643 6.132-19.643 15.174 0 6.444 3.95 10.913 12.472 14.24l8.314 3.222c3.326 1.247 4.885 2.9 4.885 5.093 0 2.598-2.806 4.157-7.587 4.157-1.767 0-3.534-.312-5.404-.935-3.534-1.144-5.5-2.08-10.394-5.093l-3.95 10.082c5.3 2.702 7.483 3.533 11.952 4.47 2.9.623 5.5.935 7.9.935 11.64 0 19.332-5.82 19.332-14.655 0-4.26-1.975-8.522-5-10.705-2.183-1.56-9.146-4.78-14.55-6.652-4.365-1.56-6.028-2.9-6.028-5.092 0-2.703 3.118-4.574 7.9-4.574 3.534 0 7.7 1.248 11.12 3.326.935.52 2.08 1.248 3.326 2.08l3.95-10.082zm-440.89 79.198v-11.12H490.9v68.597h13.095v-28.8h24.113v-11.017h-24.113v-17.67h29.414zm48.33 33.26c0-14.446-10.497-25.464-24.32-25.464s-24.32 11.018-24.32 25.464c0 14.55 10.497 25.568 24.32 25.568s24.32-11.017 24.32-25.568zm-12.888 0c0 8.627-5.196 15.694-11.432 15.694s-11.433-7.067-11.433-15.694c0-8.522 5.197-15.6 11.433-15.6s11.432 7.068 11.432 15.6zm50.097-21.4c-1.975-2.287-4.158-3.43-6.756-3.43-3.742 0-6.756 3.118-11.433 11.33l-.52-10.6H589.53v48.33h12.37V287.53c0-3.638 1.04-6.444 3.325-9.25 1.87-2.287 4.054-3.638 6.03-3.638 1.35 0 2.4.416 3.74 1.455l3.95-12.056zm47.498 45.628v-48.33h-12.472v29.1l-1.663 1.767c-5.405 5.717-9.043 8.42-11.745 8.42-2.9 0-3.95-2.287-3.95-8.2V261.34h-12.472v35.545c0 9.146 4.365 13.616 13.095 13.616 6.132 0 10.913-2.495 16.734-8.94v8.107h12.472zm85.85 0v-35.545c0-9.147-4.366-13.72-13.096-13.72-6.34 0-11.85 3.118-17.15 9.458-1.144-6.132-5.5-9.458-12.68-9.458-6.132 0-10.913 2.6-16.734 8.94v-8.003h-12.472v48.33h12.472V280.57l1.663-1.766c5.405-5.82 9.043-8.42 11.64-8.42 3.014 0 4.053 2.183 4.053 8.2v31.076h12.472v-29c3.118-3.533 4.885-5.3 6.652-6.755 2.703-2.287 5.197-3.534 6.756-3.534 2.9 0 3.95 2.183 3.95 8.2v31.076h12.472zm-358.19-126.255c-.066-1.807.248-7.6-7.394-10.915-1.947-.85-2.275-.542-7.662-3.734-13.718-8.124-46.75-45.604-99.086-50.677-52.33-5.08-108.487 25.824-131.6 36.457-29.94 13.76-75.142 35.192-113.1 38.552-9.208.816-17.98.435-25.02.528-13.356 0-13.3 20.297 0 20.297h372.52s9.65.582 10.827-10.052c.636-7.608.468-16.113.528-20.456M134.06 356.506c-16.63-27.15-53.735-80.382-98.276-108.28 0 0-7.515-4.992-13.67-2.14-4.785 2.235-9.248 8.933-5.896 17.532 1.205 3.1 26.74 70.237 110.857 102.104 3.867 1.465 12.507-.194 6.986-9.215m222.453-85.1s12.708 8.458 19.26-2.563c2.918-4.912 5.4-11.945 5.4-11.945 2.295-6.03-.803-12.922-8.057-12.922h-44.5c-6.377 0-9.516 9.22-.97 12.527 18.73 7.24 16.1 7.756 28.868 14.903m-74.39-197.28c-6.023 4.544-2.37 11.604 2.977 12.213 15.66 1.947 32.342 1.927 47.352-4.657 12.16-5.327 16.662-9.617 18.295-12.267-8.847-8.592-43.27-12.82-68.624 4.7M53.34 108.4c-5.902 18.824-16.63 33.94-20.183 39.335-4.02 6.685 4.364 13.13 9.978 8.1 16.7-12.467 47.05-38.592 65.84-92.046 17.706-50.342 24.813-53.93 23.742-53.6-15.946 6.444-56.572 25.476-79.378 98.222M219.966.237c-.013 0-64.636 9.02-82.844 55.06-14.943 37.768-14.943 37.768-36.236 66.516-1.94 2.637-2.343 5.688-.174 8.733 1.8 2.523 5.433 3.74 8.712 2.182 4.43-2.102 21.87-9.878 36.658-21.863C185.33 79.066 219.806.812 219.966.237m-206.02 156.22c7.26-10.673 32.26-57.315 21.668-77.237-4.657 6.13-25.45 35.092-32.75 73.423-1.164 5.333 6.78 10.158 11.082 3.814M355.52 109.34c4.5 2.282 7.2 3.935 10.446 6.478 3.84 3.198 11.83-.074 9.65-7.087-.7-2.2-2.222-5.072-4.15-8.184-12.9-20.94-43.028-4.912-15.947 8.793m-262.99 135.1c-9.188.12-14.5 11.457-7.602 18.764 4.015 4.243 40.586 30.87 77.465 94.047 11.9 20.416 26.867 20.075 32.622 19.92 5.454-.147 40.064.208 63.967-10.995 46.8-21.93-114.7-122.38-166.452-121.737m100.838-.47c-13.585 0-12.708 14.093-6.27 17.465 15.8 8.305 55.7 24.405 110.06 71.676 0 0 12.895 11.162 25.563 1.974 5.722-4.13 32.228-24.793 20.9-38.96-42.1-52.638-150.25-52.156-150.25-52.156m103.903-217.67c-31.365-3.473-43.196.957-63.077 14.4-11.83 8.003-33.058 34.168-38.712 40.833-2.108 2.5-2.6 5.922-.9 8.813 1.472 2.523 4.724 4.812 8.572 3.62.2-.06 89.717-25.837 94.107-67.667"/></svg>