<?xml version="1.0" encoding="UTF-8"?>
<svg width="59px" height="69px" viewBox="0 0 59 69" version="1.1" xmlns="http://www.w3.org/2000/svg" xmlns:xlink="http://www.w3.org/1999/xlink">
    <!-- Generator: Sketch 55.2 (78181) - https://sketchapp.com -->
    <title>cgiar</title>
    <desc>Created with Sketch.</desc>
    <g id="Symbols" stroke="none" stroke-width="1" fill="none" fill-rule="evenodd">
        <g id="footer" transform="translate(-320.000000, -71.000000)" fill="#FFFFFF" fill-rule="nonzero">
            <g id="Group-3">
                <g transform="translate(220.000000, 53.500000)">
                    <g id="cgiar" transform="translate(100.000000, 17.000000)">
                        <path d="M28.0017911,23.096229 C27.307781,22.3168847 25.6421567,20.8880868 24.8093445,20.1087424 C23.4213242,18.939726 23.1437202,18.5500538 23.1437202,16.3419116 L23.1437202,7.37945194 C23.1437202,6.08054474 21.0616898,6.34032618 21.0616898,7.37945194 C21.0616898,7.37945194 20.9228878,22.9663383 21.0616898,24.2652455 C21.2004918,25.5641527 20.5064817,26.6032784 22.7273141,28.0320763 C25.2257506,29.4608742 28.8346033,30.5 28.8346033,30.5 C28.8346033,30.5 28.8346033,27.1228413 28.9734053,25.8239341 C29.1122073,24.5250269 28.6958012,23.8755733 28.0017911,23.096229 M27.0301769,27.9021856 C27.0301769,27.9021856 26.8913749,27.9021856 27.0301769,27.9021856 C23.5601263,26.6032784 22.8661161,26.8630599 23.2825222,21.7973218 C27.446583,24.2652455 27.168979,25.1744805 27.0301769,27.9021856" id="XMLID_130_"></path>
                        <path d="M31,25.8330074 C31,27.1293942 31.1218569,30.5 31.1218569,30.5 C31.1218569,30.5 34.2901354,29.4628905 36.483559,28.036865 C38.4332689,26.7404782 37.8239845,25.7033687 37.9458414,24.2773432 C38.0676983,22.9809564 37.9458414,7.4243144 37.9458414,7.4243144 C37.9458414,6.25756625 36.1179884,6.12792757 36.1179884,7.4243144 L36.1179884,16.3693835 C36.1179884,18.4436025 35.8742747,18.8325185 34.655706,20.1289053 C33.9245648,20.9067374 32.4622824,22.332763 31.8529981,23.1105951 C31.2437137,23.8884272 31,24.5366206 31,25.8330074 M35.9961315,21.9438469 C36.3617021,26.8701169 35.8742747,26.6108395 32.7059961,28.036865 L32.7059961,28.036865 C32.7059961,25.184814 32.4622824,24.2773432 35.9961315,21.9438469" id="XMLID_127_"></path>
                        <path d="M31.9113321,14.2807767 C30.7793749,12.1933549 31.9113321,14.2807767 30.4020558,11.5410356 L30.4020558,1.62578209 C30.4020558,0.0602157464 28.5154605,0.190679608 28.5154605,1.62578209 L28.5154605,11.5410356 C28.5154605,11.5410356 26.8804112,14.4112406 26.5030921,15.4549515 C26,16.6291262 25.4969079,17.9337648 27.0061842,19.7602589 C27.1319572,19.8907228 27.2577302,20.2821143 29.5216447,22.5 L29.5216447,22.5 C29.5216447,22.5 29.5216447,22.5 31.534013,20.4125782 C33.7979275,17.9337648 33.0432893,16.2377346 31.9113321,14.2807767 M29.3958716,20.0211866 C25.748454,17.9337648 28.3896875,15.1940237 29.3958716,13.3675297 L29.5216447,13.4979935 C32.1628782,17.803301 31.40824,18.3251564 29.3958716,20.0211866" id="XMLID_124_"></path>
                        <path d="M27.8715596,35.2333333 C27.7431193,33.2333333 27.1009174,31.5 23.1192661,29.9 C19.7798165,28.5666667 15.1559633,28.3 11.8165138,27.7666667 C8.47706422,27.2333333 2.82568807,26.3 0,23.5 C2.05504587,30.8333333 7.44954128,33.7666667 12.7155963,34.9666667 C18.7522936,36.3 24.2752294,36.8333333 27.6146789,39.2333333 L28,39.5 C27.7431193,37.9 28,37.2333333 27.8715596,35.2333333 L27.8715596,35.2333333 Z M26.2018349,36.1666667 C23.2477064,34.9666667 21.3211009,34.7 16.1834862,33.6333333 C10.9174312,32.5666667 7.83486239,31.5 5.00917431,28.4333333 C9.50458716,30.3 16.8256881,30.9666667 20.8073394,31.7666667 C24.6605505,32.7 25.8165138,33.7666667 26.2018349,36.1666667 L26.2018349,36.1666667 Z" id="XMLID_121_"></path>
                        <path d="M31,39.5 L31.3853211,39.2333333 C34.7247706,36.8333333 40.1192661,36.3 46.2844037,34.9666667 C51.6788991,33.7666667 56.9449541,30.7 59,23.5 C56.1743119,26.3 50.5229358,27.2333333 47.1834862,27.7666667 C43.8440367,28.3 39.0917431,28.5666667 35.8807339,29.9 C31.8990826,31.3666667 31.2568807,33.2333333 31.1284404,35.2333333 C30.8715596,37.2333333 31.1284404,37.9 31,39.5 L31,39.5 Z M32.6697248,36.1666667 C33.0550459,33.7666667 34.2110092,32.7 38.1926606,31.7666667 C42.1743119,30.8333333 49.4954128,30.3 53.9908257,28.4333333 C51.1651376,31.5 48.0825688,32.5666667 42.8165138,33.6333333 C37.5504587,34.7 35.6238532,34.9666667 32.6697248,36.1666667 L32.6697248,36.1666667 Z" id="XMLID_118_"></path>
                        <path d="M28,44.8333333 C28,40.9666667 25.8989899,39.7666667 22.4848485,38.9666667 C19.2020202,38.0333333 14.6060606,37.3666667 10.6666667,36.3 C6.72727273,35.1 4.62626263,34.4333333 2,31.5 C2.52525253,37.2333333 6.46464646,41.2333333 11.3232323,42.9666667 C16.1818182,44.7 15.9191919,44.3 18.4141414,44.9666667 C21.040404,45.6333333 21.4343434,46.5666667 21.4343434,48.1666667 L21.4343434,51.5 L27.8686869,51.5 C28.1313131,43.9 27.8686869,48.8333333 28,44.8333333 L28,44.8333333 Z M26.030303,49.3666667 L23.4040404,49.3666667 C23.4040404,49.3666667 23.4040404,48.3 23.2727273,46.3 C23.010101,43.7666667 20.1212121,43.6333333 15.3939394,42.1666667 C12.1111111,41.2333333 7.90909091,40.0333333 5.93939394,36.7 C7.12121212,37.2333333 9.35353535,38.1666667 13.1616162,38.9666667 C16.7070707,39.7666667 18.8080808,40.1666667 22.0909091,40.8333333 C25.2424242,41.5 25.8989899,43.5 25.8989899,45.6333333 L25.8989899,49.3666667 L26.030303,49.3666667 L26.030303,49.3666667 Z" id="XMLID_115_"></path>
                        <path d="M30.1313131,51.5 L36.5656566,51.5 L36.5656566,48.1442953 C36.5656566,46.533557 37.0909091,45.5939597 39.5858586,44.9228188 C42.2121212,44.2516779 41.9494949,44.6543624 46.6767677,42.909396 C51.5353535,41.1644295 55.3434343,37.1375839 56,31.5 C53.3737374,34.4530201 51.1414141,35.1241611 47.3333333,36.3322148 C43.3939394,37.5402685 38.7979798,38.2114094 35.5151515,39.0167785 C32.2323232,39.9563758 30,41.0302013 30,44.9228188 C30.1313131,48.8154362 30,43.8489933 30.1313131,51.5 L30.1313131,51.5 Z M31.969697,45.8624161 C31.969697,43.7147651 32.6262626,41.7013423 35.7777778,41.0302013 C39.0606061,40.3590604 41.1616162,39.9563758 44.7070707,39.1510067 C48.5151515,38.3456376 50.7474747,37.4060403 51.9292929,36.8691275 C50.0909091,40.2248322 45.7575758,41.4328859 42.4747475,42.3724832 C37.7474747,43.7147651 34.8585859,43.9832215 34.5959596,46.533557 C34.4646465,48.4127517 34.4646465,49.6208054 34.4646465,49.6208054 L31.8383838,49.6208054 L31.8383838,45.8624161 L31.969697,45.8624161 Z" id="XMLID_112_"></path>
                        <path d="M15,69.0955056 C14.1940299,69.2303371 13.2537313,69.5 12.3134328,69.5 C8.55223881,69.5 6,67.6123596 6,63.7022472 C6,59.6573034 8.41791045,57.5 12.3134328,57.5 C13.119403,57.5 14.0597015,57.6348315 15,58.0393258 L14.8656716,60.0617978 C13.9253731,59.5224719 13.2537313,59.3876404 12.3134328,59.3876404 C9.89552239,59.3876404 8.41791045,61.2752809 8.41791045,63.5674157 C8.41791045,65.994382 9.89552239,67.747191 12.3134328,67.747191 C13.2537313,67.747191 14.3283582,67.6123596 14.8656716,67.2078652 L15,69.0955056 Z" id="XMLID_111_"></path>
                        <path d="M25.4666667,59.9269663 C24.5333333,59.5224719 23.4666667,59.252809 22.5333333,59.252809 C19.8666667,59.252809 18.4,61.1404494 18.4,63.4325843 C18.4,65.8595506 19.8666667,67.6123596 22.2666667,67.6123596 C22.9333333,67.6123596 23.3333333,67.6123596 23.7333333,67.4775281 L23.7333333,64.3764045 L21.3333333,64.3764045 L21.3333333,62.488764 L26,62.488764 L26,68.9606742 C24.8,69.2303371 23.4666667,69.5 22.2666667,69.5 C18.5333333,69.5 16,67.6123596 16,63.7022472 C16,59.6573034 18.4,57.5 22.2666667,57.5 C23.6,57.5 24.6666667,57.6348315 25.6,58.0393258 L25.4666667,59.9269663 Z" id="XMLID_110_"></path>
                        <rect id="XMLID_109_" x="28" y="58.5" width="2" height="11"></rect>
                        <path d="M38.954023,65.2790698 L35.7931034,65.2790698 L37.3103448,60.6744186 L37.3103448,60.6744186 L38.954023,65.2790698 Z M32,69.5 L34.2758621,69.5 L35.2873563,66.9418605 L39.7126437,66.9418605 L40.5977011,69.5 L43,69.5 L38.7011494,58.5 L36.1724138,58.5 L32,69.5 Z" id="XMLID_106_"></path>
                        <path d="M47.25,60.1634331 L48,60.1634331 C49.125,60.1634331 50.25,60.2913313 50.25,61.570313 C50.25,62.977193 49,63.1050912 48,63.1050912 L47.25,63.1050912 L47.25,60.1634331 Z M45,69.5 L47.125,69.5 L47.125,64.8956656 L47.875,64.8956656 C48.75,64.8956656 49.125,65.151462 49.375,66.0467492 L50.625,69.5 L53,69.5 L51.375,65.151462 C51.125,64.6398693 50.875,64.0003784 50.25,64.0003784 L50.25,64.0003784 C51.625,63.8724802 52.5,62.7213966 52.5,61.4424149 C52.5,58.3728586 49.75,58.5007568 47.375,58.5007568 L45,58.5007568 C45,58.5007568 45,69.5 45,69.5 Z" id="XMLID_103_"></path>
                    </g>
                </g>
            </g>
        </g>
    </g>
</svg>