<?xml version="1.0" encoding="UTF-8"?>
<svg width="74px" height="69px" viewBox="0 0 74 69" version="1.1" xmlns="http://www.w3.org/2000/svg" xmlns:xlink="http://www.w3.org/1999/xlink">
    <!-- Generator: Sketch 55.2 (78181) - https://sketchapp.com -->
    <title>cifor-white</title>
    <desc>Created with Sketch.</desc>
    <g id="Symbols" stroke="none" stroke-width="1" fill="none" fill-rule="evenodd">
        <g id="footer" transform="translate(-220.000000, -73.000000)">
            <g id="Group-3">
                <g transform="translate(220.000000, 53.500000)">
                    <g id="cifor-white" transform="translate(0.000000, 19.500000)">
                        <g id="Group">
                            <path d="M69.3468177,39.5784054 L69.1995845,39.725537 L68.757885,39.725537 L68.3161856,39.8726686 L67.5800198,40.1669318 L66.6966208,40.4611951 L66.1076882,40.7554583 L65.6659887,40.7554583 L65.6659887,40.7554583 L65.0770561,40.7554583 L64.4881234,41.0497215 L64.1936571,41.1968532 L63.8991908,41.3439848 L63.4574913,41.4911164 L63.4574913,41.3439848 L63.4574913,41.3439848 L63.7519577,41.1968532 L64.1936571,41.1968532 L64.1936571,41.1968532 L64.3408903,40.9025899 L64.9298229,40.9025899 L65.3715224,40.7554583 L65.5187556,40.6083267 L65.6659887,40.4611951 L66.1076882,40.4611951 L66.5493877,40.3140635 L67.1383203,40.3140635 L67.2855535,40.1669318 L67.4327866,40.1669318 L67.5800198,40.1669318 L68.3161856,40.0198002 L68.757885,39.8726686 L69.1995845,39.725537 L69.3468177,39.5784054 L69.641284,39.5784054 L69.7885172,39.725537 L69.3468177,39.5784054 L69.3468177,39.5784054 Z M67.8744861,44.5808804 L67.5800198,44.5808804 L67.2855535,44.5808804 L66.9910871,44.728012 L66.6966208,44.8751436 L66.6966208,44.728012 L66.6966208,44.5808804 L66.9910871,44.4337488 L67.1383203,44.4337488 L67.4327866,44.2866171 L67.8744861,44.2866171 L68.0217192,44.2866171 L68.1689524,44.2866171 L68.3161856,44.5808804 L67.8744861,44.5808804 L67.8744861,44.5808804 Z M64.1936571,42.9624326 L64.046424,42.9624326 L64.1936571,42.9624326 L64.1936571,42.6681693 L64.3408903,42.6681693 L64.3408903,42.815301 L64.3408903,42.815301 L64.1936571,42.815301 L64.1936571,42.9624326 Z M63.7519577,43.1095642 L63.6047245,43.2566958 L63.6047245,42.9624326 L63.7519577,43.1095642 L63.7519577,43.1095642 L63.8991908,42.9624326 L63.7519577,43.1095642 L63.7519577,43.1095642 Z M62.7213255,39.1370105 L62.8685587,38.6956156 L63.163025,38.6956156 L63.6047245,38.548484 L63.7519577,38.548484 L64.046424,38.548484 L64.3408903,38.548484 L64.4881234,38.4013524 L64.9298229,38.2542208 L65.2242892,38.2542208 L65.5187556,38.2542208 L65.5187556,38.4013524 L65.0770561,38.548484 L64.6353566,38.548484 L64.1936571,38.6956156 L64.1936571,38.6956156 L63.7519577,38.6956156 L63.4574913,38.6956156 L63.3102582,38.6956156 L63.163025,38.8427473 L62.7213255,39.1370105 L62.7213255,39.1370105 Z M62.1323929,35.45872 L61.8379266,35.6058517 L61.6906934,35.6058517 L61.248994,35.6058517 L60.8072945,35.6058517 L60.6600613,35.6058517 L60.6600613,35.7529833 L60.6600613,35.9001149 L60.365595,35.9001149 L60.365595,35.9001149 L60.6600613,35.45872 L61.1017608,35.45872 L61.5434603,35.3115884 L61.8379266,35.3115884 L62.1323929,35.1644568 L62.5740924,35.0173252 L63.4574913,35.0173252 L63.8991908,34.723062 L64.1936571,34.5759303 L64.3408903,34.5759303 L64.6353566,34.5759303 L64.7825898,34.5759303 L64.7825898,34.5759303 L64.6353566,34.8701936 L64.3408903,35.0173252 L64.1936571,35.1644568 L63.8991908,35.1644568 L63.4574913,35.1644568 L62.8685587,35.1644568 L62.1323929,35.45872 L62.1323929,35.45872 Z M61.6906934,33.8402722 L61.6906934,33.8402722 L61.9851597,33.6931406 L62.4268592,33.2517458 L62.2796261,33.6931406 L61.6906934,33.8402722 L61.5434603,33.8402722 L61.248994,33.8402722 L61.6906934,33.8402722 L61.6906934,33.8402722 Z M59.1877297,44.1394855 L58.5987971,44.1394855 L58.4515639,44.2866171 L58.3043308,44.2866171 L57.8626313,44.2866171 L57.7153982,44.4337488 L57.4209318,44.5808804 L57.1264655,44.5808804 L56.8319992,44.728012 L56.3902997,44.728012 L55.9486002,44.8751436 L55.8013671,44.8751436 L55.6541339,44.8751436 L55.2124345,45.1694069 L54.770735,45.3165385 L54.1818023,45.3165385 L54.0345692,45.6108017 L53.887336,45.6108017 L53.5928697,45.6108017 L53.4456366,45.4636701 L53.5928697,45.3165385 L53.887336,45.1694069 L54.1818023,45.1694069 L54.4762687,45.0222752 L54.6235018,45.0222752 L54.770735,44.8751436 L55.9486002,44.728012 L56.2430666,44.5808804 L56.5375329,44.4337488 L56.9792324,44.2866171 L57.4209318,44.2866171 L57.8626313,44.1394855 L58.1570976,43.9923539 L58.4515639,43.9923539 L58.5987971,43.9923539 L58.7460303,43.8452223 L58.7460303,43.6980907 L58.8932634,43.6980907 L59.1877297,43.6980907 L59.1877297,44.1394855 L59.1877297,44.1394855 L59.1877297,44.1394855 Z M54.0345692,44.4337488 L54.1818023,44.4337488 L54.770735,44.1394855 L54.9179681,43.9923539 L55.0652013,43.8452223 L55.3596676,43.8452223 L55.9486002,43.6980907 L56.0958334,43.6980907 L56.0958334,43.6980907 L55.9486002,43.6980907 L55.8013671,43.6980907 L55.5069008,43.8452223 L55.3596676,43.8452223 L55.0652013,43.8452223 L54.9179681,43.9923539 L54.0345692,44.4337488 L54.0345692,44.728012 L53.5928697,44.728012 L53.5928697,44.728012 L54.0345692,44.4337488 L54.0345692,44.4337488 Z M55.2124345,35.0173252 L55.5069008,35.0173252 L55.6541339,35.0173252 L55.8013671,34.8701936 L56.0958334,34.723062 L56.3902997,34.5759303 L56.3902997,34.5759303 L56.3902997,34.5759303 L56.2430666,35.0173252 L55.9486002,35.0173252 L55.9486002,35.0173252 L55.2124345,35.0173252 L55.2124345,35.0173252 L55.2124345,35.0173252 Z M45.9367455,38.1070892 L45.6422791,38.2542208 L45.3478128,38.2542208 L44.7588802,38.4013524 L44.4644139,38.4013524 L44.1699476,38.548484 L43.2865486,38.8427473 L42.4031497,39.1370105 L41.0780512,39.5784054 L40.4891186,39.725537 L39.900186,40.1669318 L39.1640202,40.3140635 L38.7223207,40.6083267 L38.2806212,40.6083267 L38.2806212,40.6083267 L38.2806212,40.6083267 L38.8695539,40.1669318 L39.4584865,39.8726686 L40.0474191,39.725537 L40.6363518,39.4312737 L41.814217,38.9898789 L43.5810149,38.4013524 L44.9061134,38.1070892 L45.6422791,37.8128259 L45.7895123,37.5185627 L45.9367455,37.5185627 L46.0839786,37.5185627 L46.0839786,37.8128259 L45.9367455,38.1070892 L45.9367455,38.1070892 Z M21.6432743,47.2292495 L20.465409,47.6706444 L19.2875438,48.2591708 L18.8458443,48.4063025 L18.551378,48.5534341 L18.2569117,48.7005657 L17.8152122,48.8476973 L16.7845801,49.1419606 L16.3428806,49.2890922 L15.9011811,49.5833554 L15.9011811,49.4362238 L16.4901138,48.9948289 L17.2262795,48.8476973 L17.8152122,48.5534341 L18.2569117,48.4063025 L18.6986111,48.2591708 L20.0237096,47.5235128 L21.348808,47.0821179 L21.6432743,47.2292495 L21.6432743,47.2292495 L21.6432743,47.2292495 Z M71.1136156,40.9025899 L71.1136156,40.9025899 L71.5553151,40.6083267 L71.7025482,40.6083267 L71.7025482,40.4611951 L71.9970145,40.3140635 L72.1442477,40.3140635 L72.2914808,40.0198002 L71.9970145,39.725537 L71.7025482,39.4312737 L71.4080819,39.2841421 L70.9663824,39.2841421 L71.2608487,39.2841421 L71.4080819,39.1370105 L71.5553151,38.9898789 L71.7025482,38.8427473 L71.8497814,38.6956156 L71.8497814,38.548484 L71.9970145,38.548484 L72.1442477,38.548484 L72.1442477,38.2542208 L71.7025482,38.2542208 L71.5553151,38.2542208 L71.4080819,38.2542208 L71.5553151,37.8128259 L71.5553151,37.6656943 L71.2608487,37.6656943 L71.2608487,37.6656943 L70.5246829,37.6656943 L70.2302166,37.6656943 L70.0829835,37.8128259 L70.0829835,38.1070892 L69.641284,37.6656943 L70.0829835,37.5185627 L70.5246829,37.0771678 L71.4080819,36.9300362 L70.0829835,36.9300362 L69.9357503,37.0771678 L69.7885172,37.0771678 L69.3468177,37.3714311 L69.1995845,37.3714311 L68.757885,37.5185627 L68.1689524,37.6656943 L68.0217192,37.6656943 L67.8744861,37.8128259 L67.5800198,37.9599576 L67.2855535,37.9599576 L66.9910871,37.9599576 L66.4021545,37.9599576 L66.4021545,37.6656943 L66.4021545,37.5185627 L66.4021545,37.5185627 L67.1383203,37.5185627 L68.4634187,37.3714311 L68.757885,37.2242995 L68.757885,36.9300362 L68.757885,36.7829046 L68.9051182,36.7829046 L69.4940508,36.635773 L70.2302166,36.3415098 L71.4080819,36.0472465 L71.4080819,35.6058517 L70.9663824,35.45872 L70.6719161,35.45872 L70.0829835,35.45872 L69.9357503,35.45872 L69.9357503,35.45872 L69.641284,35.3115884 L69.641284,35.3115884 L69.4940508,35.3115884 L69.4940508,35.45872 L69.4940508,35.6058517 L69.4940508,35.7529833 L69.4940508,35.9001149 L69.3468177,35.9001149 L69.0523514,35.6058517 L68.757885,35.6058517 L68.4634187,35.6058517 L68.3161856,35.9001149 L67.5800198,36.0472465 L67.4327866,36.0472465 L67.4327866,35.9001149 L67.5800198,35.45872 L67.5800198,35.3115884 L67.7272529,35.3115884 L68.3161856,35.3115884 L69.3468177,34.8701936 L69.7885172,34.723062 L70.0829835,34.5759303 L70.5246829,34.723062 L70.9663824,34.5759303 L71.1136156,34.2816671 L70.5246829,34.2816671 L70.6719161,34.2816671 L71.1136156,34.2816671 L71.7025482,34.1345355 L71.7025482,34.1345355 L70.5246829,33.8402722 L70.5246829,33.546009 L70.3774498,33.546009 L69.7885172,33.546009 L69.3468177,33.6931406 L68.757885,33.8402722 L68.4634187,33.8402722 L68.4634187,33.6931406 L68.4634187,33.546009 L68.757885,33.3988774 L69.1995845,33.1046141 L69.1995845,32.8103509 L69.3468177,32.5160877 L69.641284,32.5160877 L69.641284,32.3689561 L69.641284,32.3689561 L69.1995845,32.5160877 L69.1995845,32.3689561 L69.3468177,31.9275612 L69.3468177,31.633298 L69.3468177,31.633298 L69.1995845,31.7804296 L68.6106519,31.9275612 L67.8744861,31.9275612 L67.4327866,32.2218244 L67.1383203,32.3689561 L66.5493877,32.5160877 L66.2549213,32.5160877 L66.1076882,32.5160877 L66.1076882,32.3689561 L65.960455,32.2218244 L65.8132219,32.0746928 L65.8132219,31.9275612 L66.1076882,31.9275612 L67.4327866,31.633298 L68.757885,31.1919031 L69.3468177,31.0447715 L69.3468177,30.6033766 L69.3468177,30.456245 L69.0523514,30.456245 L67.5800198,30.6033766 L67.4327866,30.6033766 L66.1076882,30.8976399 L65.5187556,30.8976399 L65.0770561,31.0447715 L64.046424,31.4861663 L63.6047245,31.633298 L61.9851597,31.9275612 L61.6906934,31.9275612 L61.1017608,32.0746928 L60.365595,32.2218244 L59.0404966,32.8103509 L57.7153982,33.2517458 L56.8319992,33.546009 L56.0958334,33.9874039 L55.6541339,34.1345355 L54.9179681,34.2816671 L53.7401029,34.723062 L52.8567039,34.723062 L51.973305,34.8701936 L50.3537402,35.3115884 L49.9120407,35.6058517 L49.4703413,35.7529833 L48.5869423,35.9001149 L48.1452428,35.9001149 L47.8507765,36.0472465 L47.4090771,36.1943781 L46.9673776,36.3415098 L45.9367455,36.635773 L45.0533465,36.9300362 L44.7588802,37.0771678 L44.611647,37.0771678 L44.1699476,37.3714311 L42.9920823,37.6656943 L42.8448491,37.8128259 L42.4031497,37.9599576 L41.9614502,37.9599576 L42.5503828,37.3714311 L42.4031497,37.3714311 L41.9614502,37.6656943 L41.6669839,37.8128259 L41.6669839,37.9599576 L41.6669839,37.9599576 L41.6669839,37.9599576 L40.7835849,38.2542208 L39.900186,38.6956156 L39.016787,39.1370105 L38.2806212,39.2841421 L37.8389217,39.4312737 L37.3972223,39.725537 L36.8082896,39.8726686 L36.3665902,40.0198002 L36.3665902,39.8726686 L36.6610565,39.725537 L38.7223207,38.8427473 L38.2806212,38.8427473 L36.5138233,39.5784054 L35.9248907,39.725537 L35.6304244,39.725537 L35.4831912,39.8726686 L35.0414917,40.0198002 L34.4525591,40.0198002 L34.4525591,40.1669318 L34.4525591,40.3140635 L34.7470254,40.1669318 L35.0414917,40.0198002 L35.4831912,40.3140635 L34.5997923,40.6083267 L34.1580928,40.7554583 L33.5691601,40.7554583 L32.538528,41.0497215 L31.6551291,41.3439848 L31.2134296,41.4911164 L30.7717301,41.7853796 L29.8883312,42.2267745 L29.2993986,42.3739061 L28.5632328,42.5210377 L28.4159996,42.6681693 L28.2687664,42.6681693 L27.827067,42.6681693 L27.2381343,42.6681693 L26.7964349,42.6681693 L26.6492017,42.815301 L26.3547354,42.9624326 L26.0602691,42.9624326 L25.4713364,43.1095642 L24.8824038,43.4038274 L23.8517717,44.1394855 L23.1156059,44.2866171 L22.2322069,44.5808804 L21.6432743,44.5808804 L21.2015748,44.728012 L20.7598754,44.8751436 L20.9071085,44.8751436 L21.348808,44.8751436 L21.4960411,44.8751436 L21.4960411,44.8751436 L21.4960411,44.8751436 L21.4960411,44.8751436 L21.2015748,45.0222752 L20.7598754,45.3165385 L20.0237096,45.6108017 L19.2875438,45.905065 L18.551378,46.3464598 L17.9624453,46.4935914 L17.3735127,46.9349863 L16.6373469,47.2292495 L15.753948,47.5235128 L14.4288495,47.9649076 L12.956518,48.5534341 L12.5148185,48.7005657 L12.073119,48.7005657 L11.6314195,48.9948289 L11.18972,49.1419606 L10.4535543,49.5833554 L9.71738846,49.8776187 L9.27568899,50.0247503 L8.83398951,50.3190135 L8.39229004,50.4661451 L7.65612424,50.90754 L6.91995845,51.2018032 L7.50889109,51.2018032 L7.8033574,51.2018032 L7.8033574,51.2018032 L7.50889109,51.4960665 L7.06719161,51.7903297 L5.88932634,52.3788562 L5.44762687,52.6731194 L4.71146107,52.9673826 L4.12252844,53.4087775 L3.82806212,53.5559091 L3.53359581,53.7030407 L3.38636265,53.8501723 L2.94466317,53.997304 L2.06126422,54.5858304 L1.03063211,55.1743569 L0.883398951,55.4686202 L0.588932634,55.4686202 L0.441699476,55.4686202 L0.294466317,55.6157518 L0.294466317,55.7628834 L0.147233159,55.910015 L-3.97903932e-13,55.910015 L-3.97903932e-13,56.0571466 L0.441699476,56.0571466 L0.588932634,56.0571466 L0.736165793,56.0571466 L0.736165793,56.0571466 L0.441699476,56.0571466 L0.441699476,56.3514099 L0.441699476,56.4985415 L0.441699476,56.6456731 L0.588932634,56.6456731 L0.736165793,57.087068 L0.883398951,57.087068 L0.736165793,57.087068 L0.736165793,57.087068 L0.736165793,57.087068 L0.736165793,57.3813312 L0.736165793,57.5284628 L0.883398951,57.6755944 L1.17786527,57.6755944 L1.17786527,57.6755944 L1.17786527,58.2641209 L1.17786527,58.7055158 L1.17786527,58.7055158 L1.61956474,59.1469106 L1.7667979,59.2940422 L1.91403106,59.7354371 L2.06126422,60.3239636 L2.20849738,60.7653584 L2.35573054,61.2067533 L2.35573054,61.5010165 L2.5029637,61.7952797 L2.65019685,61.9424114 L2.94466317,62.3838062 L2.79743001,62.8252011 L2.79743001,63.1194643 L2.94466317,63.4137275 L3.09189633,64.2965173 L3.53359581,64.5907805 L3.68082896,64.8850437 L3.82806212,65.3264386 L4.12252844,65.7678334 L4.12252844,66.5034915 L4.2697616,67.2391496 L4.71146107,67.5334129 L4.85869423,67.8276761 L4.85869423,68.269071 L5.30039371,68.7104658 L5.44762687,68.7104658 L5.59486002,68.7104658 L5.88932634,68.7104658 L6.0365595,68.4162026 L6.47825898,68.4162026 L7.50889109,67.6805445 L7.95059056,67.5334129 L8.39229004,67.2391496 L8.39229004,67.092018 L8.5395232,66.7977548 L8.98122267,66.7977548 L9.42292215,66.7977548 L10.3063211,66.3563599 L10.7480206,66.2092283 L11.18972,66.2092283 L11.7786527,65.7678334 L12.3675853,65.6207018 L12.8092848,65.3264386 L13.1037511,65.3264386 L13.3982174,65.0321753 L13.8399169,64.8850437 L14.2816164,64.7379121 L14.7233159,64.5907805 L14.7233159,64.4436489 L15.0177822,64.4436489 L15.9011811,63.8551224 L16.9318132,63.2665959 L17.667979,63.1194643 L18.551378,62.6780695 L19.4347769,62.2366746 L20.1709427,62.089543 L21.0543417,61.5010165 L22.0849738,61.0596217 L23.2628391,60.6182268 L24.4407043,60.1768319 L24.5879375,60.0297003 L24.7351706,60.0297003 L24.8824038,60.0297003 L25.029637,59.8825687 L25.3241033,59.7354371 L25.7658027,59.7354371 L26.2075022,59.5883055 L26.6492017,59.2940422 L27.0909012,59.1469106 L27.5326006,59.1469106 L27.9743001,58.999779 L28.4159996,58.8526474 L29.0049322,58.7055158 L29.2993986,58.5583841 L29.5938649,58.4112525 L30.0355643,58.1169893 L29.5938649,58.2641209 L29.1521654,58.7055158 L29.1521654,58.2641209 L29.8883312,57.9698577 L30.3300307,57.822726 L30.9189633,57.822726 L31.0661965,57.822726 L31.0661965,57.822726 L31.5078959,57.822726 L31.5078959,57.822726 L32.0968286,57.6755944 L32.6857612,57.3813312 L32.538528,57.2341996 L32.8329944,56.9399363 L33.1274607,56.7928047 L33.7163933,56.7928047 L33.1274607,57.2341996 L33.1274607,57.2341996 L33.421927,57.2341996 L33.5691601,56.9399363 L33.8636265,56.7928047 L34.1580928,56.6456731 L34.3053259,56.4985415 L35.0414917,56.2042782 L35.7776575,56.0571466 L37.2499891,55.6157518 L37.9861549,55.4686202 L38.7223207,55.1743569 L40.0474191,54.5858304 L40.7835849,54.4386988 L41.5197507,54.2915672 L42.1086833,53.997304 L42.697616,53.8501723 L44.1699476,53.4087775 L44.9061134,53.1145143 L51.089906,50.7604084 L53.1511702,49.8776187 L55.2124345,49.1419606 L55.8013671,48.9948289 L57.1264655,48.5534341 L59.1877297,47.9649076 L60.0711287,47.5235128 L60.8072945,47.2292495 L61.8379266,47.0821179 L62.2796261,46.9349863 L62.5740924,46.7878547 L63.0157919,46.4935914 L63.6047245,46.3464598 L63.7519577,46.3464598 L64.1936571,46.3464598 L64.9298229,46.1993282 L65.6659887,45.905065 L66.4021545,45.6108017 L67.7272529,45.1694069 L68.1689524,45.0222752 L68.9051182,45.0222752 L69.7885172,45.0222752 L70.0829835,44.8751436 L70.2302166,44.728012 L70.6719161,44.728012 L70.8191493,44.2866171 L71.1136156,44.1394855 L71.4080819,43.9923539 L71.4080819,43.6980907 L71.1136156,43.6980907 L70.9663824,43.5509591 L70.9663824,43.2566958 L71.1136156,43.2566958 L71.4080819,43.1095642 L71.2608487,42.9624326 L71.2608487,42.6681693 L71.5553151,42.2267745 L72.1442477,42.0796429 L72.7331803,41.7853796 L72.8804135,41.638248 L72.7331803,41.638248 L72.7331803,41.4911164 L72.2914808,41.4911164 L72.1442477,41.638248 L71.5553151,41.638248 L71.4080819,41.638248 L71.5553151,41.4911164 L71.5553151,41.1968532 L71.4080819,41.1968532 L71.4080819,41.1968532 L71.1136156,40.9025899 L71.1136156,40.9025899 L71.1136156,40.9025899 Z" id="Shape" fill="#65B32E" fill-rule="nonzero"></path>
                            <polygon id="Shape" fill="#65B32E" points="69.7885172 33.1046141 69.4940508 33.1046141 69.1995845 33.1046141 69.1995845 32.9574825 69.4940508 32.8103509 69.7885172 32.6632193 69.7885172 32.5160877 69.9357503 32.5160877 70.3774498 32.5160877 69.9357503 32.9574825 69.7885172 33.1046141 69.7885172 33.1046141"></polygon>
                            <polygon id="Shape" fill="#65B32E" points="69.7885172 45.1694069 69.4940508 45.1694069 69.1995845 45.4636701 69.1995845 45.6108017 69.1995845 45.6108017 69.3468177 45.6108017 69.3468177 45.6108017 69.641284 45.4636701 69.7885172 45.4636701 70.0829835 45.1694069 70.0829835 45.1694069 69.9357503 45.1694069 69.7885172 45.1694069 69.7885172 45.1694069"></polygon>
                            <polygon id="Shape" fill="#65B32E" points="65.6659887 46.1993282 64.9298229 46.3464598 64.9298229 46.4935914 65.2242892 46.640723 65.3715224 46.640723 65.5187556 46.4935914 65.6659887 46.3464598 66.1076882 46.1993282 66.2549213 46.0521966 66.2549213 46.0521966 66.2549213 46.0521966 66.1076882 46.0521966 65.6659887 46.1993282 65.6659887 46.1993282"></polygon>
                            <polygon id="Shape" fill="#65B32E" points="44.9061134 37.3714311 44.9061134 37.3714311 45.7895123 37.0771678 46.5256781 36.7829046 45.6422791 37.0771678 44.9061134 37.3714311 44.9061134 37.3714311"></polygon>
                            <polygon id="Shape" fill="#65B32E" points="44.9061134 37.3714311 44.9061134 37.3714311 44.611647 37.3714311 43.5810149 37.5185627 43.2865486 37.9599576 44.0227144 37.6656943 44.9061134 37.3714311 44.9061134 37.3714311 44.9061134 37.3714311"></polygon>
                            <polyline id="Shape" fill="#65B32E" fill-rule="nonzero" points="64.046424 42.815301 64.046424 42.9624326 64.1936571 42.9624326 64.4881234 42.9624326 64.3408903 42.9624326 64.3408903 42.6681693 64.1936571 42.6681693 64.046424 42.815301"></polyline>
                            <polyline id="Shape" fill="#65B32E" fill-rule="nonzero" points="65.6659887 40.4611951 66.1076882 40.4611951 66.5493877 40.3140635 67.1383203 40.1669318 67.2855535 40.0198002 67.4327866 40.0198002 67.5800198 39.8726686 67.5800198 39.8726686 68.3161856 39.8726686 68.6106519 39.5784054 69.0523514 39.4312737 69.1995845 39.4312737 69.4940508 39.4312737 69.641284 39.4312737 69.3468177 39.5784054 69.0523514 39.8726686 68.6106519 39.8726686 68.3161856 39.8726686 67.5800198 40.1669318 67.5800198 40.1669318 66.6966208 40.4611951 66.1076882 40.7554583 65.6659887 40.7554583 65.5187556 40.7554583 64.9298229 40.7554583 64.4881234 41.0497215 64.046424 41.1968532 64.046424 41.1968532 63.7519577 41.3439848 63.7519577 41.3439848 63.3102582 41.638248 63.4574913 41.4911164 63.4574913 41.3439848 63.7519577 41.1968532 64.046424 41.1968532 64.1936571 41.0497215 64.3408903 40.7554583 64.9298229 40.7554583 65.3715224 40.7554583 65.5187556 40.6083267 65.6659887 40.4611951"></polyline>
                            <polyline id="Shape" fill="#65B32E" fill-rule="nonzero" points="63.6047245 38.6956156 63.7519577 38.6956156 64.046424 38.548484 64.046424 38.548484 64.3408903 38.548484 64.4881234 38.548484 64.9298229 38.2542208 65.2242892 38.2542208 65.5187556 38.2542208 65.5187556 38.548484 64.9298229 38.548484 64.4881234 38.548484 64.1936571 38.6956156 64.046424 38.8427473 63.7519577 38.8427473 63.7519577 38.8427473 63.4574913 38.8427473 63.3102582 38.9898789 63.163025 39.1370105 62.7213255 39.1370105 62.8685587 38.8427473 63.163025 38.8427473 63.6047245 38.6956156"></polyline>
                            <polyline id="Shape" fill="#65B32E" fill-rule="nonzero" points="55.8013671 34.8701936 56.0958334 34.5759303 56.3902997 34.5759303 56.3902997 34.5759303 56.3902997 34.5759303 56.0958334 35.0173252 55.8013671 35.0173252"></polyline>
                            <polyline id="Shape" fill="#65B32E" fill-rule="nonzero" points="55.8013671 35.0173252 55.8013671 35.0173252 55.2124345 35.0173252 55.2124345 35.0173252 55.5069008 35.0173252 55.6541339 35.0173252 55.8013671 34.8701936"></polyline>
                            <polyline id="Shape" fill="#65B32E" fill-rule="nonzero" points="18.8458443 48.4063025 18.551378 48.5534341 18.2569117 48.7005657 17.8152122 48.8476973 16.7845801 49.1419606 16.3428806 49.2890922 15.9011811 49.5833554 15.9011811 49.4362238 16.4901138 48.9948289 17.2262795 48.8476973 17.8152122 48.5534341 18.2569117 48.4063025 18.6986111 48.2591708 20.0237096 47.5235128 21.2015748 47.0821179 21.6432743 47.0821179 21.6432743 47.2292495 20.465409 47.6706444 19.2875438 48.2591708 18.8458443 48.4063025 18.6986111 48.4063025"></polyline>
                            <path d="M23.7045385,18.5385839 L23.4100722,18.9799788 L21.2015748,18.9799788 L20.1709427,19.4213736 L19.7292432,19.7156369 L19.4347769,20.1570317 L19.4347769,20.5984266 L19.4347769,20.5984266 L19.5820101,20.8926898 L19.8764764,21.1869531 L20.3181759,21.4812163 L20.3181759,21.7754795 L20.0237096,21.9226111 L19.8764764,21.9226111 L19.4347769,21.9226111 L19.1403106,21.9226111 L18.551378,21.6283479 L17.9624453,21.4812163 L17.667979,21.4812163 L17.3735127,21.6283479 L17.0790464,21.6283479 L17.0790464,21.1869531 L17.2262795,20.7455582 L17.5207459,20.451295 L17.8152122,20.1570317 L18.1096785,20.1570317 L18.551378,20.1570317 L18.9930775,19.8627685 L19.1403106,19.7156369 L19.1403106,19.7156369 L19.1403106,19.4213736 L19.1403106,18.9799788 L20.0237096,17.9500574 L20.465409,17.5086626 L20.9071085,17.2143994 L21.2015748,17.5086626 L21.4960411,17.8029258 L21.7905075,18.0971891 L22.2322069,18.5385839 L23.7045385,18.5385839 L23.7045385,18.5385839 L23.7045385,18.5385839 L23.7045385,18.5385839 Z M19.2875438,26.6308229 L18.8458443,27.2193494 L17.3735127,29.2791921 L16.7845801,30.1619818 L16.3428806,30.7505083 L16.0484143,31.0447715 L15.753948,31.0447715 L15.753948,30.7505083 L16.0484143,29.4263237 L16.1956474,28.9849288 L16.3428806,28.8377972 L16.3428806,28.8377972 L16.9318132,28.1021391 L17.2262795,27.5136126 L17.667979,27.0722178 L18.551378,26.1894281 L18.8458443,26.4836913 L19.1403106,26.3365597 L19.2875438,26.3365597 L19.4347769,26.1894281 L19.2875438,26.6308229 L19.2875438,26.6308229 Z M15.753948,27.366481 L15.753948,27.366481 L16.0484143,27.0722178 L16.0484143,26.7779546 L16.1956474,26.1894281 L16.4901138,26.1894281 L17.0790464,26.0422965 L17.3735127,25.7480332 L17.5207459,25.45377 L17.3735127,25.1595068 L17.0790464,24.8652435 L16.6373469,24.4238487 L16.6373469,23.2467957 L17.667979,23.2467957 L18.1096785,23.3939273 L18.2569117,23.5410589 L18.4041448,23.8353222 L18.4041448,23.9824538 L18.4041448,23.9824538 L18.2569117,23.9824538 L18.2569117,24.1295854 L18.1096785,24.1295854 L17.9624453,24.276717 L17.9624453,24.7181119 L17.9624453,25.3066384 L18.1096785,25.45377 L18.4041448,25.6009016 L17.5207459,26.4836913 L16.6373469,27.366481 L16.6373469,27.366481 L16.4901138,27.5136126 L16.4901138,27.5136126 L16.4901138,27.366481 L16.3428806,27.2193494 L16.3428806,27.0722178 L15.753948,27.366481 L15.753948,27.366481 Z M15.6067148,21.9226111 L15.6067148,21.6283479 L15.4594816,21.4812163 L15.3122485,21.3340847 L15.3122485,21.3340847 L15.3122485,21.1869531 L15.3122485,21.1869531 L15.6067148,21.1869531 L15.6067148,21.0398214 L15.753948,20.8926898 L15.753948,20.8926898 L16.0484143,20.5984266 L16.1956474,20.5984266 L16.1956474,20.5984266 L16.3428806,20.7455582 L16.3428806,20.8926898 L16.1956474,21.1869531 L16.1956474,21.4812163 L16.1956474,21.7754795 L16.1956474,21.7754795 L16.1956474,22.2168744 L16.1956474,22.364006 L16.0484143,22.364006 L15.753948,22.364006 L15.6067148,21.9226111 L15.6067148,21.9226111 Z M15.3122485,23.8353222 L15.3122485,23.8353222 L15.1650153,23.9824538 L15.1650153,23.9824538 L14.5760827,23.8353222 L14.1343832,23.6881906 L13.8399169,23.3939273 L13.8399169,22.9525325 L13.5454506,22.6582692 L13.2509843,22.5111376 L13.2509843,22.5111376 L12.956518,22.5111376 L12.8092848,22.5111376 L12.073119,22.5111376 L11.7786527,22.5111376 L11.3369532,22.364006 L11.4841864,22.0697428 L11.6314195,21.9226111 L12.956518,21.9226111 L13.2509843,21.9226111 L13.8399169,21.9226111 L14.2816164,21.7754795 L14.7233159,21.6283479 L14.870549,21.6283479 L15.0177822,21.7754795 L15.1650153,22.364006 L14.5760827,22.364006 L14.2816164,22.364006 L14.2816164,22.6582692 L14.4288495,22.9525325 L14.5760827,23.0996641 L15.0177822,23.0996641 L15.3122485,23.0996641 L15.3122485,23.3939273 L15.3122485,23.6881906 L15.3122485,23.8353222 L15.3122485,23.8353222 Z M13.9871501,30.8976399 L13.1037511,29.5734553 L12.956518,29.1320605 L12.8092848,28.9849288 L12.3675853,28.3964024 L11.7786527,27.6607443 L12.073119,27.6607443 L12.956518,27.6607443 L13.2509843,27.6607443 L13.2509843,27.6607443 L13.6926837,28.1021391 L13.8399169,28.3964024 L13.9871501,28.8377972 L13.9871501,30.8976399 L13.9871501,30.8976399 Z M10.8952537,14.8602935 L10.6007874,14.5660302 L10.3063211,14.4188986 L8.83398951,14.4188986 L8.68675635,14.4188986 L8.68675635,13.8303721 L8.83398951,13.8303721 L8.83398951,13.8303721 L10.6007874,14.1246354 L10.7480206,14.1246354 L11.3369532,14.1246354 L11.9258858,14.1246354 L12.2203522,14.5660302 L12.3675853,14.7131618 L12.6620516,14.8602935 L12.8092848,15.3016883 L12.8092848,15.4488199 L12.956518,15.8902148 L12.956518,16.0373464 L12.956518,16.184478 L12.956518,16.184478 L12.6620516,16.0373464 L12.2203522,15.7430832 L11.7786527,15.5959516 L11.4841864,15.3016883 L10.8952537,14.8602935 L10.8952537,14.8602935 L10.8952537,14.8602935 Z M10.1590879,22.364006 L9.57015531,22.5111376 L9.12845583,22.6582692 L8.83398951,22.6582692 L8.5395232,22.8054009 L8.09782372,23.0996641 L7.8033574,22.6582692 L7.50889109,22.5111376 L7.50889109,22.2168744 L7.50889109,22.0697428 L7.95059056,22.0697428 L8.68675635,22.0697428 L8.83398951,22.0697428 L9.57015531,22.0697428 L10.0118548,22.0697428 L10.1590879,22.2168744 L10.1590879,22.364006 L10.1590879,22.364006 L10.1590879,22.364006 Z M6.91995845,16.0373464 L6.77272529,16.0373464 L6.62549213,16.0373464 L6.33102582,16.0373464 L5.30039371,15.1545567 L5.74209318,15.0074251 L6.77272529,14.4188986 L6.91995845,14.271767 L7.06719161,14.1246354 L7.36165793,13.9775038 L7.95059056,13.9775038 L7.95059056,14.1246354 L8.09782372,14.5660302 L8.09782372,15.1545567 L7.65612424,15.5959516 L6.91995845,16.0373464 L6.91995845,16.0373464 Z M11.18972,7.06231768 L11.3369532,6.76805445 L11.4841864,6.32665959 L11.6314195,5.88526474 L12.5148185,6.03239636 L12.8092848,6.03239636 L12.8092848,6.03239636 L13.1037511,5.88526474 L13.1037511,5.88526474 L13.3982174,5.73813312 L13.5454506,5.5910015 L13.8399169,5.29673826 L13.8399169,5.44386988 L13.8399169,5.5910015 L13.9871501,5.5910015 L13.9871501,5.73813312 L13.9871501,6.17952797 L14.1343832,6.62092283 L14.4288495,6.91518607 L14.7233159,7.06231768 L14.870549,7.35658092 L15.0177822,7.50371254 L15.3122485,7.79797578 L15.3122485,7.9451074 L15.3122485,8.09223901 L15.0177822,8.09223901 L15.0177822,8.09223901 L14.870549,8.23937063 L14.870549,8.09223901 L14.7233159,8.09223901 L14.5760827,8.09223901 L14.5760827,8.09223901 L13.8399169,7.65084416 L13.1037511,7.35658092 L12.956518,7.35658092 L12.8092848,7.35658092 L12.2203522,7.2094493 L11.4841864,7.2094493 L10.8952537,7.2094493 L11.18972,7.06231768 L11.18972,7.06231768 Z M17.2262795,15.8902148 L17.2262795,15.8902148 L17.2262795,16.3316096 L16.3428806,16.3316096 L15.753948,16.3316096 L15.753948,16.3316096 L15.3122485,16.3316096 L14.5760827,16.3316096 L14.2816164,16.4787413 L14.1343832,16.4787413 L13.9871501,16.4787413 L13.9871501,16.3316096 L14.1343832,15.8902148 L14.5760827,15.5959516 L15.0177822,15.5959516 L15.3122485,15.7430832 L15.6067148,15.7430832 L15.753948,15.7430832 L16.4901138,15.7430832 L17.2262795,15.8902148 L17.2262795,15.8902148 L17.2262795,15.8902148 Z M17.5207459,10.4463449 L17.5207459,10.4463449 L17.3735127,10.8877398 L16.3428806,10.8877398 L15.6067148,10.8877398 L15.1650153,10.8877398 L15.0177822,10.8877398 L14.870549,10.8877398 L14.5760827,11.182003 L14.1343832,11.7705295 L13.9871501,12.0647927 L13.9871501,12.5061876 L14.1343832,12.8004508 L14.2816164,13.094714 L14.5760827,13.094714 L14.870549,13.094714 L15.0177822,13.2418457 L15.0177822,13.2418457 L15.1650153,13.3889773 L15.1650153,13.6832405 L15.1650153,13.9775038 L15.1650153,14.1246354 L15.0177822,14.271767 L15.0177822,14.271767 L14.870549,14.271767 L14.5760827,14.271767 L13.8399169,14.4188986 L13.8399169,14.5660302 L13.8399169,15.0074251 L13.8399169,15.3016883 L13.8399169,15.4488199 L13.5454506,15.5959516 L13.1037511,15.4488199 L13.1037511,15.3016883 L12.956518,14.8602935 L12.8092848,14.7131618 L12.8092848,14.7131618 L12.8092848,14.4188986 L12.8092848,13.6832405 L12.956518,13.6832405 L12.956518,11.9176611 L12.8092848,11.6233979 L12.6620516,11.182003 L12.6620516,11.0348714 L12.8092848,11.0348714 L12.8092848,10.8877398 L12.956518,10.7406081 L13.1037511,10.7406081 L13.3982174,10.5934765 L15.0177822,10.5934765 L15.1650153,10.5934765 L15.1650153,8.97502872 L15.1650153,8.82789711 L15.1650153,8.82789711 L15.4594816,8.53363387 L15.6067148,8.38650225 L15.753948,8.38650225 L15.9011811,8.23937063 L16.0484143,8.23937063 L16.0484143,8.38650225 L16.0484143,8.68076549 L16.1956474,9.12216034 L16.1956474,9.26929196 L16.3428806,9.41642358 L16.6373469,9.5635552 L16.9318132,9.71068682 L17.0790464,9.85781844 L17.2262795,10.0049501 L17.2262795,10.0049501 L17.2262795,10.4463449 L17.5207459,10.4463449 L17.5207459,10.4463449 Z M14.2816164,5.00247503 L14.2816164,5.00247503 L14.4288495,4.85534341 L14.5760827,4.41394855 L14.870549,4.11968532 L15.1650153,4.11968532 L15.1650153,4.11968532 L15.6067148,4.11968532 L16.3428806,4.11968532 L16.9318132,4.11968532 L18.4041448,3.82542208 L18.4041448,4.26681693 L17.9624453,4.56108017 L17.667979,4.70821179 L17.3735127,4.70821179 L16.4901138,4.70821179 L16.3428806,4.70821179 L15.6067148,4.70821179 L15.1650153,4.70821179 L14.7233159,4.85534341 L14.4288495,5.14960665 L14.2816164,5.00247503 L14.2816164,5.00247503 L14.2816164,5.00247503 Z M19.1403106,10.1520817 L19.2875438,10.1520817 L20.465409,10.1520817 L20.7598754,10.1520817 L20.9071085,10.1520817 L20.9071085,10.2992133 L20.3181759,11.182003 L20.1709427,11.182003 L19.7292432,11.0348714 L19.5820101,11.0348714 L19.2875438,11.0348714 L18.6986111,11.0348714 L18.2569117,10.8877398 L18.2569117,10.8877398 L18.2569117,10.8877398 L18.2569117,10.2992133 L19.1403106,10.1520817 L19.1403106,10.1520817 Z M20.9071085,16.6258729 L20.7598754,16.7730045 L20.3181759,16.7730045 L20.0237096,17.2143994 L19.5820101,17.5086626 L19.1403106,17.9500574 L18.6986111,18.2443207 L18.2569117,18.0971891 L17.9624453,17.9500574 L17.5207459,17.9500574 L17.3735127,17.9500574 L17.3735127,17.6557942 L17.3735127,17.5086626 L17.5207459,17.5086626 L17.9624453,17.361531 L18.1096785,17.2143994 L18.1096785,17.0672677 L18.1096785,16.9201361 L18.1096785,16.4787413 L17.3735127,16.3316096 L17.3735127,16.0373464 L17.5207459,15.8902148 L18.1096785,15.8902148 L18.9930775,16.0373464 L19.1403106,16.0373464 L19.4347769,16.0373464 L19.8764764,16.184478 L20.9071085,16.6258729 L20.9071085,16.6258729 Z M31.9495954,13.2418457 L31.3606628,12.8004508 L30.9189633,12.3590559 L30.9189633,12.0647927 L30.7717301,11.7705295 L30.3300307,11.3291346 L29.741098,10.7406081 L28.8576991,10.5934765 L28.1215333,10.5934765 L27.3853675,10.7406081 L26.6492017,11.0348714 L26.0602691,11.182003 L25.4713364,11.6233979 L23.9990048,11.6233979 L23.4100722,11.6233979 L22.8211396,11.182003 L22.2322069,10.8877398 L21.6432743,10.7406081 L21.0543417,10.7406081 L20.9071085,10.7406081 L21.2015748,10.4463449 L21.348808,10.2992133 L21.6432743,10.1520817 L22.0849738,10.1520817 L22.5266733,10.1520817 L22.8211396,10.2992133 L23.1156059,10.7406081 L23.5573054,11.182003 L23.9990048,11.3291346 L25.4713364,11.3291346 L25.9130359,11.182003 L26.3547354,11.0348714 L26.7964349,10.7406081 L27.2381343,10.5934765 L27.9743001,9.85781844 L28.7104659,9.41642358 L29.1521654,9.12216034 L29.741098,8.82789711 L29.741098,8.23937063 L29.741098,8.09223901 L29.4466317,7.9451074 L29.1521654,7.79797578 L29.1521654,7.35658092 L29.1521654,6.91518607 L29.2993986,6.47379121 L29.2993986,6.17952797 L29.1521654,5.88526474 L28.7104659,5.14960665 L28.1215333,4.56108017 L27.3853675,4.11968532 L26.5019685,3.9725537 L25.1768701,3.9725537 L24.5879375,4.11968532 L23.2628391,4.11968532 L22.9683727,4.11968532 L22.9683727,4.11968532 L22.6739064,4.11968532 L22.3794401,3.9725537 L21.9377406,3.67829046 L20.6126422,3.38402722 L20.0237096,3.38402722 L19.4347769,3.38402722 L19.2875438,3.38402722 L19.2875438,2.94263237 L19.2875438,2.79550075 L19.2875438,2.64836913 L19.2875438,2.50123751 L19.1403106,2.20697428 L18.551378,1.76557942 L17.2262795,1.02992133 L16.4901138,0.882789711 L16.4901138,0.882789711 L15.9011811,0.588526474 L15.9011811,0.588526474 L15.4594816,0.588526474 L15.0177822,0.588526474 L13.8399169,0.588526474 L13.3982174,0.882789711 L13.1037511,1.02992133 L12.5148185,1.32418457 L11.7786527,1.76557942 L11.18972,2.35410589 L11.0424869,2.35410589 L10.1590879,2.79550075 L9.12845583,3.23689561 L8.98122267,3.23689561 L8.39229004,3.23689561 L8.09782372,3.38402722 L8.24505688,3.67829046 L8.68675635,3.82542208 L9.12845583,3.82542208 L9.86462162,3.82542208 L10.0118548,4.11968532 L10.1590879,4.26681693 L10.6007874,4.56108017 L11.0424869,5.00247503 L11.18972,5.29673826 L11.4841864,5.5910015 L11.18972,6.47379121 L11.18972,6.62092283 L11.18972,6.91518607 L10.7480206,6.32665959 L10.4535543,5.5910015 L10.0118548,5.00247503 L9.27568899,4.70821179 L9.12845583,4.70821179 L8.39229004,4.56108017 L7.8033574,4.70821179 L7.36165793,5.00247503 L7.06719161,5.14960665 L6.91995845,5.44386988 L6.91995845,5.88526474 L6.91995845,6.32665959 L6.91995845,6.76805445 L6.91995845,7.06231768 L6.62549213,7.35658092 L6.18379266,7.65084416 L5.30039371,8.09223901 L4.41699476,8.53363387 L3.82806212,8.97502872 L3.23912949,9.5635552 L2.79743001,10.1520817 L2.5029637,10.7406081 L2.5029637,11.3291346 L2.65019685,11.9176611 L3.09189633,12.5061876 L3.97529528,12.9475824 L3.82806212,13.8303721 L3.82806212,14.271767 L3.82806212,14.5660302 L4.12252844,14.8602935 L4.56422791,14.8602935 L5.30039371,14.8602935 L6.18379266,15.7430832 L6.18379266,15.8902148 L6.18379266,15.8902148 L6.0365595,15.8902148 L4.2697616,15.8902148 L3.23912949,16.184478 L2.35573054,16.6258729 L1.7667979,17.2143994 L1.61956474,17.5086626 L1.47233159,17.9500574 L1.47233159,18.5385839 L1.47233159,19.1271104 L1.61956474,19.5685053 L2.20849738,20.1570317 L2.79743001,20.3041633 L3.38636265,20.5984266 L4.41699476,21.6283479 L4.85869423,22.0697428 L5.30039371,22.2168744 L6.91995845,22.2168744 L7.21442477,22.364006 L7.21442477,22.364006 L7.36165793,22.5111376 L7.8033574,23.0996641 L7.95059056,23.0996641 L7.8033574,23.3939273 L7.50889109,23.8353222 L7.50889109,24.4238487 L7.8033574,25.0123751 L8.5395232,25.6009016 L8.98122267,25.8951648 L9.42292215,26.0422965 L9.57015531,26.0422965 L10.8952537,26.6308229 L11.18972,26.6308229 L11.4841864,27.0722178 L12.073119,27.9550075 L12.956518,29.4263237 L13.3982174,30.3091134 L13.6926837,30.7505083 L13.8399169,30.8976399 L14.2816164,31.633298 L14.5760827,32.5160877 L14.5760827,35.9001149 L14.4288495,39.4312737 L14.2816164,42.6681693 L13.9871501,45.7579333 L13.8399169,49.5833554 L13.8399169,51.3489348 L13.8399169,52.6731194 L13.8399169,53.4087775 L13.5454506,56.0571466 L13.1037511,58.5583841 L12.8092848,59.4411738 L12.5148185,60.3239636 L12.073119,61.0596217 L11.6314195,61.5010165 L11.4841864,61.7952797 L11.4841864,61.7952797 L11.4841864,61.7952797 L11.0424869,62.089543 L10.3063211,62.5309378 L9.42292215,62.9723327 L8.68675635,63.4137275 L7.95059056,63.8551224 L8.68675635,63.8551224 L9.42292215,63.8551224 L11.4841864,63.8551224 L11.4841864,63.8551224 L13.3982174,63.8551224 L13.6926837,63.8551224 L13.6926837,63.8551224 L15.753948,63.8551224 L16.1956474,63.8551224 L16.1956474,63.8551224 L16.7845801,63.8551224 L19.7292432,63.8551224 L20.7598754,63.8551224 L20.7598754,63.8551224 L19.8764764,63.2665959 L19.7292432,63.1194643 L19.1403106,62.6780695 L17.9624453,61.7952797 L17.5207459,61.3538849 L17.0790464,60.7653584 L16.7845801,60.3239636 L16.4901138,59.7354371 L16.1956474,58.8526474 L16.1956474,58.5583841 L16.1956474,58.1169893 L16.1956474,58.1169893 L16.1956474,58.1169893 L16.1956474,57.2341996 L16.3428806,45.3165385 L16.3428806,39.4312737 L16.1956474,33.546009 L16.1956474,33.1046141 L16.4901138,32.9574825 L16.9318132,32.5160877 L17.3735127,31.7804296 L17.8152122,30.6033766 L18.2569117,29.8677185 L18.6986111,29.1320605 L19.5820101,27.8078759 L19.8764764,27.366481 L20.3181759,26.4836913 L20.9071085,25.45377 L21.4960411,25.3066384 L22.2322069,25.3066384 L24.4407043,24.5709803 L25.1768701,24.276717 L25.6185696,23.9824538 L25.9130359,23.5410589 L26.2075022,23.0996641 L26.2075022,22.5111376 L26.2075022,21.9226111 L25.7658027,21.4812163 L25.6185696,21.0398214 L25.4713364,20.5984266 L25.4713364,20.1570317 L25.6185696,19.8627685 L25.7658027,19.7156369 L26.5019685,19.7156369 L27.6798338,19.7156369 L28.5632328,19.5685053 L29.1521654,19.4213736 L29.2993986,19.274242 L29.2993986,19.1271104 L29.1521654,18.8328472 L28.7104659,18.6857155 L26.943668,18.3914523 L25.9130359,18.2443207 L24.8824038,18.2443207 L24.7351706,18.2443207 L24.5879375,18.0971891 L24.7351706,17.8029258 L24.8824038,17.5086626 L25.6185696,17.5086626 L26.3547354,17.361531 L27.2381343,16.9201361 L28.1215333,16.6258729 L29.1521654,16.6258729 L30.1827975,16.3316096 L30.4772638,16.184478 L30.4772638,16.0373464 L31.2134296,14.8602935 L31.5078959,14.271767 L31.8023622,13.8303721 L32.538528,13.094714 L32.538528,12.6533192 L31.9495954,13.2418457 L31.9495954,13.2418457 L31.9495954,13.2418457 Z" id="Shape" fill="#FFFFFF" fill-rule="nonzero"></path>
                            <path d="M34.1580928,51.0546716 L33.5691601,52.6731194 C32.9802275,52.2317245 32.0968286,52.0845929 30.7717301,52.0845929 C29.5938649,52.0845929 28.7104659,52.5259878 27.9743001,53.5559091 C27.2381343,54.5858304 26.943668,55.910015 26.943668,57.3813312 C26.943668,58.8526474 27.2381343,60.1768319 27.9743001,61.0596217 C28.7104659,61.9424114 29.5938649,62.5309378 30.7717301,62.5309378 C31.9495954,62.5309378 32.9802275,62.089543 33.7163933,61.2067533 L34.7470254,62.5309378 C33.7163933,63.5608592 32.3912949,64.1493856 30.624497,64.1493856 C28.8576991,64.1493856 27.5326006,63.5608592 26.5019685,62.2366746 C25.4713364,60.91249 25.029637,59.2940422 25.029637,57.2341996 C25.029637,55.1743569 25.6185696,53.5559091 26.6492017,52.2317245 C27.6798338,50.90754 29.1521654,50.3190135 30.7717301,50.3190135 C32.2440617,50.3190135 33.421927,50.6132767 34.1580928,51.0546716 L34.1580928,51.0546716 Z" id="Shape" fill="#FFFFFF" fill-rule="nonzero"></path>
                            <polygon id="Shape" fill="#FFFFFF" fill-rule="nonzero" points="37.102756 63.8551224 37.102756 50.4661451 39.016787 50.4661451 39.016787 63.8551224"></polygon>
                            <polygon id="Shape" fill="#FFFFFF" fill-rule="nonzero" points="43.8754812 52.2317245 43.8754812 55.910015 48.4397092 55.910015 48.4397092 57.3813312 43.8754812 57.3813312 43.8754812 63.8551224 41.9614502 63.8551224 41.9614502 50.4661451 50.2065071 50.4661451 50.2065071 52.2317245"></polygon>
                            <path d="M53.0039371,57.087068 C53.0039371,58.5583841 53.2984034,59.8825687 53.887336,60.91249 C54.4762687,61.9424114 55.3596676,62.3838062 56.3902997,62.3838062 C57.568165,62.3838062 58.5987971,61.9424114 59.1877297,60.91249 C59.7766624,59.8825687 60.2183618,58.7055158 60.2183618,56.9399363 C60.2183618,53.5559091 58.8932634,51.7903297 56.3902997,51.7903297 C55.2124345,51.7903297 54.4762687,52.2317245 53.887336,53.1145143 C53.2984034,54.2915672 53.0039371,55.4686202 53.0039371,57.087068 L53.0039371,57.087068 Z M51.089906,57.087068 C51.089906,55.1743569 51.5316055,53.5559091 52.5622376,52.2317245 C53.5928697,50.90754 54.770735,50.3190135 56.5375329,50.3190135 C58.4515639,50.3190135 59.7766624,50.90754 60.8072945,52.0845929 C61.8379266,53.2616459 62.2796261,54.8800937 62.2796261,57.087068 C62.2796261,59.2940422 61.8379266,61.0596217 60.8072945,62.2366746 C59.7766624,63.4137275 58.4515639,64.1493856 56.5375329,64.1493856 C54.9179681,64.1493856 53.5928697,63.5608592 52.5622376,62.2366746 C51.6788386,60.7653584 51.089906,59.1469106 51.089906,57.087068 L51.089906,57.087068 Z" id="Shape" fill="#FFFFFF" fill-rule="nonzero"></path>
                            <path d="M66.2549213,52.2317245 L66.2549213,56.4985415 C66.6966208,56.4985415 67.1383203,56.6456731 67.5800198,56.6456731 C68.6106519,56.6456731 69.4940508,56.4985415 69.9357503,56.0571466 C70.3774498,55.7628834 70.6719161,55.0272253 70.6719161,54.1444356 C70.6719161,53.4087775 70.3774498,52.820251 69.9357503,52.5259878 C69.3468177,52.2317245 68.6106519,52.0845929 67.4327866,52.0845929 C67.1383203,52.0845929 66.6966208,52.0845929 66.2549213,52.2317245 L66.2549213,52.2317245 Z M71.7025482,63.8551224 L68.1689524,58.1169893 C67.7272529,58.1169893 67.1383203,58.1169893 66.2549213,57.9698577 L66.2549213,63.7079908 L64.4881234,63.7079908 L64.4881234,50.3190135 C64.4881234,50.3190135 65.0770561,50.3190135 65.960455,50.3190135 C66.843854,50.3190135 67.4327866,50.3190135 67.8744861,50.3190135 C71.1136156,50.3190135 72.7331803,51.6431981 72.7331803,54.1444356 C72.7331803,55.0272253 72.438714,55.7628834 71.9970145,56.3514099 C71.5553151,57.087068 70.8191493,57.3813312 70.2302166,57.5284628 L74.0582787,63.7079908 L71.7025482,63.7079908 L71.7025482,63.8551224 Z" id="Shape" fill="#FFFFFF" fill-rule="nonzero"></path>
                        </g>
                    </g>
                </g>
            </g>
        </g>
    </g>
</svg>