<?xml version="1.0"?>
<svg xmlns="http://www.w3.org/2000/svg" id="Capa_1" enable-background="new 0 0 512 512" height="512px" viewBox="0 0 512 512" width="512px" class=""><g><g><g><path d="m493.578 454.5 16.994-36.113c2.187-4.646 1.844-10.088-.907-14.424s-7.53-6.963-12.665-6.963h-33.5v55c0 24.813-20.187 45-45 45h-26.5c0 8.284 6.716 15 15 15h90c5.135 0 9.914-2.627 12.665-6.963s3.094-9.777.907-14.424z" data-original="#000000" class="active-path" data-old_color="#000000" fill="#FFFFFF"/><path d="m48.5 452v-55h-33.5c-5.135 0-9.914 2.627-12.665 6.963s-3.094 9.777-.907 14.424l16.994 36.113-16.994 36.113c-2.187 4.646-1.844 10.088.907 14.424s7.53 6.963 12.665 6.963h90c8.284 0 15-6.716 15-15h-26.5c-24.813 0-45-20.187-45-45z" data-original="#000000" class="active-path" data-old_color="#000000" fill="#FFFFFF"/></g><g><path d="m416 60c-48.364 0-96.309-15.981-135-45l-16-12c-5.333-4-12.667-4-18 0l-16 12c-38.691 29.019-86.636 45-135 45-8.284 0-15 6.716-15 15v85.357c0 112.051 66.332 213.473 168.988 258.385 1.917.839 3.964 1.258 6.012 1.258s4.096-.419 6.012-1.258c102.656-44.912 168.988-146.334 168.988-258.385v-85.357c0-8.284-6.716-15-15-15zm-59.53 135.535-39.353 38.359 9.29 54.164c.965 5.628-1.348 11.315-5.967 14.671-2.613 1.899-5.708 2.865-8.818 2.865-2.388 0-4.784-.569-6.979-1.723l-48.643-25.572-48.643 25.573c-5.053 2.656-11.177 2.214-15.797-1.143-4.619-3.355-6.933-9.043-5.967-14.671l9.29-54.164-39.353-38.359c-4.088-3.985-5.56-9.946-3.796-15.376 1.765-5.431 6.459-9.389 12.109-10.209l54.385-7.903 24.321-49.28c2.527-5.12 7.742-8.361 13.451-8.361s10.924 3.241 13.451 8.361l24.321 49.28 54.385 7.903c5.65.82 10.344 4.778 12.109 10.209 1.764 5.43.293 11.391-3.796 15.376z" data-original="#000000" class="active-path" data-old_color="#000000" fill="#FFFFFF"/><path d="m270.36 182.396-14.36-29.098-14.36 29.098c-2.185 4.427-6.409 7.495-11.294 8.205l-32.112 4.667 23.236 22.649c3.535 3.446 5.148 8.411 4.314 13.277l-5.485 31.98 28.721-15.1c2.185-1.148 4.583-1.723 6.98-1.723s4.795.574 6.98 1.723l28.721 15.1-5.485-31.98c-.834-4.866.779-9.831 4.314-13.277l23.236-22.649-32.112-4.667c-4.885-.71-9.109-3.779-11.294-8.205z" data-original="#000000" class="active-path" data-old_color="#000000" fill="#FFFFFF"/></g><g><g><path d="m274.037 446.227c-5.718 2.502-11.788 3.773-18.037 3.773s-12.319-1.271-18.042-3.775c-48.624-21.273-89.873-54.014-121.16-94.225h-23.298c-8.284 0-15 6.716-15 15v85c0 8.284 6.716 15 15 15h325c8.284 0 15-6.716 15-15v-85c0-8.284-6.716-15-15-15h-23.299c-31.288 40.211-72.538 72.953-121.164 94.227z" data-original="#000000" class="active-path" data-old_color="#000000" fill="#FFFFFF"/></g></g></g></g> </svg>
