<?xml version="1.0" encoding="UTF-8"?>
<svg width="21px" height="19px" viewBox="0 0 21 19" version="1.1" xmlns="http://www.w3.org/2000/svg" xmlns:xlink="http://www.w3.org/1999/xlink">
    <!-- Generator: Sketch 53 (72520) - https://sketchapp.com -->
    <title>Group</title>
    <desc>Created with Sketch.</desc>
    <g id="Symbols" stroke="none" stroke-width="1" fill="none" fill-rule="evenodd">
        <g id="icon/podcast" transform="translate(-7.000000, -8.000000)" fill="#FFFFFF">
            <g id="Group-11">
                <g id="Group" transform="translate(7.804869, 8.632587)">
                    <path d="M12.759613,9.41363302 C12.759613,11.1118943 11.3878017,12.4882363 9.69513057,12.4882363 C8.0027314,12.4882363 6.63037621,11.1118943 6.63037621,9.41363302 C6.63037621,7.7153717 8.0027314,6.33875698 9.69513057,6.33875698 C11.3878017,6.33875698 12.759613,7.7153717 12.759613,9.41363302" id="Fill-1"></path>
                    <path d="M4.9164334,16.2443703 L3.94854057,17.562079 C1.48518947,15.7407095 0.000289155467,12.8569164 -1.0658141e-13,9.72687698 C-1.0658141e-13,4.35472618 4.34057519,0 9.69513057,0 C15.049686,0 19.3902611,4.35472618 19.3902611,9.72687698 C19.3902611,12.9625238 17.8033714,15.9303853 15.2001105,17.7348251 L14.2727602,16.3880874 C16.4396548,14.886113 17.7587709,12.4190521 17.7587709,9.72687698 C17.7587709,5.25876465 14.1486542,1.63687838 9.69513057,1.63687838 C5.2416069,1.63687838 1.63149021,5.25876465 1.63149021,9.72680112 C1.63173081,12.3312198 2.86603254,14.7283308 4.9164334,16.2443703 Z" id="Stroke-3" fill-rule="nonzero"></path>
                    <path d="M6.48233,13.6757261 L5.47622132,14.9642985 C3.82992403,13.6703762 2.84817403,11.6924923 2.84817403,9.55369525 C2.84817403,5.75972373 5.91378377,2.68398949 9.69526653,2.68398949 C13.4765251,2.68398949 16.5420871,5.75977162 16.5420871,9.55369525 C16.5420871,11.7870499 15.471518,13.8417535 13.7016446,15.1247301 L12.7461713,13.7979288 C14.0959003,12.8195138 14.9105969,11.2558968 14.9105969,9.55369525 C14.9105969,6.66378318 12.5754666,4.32086787 9.69526653,4.32086787 C6.81483093,4.32086787 4.47966424,6.6637467 4.47966424,9.55369525 C4.47966424,11.1838889 5.22665671,12.6888182 6.48233,13.6757261 Z" id="Stroke-5" fill-rule="nonzero"></path>
                </g>
            </g>
        </g>
    </g>
</svg>