<?xml version="1.0" encoding="UTF-8"?>
<svg width="17px" height="21px" viewBox="0 0 17 21" version="1.1" xmlns="http://www.w3.org/2000/svg" xmlns:xlink="http://www.w3.org/1999/xlink">
    <!-- Generator: Sketch 55.2 (78181) - https://sketchapp.com -->
    <title>presentationd</title>
    <desc>Created with Sketch.</desc>
    <g id="Symbols" stroke="none" stroke-width="1" fill="none" fill-rule="evenodd">
        <g id="icon/powerpoint" transform="translate(-9.000000, -7.000000)" fill="#FFFFFF" fill-rule="nonzero">
            <g id="presentationd" transform="translate(9.000000, 7.000000)">
                <path d="M6.05298218,16.1059719 L7.00186839,16.1059719 L5.75617417,19.8453031 C5.69321489,20.0341809 5.51782834,20.1533539 5.32895052,20.1533539 C5.28173106,20.1533539 5.2345116,20.1466082 5.18729215,20.1308684 C4.95119487,20.0521693 4.82302777,19.7980837 4.90172687,19.5619864 L6.05298218,16.1059719 Z M11.3505554,16.1059719 L10.4016692,16.1059719 L11.6473635,19.8453031 C11.7103227,20.0341809 11.8857093,20.1533539 12.0745871,20.1533539 C12.1218066,20.1533539 12.169026,20.1466082 12.2162455,20.1308684 C12.4523428,20.0521693 12.5805099,19.7980837 12.5018108,19.5619864 L11.3505554,16.1059719 Z M16.5716782,2.61469872 C16.5716782,2.86203873 16.3693091,3.06440783 16.1219691,3.06440783 L14.3231326,3.06440783 L14.3231326,15.2065537 L3.08040499,15.2065537 L3.08040499,3.06440783 L1.28156856,3.06440783 C1.03422855,3.06440783 0.831859454,2.86203873 0.831859454,2.61469872 C0.831859454,2.36735871 1.03422855,2.16498961 1.28156856,2.16498961 L8.02720515,2.16498961 L8.02720515,1.49042596 C8.02720515,1.11941594 8.3307588,0.815862296 8.70176881,0.815862296 C9.07277883,0.815862296 9.37633247,1.11941594 9.37633247,1.49042596 L9.37633247,2.16498961 L16.1219691,2.16498961 C16.3693091,2.16498961 16.5716782,2.36735871 16.5716782,2.61469872 Z M12.9740053,7.1027956 C12.9717568,7.08705578 12.9695082,7.06906742 12.9672597,7.0533276 C12.9672597,7.03983633 12.9650111,7.02634505 12.9627626,7.01510233 C12.960514,6.99936251 12.9537684,6.98587123 12.9492713,6.97237996 C12.9447742,6.95888869 12.9425257,6.94539741 12.93578,6.93190614 C12.931283,6.91841487 12.9222888,6.90717214 12.9155431,6.89592941 C12.9087975,6.88243814 12.9020519,6.86894687 12.8930577,6.85545559 C12.886312,6.84421286 12.8773179,6.83521868 12.8683237,6.8262245 C12.857081,6.81273323 12.8480868,6.79924195 12.8345955,6.78799923 C12.832347,6.78575068 12.832347,6.78350214 12.8300984,6.78125359 C12.8211042,6.77450795 12.81211,6.77001086 12.8053644,6.76326523 C12.7918731,6.7520225 12.7783819,6.74302832 12.7648906,6.73403413 C12.7536479,6.72503995 12.7401566,6.71829432 12.7266653,6.71379722 C12.7154226,6.70705159 12.7019313,6.70030595 12.68844,6.69356031 C12.6727002,6.68906322 12.6592089,6.68456613 12.6434691,6.68006904 C12.6299779,6.67557195 12.6187351,6.6733234 12.6029953,6.67107486 C12.5872555,6.66657777 12.5715157,6.66657777 12.5535273,6.66432922 C12.5445331,6.66432922 12.5332904,6.66208068 12.5242962,6.66208068 L10.2757507,6.66208068 C10.0284107,6.66208068 9.82604158,6.86444977 9.82604158,7.11178978 C9.82604158,7.35912979 10.0284107,7.56149889 10.2757507,7.56149889 L11.4967109,7.56149889 L9.7630823,9.44128295 L7.83607878,8.09215563 C7.83383024,8.09215563 7.83158169,8.08990709 7.82933315,8.08990709 C7.81584187,8.08091291 7.80010205,8.07191872 7.78661078,8.06517309 C7.77536805,8.05842745 7.76412533,8.05168182 7.75063405,8.04718472 C7.73714278,8.04043909 7.72365151,8.03819054 7.71016023,8.03369345 C7.69442041,8.02919636 7.68092914,8.02245072 7.66743787,8.02020218 C7.6539466,8.01795363 7.64270387,8.01795363 7.62921259,8.01570509 C7.61347278,8.01345654 7.59773296,8.011208 7.57974459,8.011208 C7.56850187,8.011208 7.55501059,8.01345654 7.54151932,8.01570509 C7.5257795,8.01570509 7.51003968,8.01570509 7.49429986,8.01795363 C7.48080859,8.02245072 7.46956586,8.02694781 7.45607459,8.02919636 C7.44033477,8.03369345 7.4268435,8.03819054 7.41335222,8.04268763 C7.39986095,8.04718472 7.38861822,8.05393036 7.3773755,8.060676 C7.36388422,8.06742163 7.3481444,8.07416727 7.33465313,8.08316145 C7.3234104,8.08990709 7.31666477,8.09665273 7.30767058,8.10339836 C7.29193076,8.11464109 7.27619095,8.12588382 7.26269967,8.13937509 C7.26269967,8.14162364 7.26045113,8.14162364 7.26045113,8.14387218 L4.56219649,10.8421268 C4.38456139,11.0175134 4.38456139,11.3008301 4.56219649,11.4762167 C4.64988977,11.5639099 4.76456559,11.6088808 4.87924141,11.6088808 C4.99391723,11.6088808 5.10859305,11.5639099 5.19628633,11.4762167 L7.62921259,9.04553894 L9.56745884,10.4036604 C9.56970739,10.405909 9.57420448,10.405909 9.57645302,10.4081575 C9.61018121,10.430643 9.64615794,10.4486314 9.68438321,10.4598741 C9.69112885,10.4621226 9.70012303,10.4643712 9.70686867,10.4666197 C9.74509394,10.4778624 9.78556776,10.4846081 9.82604158,10.4846081 C9.85976976,10.4846081 9.8912494,10.480111 9.92497758,10.4733654 C9.93397176,10.4711168 9.94296595,10.4666197 9.95420867,10.4643712 C9.97669413,10.4576255 9.99693104,10.4508799 10.0171679,10.4396372 C10.0284107,10.4351401 10.0396534,10.4283944 10.0508961,10.4216488 C10.0688845,10.4104061 10.0868729,10.3991633 10.1026127,10.3879206 C10.1138554,10.3789264 10.1250981,10.3699323 10.1340923,10.3586895 C10.140838,10.3519439 10.1498321,10.3474468 10.1565778,10.3407012 L12.0745871,8.2630451 L12.0745871,9.36033531 C12.0745871,9.60767532 12.2769562,9.81004442 12.5242962,9.81004442 C12.7716362,9.81004442 12.9740053,9.60767532 12.9740053,9.36033531 L12.9740053,7.1027956 Z" id="Shape"></path>
            </g>
        </g>
    </g>
</svg>