<?xml version="1.0"?>
<svg xmlns="http://www.w3.org/2000/svg" id="Capa_1" enable-background="new 0 0 512 512" height="512px" viewBox="0 0 512 512" width="512px" class=""><g><path d="m241 167.26v-30.32c-54.2 6.78-97.28 49.86-104.06 104.06h30.32c6.33-37.63 36.11-67.41 73.74-73.74z" data-original="#000000" class="active-path" data-old_color="#000000" fill="#FFFFFF"/><path d="m196 256c0 27.9 19.15 51.42 45 58.1v-58.1h30v58.1c25.85-6.68 45-30.2 45-58.1 0-33.08-26.92-60-60-60s-60 26.92-60 60z" data-original="#000000" class="active-path" data-old_color="#000000" fill="#FFFFFF"/><path d="m256 346c-44.52 0-81.59-32.49-88.74-75h-30.32c7.4 59.12 57.97 105 119.06 105s111.66-45.88 119.06-105h-30.32c-7.15 42.51-44.22 75-88.74 75z" data-original="#000000" class="active-path" data-old_color="#000000" fill="#FFFFFF"/><path d="m512 297.77v-83.54l-53.41-13.09c-4.69-17.29-11.61-33.89-20.63-49.54l27.85-46.42-58.99-58.99-46.42 27.85c-15.65-9.02-32.25-15.94-49.54-20.63l-13.09-53.41h-83.54l-13.09 53.41c-17.29 4.69-33.89 11.61-49.54 20.63l-46.42-27.85-58.99 58.99 27.85 46.42c-9.02 15.65-15.94 32.25-20.63 49.54l-53.41 13.09v83.54l53.41 13.09c4.69 17.29 11.61 33.89 20.63 49.54l-27.85 46.42 58.99 58.99 46.42-27.85c15.65 9.02 32.25 15.94 49.54 20.63l13.09 53.41h83.54l13.09-53.41c17.29-4.69 33.89-11.61 49.54-20.63l46.42 27.85 58.99-58.99-27.85-46.42c9.02-15.65 15.94-32.25 20.63-49.54zm-256 108.23c-82.71 0-150-67.29-150-150s67.29-150 150-150 150 67.29 150 150-67.29 150-150 150z" data-original="#000000" class="active-path" data-old_color="#000000" fill="#FFFFFF"/><path d="m271 136.94v30.32c37.63 6.33 67.41 36.11 73.74 73.74h30.32c-6.78-54.2-49.86-97.28-104.06-104.06z" data-original="#000000" class="active-path" data-old_color="#000000" fill="#FFFFFF"/></g> </svg>
