<?xml version="1.0" encoding="UTF-8"?>
<svg width="59px" height="46px" viewBox="0 0 59 46" version="1.1" xmlns="http://www.w3.org/2000/svg" xmlns:xlink="http://www.w3.org/1999/xlink">
    <!-- Generator: Sketch 56.3 (81716) - https://sketch.com -->
    <title>icon_research_presentation</title>
    <desc>Created with Sketch.</desc>
    <g id="Page-1" stroke="none" stroke-width="1" fill="none" fill-rule="evenodd">
        <g id="icon_research_presentation">
            <path d="M56.0756367,4.55436279 C56.0756367,5.04672634 56.0756367,5.53908988 56.0756367,6.03145343 C56.0756367,7.33362544 56.0756367,8.64227591 56.0756367,9.94444792 C56.0756367,11.8167251 56.0756367,13.6825238 56.0756367,15.554801 C56.0756367,17.7121307 56.0756367,19.8694604 56.0756367,22.0267902 C56.0756367,24.2229907 56.0756367,26.4191913 56.0756367,28.6089134 C56.0756367,30.584846 56.0756367,32.5607787 56.0756367,34.5302328 C56.0756367,36.0332374 56.0756367,37.5362419 56.0756367,39.0327679 C56.0756367,39.7907486 56.0756367,40.5422509 56.0756367,41.3002316 C56.0756367,41.3455809 56.0756367,41.3844517 56.0756367,41.429801 C56.0756367,41.4945856 56.0756367,41.5528918 56.0691669,41.6176765 C56.0691669,41.6630258 56.062697,41.7083751 56.0562272,41.7537243 C56.0497574,41.915686 56.0821065,41.5852842 56.0756367,41.5852842 C56.0368177,41.6695043 56.0303479,41.7925951 56.0044686,41.8832937 C55.9785892,41.9675138 55.9462401,42.0452554 55.9268306,42.1294755 C55.8815418,42.2720018 55.9915289,41.9804707 55.9915289,41.9804707 C55.9656496,41.9999061 55.9268306,42.1165185 55.9138909,42.1359539 C55.875072,42.2136955 55.8297832,42.2849587 55.7844943,42.3562218 C55.7650848,42.3886142 55.7327357,42.427485 55.7133262,42.4598773 C55.6356882,42.6088821 55.9009513,42.2460879 55.7844943,42.3691788 C55.6680374,42.4922697 55.5580503,42.6153605 55.4286537,42.731973 C55.1957398,42.9457624 55.6227486,42.6153605 55.4221838,42.7384514 C55.338076,42.7902792 55.2539683,42.8485854 55.1698605,42.8939347 C55.1181018,42.9198485 54.8528388,43.0429394 55.072813,42.9522409 C55.2927872,42.8615423 55.0210544,42.9651978 54.9628259,42.9846332 C54.8787181,43.0105471 54.7946103,43.0299825 54.7105025,43.0494179 C54.387011,43.120681 54.9498862,43.0429394 54.7040327,43.0558963 C54.5940456,43.0623748 54.4840584,43.0688533 54.3740713,43.0688533 C53.8435452,43.0688533 53.3130192,43.0688533 52.7889629,43.0688533 C51.6438029,43.0688533 50.4921732,43.0688533 49.3470132,43.0688533 C47.7101461,43.0688533 46.0797489,43.0688533 44.4428818,43.0688533 C42.4760534,43.0688533 40.5156948,43.0688533 38.5488664,43.0688533 C36.3879431,43.0688533 34.2270198,43.0688533 32.0725663,43.0688533 C29.8598843,43.0688533 27.6407325,43.0688533 25.4280506,43.0688533 C23.2930066,43.0688533 21.1514927,43.0688533 19.0164487,43.0688533 C17.1143186,43.0688533 15.2186583,43.0688533 13.3165282,43.0688533 C11.7831784,43.0688533 10.2562985,43.0688533 8.72294871,43.0688533 C7.70071552,43.0688533 6.67848233,43.0688533 5.65624914,43.0688533 C5.26805933,43.0688533 4.87986951,43.0753317 4.49167969,43.0688533 C4.40110206,43.0688533 4.31052444,43.0558963 4.21994682,43.0558963 C4.05820106,43.0494179 4.3881624,43.0818102 4.3881624,43.0753317 C4.34934342,43.0623748 4.29758478,43.0558963 4.2587658,43.0494179 C4.174658,43.0299825 4.09055021,43.0105471 4.00644242,42.9846332 C3.96762343,42.9716763 3.92233462,42.9587193 3.88351564,42.9457624 C3.68942073,42.8809777 3.9611536,42.9587193 3.99350276,42.9975901 C3.95468377,42.9522409 3.81881734,42.9133701 3.76705869,42.8809777 C3.6829509,42.8356284 3.59884311,42.7643653 3.51473531,42.7254945 C3.39180854,42.6607098 3.63119226,42.816193 3.63766209,42.82915 C3.6182526,42.7967576 3.56649396,42.7708438 3.54061463,42.7449299 C3.4694465,42.6801452 3.39180854,42.6088821 3.32711023,42.5376189 C3.27535159,42.4857912 3.22359295,42.3821357 3.15889465,42.3432649 C3.17183431,42.3497434 3.31417057,42.5894467 3.26241193,42.4663558 C3.24300244,42.427485 3.21065329,42.3950926 3.1912438,42.3627003 C3.13948516,42.2784802 3.09419634,42.1877817 3.0424377,42.1035616 C2.88716177,41.8249875 3.107136,42.317351 3.03596787,42.0970831 C2.98420923,41.9415999 2.97126957,41.7407674 2.90010143,41.5917626 C2.90010143,41.5852842 2.93245059,41.915686 2.91951092,41.7602028 C2.91951092,41.7148535 2.91304109,41.6695043 2.90657126,41.624155 C2.90010143,41.5658488 2.90010143,41.5010641 2.90010143,41.4427579 C2.90010143,41.3067101 2.90010143,41.1641838 2.90010143,41.028136 C2.90010143,40.0822797 2.90010143,39.1364234 2.90010143,38.1905671 C2.90010143,36.5644717 2.90010143,34.9383763 2.90010143,33.3122809 C2.90010143,31.2650851 2.90010143,29.2178893 2.90010143,27.177172 C2.90010143,24.9550576 2.90010143,22.7394216 2.90010143,20.5173072 C2.90010143,18.4053267 2.90010143,16.2933463 2.90010143,14.1813658 C2.90010143,12.4257011 2.90010143,10.6635578 2.90010143,8.90789309 C2.90010143,7.76120431 2.90010143,6.61451552 2.90010143,5.46782674 C2.90010143,5.20220956 2.90010143,4.94307086 2.90010143,4.67745368 C2.90010143,4.63858287 2.90010143,4.59971207 2.90010143,4.56084126 C2.90010143,4.45718578 2.91304109,4.34705183 2.91951092,4.24339634 C2.92598075,4.08143465 2.8936316,4.4118365 2.90010143,4.4118365 C2.91951092,4.36648723 2.92598075,4.28874562 2.93245059,4.23691788 C2.95832991,4.13974086 2.98420923,4.04256385 3.01655838,3.94538683 C3.02949804,3.90651602 3.05537736,3.86116675 3.06184719,3.82229594 C3.06184719,3.82229594 2.91951092,4.10087006 3.00361872,3.9713007 C3.04890753,3.90003756 3.08125668,3.81581748 3.12007566,3.74455433 C3.16536448,3.67329119 3.21712312,3.60202804 3.2559421,3.5307649 C3.3206404,3.40767401 3.16536448,3.64737732 3.15242482,3.65385578 C3.20418346,3.62146345 3.24947227,3.53724337 3.28829125,3.49189409 C3.34651972,3.42710941 3.4047482,3.3688032 3.4694465,3.310497 C3.50826548,3.27162619 3.73470954,3.08375063 3.54708446,3.23275538 C3.36592922,3.38176014 3.59237328,3.20684151 3.64413192,3.17444917 C3.72823971,3.12262143 3.81881734,3.07727216 3.90292513,3.03192288 C4.11642953,2.908832 3.58590345,3.14205684 3.91586479,3.03192288 C3.99997259,3.00600901 4.08408038,2.98009514 4.16818817,2.96065974 C4.22641665,2.9477028 4.52402884,2.90235353 4.27817529,2.9282674 C4.02585191,2.95418127 4.37522274,2.92178893 4.43992105,2.92178893 C4.49167969,2.92178893 4.54343833,2.92178893 4.6016668,2.92178893 C4.78929188,2.92178893 4.97044713,2.92178893 5.15807221,2.92178893 C6.02502947,2.92178893 6.89198673,2.92178893 7.76541382,2.92178893 C9.18230666,2.92178893 10.5927297,2.92178893 12.0096225,2.92178893 C13.8276448,2.92178893 15.6456671,2.92178893 17.4636894,2.92178893 C19.5534446,2.92178893 21.6496697,2.92178893 23.7394248,2.92178893 C25.945637,2.92178893 28.1518491,2.92178893 30.3580612,2.92178893 C32.5448639,2.92178893 34.7316665,2.92178893 36.9184692,2.92178893 C38.9435261,2.92178893 40.9750528,2.92178893 43.0001097,2.92178893 C44.7340242,2.92178893 46.4679387,2.92178893 48.2083231,2.92178893 C49.4958193,2.92178893 50.7768457,2.92178893 52.0643419,2.92178893 C52.7695534,2.92178893 53.4682951,2.92178893 54.1735066,2.92178893 C54.2640842,2.92178893 54.348192,2.92178893 54.4387696,2.92178893 C54.5293473,2.92178893 54.6199249,2.9282674 54.7105025,2.93474587 C54.9757656,2.9477028 54.4193601,2.86996119 54.6781534,2.93474587 C54.7752008,2.96065974 54.8787181,2.98009514 54.9757656,3.01248748 C55.033994,3.03192288 55.3057269,3.13557837 55.0857527,3.04487982 C54.8657784,2.95418127 55.1310415,3.07079369 55.1828001,3.10318603 C55.2604381,3.14205684 55.3316062,3.18740611 55.4027744,3.23275538 C55.4221838,3.24571232 55.4804123,3.30401853 55.5062916,3.30401853 C55.4998218,3.30401853 55.2733777,3.10318603 55.376895,3.20684151 C55.4480632,3.27810466 55.5257011,3.33641087 55.5968693,3.40767401 C55.6550977,3.46598022 55.7133262,3.5307649 55.7715547,3.59554957 C55.9397703,3.78342514 55.6227486,3.35584627 55.7521452,3.5696357 C55.8168435,3.67976965 55.9074211,3.94538683 56.0044686,4.01664997 C56.0044686,4.01664997 55.8944815,3.72511893 55.9397703,3.86764522 C55.9527099,3.90651602 55.9721194,3.9518653 55.9850591,3.9907361 C56.0174082,4.08791312 56.0432876,4.18509014 56.062697,4.28874562 C56.0691669,4.32761642 56.0756367,4.37944417 56.0885764,4.41831497 C56.0885764,4.42479344 56.0562272,4.09439159 56.0691669,4.24987481 C56.062697,4.34705183 56.0756367,4.45070731 56.0756367,4.55436279 C56.0885764,5.31882198 56.7355594,6.04441037 57.5313485,6.01201803 C58.3077282,5.97962569 59,5.37064972 58.9870603,4.55436279 C58.9547112,2.5266024 57.6025167,0.680239109 55.6227486,0.155483225 C55.1763303,0.0388708062 54.7105025,0 54.2446747,0 C53.5782822,0 52.9118897,0 52.2454972,0 C50.9709406,0 49.6899142,0 48.4153576,0 C46.6879129,0 44.9604682,0 43.2330235,0 C41.1820873,0 39.1311511,0 37.0802149,0 C34.8740028,0 32.6677907,0 30.4615785,0 C28.2230172,0 25.984456,0 23.7458947,0 C21.63673,0 19.5210955,0 17.4119308,0 C15.5809688,0 13.7500069,0 11.9190449,0 C10.4956822,0 9.07878937,0 7.65542671,0 C6.80140911,0 5.95386134,0 5.09984374,0 C4.93162815,0 4.75694273,0 4.58872714,0 C3.34004989,0.0064784677 2.09784248,0.498842013 1.24382488,1.42526289 C0.435096088,2.3063345 0.00161745758,3.42710941 0.00161745758,4.62562594 C0.00161745758,4.86532924 0.00161745758,5.10503255 0.00161745758,5.34473585 C0.00161745758,6.47198923 0.00161745758,7.59924261 0.00161745758,8.72649599 C0.00161745758,10.4951177 0.00161745758,12.2637394 0.00161745758,14.032361 C0.00161745758,16.1637769 0.00161745758,18.2887143 0.00161745758,20.4201302 C0.00161745758,22.66168 0.00161745758,24.9032298 0.00161745758,27.1447797 C0.00161745758,29.2114109 0.00161745758,31.2780421 0.00161745758,33.3446733 C0.00161745758,34.9837256 0.00161745758,36.6292564 0.00161745758,38.2683087 C0.00161745758,39.2012081 0.00161745758,40.1405859 0.00161745758,41.0734852 C0.00161745758,41.2548823 -0.00485237273,41.4427579 0.00808728788,41.624155 C0.124544233,43.619523 1.53496724,45.4658863 3.54061463,45.8805083 C4.20700716,46.0165561 4.86046002,45.9971207 5.53332237,45.9971207 C6.52967623,45.9971207 7.5260301,45.9971207 8.5288538,45.9971207 C10.0622036,45.9971207 11.5955534,45.9971207 13.1289031,45.9971207 C15.0375031,45.9971207 16.946103,45.9971207 18.854703,45.9971207 C21.0091565,45.9971207 23.1636099,45.9971207 25.3180634,45.9971207 C27.5566247,45.9971207 29.7887162,45.9971207 32.0272775,45.9971207 C34.2205499,45.9971207 36.4073526,45.9971207 38.6006251,45.9971207 C40.586863,45.9971207 42.5795707,45.9971207 44.5658086,45.9971207 C46.1962058,45.9971207 47.8330729,45.9971207 49.4634701,45.9971207 C50.6086301,45.9971207 51.7602599,45.9971207 52.9054199,45.9971207 C53.4100666,45.9971207 53.9147134,46.0035991 54.4193601,45.9971207 C56.9814129,45.9776853 58.9935302,43.9110541 59,41.3585378 C59,40.6394279 59,39.920318 59,39.2012081 C59,37.7111605 59,36.2146345 59,34.7245869 C59,32.7421758 59,30.7597646 59,28.7773535 C59,26.5552391 59,24.3266462 59,22.1045318 C59,19.9148097 59,17.7250876 59,15.5353655 C59,13.6630884 59,11.7843327 59,9.91205558 C59,8.60340511 59,7.28827616 59,5.97962569 C59,5.50669755 59,5.04024787 59,4.56731973 C59,3.80286054 58.3336075,3.07727216 57.5442882,3.1096645 C56.7420292,3.13557837 56.0756367,3.73807586 56.0756367,4.55436279 Z" id="Path" fill="#FFFFFF" fill-rule="nonzero"></path>
            <polygon id="Triangle" fill="#E98316" transform="translate(29.500000, 22.500000) rotate(-270.000000) translate(-29.500000, -22.500000) " points="29.5 14 40 31 19 31"></polygon>
        </g>
    </g>
</svg>