<?xml version="1.0" encoding="UTF-8"?>
<svg width="21px" height="16px" viewBox="0 0 21 16" version="1.1" xmlns="http://www.w3.org/2000/svg" xmlns:xlink="http://www.w3.org/1999/xlink">
    <!-- Generator: Sketch 55.2 (78181) - https://sketchapp.com -->
    <title>news</title>
    <desc>Created with Sketch.</desc>
    <g id="Symbols" stroke="none" stroke-width="1" fill="none" fill-rule="evenodd">
        <g id="icon/news" transform="translate(-7.000000, -10.000000)" fill="#FFFFFF" fill-rule="nonzero">
            <g id="Group-11">
                <g id="news" transform="translate(7.500000, 10.000000)">
                    <path d="M4.5248569,0.438809659 L4.5248569,13.8886177 C4.5248569,14.5693011 4.26638253,15.1925421 3.84790306,15.6739905 L18.0936898,15.6739905 C19.2146897,15.6739905 19.9980874,14.8905927 19.9980874,13.7695929 L19.9980874,0.438809659 L4.5248569,0.438809659 Z M13.5707455,2.81930666 L17.3795407,2.81930666 C17.6432998,2.81930666 17.8556401,3.03164699 17.8556401,3.29540606 C17.8556401,3.55916513 17.6432998,3.77150546 17.3795407,3.77150546 L13.5707455,3.77150546 C13.3069864,3.77150546 13.0946461,3.55916513 13.0946461,3.29540606 C13.0946461,3.03164699 13.3069864,2.81930666 13.5707455,2.81930666 Z M0.00191259135,3.29540606 L0.00191259135,13.8886177 C0.00191259135,14.8777142 0.798188839,15.6739905 1.78728534,15.6739905 C2.77638185,15.6739905 3.57265809,14.8777142 3.57265809,13.8886177 L3.57265809,3.29540606 L0.00191259135,3.29540606 Z M7.1434036,3.29540606 L10.9521988,3.29540606 L10.9521988,6.62810186 L7.1434036,6.62810186 L7.1434036,3.29540606 Z M13.5707455,6.15200246 L17.3795407,6.15200246 C17.6432998,6.15200246 17.8556401,6.3643428 17.8556401,6.62810186 C17.8556401,6.89186093 17.6432998,7.10420126 17.3795407,7.10420126 L13.5707455,7.10420126 C13.3069864,7.10420126 13.0946461,6.89186093 13.0946461,6.62810186 C13.0946461,6.3643428 13.3069864,6.15200246 13.5707455,6.15200246 Z M7.1434036,9.24664857 L17.3795407,9.24664857 C17.6432998,9.24664857 17.8556401,9.4589889 17.8556401,9.72274797 C17.8556401,9.98650703 17.6432998,10.1988474 17.3795407,10.1988474 L7.1434036,10.1988474 C6.87964453,10.1988474 6.6673042,9.98650703 6.6673042,9.72274797 C6.6673042,9.4589889 6.87964453,9.24664857 7.1434036,9.24664857 Z M7.1434036,12.3412947 L17.3795407,12.3412947 C17.6432998,12.3412947 17.8556401,12.553635 17.8556401,12.8173941 C17.8556401,13.0811531 17.6432998,13.2934935 17.3795407,13.2934935 L7.1434036,13.2934935 C6.87964453,13.2934935 6.6673042,13.0811531 6.6673042,12.8173941 C6.6673042,12.553635 6.87964453,12.3412947 7.1434036,12.3412947 Z" id="Shape"></path>
                </g>
            </g>
        </g>
    </g>
</svg>