<?xml version="1.0" encoding="UTF-8"?>
<svg width="28px" height="28px" viewBox="0 0 28 28" version="1.1" xmlns="http://www.w3.org/2000/svg" xmlns:xlink="http://www.w3.org/1999/xlink">
    <!-- Generator: Sketch 55.2 (78181) - https://sketchapp.com -->
    <title>Artboard</title>
    <desc>Created with Sketch.</desc>
    <g id="Artboard" stroke="none" stroke-width="1" fill="none" fill-rule="evenodd">
        <path d="M19.5,16.625 L19.25,17.0625 L26,23.875 L23.875,26 L17.125,19.1875 L16.6875,19.5 C15.020825,20.5416719 13.2916756,21.0625 11.5,21.0625 C8.87498687,21.0625 6.63542594,20.1250094 4.78125,18.25 C2.92707406,16.3749906 2,14.1250131 2,11.5 C2,8.87498687 2.92707406,6.63542594 4.78125,4.78125 C6.63542594,2.92707406 8.87498687,2 11.5,2 C14.1250131,2 16.3645741,2.92707406 18.21875,4.78125 C20.0729259,6.63542594 21,8.87498687 21,11.5 C21,13.3333425 20.5,15.0416587 19.5,16.625 Z M16.8125,6.1875 C15.3541594,4.72915937 13.5833438,4 11.5,4 C9.41665625,4 7.64584063,4.72915937 6.1875,6.1875 C4.72915937,7.64584062 4,9.41665625 4,11.5 C4,13.5833437 4.72915937,15.3541594 6.1875,16.8125 C7.64584063,18.2708406 9.41665625,19 11.5,19 C13.5833438,19 15.3541594,18.2708406 16.8125,16.8125 C18.3125075,15.3124925 19.0625,13.5416769 19.0625,11.5 C19.0625,9.45832312 18.3125075,7.6875075 16.8125,6.1875 Z" id="" fill="#171717" fill-rule="nonzero"></path>
    </g>
</svg>