<?xml version="1.0" encoding="UTF-8"?>
<svg width="17px" height="21px" viewBox="0 0 17 21" version="1.1" xmlns="http://www.w3.org/2000/svg" xmlns:xlink="http://www.w3.org/1999/xlink">
    <!-- Generator: Sketch 55.2 (78181) - https://sketchapp.com -->
    <title>Combined Shape</title>
    <desc>Created with Sketch.</desc>
    <g id="Symbols" stroke="none" stroke-width="1" fill="none" fill-rule="evenodd">
        <g id="icon/dataset" transform="translate(-9.000000, -7.000000)" fill="#FFFFFF">
            <g id="Group-11">
                <path d="M9.24311043,7.63370809 L25.7568896,7.63370809 L25.7568896,27.3662919 L9.24311043,27.3662919 L9.24311043,7.63370809 Z M11.7796488,21.4773985 L11.7796488,23.0353716 L22.992321,23.0353716 L22.992321,21.4773985 L11.7796488,21.4773985 Z M11.7796488,23.7874536 L11.7796488,25.3454267 L22.992321,25.3454267 L22.992321,23.7874536 L11.7796488,23.7874536 Z M18.2699239,14.3139199 L21.5101706,14.3139199 C21.7932989,14.3139199 21.9820512,14.0622502 21.9505925,13.8105806 C21.7303815,11.8915995 20.229074,10.1613707 18.3013827,10.1613707 C17.7980434,10.1613707 17.7980434,10.5 17.7980434,10.6017926 L17.7980434,13.8420393 C17.8295021,14.1251676 18.0182543,14.3139199 18.2699239,14.3139199 Z M16.7284474,19.0956431 C18.8047219,19.1585605 20.503492,17.5541665 20.5978681,15.5408094 C20.5978681,15.4149745 20.503492,15.3205984 20.3776572,15.3205984 C19.7799418,15.3205984 18.0182543,15.3205984 17.2317867,15.3205984 C17.0115757,15.3205984 16.8228235,15.1318462 16.8228235,14.9116353 L16.8228235,11.7657647 C16.8228235,11.6399299 16.7284474,11.5455538 16.6026126,11.5455538 C14.5892554,11.6713886 12.9848614,13.3701587 13.0477789,15.4149745 C13.1106963,17.396873 14.7780076,19.0327257 16.7284474,19.0956431 Z" id="Combined-Shape"></path>
            </g>
        </g>
    </g>
</svg>