<?xml version="1.0" encoding="UTF-8"?>
<svg width="22px" height="12px" viewBox="0 0 22 12" version="1.1" xmlns="http://www.w3.org/2000/svg" xmlns:xlink="http://www.w3.org/1999/xlink">
    <!-- Generator: Sketch 55.2 (78181) - https://sketchapp.com -->
    <title>Group 8</title>
    <desc>Created with Sketch.</desc>
    <defs>
        <polygon id="path-1" points="0 0.128923504 14.1467956 0.128923504 14.1467956 10.6286699 0 10.6286699"></polygon>
    </defs>
    <g id="Symbols" stroke="none" stroke-width="1" fill="none" fill-rule="evenodd">
        <g id="icon/video" transform="translate(-7.000000, -12.000000)">
            <g id="Group-11">
                <g id="Group-8" transform="translate(7.000000, 12.000000)">
                    <g id="Group-3" transform="translate(0.813722, 0.500000)">
                        <mask id="mask-2" fill="white">
                            <use xlink:href="#path-1"></use>
                        </mask>
                        <g id="Clip-2"></g>
                        <path d="M14.1467956,9.34646785 C14.1467956,10.0518045 13.5567965,10.6286925 12.8354295,10.6286925 L1.31113483,10.6286925 C0.590230391,10.6286925 -4.4408921e-14,10.0518045 -4.4408921e-14,9.34646785 L-4.4408921e-14,1.41069586 C-4.4408921e-14,0.705811523 0.590230391,0.128923504 1.31113483,0.128923504 L12.8354295,0.128923504 C13.5567965,0.128923504 14.1467956,0.705811523 14.1467956,1.41069586 L14.1467956,9.34646785 Z M9.65442996,5.05816138 L8.20036317,4.2370401 C7.88790186,4.06087555 7.37676974,3.77231847 7.06477099,3.59615392 L5.6107042,2.77548492 C5.29847417,2.59932037 5.04290811,2.74382505 5.04290811,3.09615415 L5.04290811,4.73749215 L5.04290811,6.01971679 L5.04290811,7.66150708 C5.04290811,8.01428846 5.29824289,8.15834086 5.6107042,7.98217631 L7.06477099,7.16105502 C7.37700102,6.98489047 7.88790186,6.69633339 8.20036317,6.52016885 L9.65442996,5.69904756 C9.96689127,5.52288301 9.96689127,5.23432593 9.65442996,5.05816138 Z" id="Combined-Shape" fill="#FFFFFF" mask="url(#mask-2)"></path>
                    </g>
                    <path d="M19.4403282,2.49972437 C19.0953627,2.68169387 18.5313147,2.97975946 18.1866045,3.16219615 L16.4405836,4.08465775 C16.095618,4.26662725 15.8137217,4.71395922 15.8137217,5.07789824 L15.8137217,5.33742086 L15.8137217,6.66189724 L15.8137217,6.92212064 C15.8137217,7.28652684 16.095618,7.73315803 16.4405836,7.91582832 L18.1866045,8.83828991 C18.5313147,9.02025942 19.0953627,9.31809141 19.4403282,9.50029451 L21.1868599,10.4222889 C21.53157,10.6042584 21.8137217,10.4556928 21.8137217,10.091053 L21.8137217,8.24706421 L21.8137217,6.92258783 L21.8137217,5.07789824 L21.8137217,3.75342185 L21.8137217,1.90896585 C21.8137217,1.54479325 21.53157,1.39552686 21.1868599,1.57772996 L19.4403282,2.49972437 Z" id="Fill-4" fill="#FFFFFF"></path>
                </g>
            </g>
        </g>
    </g>
</svg>