<?xml version="1.0" encoding="UTF-8"?>
<svg width="28px" height="28px" viewBox="0 0 28 28" version="1.1" xmlns="http://www.w3.org/2000/svg" xmlns:xlink="http://www.w3.org/1999/xlink">
    <!-- Generator: Sketch 55.2 (78181) - https://sketchapp.com -->
    <title>Artboard</title>
    <desc>Created with Sketch.</desc>
    <g id="Artboard" stroke="none" stroke-width="1" fill="none" fill-rule="evenodd">
        <path d="M25,22.52 L25,11 C24.6944429,11.3600018 24.3650191,11.6899985 24.0117187,11.99 C21.4526782,14.0500103 19.4188443,15.7399934 17.9101562,17.06 C17.4231746,17.4900022 17.0269112,17.8249988 16.7213542,18.065 C16.4157971,18.3050012 16.0028238,18.5474988 15.4824219,18.7925 C14.96202,19.0375012 14.4726585,19.16 14.0143229,19.16 L13.9856771,19.16 C13.5273415,19.16 13.03798,19.0375012 12.5175781,18.7925 C11.9971762,18.5474988 11.5842029,18.3050012 11.2786458,18.065 C10.9730888,17.8249988 10.5768254,17.4900022 10.0898438,17.06 C8.58115565,15.7399934 6.54732182,14.0500103 3.98828125,11.99 C3.63498087,11.6899985 3.30555708,11.3600018 3,11 L3,22.52 C3,22.6500007 3.04535545,22.7624995 3.13606771,22.8575 C3.22677997,22.9525005 3.33420077,23 3.45833333,23 L24.5416667,23 C24.6657992,23 24.77322,22.9525005 24.8639323,22.8575 C24.9546446,22.7624995 25,22.6500007 25,22.52 Z M25,6.078125 L25,5.6953125 C25,5.64843727 24.9976129,5.58072961 24.9928385,5.4921875 C24.9880642,5.40364539 24.9737414,5.33854188 24.9498698,5.296875 C24.9259981,5.25520813 24.8997397,5.20833359 24.8710937,5.15625 C24.8424478,5.10416641 24.7994795,5.0651043 24.7421875,5.0390625 C24.6848955,5.0130207 24.6180559,5 24.5416667,5 L3.45833333,5 C3.33420077,5 3.22677997,5.04947867 3.13606771,5.1484375 C3.04535545,5.24739633 3,5.36458266 3,5.5 C3,7.25000875 3.7018159,8.72916063 5.10546875,9.9375 C6.94835991,11.5208413 8.86283729,13.1718664 10.8489583,14.890625 C10.9062503,14.9427086 11.0733493,15.0963529 11.3502604,15.3515625 C11.6271715,15.6067721 11.8467874,15.8020827 12.0091146,15.9375 C12.1714418,16.0729173 12.3838963,16.2369782 12.6464844,16.4296875 C12.9090725,16.6223968 13.1501725,16.7656245 13.3697917,16.859375 C13.5894108,16.9531255 13.7947039,17 13.9856771,17 L14.0143229,17 C14.2052961,17 14.4105892,16.9531255 14.6302083,16.859375 C14.8498275,16.7656245 15.0909275,16.6223968 15.3535156,16.4296875 C15.6161037,16.2369782 15.8285582,16.0729173 15.9908854,15.9375 C16.1532126,15.8020827 16.3728285,15.6067721 16.6497396,15.3515625 C16.9266507,15.0963529 17.0937497,14.9427086 17.1510417,14.890625 C19.1371627,13.1718664 21.0516401,11.5208413 22.8945312,9.9375 C23.4101588,9.48958109 23.8899717,8.88802461 24.3339844,8.1328125 C24.777997,7.37760039 25,6.69271141 25,6.078125 Z M27,5.5 L27,22.5 C27,23.1875034 26.7726957,23.7760392 26.3180804,24.265625 C25.863465,24.7552108 25.3169675,25 24.6785714,25 L3.32142857,25 C2.68303252,25 2.13653501,24.7552108 1.68191964,24.265625 C1.22730427,23.7760392 1,23.1875034 1,22.5 L1,5.5 C1,4.81249656 1.22730427,4.22396078 1.68191964,3.734375 C2.13653501,3.24478922 2.68303252,3 3.32142857,3 L24.6785714,3 C25.3169675,3 25.863465,3.24478922 26.3180804,3.734375 C26.7726957,4.22396078 27,4.81249656 27,5.5 Z" id="" fill="#171717" fill-rule="nonzero"></path>
    </g>
</svg>