<?xml version="1.0" encoding="UTF-8"?>
<svg width="22px" height="22px" viewBox="0 0 22 22" version="1.1" xmlns="http://www.w3.org/2000/svg" xmlns:xlink="http://www.w3.org/1999/xlink">
    <!-- Generator: Sketch 55.2 (78181) - https://sketchapp.com -->
    <title>Artboard</title>
    <desc>Created with Sketch.</desc>
    <g id="Artboard" stroke="none" stroke-width="1" fill="none" fill-rule="evenodd">
        <path d="M15.7083923,13.6973289 L21.938861,19.9277976 L20.0697204,21.7969382 L13.8958923,15.5664695 L13.8958923,14.6035789 L13.4994079,14.2637351 C11.9889837,15.5475957 10.2331419,16.1895164 8.23182978,16.1895164 C6.00395406,16.1895164 4.10651209,15.4059955 2.53944697,13.8389304 C0.97238184,12.2718653 0.188861029,10.3744233 0.188861029,8.1465476 C0.188861029,5.91867188 0.97238184,4.01178991 2.53944697,2.42584448 C4.10651209,0.839899048 5.98507404,0.0469382279 8.17518915,0.0469382279 C10.4030649,0.0469382279 12.3005068,0.839899048 13.867572,2.42584448 C15.4346371,4.01178991 16.2181579,5.91867188 16.2181579,8.1465476 C16.2181579,10.1478597 15.5762372,11.9037015 14.2923767,13.4141257 L14.688861,13.6973289 L15.7083923,13.6973289 Z M4.26698603,12.1113914 C5.36204359,13.1686883 6.68364495,13.6973289 8.23182978,13.6973289 C9.7800146,13.6973289 11.101616,13.1592483 12.1966735,12.083071 C13.2917311,11.0068938 13.8392517,9.69473243 13.8392517,8.1465476 C13.8392517,6.59836278 13.2917311,5.27676141 12.1966735,4.18170385 C11.101616,3.08664629 9.7800146,2.53912573 8.23182978,2.53912573 C6.68364495,2.53912573 5.3714836,3.08664629 4.29530634,4.18170385 C3.21912909,5.27676141 2.68104853,6.59836278 2.68104853,8.1465476 C2.68104853,9.69473243 3.20968908,11.0163338 4.26698603,12.1113914 Z" id="" fill="#171717" fill-rule="nonzero"></path>
        <g id="Group-4"></g>
    </g>
</svg>