<?xml version="1.0" encoding="UTF-8"?>
<svg width="21px" height="16px" viewBox="0 0 21 16" version="1.1" xmlns="http://www.w3.org/2000/svg" xmlns:xlink="http://www.w3.org/1999/xlink">
    <!-- Generator: Sketch 53 (72520) - https://sketchapp.com -->
    <title>Group 10</title>
    <desc>Created with Sketch.</desc>
    <defs>
        <polygon id="path-1" points="0 0.220182667 20.90932 0.220182667 20.90932 13.3319733 0 13.3319733"></polygon>
    </defs>
    <g id="Symbols" stroke="none" stroke-width="1" fill="none" fill-rule="evenodd">
        <g id="icon/photo" transform="translate(-7.000000, -9.000000)">
            <g id="Group-11">
                <g id="Group-10" transform="translate(7.000000, 9.000000)">
                    <g id="Group-3" transform="translate(0.000000, 2.111819)">
                        <mask id="mask-2" fill="white">
                            <use xlink:href="#path-1"></use>
                        </mask>
                        <g id="Clip-2"></g>
                        <path d="M20.90932,11.3937437 C20.90932,12.4599597 20.0372722,13.3320075 18.971398,13.3320075 L1.93792196,13.3320075 C0.872047792,13.3320075 -1.27897692e-13,12.4599597 -1.27897692e-13,11.3937437 L-1.27897692e-13,2.15776279 C-1.27897692e-13,1.09223046 0.872047792,0.220182667 1.93792196,0.220182667 L18.971398,0.220182667 C20.0372722,0.220182667 20.90932,1.09223046 20.90932,2.15776279 L20.90932,11.3937437 Z M15.7415736,6.77616344 C15.7415736,3.85646129 13.3739519,1.48952326 10.4542498,1.48952326 C7.53386393,1.48952326 5.16760959,3.85646129 5.16760959,6.77616344 C5.16760959,9.6958656 7.53386393,12.0634873 10.4542498,12.0634873 C13.3739519,12.0634873 15.7415736,9.6958656 15.7415736,6.77616344 Z" id="Combined-Shape" fill="#FFFFFF" mask="url(#mask-2)"></path>
                    </g>
                    <path d="M15.1216369,1.71787604 C14.9633624,1.50353893 14.7045854,1.15246363 14.5466528,0.938126521 L14.1422496,0.389806388 C13.984317,0.175469279 13.6366602,0.000102553641 13.3703625,0.000102553641 L7.54018807,0.000102553641 C7.27389045,0.000102553641 6.9262336,0.175469279 6.768301,0.389806388 L6.36389781,0.938126521 C6.2059652,1.15246363 5.94684634,1.50353893 5.78891373,1.71787604 L5.38451054,2.26653801 C5.22657793,2.48087512 5.31511591,2.65658369 5.58141353,2.65658369 L6.57139801,2.65658369 L7.54018807,2.65658369 L8.5298307,2.65658369 L9.49862076,2.65658369 L11.4119299,2.65658369 L12.3807199,2.65658369 L13.3703625,2.65658369 L14.3391526,2.65658369 L15.3284534,2.65658369 C15.5950929,2.65658369 15.6839727,2.48087512 15.5256982,2.26653801 L15.1216369,1.71787604 Z" id="Fill-6" fill="#FFFFFF"></path>
                    <path d="M13.6203883,8.8886317 C13.6203883,10.6371713 12.2024133,12.0548044 10.4542156,12.0548044 C8.70567601,12.0548044 7.28838469,10.6371713 7.28838469,8.8886317 C7.28838469,7.13940844 8.70567601,5.72177528 10.4542156,5.72177528 C12.2024133,5.72177528 13.6203883,7.13940844 13.6203883,8.8886317" id="Fill-8" fill="#FFFFFF"></path>
                </g>
            </g>
        </g>
    </g>
</svg>