<?xml version="1.0" encoding="UTF-8"?>
<svg width="137px" height="137px" viewBox="0 0 137 137" version="1.1" xmlns="http://www.w3.org/2000/svg" xmlns:xlink="http://www.w3.org/1999/xlink">
    <!-- Generator: Sketch 56.2 (81672) - https://sketch.com -->
    <title>Artboard</title>
    <desc>Created with Sketch.</desc>
    <g id="Artboard" stroke="none" stroke-width="1" fill="none" fill-rule="evenodd">
        <g id="money" transform="translate(17.500000, 36.500000)" fill-rule="nonzero">
            <path d="M44.9516995,22.282434 L44.9516995,22.282434 L44.9516995,17.598163 C46.2110912,17.7543054 47.470483,18.2227325 48.5724508,19.0034443 L50.1466905,16.6613088 C48.4150268,15.5683123 46.6833631,14.9437428 44.7942755,14.7876005 L44.7942755,13.5384615 L43.2200358,13.5384615 L43.2200358,14.7876005 C41.6457961,14.9437428 40.2289803,15.4121699 39.2844365,16.3490241 C38.1824687,17.2858783 37.7101968,18.5350172 37.7101968,19.9402985 C37.7101968,21.3455798 38.1824687,22.4385763 38.9695886,23.2192882 C39.9141324,24 41.3309481,24.6245695 43.2200358,24.9368542 L43.2200358,29.7772675 C41.6457961,29.4649828 40.2289803,28.8404133 38.8121646,27.5912744 L36.9230769,29.7772675 C38.8121646,31.3386912 40.8586762,32.2755454 43.2200358,32.5878301 L43.2200358,34.4615385 L44.7942755,34.4615385 L44.7942755,32.5878301 C46.5259392,32.4316877 47.9427549,31.9632606 48.8872987,31.0264064 C49.9892665,30.0895522 50.4615385,28.8404133 50.4615385,27.435132 C50.4615385,26.0298507 49.9892665,24.7807118 49.0447227,24 C48.2576029,23.3754305 46.8407871,22.7508611 44.9516995,22.282434 Z M43.2200358,21.8140069 C42.2754919,21.5017222 41.6457961,21.1894374 41.3309481,20.8771527 C41.0161002,20.564868 40.8586762,20.0964409 40.8586762,19.4718714 C40.8586762,18.847302 41.0161002,18.3788749 41.4883721,18.0665901 C41.960644,17.7543054 42.5903399,17.4420207 43.2200358,17.4420207 L43.2200358,21.8140069 Z M46.8407871,29.152698 C46.3685152,29.4649828 45.7388193,29.7772675 44.9516995,29.9334099 L44.9516995,25.4052813 C45.8962433,25.717566 46.6833631,26.0298507 46.9982111,26.3421355 C47.313059,26.6544202 47.627907,27.1228473 47.627907,27.7474168 C47.470483,28.3719862 47.313059,28.8404133 46.8407871,29.152698 Z" id="Shape" fill="#026264"></path>
            <path d="M44,8 C35.2993145,8 28.3076923,14.9916222 28.3076923,23.6923077 C28.3076923,32.3929931 35.2993145,39.3846154 44,39.3846154 C52.7006855,39.3846154 59.6923077,32.3929931 59.6923077,23.6923077 C59.6923077,14.9916222 52.5453161,8 44,8 Z M44,36.2772277 C37.0083778,36.2772277 31.41508,30.6839299 31.41508,23.6923077 C31.41508,16.7006855 37.0083778,11.1073877 44,11.1073877 C50.9916222,11.1073877 56.58492,16.7006855 56.58492,23.6923077 C56.58492,30.6839299 50.8362529,36.2772277 44,36.2772277 Z" id="Shape" fill="#026264"></path>
            <path d="M99.9763314,16.2341463 L94.8213018,16.2341463 L94.8213018,9.67804878 C94.8213018,8.74146341 94.1964497,8.11707317 93.2591716,8.11707317 L88.104142,8.11707317 L88.104142,1.56097561 C88.104142,0.624390244 87.4792899,0 86.5420118,0 C58.2674556,0 29.9928994,0 1.56213018,0 C0.624852071,0 0,0.624390244 0,1.56097561 C0,17.795122 0,30.1268293 0,46.204878 C0,47.1414634 0.624852071,47.7658537 1.56213018,47.7658537 L6.71715976,47.7658537 L6.71715976,54.3219512 C6.71715976,55.2585366 7.34201183,55.8829268 8.27928994,55.8829268 L13.4343195,55.8829268 L13.4343195,62.4390244 C13.4343195,63.3756098 14.0591716,64 14.9964497,64 L99.9763314,64 C100.913609,64 101.538462,63.3756098 101.538462,62.4390244 L101.538462,17.795122 C101.538462,16.8585366 100.913609,16.2341463 99.9763314,16.2341463 Z M84.9798817,44.6439024 L75.4508876,44.6439024 C76.0757396,39.6487805 80.1372781,35.7463415 84.9798817,35.1219512 L84.9798817,44.6439024 Z M84.9798817,31.8439024 C78.2627219,32.6243902 72.9514793,37.9317073 72.3266272,44.4878049 L15.7775148,44.4878049 C14.9964497,37.7756098 9.6852071,32.4682927 3.12426036,31.6878049 L3.12426036,15.9219512 C9.84142012,15.1414634 15.1526627,9.83414634 15.7775148,3.27804878 L72.1704142,3.27804878 C72.9514793,9.9902439 78.2627219,15.297561 84.8236686,15.9219512 L84.8236686,31.8439024 L84.9798817,31.8439024 Z M84.9798817,3.12195122 L84.9798817,9.67804878 C84.9798817,9.67804878 84.9798817,9.67804878 84.9798817,9.67804878 L84.9798817,12.8 C79.9810651,12.1756098 76.0757396,8.11707317 75.4508876,3.27804878 L84.9798817,3.27804878 L84.9798817,3.12195122 Z M3.12426036,3.12195122 L12.6532544,3.12195122 C12.0284024,8.11707317 7.96686391,12.0195122 3.12426036,12.6439024 L3.12426036,3.12195122 Z M3.12426036,34.9658537 C8.12307692,35.5902439 12.0284024,39.6487805 12.6532544,44.4878049 L3.12426036,44.4878049 L3.12426036,34.9658537 Z M9.84142012,47.7658537 L86.3857988,47.7658537 C86.8544379,47.7658537 87.1668639,47.6097561 87.4792899,47.297561 C87.635503,47.1414634 87.791716,46.9853659 87.791716,46.8292683 C87.947929,46.6731707 87.947929,46.3609756 87.947929,46.204878 L87.947929,33.404878 C87.947929,27.7853659 87.947929,17.0146341 87.947929,11.2390244 L91.5408284,11.2390244 C91.5408284,25.7560976 91.5408284,36.3707317 91.5408284,52.7609756 L14.9964497,52.7609756 L9.84142012,52.7609756 L9.84142012,47.7658537 Z M98.4142012,60.7219512 L16.5585799,60.7219512 L16.5585799,55.7268293 L93.1029586,55.7268293 C94.0402367,55.7268293 94.6650888,55.102439 94.6650888,54.1658537 L94.6650888,19.3560976 L98.2579882,19.3560976 L98.2579882,60.7219512 L98.4142012,60.7219512 Z" id="Shape" fill="#3AA393"></path>
        </g>
    </g>
</svg>