<?xml version="1.0" encoding="UTF-8"?>
<svg width="137px" height="137px" viewBox="0 0 137 137" version="1.1" xmlns="http://www.w3.org/2000/svg" xmlns:xlink="http://www.w3.org/1999/xlink">
    <!-- Generator: Sketch 56.2 (81672) - https://sketch.com -->
    <title>Artboard</title>
    <desc>Created with Sketch.</desc>
    <g id="Artboard" stroke="none" stroke-width="1" fill="none" fill-rule="evenodd" stroke-linecap="round" stroke-linejoin="round">
        <g id="Partnership" transform="translate(25.000000, 25.500000)" stroke-width="5">
            <path d="M29.8208344,66.4295894 C29.8208344,66.4295894 19.8331192,66.8988874 15.4871523,72.1010331 C11.139457,77.2991921 9.91627152,85.6503046 9.91627152,85.6503046 L78.0770265,85.6503046 C78.0770265,85.6503046 75.9665563,74.5483311 72.5263113,71.2040132 C67.7119272,66.5184371 55.7785232,66.2803709 55.7785232,66.2803709" id="Path" stroke="#3AA393"></path>
            <path d="M43.3092914,66.6613907 C48.1081192,66.4831258 52.2293841,62.3630993 54.288,59.8759338 C56.3460397,57.3910464 56.9803907,48.9778543 56.9803907,48.9778543 C56.9803907,48.9778543 58.6771788,50.216596 60.1463841,49.5741589 C61.6109801,48.9311523 63.459298,44.5377483 64.0746358,41.968 C64.8247947,38.8355497 64.5263444,35.9992583 63.0191126,34.3589934 C61.6011854,32.8178278 58.4933841,35.103947 58.4933841,35.103947 L58.6351192,24.8334967 C58.6351192,24.8334967 57.9483377,16.2386225 54.9747815,15.3353377 C52.0029536,14.4314834 43.7800132,15.0186755 38.2736623,17.504702 C34.2728146,19.310702 28.2087417,22.3446225 27.0685232,24.3790066 C25.9300331,26.4133907 26.6133576,35.4570596 26.6133576,35.4570596 C26.6133576,35.4570596 23.189245,33.8737483 22.2702715,35.0059868 C21.3518742,36.1365166 21.3518742,38.3970066 21.3518742,41.5630596 C21.3518742,44.728543 22.721404,50.1567947 24.0972715,50.3806225 C25.4731391,50.6084371 25.4731391,50.6084371 25.4731391,50.6084371 L27.0685232,49.4756291 C27.0685232,49.4756291 27.2995629,54.9044503 30.5024305,59.1976159 C33.705298,63.4936291 37.1282583,66.8857881 43.3092914,66.6613907 Z" id="Path" stroke="#3AA393"></path>
            <path d="M17.6921126,0.188516556 C13.8059205,0.188516556 9.68868874,3.354 9.68868874,6.51777483 C9.68868874,9.26806623 10.8346689,24.6051126 17.4656821,24.6051126 C24.3277351,24.6051126 26.2394305,10.2317219 26.1973709,6.61402649 C26.1553113,2.89723179 22.2748808,0.188516556 17.6921126,0.188516556 Z" id="Path" stroke="#026264"></path>
            <path d="M10.3720132,26.1884238 C10.3720132,26.1884238 6.03007947,25.737351 3.28410596,29.3539073 C0.538708609,32.9716026 0.0818145695,37.2659073 0.0818145695,37.2659073" id="Path" stroke="#026264"></path>
            <path d="M69.2462384,0.188516556 C73.1312781,0.188516556 77.2473576,3.354 77.2473576,6.51777483 C77.2473576,9.26806623 76.1025298,24.6051126 69.4715166,24.6051126 C62.6100397,24.6051126 60.6989205,10.2317219 60.740404,6.61402649 C60.7824636,2.89723179 64.6617417,0.188516556 69.2462384,0.188516556 Z" id="Path" stroke="#026264"></path>
            <path d="M76.5646093,26.1884238 C76.5646093,26.1884238 80.9076954,25.737351 83.6513642,29.3539073 C86.3990662,32.9716026 86.8565364,37.2659073 86.8565364,37.2659073" id="Path" stroke="#026264"></path>
        </g>
    </g>
</svg>