<?xml version="1.0" encoding="UTF-8"?>
<svg width="137px" height="137px" viewBox="0 0 137 137" version="1.1" xmlns="http://www.w3.org/2000/svg" xmlns:xlink="http://www.w3.org/1999/xlink">
    <!-- Generator: Sketch 56.2 (81672) - https://sketch.com -->
    <title>Artboard</title>
    <desc>Created with Sketch.</desc>
    <g id="Artboard" stroke="none" stroke-width="1" fill="none" fill-rule="evenodd">
        <g id="download" transform="translate(3.500000, 31.000000)">
            <polygon id="Path" fill="#3AA393" points="36.0378632 8.91089109 34.1584158 12.6632326 43.0445758 17.0792079 51.980198 17.0792079 51.980198 12.884304 44.033763 12.884304 36.0378632 8.91089109"></polygon>
            <path d="M58.6484749,8.17085218 C55.1218788,8.17085218 51.8254175,9.93756444 49.8692087,12.8751831 L39.7132869,28.126968 C39.279632,28.7760203 39.2382058,29.6114122 39.605515,30.3002762 C39.9728242,30.9891402 40.6891786,31.4195314 41.4691419,31.4199574 L51.8723679,31.4199574 C53.9877837,31.4199574 55.9665054,30.3593385 57.1399285,28.5972743 L58.8545647,26.0222099 C59.2467046,25.4335875 59.9034619,25.0815972 60.6104154,25.0815972 L63.4049452,25.0815972 C63.8211005,25.0815972 64.2292283,25.2041388 64.5755109,25.4365454 L96.8568356,46.9768287 C98.3920565,48.0015303 98.7388034,50.0382567 97.6317203,51.5159397 L97.4998252,51.6891882 C96.5168249,53.0012288 94.7500427,53.3498386 93.34513,52.5059916 L76.3224166,42.2805264 C75.6745191,41.8463602 74.8405169,41.8044842 74.1524815,42.1715718 C73.4644461,42.5386595 73.0340898,43.255109 73.032766,44.0356543 C73.0314421,44.8161996 73.4593657,45.5341082 74.1461519,45.903533 L91.168861,56.1289983 C94.4005819,58.0702267 98.6184475,57.2496204 100.879636,54.2308707 L101.011531,54.0576222 C103.539181,50.6835018 102.703122,45.8000065 99.1979713,43.460729 L66.9166508,21.9119945 C65.8762539,21.2177328 64.6552684,20.84715 63.4049452,20.84715 L60.6104154,20.84715 C58.4949997,20.84715 56.5162779,21.907769 55.3428548,23.6698331 L53.6282187,26.2448976 C53.2360787,26.83352 52.5793214,27.1855102 51.8723679,27.1855102 L45.4177516,27.1855102 L53.3809185,15.2267148 C54.5558484,13.4625378 56.5303369,12.4044542 58.6484749,12.4044542 L71.94515,12.4044542 C72.5331024,12.4044542 73.1109548,12.4805146 73.6762719,12.6453119 L85.7364295,16.0950701 C87.2595751,16.5311493 88.8945339,16.3824091 90.311543,15.6725128 L93.0648498,14.2941307 C94.109602,13.769956 94.5321095,12.4971001 94.0085468,11.4511272 C93.4849841,10.4051542 92.2136137,9.98215269 91.168861,10.5063266 L88.41555,11.8842861 C87.9434754,12.1209183 87.4061918,12.1716251 86.8987565,12.0237301 L74.838599,8.57397188 C73.8956229,8.30353518 72.9258838,8.16831683 71.94515,8.16831683 L58.6484749,8.16831683 L58.6484749,8.17085218 Z" id="Path" fill="#3AA393"></path>
            <polygon id="Path" fill="#3AA393" points="105.078429 32.6732673 96.5346535 43.3731846 99.8720659 46.039604 108.415842 35.3396867"></polygon>
            <polygon id="Path" fill="#3AA393" points="22.21615 34.9009901 19.3069307 37.8101146 27.5363252 46.039604 30.4455446 43.1304795"></polygon>
            <path d="M41.6207861,0.00283441974 C40.9350097,0.0393308156 40.3109266,0.417560793 39.9524046,1.01396884 L16.0416728,39.5830401 L3.19921588,32.1079435 C2.55143295,31.6898049 1.73043728,31.6678493 1.06199433,32.0507887 C0.393551378,32.433728 -0.0142583163,33.1596448 0,33.9405003 C0.0150209974,34.7213557 0.449742919,35.4308933 1.13205242,35.7875733 L15.6998581,44.2738043 C16.6697865,44.8391959 17.9050311,44.5246764 18.4994811,43.5609609 L43.4763523,3.27639803 C43.9024624,2.60743359 43.9242825,1.75167825 43.5328383,1.06109795 C43.1413942,0.370517646 42.4027814,-0.038282354 41.6207861,0.00283441974 L41.6207861,0.00283441974 Z" id="Path" fill="#3AA393"></path>
            <path d="M42.1187023,40.2315627 C40.5683953,40.5596807 39.1410625,41.4737836 38.2107885,42.9015173 L29.9643571,55.5546705 C28.1038364,58.4101379 28.905984,62.3172654 31.735512,64.189641 L31.9467496,64.3368734 C31.9494534,64.3368787 31.9521573,64.3368787 31.9548611,64.3368734 C34.7846317,66.2088283 38.6412987,65.4015741 40.5019013,62.5461067 L48.7483331,49.8933741 C50.6089677,47.037486 49.8072208,43.1299379 46.9771794,41.2579829 L46.765946,41.1107505 C46.7631728,41.1107449 46.7603996,41.1107449 46.7576264,41.1107505 C45.3426744,40.1743524 43.6688096,39.9055481 42.1184984,40.2315627 L42.1187023,40.2315627 Z M44.4748286,44.6270811 L44.4831482,44.6270811 L44.6943816,44.7743135 C44.6971548,44.7743191 44.699928,44.7743191 44.7027012,44.7743135 C45.6617875,45.4086749 45.9050678,46.6033607 45.2714216,47.5759359 L37.0249889,60.2286685 C36.3931256,61.1982991 35.1962864,61.4481735 34.2382638,60.8201222 L34.0189021,60.6728897 C34.0161983,60.6728844 34.0134944,60.6728844 34.0107906,60.6728897 C33.0511988,60.0376871 32.8083615,58.8434219 33.442071,57.8708467 L41.6885024,45.2181141 C42.3204639,44.2484835 43.5173438,43.9986091 44.475228,44.6266605 L44.4748286,44.6270811 Z" id="Shape" fill="#3AA393" fill-rule="nonzero"></path>
            <path d="M47.2802976,48.4046951 C45.6770869,48.7391476 44.1997941,49.6684175 43.2419306,51.125191 L37.4170454,59.9809851 C35.5013594,62.8941087 36.334398,66.8723999 39.2617309,68.7787792 C42.1893002,70.684735 46.178767,69.8477571 48.0946172,66.9350568 L53.9195045,58.0792628 C55.8351888,55.1657158 55.0024859,51.1954684 52.0748178,49.2895125 C50.6110582,48.3361112 48.8835082,48.0715127 47.2802976,48.4046951 L47.2802976,48.4046951 Z M49.7481873,52.8368257 C50.7648935,53.4985337 51.0286584,54.7516721 50.3630857,55.7639201 L44.5381984,64.6197142 C43.8727873,65.6311155 42.6051646,65.8935972 41.5883605,65.2314659 C40.5713225,64.5693346 40.3078895,63.3166195 40.9734664,62.3043715 L46.7983537,53.4485775 C47.4638881,52.4363295 48.731345,52.1742711 49.7481873,52.8368257 L49.7481873,52.8368257 Z" id="Shape" fill="#3AA393" fill-rule="nonzero"></path>
            <path d="M52.5304917,55.0938438 C50.947847,55.4373555 49.4923437,56.3868897 48.5552212,57.8521155 L44.8099231,63.7083537 C42.9357159,66.6392294 43.7798268,70.6091219 46.68257,72.5047976 C49.5852713,74.4008973 53.53092,73.5472071 55.4051734,70.6163314 L59.1504716,64.7600932 C61.0246871,61.8292175 60.1805594,57.859325 57.2778204,55.9636494 C55.8264761,55.0158116 54.1131365,54.7511803 52.5304917,55.0938438 L52.5304917,55.0938438 Z M54.9945058,59.517087 C56.0027558,60.1752724 56.2698605,61.4394802 55.61872,62.4577167 L51.8734219,68.3220126 C51.2223235,69.3402491 49.9823896,69.6099694 48.9741017,68.95136 C47.9658643,68.2931746 47.6905257,67.0293908 48.3416704,66.0111543 L52.0951856,60.1464343 C52.7462924,59.1281978 53.9862137,58.8584775 54.9945058,59.517087 L54.9945058,59.517087 Z" id="Shape" fill="#3AA393" fill-rule="nonzero"></path>
            <path d="M32.4798566,40.242624 C30.8969706,40.5861387 29.4494541,41.5352569 28.5121998,43.0004954 L24.7581229,48.856784 C22.883676,51.787685 23.7360776,55.7580358 26.6392686,57.6533037 C29.5424142,59.5494198 33.4804516,58.6957222 35.3549701,55.7648213 L39.1008324,49.9089567 C40.9752886,46.9780558 40.1310842,43.0077049 37.2279016,41.1120129 C35.7763337,40.164167 34.0627427,39.8995334 32.4798566,40.242624 L32.4798566,40.242624 Z M34.9442397,44.673963 C35.9526349,45.3321541 36.2197794,46.587891 35.5685501,47.6061363 L31.8226878,53.4704827 C31.1715204,54.488728 29.9313622,54.7584506 28.9229305,54.0998355 C27.914545,53.4416444 27.6473811,52.1778498 28.2986201,51.1596045 L32.0444824,45.2952581 C32.6956591,44.2770128 33.9357979,44.0153479 34.9442397,44.673963 Z" id="Shape" fill="#3AA393" fill-rule="nonzero"></path>
            <path d="M88.2766278,0.000730789025 C87.5020964,-0.0199282832 86.780279,0.398759916 86.4027225,1.08768453 C86.0251659,1.77660915 86.0542389,2.62196619 86.4781988,3.28231052 L111.452742,43.5611032 C112.047137,44.5246807 113.282266,44.8391551 114.252104,44.2738445 L128.818554,35.788829 C129.500797,35.4321986 129.935476,34.7227632 129.950495,33.9420211 C129.964751,33.1612789 129.55698,32.4354677 128.888601,32.0525834 C128.220222,31.6696991 127.399304,31.6916501 126.751582,32.1097263 L113.910319,39.5837522 L90.001814,1.0202054 C89.6342514,0.40394839 88.9844631,0.0199651238 88.2766278,0.000730789025 L88.2766278,0.000730789025 Z" id="Path" fill="#3AA393"></path>
            <path d="M71.0849868,50.4953779 C70.1620507,50.5185311 69.3649539,51.1594454 69.1287126,52.0683414 C68.8924712,52.9772375 69.2738226,53.9358283 70.0646441,54.4209623 L81.7337894,61.8431332 C85.413075,64.1848877 90.2871899,63.2171089 92.8360773,59.6411409 L94.6176283,57.1423124 C95.0793706,56.532234 95.1788727,55.7147283 94.8773676,55.0083027 C94.5758626,54.301877 93.9210419,53.8182727 93.1680296,53.7459062 C92.4150173,53.6735397 91.6829236,54.0238578 91.2569786,54.6603736 L89.4754317,57.1587798 C88.1851289,58.9689315 85.7908639,59.4414204 83.9283344,58.2557647 L72.2672865,50.8335938 C71.9156361,50.6021901 71.5035131,50.4844428 71.0849868,50.4958002 L71.0849868,50.4953779 Z" id="Path" fill="#3AA393"></path>
            <path d="M66.8004264,59.4070933 C65.8173447,59.3752898 64.940258,60.004562 64.6799596,60.9284376 C64.4196612,61.8523132 64.8441448,62.8294624 65.7062018,63.2908181 L75.3967012,68.6842143 C79.2587965,70.8338011 84.2150101,69.8003459 86.8280122,66.294039 L88.7014525,63.7753019 C89.3928266,62.8500437 89.1831878,61.5540878 88.2332113,60.8807033 C87.2832347,60.2073188 85.9526571,60.4115027 85.2612831,61.3367609 L83.3878427,63.8637656 C82.0283055,65.6880208 79.5199795,66.209709 77.5105405,65.0910971 L67.8117521,59.6977009 C67.5049329,59.5200775 67.1571317,59.4205623 66.8004264,59.4083334 L66.8004264,59.4070933 Z" id="Path" fill="#3AA393"></path>
            <path d="M57.1956074,66.0891089 L55.6930693,69.889155 L68.2359611,74.5381692 C71.4058968,75.7149446 75.0257001,74.5828518 76.8836996,71.8251272 L78.7128713,69.1039611 L75.2096793,66.8743028 L73.3805075,69.5954689 C72.5875626,70.7730567 71.0831724,71.2401923 69.7303295,70.7381231 L57.1956074,66.0891089 L57.1956074,66.0891089 Z" id="Path" fill="#3AA393"></path>
            <path d="M14.1089109,29.7029703 C14.1089109,30.9333076 13.1115254,31.9306931 11.8811881,31.9306931 C10.6508508,31.9306931 9.65346535,30.9333076 9.65346535,29.7029703 C9.65346535,28.472633 10.6508508,27.4752475 11.8811881,27.4752475 C13.1115254,27.4752475 14.1089109,28.472633 14.1089109,29.7029703 Z" id="Path" fill="#026264"></path>
            <path d="M119.554455,29.7029703 C119.554455,30.9333076 118.55707,31.9306931 117.326733,31.9306931 C116.096395,31.9306931 115.09901,30.9333076 115.09901,29.7029703 C115.09901,28.472633 116.096395,27.4752475 117.326733,27.4752475 C118.55707,27.4752475 119.554455,28.472633 119.554455,29.7029703 Z" id="Path" fill="#026264"></path>
        </g>
    </g>
</svg>