<?xml version="1.0" encoding="UTF-8"?>
<svg width="30px" height="26px" viewBox="0 0 30 26" version="1.1" xmlns="http://www.w3.org/2000/svg" xmlns:xlink="http://www.w3.org/1999/xlink">
    <!-- Generator: Sketch 56.2 (81672) - https://sketch.com -->
    <title>“</title>
    <desc>Created with Sketch.</desc>
    <g id="Page" stroke="none" stroke-width="1" fill="none" fill-rule="evenodd" fill-opacity="0.175243433">
        <g id="Our-work" transform="translate(-459.000000, -2130.000000)" fill="#494949">
            <g id="management-group" transform="translate(455.000000, 1482.000000)">
                <g id="Group-8" transform="translate(0.000000, 648.000000)">
                    <path d="M32.7612613,0 L32.7612613,3.71428571 C31.6050993,4.35006753 30.7379909,5.49613071 30.1599099,7.15250965 C29.5818289,8.80888859 29.2927928,10.9922644 29.2927928,13.7027027 L29.2927928,14.8571429 L34,14.8571429 L34,26 L23,26 L23,17.6679537 C23,12.6151614 23.8093012,8.61648834 25.4279279,5.67181467 C27.0465546,2.727141 29.4909746,0.836555019 32.7612613,0 Z M13.7612613,0 L13.7612613,3.71428571 C12.6050993,4.35006753 11.7379909,5.49613071 11.1599099,7.15250965 C10.5818289,8.80888859 10.2927928,10.9922644 10.2927928,13.7027027 L10.2927928,14.8571429 L15,14.8571429 L15,26 L4,26 L4,17.6679537 C4,12.6151614 4.80930122,8.61648834 6.42792793,5.67181467 C8.04655464,2.727141 10.4909746,0.836555019 13.7612613,0 Z" id="“"></path>
                </g>
            </g>
        </g>
    </g>
</svg>