<?xml version="1.0" encoding="UTF-8"?>
<svg width="30px" height="10px" viewBox="0 0 30 10" version="1.1" xmlns="http://www.w3.org/2000/svg" xmlns:xlink="http://www.w3.org/1999/xlink">
    <!-- Generator: Sketch 55.2 (78181) - https://sketchapp.com -->
    <title></title>
    <desc>Created with Sketch.</desc>
    <g id="Homepage" stroke="none" stroke-width="1" fill="none" fill-rule="evenodd">
        <g id="Homepage-v3" transform="translate(-427.000000, -506.000000)" fill="#000000" fill-rule="nonzero">
            <g id="top-stories" transform="translate(0.000000, 63.000000)">
                <g id="Group-9" transform="translate(221.000000, 58.000000)">
                    <g id="Group-20" transform="translate(0.000000, 75.000000)">
                        <g id="hero" transform="translate(0.000000, 1.000000)">
                            <g id="42727618024_d8122c5d63_k">
                                <path d="M206.66019,313.160156 L233.068393,313.160156 L229.904331,310.113281 C229.767611,309.986327 229.699252,309.834962 229.699252,309.65918 C229.699252,309.483398 229.760287,309.329591 229.882358,309.197754 C230.004429,309.065917 230.153353,309 230.329135,309 C230.504917,309 230.661166,309.058593 230.797885,309.175781 L235.104526,313.335938 C235.241245,313.462891 235.309604,313.616698 235.309604,313.797363 C235.309604,313.978028 235.241245,314.131835 235.104526,314.258789 L230.768588,318.433594 C230.641635,318.550782 230.495152,318.609375 230.329135,318.609375 C230.143587,318.609375 229.987339,318.541016 229.860385,318.404297 C229.733431,318.277343 229.672397,318.125977 229.67728,317.950195 C229.682163,317.774413 229.74808,317.623048 229.875034,317.496094 L233.039096,314.449219 L206.645542,314.449219 C206.479525,314.449219 206.333042,314.390626 206.206088,314.273438 C206.079135,314.156249 206.010776,314.014649 206.00101,313.848633 C205.991245,313.663085 206.052279,313.501954 206.184116,313.365234 C206.315952,313.228515 206.474642,313.160156 206.66019,313.160156 Z" id=""></path>
                            </g>
                        </g>
                    </g>
                </g>
            </g>
        </g>
    </g>
</svg>