<?xml version="1.0" encoding="UTF-8"?>
<svg width="17px" height="17px" viewBox="0 0 17 17" version="1.1" xmlns="http://www.w3.org/2000/svg" xmlns:xlink="http://www.w3.org/1999/xlink">
    <!-- Generator: Sketch 55.2 (78181) - https://sketchapp.com -->
    <title></title>
    <desc>Created with Sketch.</desc>
    <g id="Page" stroke="none" stroke-width="1" fill="none" fill-rule="evenodd">
        <g id="Library" transform="translate(-1212.000000, -539.000000)" fill="#3A393A" fill-rule="nonzero">
            <g id="Group-4" transform="translate(238.000000, 356.000000)">
                <g id="Group-2" transform="translate(217.000000, 177.000000)">
                    <g id="Group-4">
                        <path d="M760.25,8.90777753 C760.25,9.14475788 760.131512,9.26324628 759.894531,9.26324628 L757.355469,9.26324628 C757.118488,9.26324628 757,9.14475788 757,8.90777753 L757,6.36871503 C757,6.13173468 757.118488,6.01324628 757.355469,6.01324628 L759.894531,6.01324628 C760.131512,6.01324628 760.25,6.13173468 760.25,6.36871503 L760.25,8.90777753 Z M766.75,8.90777753 C766.75,9.14475788 766.631512,9.26324628 766.394531,9.26324628 L763.855469,9.26324628 C763.618488,9.26324628 763.5,9.14475788 763.5,8.90777753 L763.5,6.36871503 C763.5,6.13173468 763.618488,6.01324628 763.855469,6.01324628 L766.394531,6.01324628 C766.631512,6.01324628 766.75,6.13173468 766.75,6.36871503 L766.75,8.90777753 Z M773.25,8.90777753 C773.25,9.14475788 773.131512,9.26324628 772.894531,9.26324628 L770.355469,9.26324628 C770.118488,9.26324628 770,9.14475788 770,8.90777753 L770,6.36871503 C770,6.13173468 770.118488,6.01324628 770.355469,6.01324628 L772.894531,6.01324628 C773.131512,6.01324628 773.25,6.13173468 773.25,6.36871503 L773.25,8.90777753 Z M760.25,15.4077775 C760.25,15.6447579 760.131512,15.7632463 759.894531,15.7632463 L757.355469,15.7632463 C757.118488,15.7632463 757,15.6447579 757,15.4077775 L757,12.868715 C757,12.6317347 757.118488,12.5132463 757.355469,12.5132463 L759.894531,12.5132463 C760.131512,12.5132463 760.25,12.6317347 760.25,12.868715 L760.25,15.4077775 Z M766.75,15.4077775 C766.75,15.6447579 766.631512,15.7632463 766.394531,15.7632463 L763.855469,15.7632463 C763.618488,15.7632463 763.5,15.6447579 763.5,15.4077775 L763.5,12.868715 C763.5,12.6317347 763.618488,12.5132463 763.855469,12.5132463 L766.394531,12.5132463 C766.631512,12.5132463 766.75,12.6317347 766.75,12.868715 L766.75,15.4077775 Z M773.25,15.4077775 C773.25,15.6447579 773.131512,15.7632463 772.894531,15.7632463 L770.355469,15.7632463 C770.118488,15.7632463 770,15.6447579 770,15.4077775 L770,12.868715 C770,12.6317347 770.118488,12.5132463 770.355469,12.5132463 L772.894531,12.5132463 C773.131512,12.5132463 773.25,12.6317347 773.25,12.868715 L773.25,15.4077775 Z M760.25,21.9077775 C760.25,22.1447579 760.131512,22.2632463 759.894531,22.2632463 L757.355469,22.2632463 C757.118488,22.2632463 757,22.1447579 757,21.9077775 L757,19.368715 C757,19.1317347 757.118488,19.0132463 757.355469,19.0132463 L759.894531,19.0132463 C760.131512,19.0132463 760.25,19.1317347 760.25,19.368715 L760.25,21.9077775 Z M766.75,21.9077775 C766.75,22.1447579 766.631512,22.2632463 766.394531,22.2632463 L763.855469,22.2632463 C763.618488,22.2632463 763.5,22.1447579 763.5,21.9077775 L763.5,19.368715 C763.5,19.1317347 763.618488,19.0132463 763.855469,19.0132463 L766.394531,19.0132463 C766.631512,19.0132463 766.75,19.1317347 766.75,19.368715 L766.75,21.9077775 Z M773.25,21.9077775 C773.25,22.1447579 773.131512,22.2632463 772.894531,22.2632463 L770.355469,22.2632463 C770.118488,22.2632463 770,22.1447579 770,21.9077775 L770,19.368715 C770,19.1317347 770.118488,19.0132463 770.355469,19.0132463 L772.894531,19.0132463 C773.131512,19.0132463 773.25,19.1317347 773.25,19.368715 L773.25,21.9077775 Z" id=""></path>
                    </g>
                </g>
            </g>
        </g>
    </g>
</svg>