<?xml version="1.0" encoding="UTF-8"?>
<svg width="26px" height="17px" viewBox="0 0 26 17" version="1.1" xmlns="http://www.w3.org/2000/svg" xmlns:xlink="http://www.w3.org/1999/xlink">
    <!-- Generator: Sketch 55.2 (78181) - https://sketchapp.com -->
    <title></title>
    <desc>Created with Sketch.</desc>
    <g id="Page" stroke="none" stroke-width="1" fill="none" fill-rule="evenodd">
        <g id="Library" transform="translate(-1252.000000, -539.000000)" fill="#3A393A" fill-rule="nonzero">
            <g id="Group-4" transform="translate(238.000000, 356.000000)">
                <g id="Group-2" transform="translate(217.000000, 177.000000)">
                    <g id="Group-4">
                        <path d="M799.4375,12.8882463 C799.657553,12.8882463 799.847981,12.9686491 800.008789,13.1294572 C800.169597,13.2902653 800.25,13.4806931 800.25,13.7007463 L800.25,15.3257463 C800.25,15.5457995 800.169597,15.7362272 800.008789,15.8970353 C799.847981,16.0578434 799.657553,16.1382463 799.4375,16.1382463 L797.8125,16.1382463 C797.592447,16.1382463 797.402019,16.0578434 797.241211,15.8970353 C797.080403,15.7362272 797,15.5457995 797,15.3257463 L797,13.7007463 C797,13.4806931 797.080403,13.2902653 797.241211,13.1294572 C797.402019,12.9686491 797.592447,12.8882463 797.8125,12.8882463 L799.4375,12.8882463 Z M822.1875,13.7007463 C822.407553,13.7007463 822.597981,13.7811491 822.758789,13.9419572 C822.919597,14.1027653 823,14.2931931 823,14.5132463 C823,14.7332995 822.919597,14.9237272 822.758789,15.0845353 C822.597981,15.2453434 822.407553,15.3257463 822.1875,15.3257463 L805.125,15.3257463 C804.904947,15.3257463 804.714519,15.2453434 804.553711,15.0845353 C804.392903,14.9237272 804.3125,14.7332995 804.3125,14.5132463 C804.3125,14.2931931 804.392903,14.1027653 804.553711,13.9419572 C804.714519,13.7811491 804.904947,13.7007463 805.125,13.7007463 L822.1875,13.7007463 Z M799.4375,19.3882463 C799.657553,19.3882463 799.847981,19.4686491 800.008789,19.6294572 C800.169597,19.7902653 800.25,19.9806931 800.25,20.2007463 L800.25,21.8257463 C800.25,22.0457995 800.169597,22.2362272 800.008789,22.3970353 C799.847981,22.5578434 799.657553,22.6382463 799.4375,22.6382463 L797.8125,22.6382463 C797.592447,22.6382463 797.402019,22.5578434 797.241211,22.3970353 C797.080403,22.2362272 797,22.0457995 797,21.8257463 L797,20.2007463 C797,19.9806931 797.080403,19.7902653 797.241211,19.6294572 C797.402019,19.4686491 797.592447,19.3882463 797.8125,19.3882463 L799.4375,19.3882463 Z M822.1875,20.2007463 C822.407553,20.2007463 822.597981,20.2811491 822.758789,20.4419572 C822.919597,20.6027653 823,20.7931931 823,21.0132463 C823,21.2332995 822.919597,21.4237272 822.758789,21.5845353 C822.597981,21.7453434 822.407553,21.8257463 822.1875,21.8257463 L805.125,21.8257463 C804.904947,21.8257463 804.714519,21.7453434 804.553711,21.5845353 C804.392903,21.4237272 804.3125,21.2332995 804.3125,21.0132463 C804.3125,20.7931931 804.392903,20.6027653 804.553711,20.4419572 C804.714519,20.2811491 804.904947,20.2007463 805.125,20.2007463 L822.1875,20.2007463 Z M799.4375,6.38824628 C799.657553,6.38824628 799.847981,6.46864912 800.008789,6.62945722 C800.169597,6.79026531 800.25,6.9806931 800.25,7.20074628 L800.25,8.82574628 C800.25,9.04579946 800.169597,9.23622725 800.008789,9.39703534 C799.847981,9.55784344 799.657553,9.63824628 799.4375,9.63824628 L797.8125,9.63824628 C797.592447,9.63824628 797.402019,9.55784344 797.241211,9.39703534 C797.080403,9.23622725 797,9.04579946 797,8.82574628 L797,7.20074628 C797,6.9806931 797.080403,6.79026531 797.241211,6.62945722 C797.402019,6.46864912 797.592447,6.38824628 797.8125,6.38824628 L799.4375,6.38824628 Z M805.125,8.82574628 C804.904947,8.82574628 804.714519,8.74534344 804.553711,8.58453534 C804.392903,8.42372725 804.3125,8.23329946 804.3125,8.01324628 C804.3125,7.7931931 804.392903,7.60276531 804.553711,7.44195722 C804.714519,7.28114912 804.904947,7.20074628 805.125,7.20074628 L822.1875,7.20074628 C822.407553,7.20074628 822.597981,7.28114912 822.758789,7.44195722 C822.919597,7.60276531 823,7.7931931 823,8.01324628 C823,8.23329946 822.919597,8.42372725 822.758789,8.58453534 C822.597981,8.74534344 822.407553,8.82574628 822.1875,8.82574628 L805.125,8.82574628 Z" id=""></path>
                    </g>
                </g>
            </g>
        </g>
    </g>
</svg>