<?xml version="1.0" encoding="utf-8"?>
<!-- Generator: Adobe Illustrator 24.0.1, SVG Export Plug-In . SVG Version: 6.00 Build 0)  -->
<svg version="1.1" id="Layer_1" focusable="false" xmlns="http://www.w3.org/2000/svg" xmlns:xlink="http://www.w3.org/1999/xlink"
	 x="0px" y="0px" viewBox="0 0 512 512" style="enable-background:new 0 0 512 512;" xml:space="preserve">
<style type="text/css">
	.st0{fill:#FFFFFF;}
</style>
<path class="st0" d="M187.7,153.7c-34,0-61.7,25.7-61.7,57.7c0,31.7,27.7,57.7,61.7,57.7s61.7-26,61.7-57.7
	C249.4,179.4,221.7,153.7,187.7,153.7L187.7,153.7z M331.1,153.7c-34,0-61.7,25.7-61.7,57.7c0,31.7,27.7,57.7,61.7,57.7
	c34.3,0,61.7-26,61.7-57.7C392.9,179.4,365.4,153.7,331.1,153.7L331.1,153.7z M487.7,243.7l-6,4.3V49.7c0-27.4-20.6-49.7-46-49.7
	H76.6c-25.4,0-46,22.3-46,49.7V248c-2-1.4-4.3-2.9-6.3-4.3c-15.1-10.6-25.1,4-16,17.7c18.3,22.6,53.1,50.3,106.3,72
	C58.3,525.1,252,555.7,248.9,457.5c0-0.7,0.3-56.6,0.3-96.6c5.1,1.1,9.4,2.3,13.7,3.1c0,39.7,0.3,92.8,0.3,93.5
	c-3.1,98.3,190.6,67.7,134.3-124c53.1-21.7,88-49.4,106.3-72C512.9,247.7,502.9,233.2,487.7,243.7z M457.2,262.9
	c-68.9,37.4-128.3,31.1-160.6,29.7c-23.7-0.9-32.6,9.1-33.7,24.9c-10.3-7.7-18.6-15.5-20.3-17.1c-5.1-5.4-13.7-8-27.1-7.7
	c-31.7,1.1-89.7,7.4-157.4-28V72.3c0-34.9,8.9-45.7,40.6-45.7h317.7c30.3,0,40.9,12.9,40.9,45.7L457.2,262.9L457.2,262.9z"/>
</svg>
