<svg xmlns="http://www.w3.org/2000/svg" width="74" height="69" fill-rule="evenodd"><g fill="#65b32e"><path d="M69.347 39.578l-.147.147h-.442l-.442.147-.736.294-.883.294-.59.294h-1.03l-1.178.59-.442.147v-.147l.294-.147h.442l.147-.294h.59l.442-.147.294-.294h.442l.442-.147h.59l.147-.147h.294l.736-.147.883-.294.147-.147h.294l.147.147-.442-.147zm-1.472 5.002h-.59l-.59.294v-.294l.294-.147h.147l.294-.147h.736l.147.294h-.442zm-3.68-1.618h-.147.147v-.294h.147v.147h-.147v.147zm-.442.147l-.147.147v-.294l.147.147.147-.147-.147.147zm-1.03-3.973l.147-.44h.294l.442-.147h.736l.147-.147.442-.147h.59v.147l-.442.147h-.442l-.442.147H63.3l-.147.147-.442.294zm-.59-3.678l-.294.147H60.66v.294h-.294l.294-.44h.442l.442-.147h.294l.294-.147.442-.147h.883l.442-.294.294-.147h.59l-.147.294-.294.147-.147.147H62.87l-.736.294zm-.442-1.618h0l.294-.147.442-.44-.147.44-.59.147h-.442.442zm-2.503 10.3h-.59l-.147.147h-.59l-.147.147-.294.147h-.294l-.294.147H56.4l-.442.147h-.294l-.442.294-.442.147h-.59l-.147.294h-.442l-.147-.147.147-.147.294-.147h.294l.294-.147h.147l.147-.147 1.178-.147.59-.294.442-.147h.442l.442-.147.294-.147h.442l.147-.147v-.147h.442v.44zm-5.153.294h.147l.59-.294.294-.294h.294l.59-.147H55.8l-.294.147h-.442l-.147.147-.883.44v.294h-.442l.442-.294zm1.178-9.416h.442l.147-.147.59-.294-.147.44h-1.03zm-9.276 3.1l-.294.147h-.294l-.59.147h-.294l-.294.147-3.092 1.03-.59.147-.59.44-.736.147-.442.294h-.442l.59-.44.59-.294.59-.147.59-.294 1.178-.44 1.767-.59 1.325-.294.736-.294.147-.294h.294v.294l-.147.294zM21.643 47.23l-1.178.44-1.178.59-.442.147-.59.294-.442.147-1.03.294-.442.147-.442.294v-.147l.59-.44.736-.147.59-.294.883-.294 1.325-.736 1.325-.44.294.147zm49.47-6.327h0l.442-.294h.147v-.147l.294-.147h.147l.147-.294-.59-.59-.294-.147h-.147l.59-.59v-.147h.294v-.294h-.736l.147-.44v-.147H70.23l-.147.147v.294l-.442-.44.442-.147.442-.44.883-.147h-1.325l-.147.147h-.147l-.442.294H69.2l-.442.147-.59.147h-.147l-.147.147-.294.147h-1.178v-.44h.736l1.325-.147.294-.147v-.44h.147l.59-.147.736-.294 1.178-.294v-.44l-.442-.147h-1.03l-.294-.147h-.147v.59h-.147l-.294-.294h-.59l-.147.294-.736.147h-.147V35.9l.147-.44v-.147h.736l1.03-.44.442-.147.294-.147.442.147.442-.147.147-.294h-.442.442l.59-.147-1.178-.294v-.294h-.736l-.442.147-.59.147h-.294v-.294l.294-.147.442-.294V32.8l.147-.294h.294v-.147l-.442.147v-.147l.147-.44v-.294l-.147.147-.59.147h-.736l-.442.294-.294.147-.59.147h-.442v-.147l-.294-.294v-.147h.294l1.325-.294 1.325-.44.59-.147v-.59h-.294l-1.472.147h-.147l-1.325.294h-.59l-.442.147-1.03.44-.442.147-1.62.294h-.294l-.59.147-.736.147-1.325.59-2.208.736-.736.44-.442.147-.736.147-1.178.44h-.883l-.883.147-1.62.44-.442.294-.442.147-.883.147h-.442l-.294.147-.883.294-1.03.294-.883.294-.294.147h-.147l-.442.294-1.178.294-.147.147-.442.147h-.442l.59-.59h-.147l-.442.294-.294.147v.147l-.883.294-1.767.883-.736.147-.442.147-.442.294-.59.147-.442.147v-.147l.294-.147 2.06-.883h-.442l-1.767.736-.59.147h-.294l-.147.147-.442.147h-.59v.294l.59-.294.442.294-1.325.44h-.59l-1.03.294-1.325.44-.442.294-.883.44-.59.147-.736.147-.147.147h-1.62l-.147.147-.294.147h-.294l-.59.147-.59.294-1.03.736-.736.147-.883.294h-.59l-.883.294h.736l-.294.147-.442.294-1.472.59-.736.44-.59.147-.59.44-.736.294-2.208.736-1.472.59-.442.147h-.442l-.442.294-.442.147-.736.44-.736.294-.442.147-.442.294-.442.147-.736.44-.736.294h.883l-.294.294-.442.294-1.178.59-.442.294-.736.294-.59.44-.59.294-.147.147-.442.147-.883.59-1.03.59-.147.294H.442l-.147.147v.147l-.147.147H0v.147h.442v.59H.59l.147.44v.44l.147.147h.294v1.03l.59.59.147.44.147.59.294.883v.294l.147.294.147.147.294.44-.147.44v.294l.147.294.147.883.442.294.147.294.147.44.294.44v.736l.147.736.442.294.147.294v.44l.442.44h.59l.147-.294h.442l1.03-.736.442-.147.442-.294v-.147l.147-.294h.883l.883-.44.442-.147h.442l.59-.44.59-.147.442-.294h.294l.294-.294 1.325-.44v-.147h.294l.883-.59 1.03-.59.736-.147 1.767-.883.736-.147.883-.59 1.03-.44 2.356-.883.147-.147h.294l.147-.147.294-.147h.442l.442-.147.442-.294.442-.147h.442l.883-.294.59-.147.59-.294.442-.294-.442.147-.442.44v-.44l.736-.294.442-.147h1.178l.59-.147.59-.294-.147-.147.294-.294.294-.147h.59l-.59.44h.294l.147-.294.59-.294.147-.147.736-.294.736-.147 1.472-.44.736-.147.736-.294 1.325-.59 1.472-.294.59-.294.59-.147 1.472-.44.736-.294L51.1 50.76l2.06-.883 2.06-.736.59-.147 1.325-.44 2.06-.59.883-.44.736-.294 1.03-.147.442-.147.294-.147.442-.294.59-.147h.59l.736-.147 1.472-.59 1.767-.59h1.62l.294-.147.147-.147h.442l.147-.44.59-.294v-.294h-.294l-.147-.147v-.294h.147l.294-.147-.147-.147v-.294l.294-.44.59-.147.59-.294.147-.147h-.147v-.147h-.442l-.147.147h-.736l.147-.147v-.294h-.147l-.294-.294z" fill-rule="nonzero"/><path d="M69.8 33.105h-.6v-.147l.6-.294v-.147h.6l-.6.6zm0 12.065h-.294l-.294.294v.147h.147l.294-.147h.147l.294-.294H69.8zm-4.124 1.03l-.736.147v.147l.294.147h.147l.294-.294.442-.147.147-.147h-.147l-.442.147zm-20.76-8.83h0l.883-.294.736-.294-.883.294-.736.294z"/><path d="M44.906 37.37h0-.294l-1.03.147-.294.44.736-.294.883-.294z"/><g fill-rule="nonzero"><path d="M64.046 42.815v.147h.294v-.294h-.147l-.147.147m1.62-2.355h.442l.442-.147.6-.147.147-.147h.147l.147-.147h.736l.294-.294.442-.147h.6l-.294.147-.294.294h-.736l-.736.294-.883.294-.6.294h-1.18l-.442.294-.442.147-.294.147-.442.294.147-.147v-.147l.294-.147h.294l.147-.147.147-.294h1.03l.294-.294m-2.058-1.764h.147l.294-.147h.442l.442-.294h.6v.294H64.5l-.294.147-.147.147h-.6l-.294.294h-.442l.147-.294h.294l.442-.147M55.8 34.87l.294-.294h.294l-.294.44H55.8"/><path d="M55.8 35.017h0-.147l.147-.147M18.846 48.406l-.6.294-.442.147-1.03.294-.442.147-.442.294v-.147l.6-.44.736-.147.6-.294.883-.294 1.325-.736 1.178-.44h.442v.147l-1.178.44-1.178.6-.442.147H18.7"/></g></g><path d="M23.705 18.54l-.294.44h-2.208l-1.03.44-.442.294-.294.44v.44l.147.294.294.294.442.294v.294l-.294.147h-.883l-.6-.294-.6-.147h-.294l-.294.147h-.294v-.44l.147-.44.6-.6h.736l.442-.294.147-.147v-.736l.883-1.03.442-.44.442-.294 1.325 1.324h1.472zm-4.417 8.092l-.442.6-1.472 2.06-.6.883-.442.6-.294.294h-.294v-.294l.294-1.324.147-.44.147-.147.6-.736.294-.6 1.325-1.324.294.294.294-.147h.147l.147-.147-.147.44zm-3.534.736h0l.294-.294v-.294l.147-.6h.294l.6-.147.294-.294.147-.294-.147-.294-.736-.736v-1.177h1.03l.442.147.147.147.147.294v.147h-.147v.147H18.1l-.147.147v1.03l.147.147.294.147-1.914 1.913v-.147l-.147-.147v-.147l-.6.294zm-.147-5.444v-.294l-.294-.294v-.147h.294v-.147l.442-.44h.147l.147.147v.147l-.147.294v1.177h-.442l-.147-.44zm-.294 1.913h0l-.147.147-.6-.147-.442-.147-.294-.294v-.44l-.294-.294-.294-.147H11.78l-.442-.147.147-.294.147-.147h2.208l.883-.294h.147l.147.147.147.6h-.883v.294l.147.294.147.147h.736v.736zM13.988 30.9l-.883-1.324-.147-.44-.147-.147-.442-.6-.6-.736h1.472l.442.44.147.294.147.44v2.06zm-3.093-16.04l-.294-.294-.294-.147h-1.62v-.6h.147l1.767.294h1.325l.294.44.147.147.294.147.147.44v.147l.147.44v.294l-.294-.147-.442-.294-.442-.147-.294-.294-.6-.44zm-.736 7.504l-.6.147-.442.147h-.294l-.294.147-.442.294-.294-.44-.294-.147v-.44h2.503l.147.147v.147zm-3.24-6.327h-.6l-1.03-.883.442-.147 1.03-.6.294-.294.294-.147h.6v.147l.147.44v.6l-.442.44-.736.44zm4.27-8.975l.147-.294.294-.883.883.147h.294l.6-.294.442-.44v.294h.147v.6l.147.44.294.294.294.147.147.294.442.44v.294h-.294l-.147.147V8.09h-.294l-.736-.44-.736-.294h-.294l-.6-.147h-1.325l.294-.147zm6.037 8.828h0v.44h-2.65l-.294.147h-.294v-.147l.147-.44.442-.294h.442l.294.147H16.5l.736.147zm.294-5.444h0l-.147.44H14.87l-.294.294-.442.6-.147.294v.44l.294.6h.6l.294.294v.736l-.147.147h-.442l-.736.147v1.03l-.294.147-.442-.147V15.3l-.147-.44-.147-.147v-1.03h.147v-1.766l-.147-.294-.147-.44v-.147h.147V10.9l.147-.147h.147l.294-.147h1.767V8.828l.442-.44h.147l.147-.147h.147v.44l.147.44v.147l.147.147.6.294.294.294v.44h.294zm-3.24-5.444h0l.147-.147.147-.44.294-.294h2.06l1.472-.294v.44l-.442.294-.294.147H15.16l-.442.147-.294.294-.147-.147zm4.86 5.15h1.767v.147l-.6.883h-.147l-.442-.147H18.7l-.442-.147v-.6l.883-.147zm1.767 6.474l-.147.147h-.442l-.294.44-.442.294-.442.44-.442.294-.442-.147-.294-.147h-.6v-.44h.147l.442-.147.147-.147v-.736l-.736-.147v-.294l.147-.147h.6l.883.147h.442l.442.147 1.03.44zm11.042-3.384l-.6-.44-.442-.44v-.294l-.147-.294-1.03-1.03-.883-.147h-.736l-.736.147-.736.294-.6.147-.6.44H23.4l-.6-.44-.6-.294-.6-.147h-.736l.442-.44.294-.147h.883l.294.147.294.44.442.44.442.147h1.472l.883-.294.442-.294.442-.147.736-.736.736-.44.442-.294.6-.294v-.736l-.6-.294V6.92l.147-.44v-.3l-.147-.294-.442-.736-.6-.6-.736-.44-.883-.147h-1.325l-.6.147h-1.914l-.294-.147-.442-.294-1.325-.294h-1.325V2.5l-.147-.294-.6-.44L17.2 1.03l-.7-.147L15.9.6h-2.06l-.442.294-.883.44-.736.44-.6.6h-.147l-.883.44-1.03.44h-.736L8.1 3.38l.147.294.442.147h1.178l.147.294.147.147.442.294.442.44.147.294.294.294-.294.883v.44l-.442-.6-.294-.736-.442-.6-.736-.294H9.13l-.736-.147-.6.147-.442.294-.294.147-.147.294V7.05l-.294.294-.442.294-1.767.883-.6.44-.6.6-.442.6-.294.6v.6l.147.6.442.6.883.44-.147.883v.736l.294.294H5.3l.883.883v.147H4.27l-1.03.294-.883.44-.6.6-.147.294-.147.44v1.177l.147.44.6.6.6.147.6.294 1.472 1.47.442.147h1.62l.294.147.147.147.442.6h.147l-.147.294-.294.44v.6l.294.6.736.6.442.294.442.147h.147l1.325.6h.294l.883 1.324.883 1.47.442.883.294.44.147.147.442.736.294.883v3.4l-.147 3.53-.147 3.237-.294 3.1-.147 3.825v3.825l-.294 2.648-.442 2.5-.6 1.766-.442.736-.442.44-.147.294-.442.294-.736.44-.883.44-1.472.883h12.8l-.883-.6-.147-.147-1.767-1.324-.442-.44-.442-.6-.294-.44-.294-.6-.294-.883v-1.618l.147-11.918V39.43l-.147-5.885v-.44l.294-.147.442-.44.442-.736.442-1.177.883-1.47 1.178-1.766.442-.883.6-1.03.6-.147h.736l2.208-.736.736-.294.442-.294.6-.883v-1.177l-.442-.44-.294-.883v-.44l.147-.294.147-.147h1.914l.883-.147.6-.147.147-.147v-.147l-.147-.294-.442-.147-1.767-.294-1.03-.147h-1.178l-.147-.147.294-.6h.736l.736-.147.883-.44.883-.294h1.03l1.03-.294.294-.147v-.147l.736-1.177.294-.6.294-.44.736-.736v-.44l-.6.6zm2.21 37.813l-.6 1.618c-.6-.44-1.472-.6-2.797-.6-1.178 0-2.06.44-2.797 1.47s-1.03 2.354-1.03 3.825.294 2.796 1.03 3.678 1.62 1.47 2.797 1.47 2.208-.44 2.945-1.324l1.03 1.324c-1.03 1.03-2.356 1.618-4.123 1.618s-3.092-.6-4.123-1.913-1.472-2.943-1.472-5.002.6-3.678 1.62-5.002 2.503-1.913 4.123-1.913c1.472 0 2.65.294 3.386.736h0zm2.945 12.8v-13.4h1.914v13.4zm6.772-11.623V55.9h4.564v1.47h-4.564v6.474H41.96v-13.4h8.245v1.766zm9.13 4.855c0 1.47.294 2.796.883 3.825s1.472 1.47 2.503 1.47c1.178 0 2.208-.44 2.797-1.47s1.03-2.207 1.03-3.973c0-3.384-1.325-5.15-3.828-5.15-1.178 0-1.914.44-2.503 1.324-.6 1.177-.883 2.354-.883 3.973h0zm-1.914 0c0-1.913.442-3.53 1.472-4.855s2.208-1.913 3.975-1.913c1.914 0 3.24.6 4.27 1.766s1.472 2.796 1.472 5.002-.442 3.973-1.472 5.15-2.356 1.913-4.27 1.913c-1.62 0-2.945-.6-3.975-1.913-.883-1.47-1.472-3.1-1.472-5.15h0zm15.165-4.855V56.5c.442 0 .883.147 1.325.147 1.03 0 1.914-.147 2.356-.6.442-.294.736-1.03.736-1.913 0-.736-.294-1.324-.736-1.618-.6-.294-1.325-.44-2.503-.44-.294 0-.736 0-1.178.147h0zm5.448 11.623l-3.534-5.738c-.442 0-1.03 0-1.914-.147v5.738h-1.767V50.32h3.386c3.24 0 4.86 1.324 4.86 3.825a3.61 3.61 0 0 1-.736 2.207c-.442.736-1.178 1.03-1.767 1.177l3.828 6.18h-2.356v.147z" fill-rule="nonzero" fill="#fff"/></svg>