<svg xmlns="http://www.w3.org/2000/svg" width="100%" height="100%" viewBox="0 0 550 380" fill-rule="evenodd" stroke-linejoin="round" stroke-miterlimit="2"><path d="M-42.63-21.338h624.585V420.4H-42.63z" fill="#597b58"/><path d="M381.72 161.332h-8.484v-23.85h-6.814v-13.628h-95.106l-12.166-17.036h-63.995c-5.13 0-9.308 4.177-9.308 9.308l.02 148.846c-.017 1.918.58 3.795 1.78 5.366a8.67 8.67 0 0 0 6.94 3.428h152.498c3.94 0 7.407-2.654 8.347-6.177l34.84-95.528v-.603c0-5.867-3.598-10.126-8.552-10.126zm-15.298 0h-27.257v-3.407c0-1.884-1.526-3.407-3.407-3.407s-3.407 1.523-3.407 3.407v3.407h-17.035v-3.407c0-1.884-1.526-3.407-3.407-3.407s-3.407 1.523-3.407 3.407v3.407h-17.036v-3.407c0-1.884-1.526-3.407-3.407-3.407s-3.407 1.523-3.407 3.407v3.407h-17.036v-3.407c0-1.884-1.526-3.407-3.407-3.407s-3.407 1.523-3.407 3.407v3.407H243.77v-3.407c0-1.884-1.526-3.407-3.407-3.407s-3.407 1.523-3.407 3.407v3.407h-7.73a8.75 8.75 0 0 0-1.438.119c-1.7.283-3.237 1.073-4.46 2.177v-19.332h143.098v17.036zm-163.54 55.51V164.74h19.403c-.64.828-1.142 1.758-1.41 2.77l-1.08 2.964-16.913 46.37zm13.628-58.92h-8.81l8.81-8.81v8.81zm143.098-27.256v6.814h-141.1l-8.81 8.81v-15.625H359.61zm-166.947-14.542a2.5 2.5 0 0 1 2.494-2.494h60.486l7.3 10.22h-60.06v29.253l-6.814 6.814v75.246l-3.407 9.294V116.126zm156.28 149.404a1.93 1.93 0 0 1-1.857 1.421H194.587a1.88 1.88 0 0 1-1.526-.756c-.215-.28-.545-.872-.42-1.4l34.725-95.238a1.93 1.93 0 0 1 1.857-1.421H381.72c1.295 0 1.625 1.86 1.7 2.8l-34.5 94.595z" fill="#fff" fill-rule="nonzero"/></svg>