<svg xmlns="http://www.w3.org/2000/svg" width="100%" height="100%" viewBox="0 0 550 320" fill-rule="evenodd" stroke-linejoin="round" stroke-miterlimit="2"><path d="M-36.595-9.456h602.253v351.084H-36.595z" fill="#68d99c"/><path d="M504.5 257.1c-10.28 0-18.644 8.363-18.644 18.643s8.363 18.644 18.644 18.644 18.643-8.363 18.643-18.644S514.78 257.1 504.5 257.1zm0 34.18c-8.567 0-15.537-6.97-15.537-15.537s6.97-15.536 15.537-15.536 15.536 6.97 15.536 15.536A15.56 15.56 0 0 1 504.5 291.28zm9.323-17.08h-7.77v-7.768a1.553 1.553 0 1 0-3.107 0v9.32a1.55 1.55 0 0 0 1.554 1.554h9.322a1.553 1.553 0 0 0 0-3.107zm-38.843-37.298h-31.073v45.056h31.073v-27.966h27.966v-17.1H474.98zM488.964 240h10.876v10.875h-10.876V240zm-27.966 0h10.876v10.875h-10.876V240zm-13.982 0h10.875v10.875h-10.875V240zm0 13.982h10.875v10.876h-10.875v-10.876zm10.875 24.86h-10.875v-10.876h10.875v10.876zm13.983 0h-10.876v-10.876h10.876v10.876zm0-13.983h-10.876v-10.876h10.876v10.876zm13.983-13.983H474.98V240h10.876v10.875zm-1.554 38.85H436.14v-60.592h74.575v20.197c0 .86.695 1.554 1.554 1.554s1.554-.694 1.554-1.554v-37.287c0-.86-.695-1.554-1.554-1.554h-7.77v-4.66a1.55 1.55 0 0 0-1.554-1.553H492.07a1.55 1.55 0 0 0-1.553 1.553v4.66h-34.18v-4.66a1.55 1.55 0 0 0-1.554-1.553h-10.876a1.55 1.55 0 0 0-1.553 1.553v4.66h-7.77a1.55 1.55 0 0 0-1.553 1.554v79.236a1.55 1.55 0 0 0 1.553 1.554H484.3c.86 0 1.554-.695 1.554-1.554s-.695-1.554-1.554-1.554zm9.322-82.343h7.768v9.322h-7.768v-9.322zm-48.163 0h7.768v9.322h-7.768v-9.322zm-9.322 6.215h6.215v4.66a1.55 1.55 0 0 0 1.553 1.554h10.876a1.55 1.55 0 0 0 1.554-1.554v-4.66h34.18v4.66a1.55 1.55 0 0 0 1.553 1.554h10.876a1.55 1.55 0 0 0 1.554-1.554v-4.66h6.214v12.43H436.14v-12.43z" fill="#28622b" fill-rule="nonzero"/></svg>