<svg xmlns="http://www.w3.org/2000/svg" width="384.305" height="130.596"><g fill="#fff"><path d="M52.1 43.677c-1.214-1.563-4.12-4.12-5.64-5.64C44.1 35.7 43.5 35 43.5 31V14c0-2.43-3.73-2.08-3.73.088v32.1c.263 2.515-.986 4.477 3.038 7.03a50.348 50.348 0 0 0 10.844 4.684l.174-8.937a7.136 7.136 0 0 0-1.736-5.293m-1.88 9.25a.05.05 0 0 1-.01.022c-6.235-2.54-7.33-2.048-6.548-11.518 7.366 4.5 6.853 6.17 6.558 11.5m7.32-3.956l.17 8.935a50.416 50.416 0 0 0 10.845-4.682c4.023-2.55 2.778-4.512 3.037-7.027s0-32.107 0-32.107c0-2.165-3.73-2.514-3.73-.082v17c0 3.992-.605 4.685-2.95 7.026l-5.64 5.64a7.091 7.091 0 0 0-1.734 5.293M67.7 41.43c.778 9.474-.313 8.98-6.55 11.52a.05.05 0 0 1-.01-.024c-.292-5.324-.8-6.985 6.56-11.5"/><path d="M60.608 26.382l-3-5.06V2.554c0-2.938-3.7-2.7-3.7 0l.037 18.746-4.045 7.44c-.88 2.12-2.068 4.66.928 8.075.227.26.6.978 4.98 5.085l.093-.1s-.027-.025 3.825-3.825c4.766-4.7 3.057-7.7.882-11.6M55.78 37.32c-7.182-3.845-2.046-9.054 0-12.5l.18.285c5.28 7.906 3.847 9.094-.18 12.22m-2.235 29.29c-.18-3.684-1.485-6.94-9.024-9.765-6.333-2.372-15.293-2.887-21.8-3.93S5.405 50.093 0 44.936C4.053 58.4 14.2 64.038 24.5 66.245c11.665 2.495 22.126 3.547 28.486 7.967l.645.446c-.36-3.1.1-4.362-.088-8.044M50.317 68.4c-5.58-2.138-9.3-2.693-19.348-4.715S14.912 59.82 9.482 54.1c8.72 3.35 22.7 4.564 30.323 6.177s9.7 3.594 10.517 8.117z"/><path d="M57.627 74.655l.644-.443c6.363-4.422 16.83-5.472 28.5-7.97 10.3-2.2 20.452-7.84 24.5-21.307-5.4 5.157-16.213 6.936-22.72 7.984s-15.466 1.556-21.8 3.93c-7.54 2.822-8.84 6.08-9.023 9.762s.274 4.937-.1 8.044M60.94 68.4c.815-4.523 2.893-6.5 10.517-8.117s21.6-2.83 30.323-6.177c-5.43 5.718-11.438 7.564-21.485 9.588s-13.772 2.57-19.35 4.706zm-7.778 15.333c.083-7.244-4.068-9.277-10.257-10.906s-14.8-2.846-22.13-4.963-11.394-3.5-16.357-8.873C5.474 69.492 12.8 76.9 21.83 80.07s8.545 2.522 13.428 3.744 5.776 3 5.776 6.022v6.183H53.16c.246-14-.08-5.046 0-12.287m-3.523 8.36H44.7a45.326 45.326 0 0 0-.176-5.563c-.385-4.642-5.8-5.05-14.7-7.526-6.108-1.7-14.087-3.894-17.65-10a64.273 64.273 0 0 0 13.6 4.246l16.8 3.465c5.906 1.23 7.06 4.853 7.06 8.838z"/><path d="M57.876 96.04H70v-6.186c0-3 .9-4.8 5.78-6.02s4.395-.57 13.428-3.745 16.357-10.576 17.412-21.074c-4.963 5.37-9.033 6.753-16.357 8.87s-15.95 3.335-22.133 4.962S57.8 76.5 57.876 83.755s-.244-1.7 0 12.285M61.4 85.57c0-3.984 1.153-7.6 7.06-8.838l16.806-3.464a64.027 64.027 0 0 0 13.6-4.249c-3.562 6.114-11.54 8.3-17.654 10-8.9 2.476-14.314 2.884-14.7 7.525a44.859 44.859 0 0 0-.173 5.564H61.4zm-32.73 44.355a21.656 21.656 0 0 1-4.851.671c-6.9 0-11.68-3.445-11.68-10.645 0-7.288 4.453-11.374 11.68-11.374a14.017 14.017 0 0 1 4.822.886l-.3 3.6a8.817 8.817 0 0 0-4.605-1.129c-4.394 0-7.138 3.355-7.138 7.717 0 4.332 2.685 7.6 7.226 7.6a11.889 11.889 0 0 0 4.668-.882zm19.763-16.863a13.911 13.911 0 0 0-5.494-1.131c-4.968 0-7.714 3.355-7.714 7.714 0 4.332 2.685 7.6 7.23 7.6a11.612 11.612 0 0 0 2.805-.3v-5.55h-4.514v-3.365h8.6v11.47a26.847 26.847 0 0 1-6.89 1.1c-6.9 0-11.682-3.448-11.682-10.642 0-7.3 4.45-11.375 11.682-11.375a21.073 21.073 0 0 1 6.25.881zm5.03-4.12h4.27v21.285h-4.27zM73.833 122h-6.218l3.078-8.787h.06zm-13.72 8.23h4.42l1.863-4.88h8.63l1.83 4.88h4.727l-8.36-21.288h-4.815zM88.23 112.3h1.4c2.136 0 4.514.215 4.514 2.773 0 2.656-2.407 2.96-4.514 2.96h-1.4zm-4.27 17.93h4.27v-8.846h1.37c1.8 0 2.35.613 2.956 2.195l2.564 6.65h4.756l-3.414-8.33c-.427-.944-1.1-2.1-2.256-2.194v-.065a4.868 4.868 0 0 0 4.393-4.938c0-5.915-5.46-5.765-10.035-5.765h-4.6zM147.2 14.7h5.8c2.17 0 3.938.98 3.938 3.08a2.855 2.855 0 0 1-2.345 3.08v.04c1.05.28 1.12 1.207 1.732 2.7l1.2 3.325h-3.4l-.7-2.205c-.665-2.1-1.085-2.625-2.293-2.625h-.682v4.83h-3.25zm3.255 5.075h.857c1.05 0 2.38-.035 2.38-1.418 0-1.137-1.138-1.347-2.38-1.347h-.857zM160 14.7h8.6V17h-5.355v2.52h5.058v2.3h-5.058v2.764h5.548v2.315h-8.8zm11.935 9.2a7.155 7.155 0 0 0 3.361.806c1.032 0 2.012-.2 2.012-1.2 0-2.275-5.776-.84-5.776-5.285 0-2.94 2.87-3.746 5.32-3.746a10.367 10.367 0 0 1 3.151.455l-.2 2.52a6.551 6.551 0 0 0-2.712-.56c-.823 0-2.188.07-2.188 1.138 0 1.977 5.776.647 5.776 5.058 0 3.167-2.66 4.025-5.373 4.025a12.81 12.81 0 0 1-3.641-.525zm11.708-9.2h8.6V17h-5.356v2.52h5.058v2.3h-5.058v2.764h5.548v2.315h-8.8zm15.547 0h4l4.708 12.216h-3.57l-.9-2.608h-4.586l-.963 2.608h-3.307zm2 2.52h-.035L199.6 22h3.063zm9.035-2.52h5.8c2.17 0 3.938.98 3.938 3.08a2.855 2.855 0 0 1-2.345 3.08v.04c1.05.28 1.12 1.207 1.733 2.7l1.2 3.325h-3.4l-.7-2.205c-.665-2.1-1.085-2.625-2.293-2.625h-.68v4.83h-3.256zm3.256 5.075h.857c1.05 0 2.38-.035 2.38-1.418 0-1.137-1.138-1.347-2.38-1.347h-.857zm19.83 6.865a13.561 13.561 0 0 1-3.623.49c-3.256 0-7.02-1.646-7.02-6.266 0-4.253 2.976-6.37 7-6.37a12.672 12.672 0 0 1 3.623.631l-.263 2.643a6.4 6.4 0 0 0-3.185-.858 3.712 3.712 0 0 0-3.815 3.955 3.737 3.737 0 0 0 4.078 3.851 8.593 8.593 0 0 0 3.045-.63zm2.604-11.94h3.256v4.673h3.85V14.7h3.256v12.22h-3.256v-5.234h-3.85v5.234h-3.256zm-88.81 21H151c3.728 0 5.478 1.26 5.478 4.008 0 2.468-1.8 3.937-4.848 3.937h-1.26v4.275h-3.255zm3.255 5.635h.84c1.12 0 2.013-.4 2.013-1.68 0-1.243-.892-1.645-2.013-1.645h-.84zm8.662-5.635h5.8c2.17 0 3.938.98 3.938 3.08a2.855 2.855 0 0 1-2.345 3.08v.04c1.05.28 1.12 1.207 1.732 2.7l1.2 3.325h-3.395l-.7-2.2c-.665-2.1-1.085-2.625-2.293-2.625h-.682v4.83h-3.255zm3.255 5.075h.857c1.05 0 2.38-.035 2.38-1.418 0-1.137-1.138-1.347-2.38-1.347h-.857zm15.295-5.282c4.026 0 6.126 2.4 6.126 6.318 0 3.886-2.135 6.32-6.126 6.32s-6.125-2.433-6.125-6.32c0-3.92 2.1-6.318 6.125-6.318zm0 10.222c1.978 0 2.766-1.9 2.766-3.9 0-2.117-.788-3.9-2.766-3.9s-2.765 1.785-2.765 3.9c0 2 .785 3.9 2.765 3.9zm20.37 1.855a18.026 18.026 0 0 1-4.726.56c-3.255 0-7.018-1.646-7.018-6.266 0-4.6 3.238-6.37 7.72-6.37a11.763 11.763 0 0 1 3.693.543l-.263 2.66a6.2 6.2 0 0 0-2.975-.787c-2.643 0-4.813 1.1-4.813 3.955a3.738 3.738 0 0 0 4.077 3.851 2.843 2.843 0 0 0 1.156-.21V43.1h-1.908v-2.3h5.058zm3.378-11.87h5.8c2.17 0 3.938.98 3.938 3.08a2.855 2.855 0 0 1-2.346 3.08v.04c1.05.28 1.12 1.207 1.732 2.7l1.2 3.325h-3.4l-.7-2.2c-.666-2.1-1.086-2.625-2.293-2.625h-.683v4.83h-3.255zm3.255 5.075h.858c1.05 0 2.38-.035 2.38-1.418 0-1.137-1.137-1.347-2.38-1.347h-.858zm13.283-5.075h4l4.708 12.216h-3.57l-.9-2.608H217.5l-.962 2.608h-3.3zm1.995 2.52h-.035L218.25 43h3.063zm9.04-2.52h5.128l2.6 8.12h.035l2.713-8.12h4.935v12.22h-3.185l.053-9.38h-.036l-3.115 9.38h-2.992l-2.977-9.38h-.034l.07 9.38H228.9zm30.862-.207c4.026 0 6.125 2.4 6.125 6.318 0 3.886-2.135 6.32-6.125 6.32s-6.127-2.433-6.127-6.32c0-3.92 2.102-6.318 6.127-6.318zm0 10.222c1.977 0 2.764-1.9 2.764-3.9 0-2.117-.787-3.9-2.764-3.9S257 39.694 257 41.8c0 2.013.784 3.904 2.762 3.904zM268.9 35.7h4.148l4.13 8.3h.035l-.052-8.3h2.974v12.22h-4.043l-4.27-8.35h-.035l.1 8.35h-3zM146.134 60.32h11.1v2.633h-8.1v6.105h7.75V71.7h-7.75v9.516h-2.992zm21.366 5.266c4.638 0 7.75 3.35 7.75 8a7.768 7.768 0 1 1-15.53 0c-.004-4.638 3.108-8 7.78-8zm0 13.7c3.292 0 4.758-2.992 4.758-5.715 0-2.9-1.766-5.716-4.758-5.716-3.022 0-4.788 2.813-4.788 5.716-.004 2.73 1.463 5.72 4.788 5.72zm11.214-13.342h2.633v2.365h.06a4.642 4.642 0 0 1 3.979-2.723 7.982 7.982 0 0 1 1.856.209v2.514a4.159 4.159 0 0 0-1.557-.27c-2.513 0-4.16 2.394-4.16 6.224v6.942h-2.812zm23.066 14.633a11.682 11.682 0 0 1-4.817.987c-5.416 0-7.9-3.292-7.9-8.258 0-4.52 2.843-7.72 7.152-7.72 5.087 0 6.732 3.7 6.732 8.617h-10.9a4.992 4.992 0 0 0 5.026 5.087 9.02 9.02 0 0 0 4.7-1.526zm-1.825-8.47c0-2.334-1.377-4.25-3.8-4.25-2.753 0-3.9 2.275-4.1 4.25zm5.325 6.106a7.512 7.512 0 0 0 3.5 1.077c1.286 0 2.872-.54 2.872-2.184 0-2.783-6.613-2.543-6.613-6.823 0-3.172 2.365-4.7 5.386-4.7a11.741 11.741 0 0 1 3.5.6l-.24 2.454a8.226 8.226 0 0 0-2.963-.779c-1.436 0-2.692.6-2.692 1.856 0 3.112 6.612 2.214 6.612 7.092 0 3.26-2.6 4.757-5.326 4.757a8.779 8.779 0 0 1-4.19-.838zm20.614-9.993h-4.04v8.348a2.422 2.422 0 0 0 2.364 2.723 3.477 3.477 0 0 0 1.915-.539v2.394a8.8 8.8 0 0 1-2.394.419c-2.9 0-4.7-1.376-4.7-4.428V68.22h-3.44v-2.275h3.44v-3.53l2.813-.9v4.428h4.04zm2.122 9.993a7.512 7.512 0 0 0 3.5 1.077c1.286 0 2.872-.54 2.872-2.184 0-2.783-6.612-2.543-6.612-6.823 0-3.172 2.363-4.7 5.385-4.7a11.747 11.747 0 0 1 3.5.6l-.24 2.454a8.21 8.21 0 0 0-2.962-.779c-1.436 0-2.692.6-2.692 1.856 0 3.112 6.6 2.214 6.6 7.092 0 3.26-2.6 4.757-5.325 4.757a8.772 8.772 0 0 1-4.189-.838zm12.596-.36h3.35l-2.545 7.33h-2.7zm20.433-14.902h-6.492V60.32h15.98v2.633h-6.494v18.253h-2.993zm11.907 2.992h2.634v2.365h.06a4.644 4.644 0 0 1 3.98-2.723 7.989 7.989 0 0 1 1.856.209v2.514a4.162 4.162 0 0 0-1.557-.27c-2.513 0-4.16 2.394-4.16 6.224v6.942h-2.812zm23.068 14.633a11.681 11.681 0 0 1-4.816.987c-5.416 0-7.9-3.292-7.9-8.258 0-4.52 2.842-7.72 7.152-7.72 5.086 0 6.733 3.7 6.733 8.617H286.3a4.993 4.993 0 0 0 5.028 5.087 9.02 9.02 0 0 0 4.7-1.526zm-1.82-8.47c0-2.334-1.377-4.25-3.8-4.25-2.754 0-3.9 2.275-4.1 4.25zm18.185 8.47a11.692 11.692 0 0 1-4.818.987c-5.416 0-7.9-3.292-7.9-8.258 0-4.52 2.844-7.72 7.153-7.72 5.086 0 6.732 3.7 6.732 8.617h-10.9a4.992 4.992 0 0 0 5.025 5.087 9.031 9.031 0 0 0 4.7-1.526zm-1.826-8.47c0-2.334-1.377-4.25-3.8-4.25-2.752 0-3.888 2.275-4.1 4.25zm5.324 6.106a7.518 7.518 0 0 0 3.5 1.077c1.287 0 2.873-.54 2.873-2.184 0-2.783-6.613-2.543-6.613-6.823 0-3.172 2.363-4.7 5.387-4.7a11.751 11.751 0 0 1 3.5.6l-.24 2.454a8.216 8.216 0 0 0-2.962-.779c-1.436 0-2.694.6-2.694 1.856 0 3.112 6.613 2.214 6.613 7.092 0 3.26-2.6 4.757-5.326 4.757a8.777 8.777 0 0 1-4.189-.838zm21.272-11.193a9.724 9.724 0 0 1 5.027-1.435c4.37 0 6.135 2.154 6.135 6.313v6.314a23.945 23.945 0 0 0 .119 2.992H345.8V79.23h-.06a5.667 5.667 0 0 1-4.729 2.333c-3.3 0-5.6-1.436-5.6-4.757 0-3.83 4.2-5.028 7.092-5.028l2.992.06c0-2.633-.957-3.98-3.77-3.98a7.172 7.172 0 0 0-4.428 1.557zm8.347 6.913c-.6 0-1.195-.06-1.8-.06-1.525 0-5.294.24-5.294 2.933a2.687 2.687 0 0 0 2.841 2.483c2.784 0 4.248-1.735 4.248-4zm7.298-7.99h2.723v2.424h.06a5.484 5.484 0 0 1 5-2.782c3.95 0 5.715 2.453 5.715 6.553v9.066h-2.812v-7.9c0-3.56-.778-5.3-3.23-5.447-3.2 0-4.638 2.574-4.638 6.284v7.062H352.8zm28.814 13.106h-.06a6.127 6.127 0 0 1-5.207 2.513c-4.607 0-6.553-4.1-6.553-8.258 0-4.1 2.155-7.72 6.582-7.72 2.664 0 4.2 1.047 5.06 2.453h.06v-9.275h2.812v22.44h-2.7zM377 79.3c3.172 0 4.5-3.142 4.5-5.685 0-2.843-1.465-5.746-4.518-5.746s-4.25 2.873-4.2 5.656c-.057 2.394 1.2 5.775 4.218 5.775zM152.926 92.1h3.142l8.827 20.885h-3.26l-2.125-5.266h-10.233l-2.125 5.266H144zm1.466 2.812l-4.16 10.354h8.32zm26.478 17.414c0 4.638-2.394 7.3-7.87 7.3a15.422 15.422 0 0 1-5.476-1.047l.3-2.6a11.616 11.616 0 0 0 5.5 1.378c2.962 0 4.728-2 4.728-5.238v-1.5H178a6.367 6.367 0 0 1-5.117 2.364c-4.368 0-6.523-3.56-6.523-7.5 0-3.92 2.215-8.1 6.823-8.1 2.692 0 4.2.987 5.026 2.633h.06v-2.273h2.6zm-2.813-6.793c0-3.17-1.466-5.894-4.458-5.894-2.843 0-4.25 3.082-4.25 5.685 0 2.873 1.615 5.386 4.25 5.386s4.458-2.334 4.458-5.177zm7.328-7.81h2.632v2.364h.06a4.642 4.642 0 0 1 3.979-2.723 7.982 7.982 0 0 1 1.856.209v2.514a4.159 4.159 0 0 0-1.557-.27c-2.513 0-4.16 2.394-4.16 6.224v6.942h-2.812zm18.13-.36c4.638 0 7.75 3.35 7.75 8a7.768 7.768 0 1 1-15.53 0c0-4.64 3.112-8 7.78-8zm0 13.7c3.3 0 4.758-2.992 4.758-5.714 0-2.9-1.766-5.716-4.758-5.716-3.022 0-4.788 2.812-4.788 5.716 0 2.726 1.466 5.718 4.788 5.718zM216.588 100H213v-2.276h3.6v-1.407c0-3.7.957-6.133 5.117-6.133a11.511 11.511 0 0 1 1.885.179l-.12 2.274a4.471 4.471 0 0 0-1.347-.179c-2.423 0-2.722 1.556-2.722 3.62v1.646h4.04V100H219.4v12.986h-2.813zm16.306-2.635c4.638 0 7.75 3.35 7.75 8a7.768 7.768 0 1 1-15.529 0c0-4.64 3.112-8 7.78-8zm0 13.7c3.292 0 4.757-2.992 4.757-5.714 0-2.9-1.765-5.716-4.757-5.716-3.023 0-4.788 2.812-4.788 5.716 0 2.726 1.467 5.718 4.788 5.718zm11.218-13.34h2.633v2.364h.06a4.642 4.642 0 0 1 3.979-2.723 7.973 7.973 0 0 1 1.855.209v2.514a4.146 4.146 0 0 0-1.555-.27c-2.513 0-4.16 2.394-4.16 6.224v6.942h-2.812zm23.068 14.632a11.689 11.689 0 0 1-4.818.988c-5.416 0-7.9-3.292-7.9-8.26 0-4.52 2.844-7.72 7.153-7.72 5.086 0 6.732 3.7 6.732 8.617h-10.892a4.993 4.993 0 0 0 5.026 5.087 9.031 9.031 0 0 0 4.7-1.526zm-1.826-8.468c0-2.334-1.377-4.25-3.8-4.25-2.752 0-3.9 2.274-4.1 4.25zm5.324 6.104a7.515 7.515 0 0 0 3.5 1.077c1.287 0 2.873-.54 2.873-2.184 0-2.783-6.613-2.543-6.613-6.822 0-3.172 2.363-4.7 5.387-4.7a11.751 11.751 0 0 1 3.5.6l-.24 2.454a8.219 8.219 0 0 0-2.963-.778c-1.435 0-2.693.6-2.693 1.855 0 3.112 6.613 2.214 6.613 7.092 0 3.262-2.6 4.758-5.326 4.758a8.789 8.789 0 0 1-4.189-.838zM291.3 100h-4.04v8.35a2.421 2.421 0 0 0 2.364 2.722 3.472 3.472 0 0 0 1.916-.539v2.395a8.8 8.8 0 0 1-2.395.419c-2.9 0-4.7-1.377-4.7-4.43V100H281v-2.276h3.442v-3.53l2.812-.9v4.43h4.04zm3.26-2.276h2.635v2.364h.06a4.644 4.644 0 0 1 3.98-2.723 7.973 7.973 0 0 1 1.855.209v2.514a4.157 4.157 0 0 0-1.556-.27c-2.514 0-4.16 2.394-4.16 6.224v6.942h-2.813zm10.234 19.39a4.286 4.286 0 0 0 1.316.241c2.514 0 3.352-3.472 3.352-3.77a8.507 8.507 0 0 0-.539-1.616l-5.178-14.243h3.082l4.1 12.627h.06l4.2-12.627h2.842l-5.625 15.6c-1.047 2.933-2.154 6.314-5.865 6.314a9.207 9.207 0 0 1-1.914-.209z"/></g><path fill="none" stroke="#fff" d="M129.73 0v130.073"/></svg>