<svg xmlns="http://www.w3.org/2000/svg" width="100%" height="100%" viewBox="0 0 250 150" fill-rule="evenodd" stroke-linejoin="round" stroke-miterlimit="2"><path d="M-2.554-2.703h254.067V153.79H-2.554z" fill="#28312d"/><path d="M182.485 85.322c-1.467-.8-3.33-.632-5.1.488L144.5 106.5a1.96 1.96 0 0 0-.613 2.7c.576.915 1.785 1.2 2.7.613l32.875-20.7c.694-.437 1.074-.405 1.13-.374s.286.336.286 1.156c0 2.206-1.637 5.17-3.503 6.346l-31.87 20.068c-1.694 1.067-3.243 1.36-4.25.805s-1.584-2.023-1.584-4.025c0-5.074 3.628-11.644 7.92-14.348l36.29-22.85c.57-.358.914-.984.914-1.657s-.345-1.298-.914-1.656L114.153 28.68a1.96 1.96 0 0 0-2.087 0L75.336 51.8c-5.22 3.287-9.308 10.692-9.308 16.86v1.044c0 6.168 4.088 13.575 9.308 16.86l54.63 34.4a1.96 1.96 0 0 0 2.7-.613 1.96 1.96 0 0 0-.613-2.7l-54.63-34.4c-4.054-2.553-7.48-8.757-7.48-13.548V68.67c0-4.8 3.425-10.994 7.48-13.547L113.1 32.65l66.054 41.594-33.657 21.194c-5.467 3.442-9.75 11.2-9.75 17.66 0 3.522 1.28 6.17 3.607 7.453.934.516 1.964.772 3.056.772 1.627 0 3.4-.568 5.173-1.7l31.87-20.07c3-1.883 5.332-6.125 5.332-9.66 0-2.103-.842-3.773-2.3-4.583zm-24.143-9.12a1.96 1.96 0 0 0 1.046-3.615l-45.234-28.485a1.96 1.96 0 0 0-2.7.614 1.96 1.96 0 0 0 .613 2.7L157.3 75.9a1.95 1.95 0 0 0 1.041.301zm-7.826 5.195c.652 0 1.3-.325 1.66-.918.575-.916.298-2.124-.62-2.698L132.448 65.8c-.916-.575-2.124-.298-2.698.618a1.96 1.96 0 0 0 .618 2.699l19.1 11.982a1.94 1.94 0 0 0 1.038.299zM124.472 70.95c-.917-.573-2.125-.293-2.697.624a1.96 1.96 0 0 0 .623 2.697l19.257 12.023a1.94 1.94 0 0 0 1.035.298 1.96 1.96 0 0 0 1.662-.922c.573-.917.293-2.124-.624-2.697L124.472 70.95zM103.93 49.227L87.66 59.473c-.57.36-.917.987-.914 1.662a1.96 1.96 0 0 0 .924 1.657l19.402 12.064c.317.197.675.295 1.034.295.37 0 .74-.105 1.063-.313l4.32-2.793a1.96 1.96 0 0 0 .582-2.707 1.96 1.96 0 0 0-2.707-.582l-3.28 2.12-15.692-9.757 12.58-7.924 15.464 9.696-1.803 1.166a1.96 1.96 0 0 0-.582 2.706 1.96 1.96 0 0 0 2.707.582l4.385-2.834a1.96 1.96 0 0 0 .895-1.658 1.94 1.94 0 0 0-.917-1.645L106.01 49.225c-.637-.4-1.446-.4-2.083.002zm32.597 41.636a1.96 1.96 0 0 0-.628-2.696l-19.404-12.064c-.918-.57-2.125-.3-2.696.63a1.96 1.96 0 0 0 .629 2.696l19.403 12.064a1.95 1.95 0 0 0 1.032.296c.654 0 1.294-.328 1.664-.925zM80 65.8a1.96 1.96 0 0 0 .629 2.696l47.892 29.778c.32.2.68.295 1.03.295.655 0 1.294-.328 1.665-.924a1.96 1.96 0 0 0-.629-2.696l-47.89-29.77a1.96 1.96 0 0 0-2.696.63z" fill="#fefefe" fill-rule="nonzero"/></svg>