<svg xmlns="http://www.w3.org/2000/svg" xmlns:xlink="http://www.w3.org/1999/xlink" width="100%" height="100%" viewBox="0 0 550 320" fill-rule="evenodd" stroke-linejoin="round" stroke-miterlimit="2"><clipPath id="A"><path d="M0 0h550v320H0z"/></clipPath><g clip-path="url(#A)"><path d="M-42.63-17.97h624.585V354.03H-42.63z" fill="#4e688c"/><g fill="#7ca3d9" fill-rule="nonzero"><path d="M302.634 235.578h-90.35V117.873a2.39 2.39 0 0 0-2.386-2.386 2.39 2.39 0 0 0-2.386 2.386v118.5a3.98 3.98 0 0 0 3.976 3.976h91.146c1.318 0 2.386-1.068 2.386-2.386s-1.068-2.386-2.386-2.386zm34.32-136.213l-20.28-20.852a2.38 2.38 0 0 0-1.7-.723H211.488c-2.192 0-3.976 1.785-3.976 3.977v18.6c0 1.318 1.068 2.386 2.386 2.386s2.386-1.068 2.386-2.386V82.563h101.67l18.903 19.434v133.58h-13.522a2.39 2.39 0 0 0-2.387 2.386 2.39 2.39 0 0 0 2.387 2.386h14.317a3.98 3.98 0 0 0 3.977-3.976V101.028a2.39 2.39 0 0 0-.676-1.663z"/><path d="M336.954 99.365l-20.28-20.852c-.677-.696-1.7-.913-2.608-.547s-1.488 1.24-1.488 2.2v20.852c0 1.318 1.068 2.386 2.386 2.386h20.28a2.38 2.38 0 0 0 2.197-1.458c.372-.884.18-1.904-.487-2.6zm-19.605-.723V86.05l12.246 12.6H317.35zm-33.736-8.184h-57.488c-2.193 0-3.977 1.784-3.977 3.977v13.187a3.98 3.98 0 0 0 3.977 3.976h57.488c2.193 0 3.977-1.784 3.977-3.976V94.434c0-2.192-1.784-3.976-3.977-3.976zm-.795 16.368H226.92V95.23h55.898v11.596zm-36.838 17.26c-1.05-.796-2.546-.593-3.343.456l-10.542 13.87-3.166-2.77c-.992-.868-2.5-.768-3.367.224a2.39 2.39 0 0 0 .224 3.367l5.1 4.453a2.39 2.39 0 0 0 1.571.591 2.41 2.41 0 0 0 .24-.012 2.39 2.39 0 0 0 1.659-.93l12.1-15.906a2.39 2.39 0 0 0-.456-3.344z"/><use xlink:href="#C"/><use xlink:href="#D"/><use xlink:href="#E"/><path d="M245.98 156.535c-1.05-.797-2.546-.594-3.343.456l-10.542 13.87-3.166-2.77c-.992-.868-2.5-.767-3.367.225s-.767 2.5.224 3.366l5.1 4.454a2.39 2.39 0 0 0 1.571.59 2.41 2.41 0 0 0 .24-.012c.658-.067 1.26-.403 1.66-.93l12.1-15.906c.797-1.05.593-2.545-.456-3.343zm71.805-.487H257.7c-1.317 0-2.386 1.068-2.386 2.386a2.39 2.39 0 0 0 2.386 2.386h60.094c1.318 0 2.386-1.068 2.386-2.386s-1.068-2.386-2.386-2.386zM296.707 164H257.7c-1.317 0-2.386 1.068-2.386 2.386a2.39 2.39 0 0 0 2.386 2.386h39.016c1.318 0 2.386-1.068 2.386-2.386S298.025 164 296.707 164zm8.908 7.954H257.7c-1.317 0-2.386 1.068-2.386 2.386a2.39 2.39 0 0 0 2.386 2.386h47.924c1.317 0 2.386-1.068 2.386-2.386a2.39 2.39 0 0 0-2.386-2.386zm12.17 16.544H257.7c-1.317 0-2.386 1.068-2.386 2.386a2.39 2.39 0 0 0 2.386 2.386h60.094c1.318 0 2.386-1.068 2.386-2.386s-1.068-2.386-2.386-2.386zm-21.078 7.952H257.7c-1.317 0-2.386 1.068-2.386 2.386a2.39 2.39 0 0 0 2.386 2.386h39.016c1.318 0 2.386-1.068 2.386-2.386s-1.068-2.386-2.386-2.386zm8.908 7.954H257.7c-1.317 0-2.386 1.068-2.386 2.386a2.39 2.39 0 0 0 2.386 2.386h47.924c1.317 0 2.386-1.068 2.386-2.386a2.39 2.39 0 0 0-2.386-2.386zm-63.943-15.906h-12.725c-2.193 0-3.977 1.784-3.977 3.977V205.2c0 2.193 1.784 3.977 3.977 3.977h12.725a3.98 3.98 0 0 0 3.976-3.976v-12.725c0-2.193-1.784-3.977-3.976-3.977zm-.795 15.906h-11.135V193.27h11.135v11.134z"/></g></g><defs ><path id="C" d="M317.785 123.598H257.69c-1.317 0-2.386 1.068-2.386 2.386s1.07 2.386 2.386 2.386h60.094c1.318 0 2.386-1.068 2.386-2.386s-1.068-2.386-2.386-2.386z"/><path id="D" d="M296.707 131.55H257.69c-1.317 0-2.386 1.068-2.386 2.386s1.07 2.386 2.386 2.386h39.016c1.318 0 2.386-1.068 2.386-2.386s-1.068-2.386-2.386-2.386z"/><path id="E" d="M305.615 139.505H257.69c-1.317 0-2.386 1.068-2.386 2.386s1.07 2.386 2.386 2.386h47.924c1.317 0 2.386-1.068 2.386-2.386s-1.07-2.386-2.386-2.386z"/></defs></svg>