<svg xmlns="http://www.w3.org/2000/svg" height="512" viewBox="0 0 512.418 512.418" width="512"><path d="M437.335 75.082c-100.1-100.102-262.136-100.118-362.252 0-100.103 100.102-100.118 262.136 0 362.253 100.1 100.102 262.136 100.117 362.252 0 100.103-100.102 100.117-262.136 0-362.253zM426.63 400.82c-11.968-10.702-24.77-20.173-38.264-28.335 8.92-30.81 14.203-64.712 15.452-99.954h75.31c-3.405 47.503-21.657 92.064-52.497 128.29zM33.29 272.532h75.31c1.25 35.242 6.533 69.145 15.452 99.954-13.494 8.162-26.296 17.633-38.264 28.335-30.84-36.225-49.09-80.786-52.497-128.29zM85.79 111.596c11.968 10.702 24.77 20.173 38.264 28.335-8.92 30.81-14.203 64.712-15.452 99.954h-75.3c3.406-47.502 21.657-92.063 52.498-128.29zm154.097 31.71c-26.622-1.904-52.29-8.46-76.088-19.278 13.84-35.64 39.354-78.384 76.088-88.977zm0 32.708v63.873H141.26c1.13-29.812 5.354-58.44 12.38-84.632 27.043 11.822 56.127 18.882 86.246 20.76zm0 96.52v63.873c-30.12 1.877-59.203 8.937-86.246 20.76-7.025-26.193-11.25-54.82-12.38-84.632zm0 96.58v108.254c-36.732-10.593-62.246-53.333-76.088-88.976 23.797-10.817 49.466-17.374 76.088-19.278zm32.646 0c26.622 1.904 52.29 8.46 76.088 19.278-13.84 35.64-39.354 78.383-76.088 88.976zm0-32.708v-63.873h98.625c-1.13 29.812-5.354 58.44-12.38 84.632-27.043-11.822-56.127-18.882-86.246-20.76zm0-96.52v-63.873c30.12-1.877 59.203-8.937 86.246-20.76 7.025 26.193 11.25 54.82 12.38 84.632zm0-96.58V35.05c36.734 10.593 62.248 53.338 76.088 88.977-23.797 10.816-49.466 17.373-76.088 19.277zm73.32-91.957c20.895 9.15 40.39 21.557 57.864 36.95a224.36 224.36 0 0 1-26.26 19.931c-8.14-20.152-18.536-39.736-31.604-56.882zM134.96 108.23c-9.165-5.947-17.94-12.597-26.26-19.93 17.475-15.394 36.97-27.8 57.864-36.95C153.497 68.496 143.1 88.08 134.96 108.23zm.001 295.958c8.138 20.15 18.537 39.736 31.604 56.882-20.895-9.15-40.39-21.557-57.864-36.95a224.36 224.36 0 0 1 26.26-19.931zm242.494 0a224.46 224.46 0 0 1 26.26 19.93c-17.475 15.394-36.97 27.8-57.864 36.95 13.067-17.144 23.465-36.73 31.604-56.88zm26.362-164.302c-1.25-35.242-6.533-69.146-15.452-99.954 13.494-8.162 26.295-17.633 38.264-28.335 30.84 36.225 49.09 80.786 52.497 128.29z" fill="#fff"/></svg>