<svg xmlns="http://www.w3.org/2000/svg" width="59" height="69" fill="#fff" fill-rule="nonzero"><path d="M28.002 22.596c-.694-.78-2.36-2.208-3.192-2.987-1.388-1.17-1.666-1.56-1.666-3.767V6.88c0-1.3-2.082-1.04-2.082 0v16.886c.14 1.3-.555 2.338 1.666 3.767C25.226 28.96 28.835 30 28.835 30l.14-4.676c.14-1.3-.278-1.948-.972-2.728m-.972 4.806s-.14 0 0 0c-3.47-1.3-4.164-1.04-3.748-6.105 4.164 2.468 3.886 3.377 3.748 6.105m3.97-2.07L31.122 30s3.168-1.037 5.362-2.463c1.95-1.296 1.34-2.333 1.462-3.76.122-1.296 0-16.853 0-16.853 0-1.167-1.828-1.296-1.828 0v8.945c0 2.074-.244 2.463-1.462 3.76-.73.778-2.193 2.204-2.803 2.982S31 24.037 31 25.333m4.996-3.9c.366 4.926-.122 4.667-3.3 6.093h0c0-2.852-.244-3.76 3.3-6.093"/><path d="M31.9 13.78l-1.5-2.74V1.126c0-1.566-1.887-1.435-1.887 0v9.915L26.5 14.955c-.503 1.174-1.006 2.48.503 4.305.126.13.252.522 2.515 2.74h0l2.012-2.087c2.264-2.48 1.5-4.175.377-6.132m-2.515 5.74c-3.647-2.087-1.006-4.827 0-6.654l.126.13c2.64 4.305 1.887 4.827-.126 6.523m-1.52 15.213c-.128-2-.77-3.733-4.752-5.333-3.34-1.333-7.963-1.6-11.303-2.133S2.826 25.8 0 23c2.055 7.333 7.45 10.267 12.716 11.467 6.037 1.333 11.56 1.867 14.9 4.267L28 39c-.257-1.6 0-2.267-.128-4.267h0zm-1.67.933c-2.954-1.2-4.88-1.467-10.018-2.533C10.918 32.066 7.834 31 5 27.933c4.495 1.867 11.817 2.533 15.798 3.333 3.853.933 5 2 5.394 4.4h0zM31 39l.385-.267c3.34-2.4 8.734-2.933 14.9-4.267C51.68 33.267 56.945 30.2 59 23c-2.826 2.8-8.477 3.733-11.817 4.267s-8.092.8-11.303 2.133c-3.982 1.467-4.624 3.333-4.752 5.333-.257 2 0 2.667-.128 4.267h0zm1.67-3.333c.385-2.4 1.54-3.467 5.523-4.4S49.495 29.8 54 27.933c-2.826 3.067-5.908 4.133-11.174 5.2s-7.193 1.333-10.147 2.533h0zM28 44.333c0-3.867-2.1-5.067-5.515-5.867-3.283-.933-7.88-1.6-11.818-2.667C6.727 34.6 4.626 33.933 2 31c.525 5.733 4.465 9.733 9.323 11.467s4.596 1.333 7.1 2c2.626.667 3.02 1.6 3.02 3.2V51h6.434c.263-7.6 0-2.667.13-6.667h0zm-1.97 4.533h-2.626s0-1.067-.13-3.067c-.263-2.533-3.152-2.667-7.88-4.133-3.283-.933-7.485-2.133-9.455-5.467 1.182.533 3.414 1.467 7.222 2.267 3.545.8 5.646 1.2 8.93 1.867 3.15.667 3.81 2.667 3.81 4.8v3.733h.13zM30.13 51h6.434v-3.356c0-1.6.525-2.55 3.02-3.22 2.626-.67 2.364-.268 7.1-2.013 4.86-1.747 8.67-5.773 9.326-11.41-2.626 2.953-4.86 3.624-8.667 4.832-3.94 1.208-8.535 1.88-11.818 2.685-3.283.94-5.515 2.013-5.515 5.906.13 3.893 0-1.074.13 6.577h0zm1.838-5.638c0-2.148.657-4.16 3.808-4.832l8.93-1.88c3.808-.805 6.04-1.745 7.222-2.282-1.838 3.356-6.172 4.564-9.455 5.503-4.727 1.342-7.616 1.6-7.88 4.16-.13 1.88-.13 3.087-.13 3.087h-2.626V45.36h.13zM15 68.596c-.806.135-1.746.404-2.687.404C8.552 69 6 67.112 6 63.202 6 59.157 8.418 57 12.313 57a6.81 6.81 0 0 1 2.687.539l-.134 2.022c-.94-.54-1.612-.674-2.552-.674-2.418 0-3.896 1.888-3.896 4.18 0 2.427 1.478 4.18 3.896 4.18.94 0 2.015-.135 2.552-.54l.134 1.89zm10.467-9.17c-.933-.404-2-.674-2.933-.674-2.667 0-4.133 1.888-4.133 4.18 0 2.427 1.467 4.18 3.867 4.18.667 0 1.067 0 1.467-.135v-3.1h-2.4V62H26v6.472c-1.2.27-2.533.54-3.733.54C18.533 69 16 67.112 16 63.202 16 59.157 18.4 57 22.267 57c1.333 0 2.4.135 3.333.54l-.133 1.888zM28 58h2v11h-2zm10.954 6.78h-3.16l1.517-4.605 1.644 4.605zM32 69h2.276l1-2.558h4.425L40.598 69H43l-4.3-11h-2.53L32 69zm15.25-9.337H48c1.125 0 2.25.128 2.25 1.407 0 1.407-1.25 1.535-2.25 1.535h-.75v-2.942zM45 69h2.125v-4.604h.75c.875 0 1.25.256 1.5 1.15L50.625 69H53l-1.625-4.35c-.25-.512-.5-1.15-1.125-1.15h0c1.375-.128 2.25-1.28 2.25-2.558 0-3.07-2.75-2.942-5.125-2.942H45v11z"/></svg>