<svg xmlns="http://www.w3.org/2000/svg" height="512" width="512" fill="#fff"><path d="M493.578 454.5l16.994-36.113A15 15 0 0 0 497 397h-33.5v55c0 24.813-20.187 45-45 45H392c0 8.284 6.716 15 15 15h90a15 15 0 0 0 13.572-21.387zM48.5 452v-55H15a15 15 0 0 0-12.665 6.963 15 15 0 0 0-.907 14.424L18.422 454.5 1.428 490.613a15 15 0 0 0 .907 14.424A15 15 0 0 0 15 512h90c8.284 0 15-6.716 15-15H93.5c-24.813 0-45-20.187-45-45zM416 60c-48.364 0-96.3-15.98-135-45L265 3a15 15 0 0 0-18 0l-16 12c-38.7 29.02-86.636 45-135 45-8.284 0-15 6.716-15 15v85.357c0 112.05 66.332 213.473 168.988 258.385A14.97 14.97 0 0 0 256 420a15 15 0 0 0 6.012-1.258C364.668 373.83 431 272.408 431 160.357V75c0-8.284-6.716-15-15-15zm-59.53 135.535l-39.353 38.36 9.3 54.164a15 15 0 0 1-5.967 14.671 14.99 14.99 0 0 1-8.818 2.865 14.98 14.98 0 0 1-6.979-1.723L256 278.3l-48.643 25.573a15 15 0 0 1-21.764-15.814l9.3-54.164-39.353-38.36a15 15 0 0 1 8.313-25.585l54.385-7.903 24.32-49.28a15 15 0 0 1 26.902 0l24.32 49.28 54.385 7.903a15 15 0 0 1 8.313 25.585zm-86.1-13.14L256 153.298l-14.36 29.098a15 15 0 0 1-11.294 8.205l-32.112 4.667 23.236 22.65a15 15 0 0 1 4.314 13.277l-5.485 31.98 28.72-15.1c2.185-1.148 4.583-1.723 6.98-1.723a14.99 14.99 0 0 1 6.98 1.723l28.72 15.1-5.485-31.98c-.834-4.866.78-9.83 4.314-13.277l23.236-22.65-32.112-4.667a14.98 14.98 0 0 1-11.294-8.205zm3.677 263.83A44.71 44.71 0 0 1 256 450a44.74 44.74 0 0 1-18.042-3.775c-48.624-21.273-89.873-54.014-121.16-94.225H93.5c-8.284 0-15 6.716-15 15v85c0 8.284 6.716 15 15 15h325c8.284 0 15-6.716 15-15v-85c0-8.284-6.716-15-15-15h-23.3c-31.288 40.2-72.538 72.953-121.164 94.227z"/></svg>