<svg xmlns="http://www.w3.org/2000/svg" xmlns:xlink="http://www.w3.org/1999/xlink" width="21" height="16"><defs><path id="A" d="M0 .22h20.91v13.112H0z"/></defs><g fill="none" fill-rule="evenodd"><g transform="translate(0 2.112)"><mask id="B" fill="#fff"><use xlink:href="#A"/></mask><path d="M20.91 11.394c0 1.066-.872 1.938-1.938 1.938H1.938C.872 13.332 0 12.46 0 11.394V2.158C0 1.092.872.22 1.938.22H18.97c1.066 0 1.938.872 1.938 1.938v9.236zm-5.168-4.618a5.29 5.29 0 0 0-5.287-5.287 5.29 5.29 0 0 0-5.287 5.287 5.29 5.29 0 0 0 5.287 5.287 5.29 5.29 0 0 0 5.287-5.287z" fill="#fff" mask="url(#B)"/></g><path d="M15.122 1.718L14.142.4a1.1 1.1 0 0 0-.772-.4H7.54a1.06 1.06 0 0 0-.772.4L5.385 2.267c-.158.214-.07.4.197.4h9.747c.267 0 .356-.176.197-.4l-.404-.55zM13.62 8.9c0 1.75-1.418 3.166-3.166 3.166A3.17 3.17 0 0 1 7.288 8.89a3.17 3.17 0 0 1 3.166-3.167c1.75 0 3.166 1.417 3.166 3.167" fill="#fff"/></g></svg>