<svg xmlns="http://www.w3.org/2000/svg" width="21" height="16"><path d="M5.025.44v13.45c0 .68-.258 1.304-.677 1.785h14.246c1.12 0 1.904-.783 1.904-1.904V.44H5.025zm9.046 2.38h3.81c.264 0 .476.212.476.476s-.212.476-.476.476h-3.81c-.264 0-.476-.212-.476-.476s.212-.476.476-.476zm-13.57.476V13.89a1.78 1.78 0 0 0 1.785 1.785 1.78 1.78 0 0 0 1.785-1.785V3.295H.502zm7.14 0h3.81v3.333h-3.81V3.295zm6.427 2.857h3.81c.264 0 .476.212.476.476s-.212.476-.476.476h-3.81c-.264 0-.476-.212-.476-.476s.212-.476.476-.476zM7.643 9.247H17.88c.264 0 .476.212.476.476s-.212.476-.476.476H7.643c-.264 0-.476-.212-.476-.476s.212-.476.476-.476zm0 3.095H17.88c.264 0 .476.212.476.476s-.212.476-.476.476H7.643c-.264 0-.476-.212-.476-.476s.212-.476.476-.476z" fill="#fff" fill-rule="nonzero"/></svg>