<svg xmlns="http://www.w3.org/2000/svg" width="21" height="19" fill="#fff" fill-rule="evenodd"><path d="M13.565 10.047a3.07 3.07 0 0 1-3.064 3.075 3.07 3.07 0 1 1 0-6.149 3.07 3.07 0 0 1 3.064 3.075"/><path d="M5.72 16.877l-.968 1.318A9.74 9.74 0 0 1 .805 10.36C.805 4.988 5.146.633 10.5.633s9.695 4.355 9.695 9.727c0 3.236-1.587 6.204-4.2 8.008l-.927-1.347c2.167-1.502 3.486-3.97 3.486-6.66 0-4.468-3.6-8.1-8.064-8.1s-8.064 3.622-8.064 8.1a8.09 8.09 0 0 0 3.285 6.518zM7.287 14.3L6.28 15.6c-1.646-1.294-2.628-3.272-2.628-5.4A6.86 6.86 0 0 1 10.5 3.32a6.86 6.86 0 0 1 6.847 6.87c0 2.233-1.07 4.288-2.84 5.57l-.955-1.327a5.23 5.23 0 0 0 2.164-4.244c0-2.9-2.335-5.233-5.215-5.233S5.285 7.3 5.285 10.19c0 1.63.747 3.135 2.003 4.122z" fill-rule="nonzero"/></svg>