<svg xmlns="http://www.w3.org/2000/svg" width="28" height="28"><path d="M19.5 16.625l-.25.438L26 23.875 23.875 26l-6.75-6.812-.437.313c-1.667 1.042-3.396 1.563-5.187 1.563-2.625 0-4.865-.937-6.72-2.812S2 14.125 2 11.5a9.15 9.15 0 0 1 2.781-6.719A9.15 9.15 0 0 1 11.5 2a9.15 9.15 0 0 1 6.719 2.781A9.15 9.15 0 0 1 21 11.5a9.42 9.42 0 0 1-1.5 5.125zM16.813 6.188C15.354 4.73 13.583 4 11.5 4s-3.854.73-5.312 2.188S4 9.417 4 11.5s.73 3.854 2.188 5.313S9.417 19 11.5 19s3.854-.73 5.313-2.187c1.5-1.5 2.25-3.27 2.25-5.312s-.75-3.812-2.25-5.312z" fill="#171717" fill-rule="nonzero"/></svg>