<svg xmlns="http://www.w3.org/2000/svg" xmlns:xlink="http://www.w3.org/1999/xlink" width="22" height="12"><defs><path id="A" d="M0 .13h14.147v10.5H0z"/></defs><g fill="none" fill-rule="evenodd"><g transform="translate(.814 .5)"><mask id="B" fill="#fff"><use xlink:href="#A"/></mask><path d="M14.147 9.346c0 .705-.6 1.282-1.31 1.282H1.31C.6 10.63 0 10.052 0 9.346V1.41C0 .706.6.13 1.31.13h11.524c.72 0 1.31.577 1.31 1.282v7.936zM9.654 5.058L5.61 2.775c-.312-.176-.568-.032-.568.32v4.565c0 .353.255.497.568.32L9.654 5.7c.312-.176.312-.465 0-.64z" fill="#fff" mask="url(#B)"/></g><path d="M19.44 2.5l-1.254.662-1.746.922c-.345.182-.627.63-.627.993v1.844c0 .364.282.81.627.994l4.746 2.506c.345.182.627.033.627-.33V1.91c0-.364-.282-.513-.627-.33L19.44 2.5z" fill="#fff"/></g></svg>