<svg xmlns="http://www.w3.org/2000/svg" width="22" height="22"><path d="M15.708 13.697l6.23 6.23-1.87 1.87-6.174-6.23v-.963l-.396-.34c-1.5 1.284-3.266 1.926-5.268 1.926-2.228 0-4.125-.784-5.692-2.35S.19 10.374.19 8.147s.784-4.135 2.35-5.72S5.985.047 8.175.047c2.228 0 4.125.793 5.692 2.38s2.35 3.493 2.35 5.72c0 2-.642 3.757-1.926 5.268l.396.283h1.02zM4.267 12.11c1.095 1.057 2.417 1.586 3.965 1.586s2.87-.538 3.965-1.614 1.643-2.388 1.643-3.937a5.4 5.4 0 0 0-1.643-3.965 5.4 5.4 0 0 0-3.965-1.643c-1.548 0-2.86.548-3.937 1.643S2.68 6.598 2.68 8.147s.53 2.87 1.586 3.965z" fill="#171717" fill-rule="nonzero"/></svg>