<svg xmlns="http://www.w3.org/2000/svg" width="55" height="66" fill-rule="nonzero"><path d="M52.978 2.013v53.973H13.103V2.013h39.875zM11 0v58h44V0H11z" fill="#fff"/><path d="M18 37h4v10h-4zm8-4h4v14h-4zm9 4h4v10h-4zm7-3h4v13h-4zM17 50h15v3H17zm18 0h15v3H35z" fill="#000"/><path d="M18 37h4v10h-4zm8-4h4v14h-4zm9 4h4v10h-4zm7-3h4v13h-4z" fill="#fff"/><path d="M43.264 20.096c-.246.67-.575 1.343-1.068 1.846l3.614 5.12c1.807-1.595 3.12-3.777 3.614-6.295l-6.16-.67zm-3.696-6.546c2.054.42 3.696 2.266 3.86 4.448l6.16.67v-.252c0-5.875-4.436-10.743-10.02-11.246v6.38zm-4.6 1.595c.657-.755 1.56-1.343 2.63-1.595V7.255a11.24 11.24 0 0 0-7.968 4.616l5.34 3.273zm5.586 7.973a5.19 5.19 0 0 1-1.971.42c-2.7 0-4.93-2.266-4.93-5.036 0-.587.082-1.1.246-1.595l-5.257-3.2c-.657 1.427-1.068 3.105-1.068 4.784 0 6.2 4.93 11.246 11.007 11.246 2.054 0 3.943-.588 5.586-1.595l-3.614-5.036z" fill="#e98316"/><path d="M17 7h4v20h-4zm0 43h15v3H17zm18 0h15v3H35zM5 16h4v3H5zm0 6h4v3H5zm0 21h4v3H5zm0 7h4v3H5zm36.897 9.805v4.26l-39.875-.077.08-53.973h7.28V8H0v58h44v-6.195z" fill="#fff"/></svg>