<svg xmlns="http://www.w3.org/2000/svg" width="17" height="21"><path d="M.243.634h16.514v19.733H.243V.634zM2.78 14.477v1.558h11.213v-1.558H2.78zm0 2.3v1.558h11.213v-1.558H2.78zm6.5-9.474h3.24c.283 0 .472-.252.44-.503-.22-1.92-1.722-3.65-3.65-3.65-.503 0-.503.34-.503.44v3.24c.03.283.22.472.472.472zm-1.54 4.782c2.076.063 3.775-1.54 3.87-3.555 0-.126-.094-.22-.22-.22H8.232c-.22 0-.41-.19-.41-.41V4.766c0-.126-.094-.22-.22-.22-2.013.126-3.618 1.825-3.555 3.87.063 1.982 1.73 3.618 3.68 3.68z" fill="#fff" fill-rule="evenodd"/></svg>