<svg xmlns="http://www.w3.org/2000/svg" width="28" height="28"><path d="M25 22.52V11c-.306.36-.635.7-.988 1L17.9 17.06l-1.19 1.005c-.306.24-.72.482-1.24.727s-1 .367-1.468.367h-.03c-.458 0-.948-.122-1.468-.367s-.933-.487-1.24-.727L10.1 17.06 3.988 12c-.353-.3-.683-.63-.988-1v11.52a.47.47 0 0 0 .136.338.43.43 0 0 0 .322.142h21.083a.43.43 0 0 0 .322-.142.47.47 0 0 0 .136-.338zm0-16.442v-.383l-.007-.203c-.005-.09-.02-.154-.043-.195l-.08-.14a.27.27 0 0 0-.129-.117.48.48 0 0 0-.201-.039H3.458c-.124 0-.232.05-.322.148S3 5.365 3 5.5c0 1.75.702 3.23 2.105 4.438l5.743 4.953.5.46.66.586.637.492c.263.193.504.336.723.43s.425.14.616.14h.03c.19 0 .396-.047.616-.14s.46-.237.723-.43l.637-.492.66-.586.5-.46 5.743-4.953c.516-.448.995-1.05 1.44-1.805S25 6.693 25 6.078zm2-.578v17c0 .688-.227 1.276-.682 1.766s-1 .734-1.64.734H3.32c-.638 0-1.185-.245-1.64-.734S1 23.188 1 22.5v-17c0-.688.227-1.276.682-1.766S2.683 3 3.32 3H24.68c.638 0 1.185.245 1.64.734S27 4.812 27 5.5z" fill="#171717" fill-rule="nonzero"/></svg>