<svg xmlns="http://www.w3.org/2000/svg" width="67" height="52" fill-rule="nonzero" fill="none"><path d="M18.222 2v43.906c0 1.42-.263 2.803-.757 4.094H60.75c2.556 0 4.25-1.76 4.25-4.5V2H18.222z" stroke="#fff" stroke-width="4"/><path d="M46.6 8h12.8c.886 0 1.6.67 1.6 1.5s-.714 1.5-1.6 1.5H46.6c-.886 0-1.6-.67-1.6-1.5S45.714 8 46.6 8z" fill="#fff"/><path d="M0 10v35.942C0 49.298 2.676 52 6 52s6-2.702 6-6.058V10H0z" fill="#e98316"/><path d="M24 8h13v15H24zm22.6 12h12.8c.886 0 1.6.67 1.6 1.5s-.714 1.5-1.6 1.5H46.6c-.886 0-1.6-.67-1.6-1.5s.714-1.5 1.6-1.5zM24.617 30h34.766c.896 0 1.617.67 1.617 1.5s-.72 1.5-1.617 1.5H24.617C23.72 33 23 32.33 23 31.5s.72-1.5 1.617-1.5zm0 11h34.766c.896 0 1.617.67 1.617 1.5s-.72 1.5-1.617 1.5H24.617C23.72 44 23 43.33 23 42.5s.72-1.5 1.617-1.5z" fill="#fff"/></svg>