<svg xmlns="http://www.w3.org/2000/svg" height="512" width="512" fill="#fff"><path d="M241 167.26v-30.32c-54.2 6.78-97.28 49.86-104.06 104.06h30.32c6.33-37.63 36.1-67.4 73.74-73.74zM196 256c0 27.9 19.15 51.42 45 58.1V256h30v58.1c25.85-6.68 45-30.2 45-58.1 0-33.08-26.92-60-60-60s-60 26.92-60 60zm60 90c-44.52 0-81.6-32.5-88.74-75h-30.32c7.4 59.12 57.97 105 119.06 105s111.66-45.88 119.06-105h-30.32c-7.15 42.5-44.22 75-88.74 75zm256-48.23v-83.54l-53.4-13.1c-4.7-17.3-11.6-33.9-20.63-49.54l27.85-46.42-59-59-46.42 27.85C344.75 65 328.15 58.08 310.86 53.4L297.77 0h-83.54l-13.1 53.4c-17.3 4.7-33.9 11.6-49.54 20.63l-46.4-27.83-59 59 27.85 46.42C65 167.27 58.1 183.87 53.4 201.16L0 214.23v83.54l53.4 13.1c4.7 17.3 11.6 33.9 20.63 49.54l-27.83 46.4 59 59 46.42-27.85c15.65 9.02 32.25 15.94 49.54 20.63l13.1 53.4h83.54l13.1-53.4c17.3-4.7 33.9-11.6 49.54-20.63l46.42 27.85 59-59L438 360.4c9.02-15.65 15.94-32.25 20.63-49.54zM256 406c-82.7 0-150-67.3-150-150s67.3-150 150-150 150 67.3 150 150-67.3 150-150 150zm15-269.06v30.32c37.63 6.33 67.4 36.1 73.74 73.74h30.32c-6.78-54.2-49.86-97.28-104.06-104.06z"/></svg>