<svg xmlns="http://www.w3.org/2000/svg" width="59" height="62" fill-rule="nonzero"><g fill="#fff"><path d="M56.076 4.554l-.006 37.063c0 .045-.006.09-.013.136-.006.162.026-.168.02-.168-.04.084-.045.207-.07.298l-.078.246c-.045.143.065-.15.065-.15-.026.02-.065.136-.078.155-.04.078-.084.15-.13.22-.02.032-.052.07-.07.104-.078.15.188-.214.07-.09l-.356.363c-.233.214.194-.117-.006.006l-.252.155c-.052.026-.317.15-.097.058s-.052.013-.1.032l-.252.065c-.323.07.24-.006-.006.006l-.33.013H4.492c-.09 0-.18-.013-.272-.013-.162-.006.168.026.168.02-.04-.013-.09-.02-.13-.026l-.252-.065-.123-.04c-.194-.065.078.013.1.052-.04-.045-.175-.084-.226-.117-.084-.045-.168-.117-.252-.155-.123-.065.116.09.123.104-.02-.032-.07-.058-.097-.084l-.214-.207c-.052-.052-.104-.155-.168-.194.013.006.155.246.104.123-.02-.04-.052-.07-.07-.104l-.15-.26c-.155-.28.065.214-.006-.006-.052-.155-.065-.356-.136-.505 0-.006.032.324.02.168 0-.045-.006-.09-.013-.136-.006-.058-.006-.123-.006-.18V4.56c0-.104.013-.214.02-.317.006-.162-.026.168-.02.168.02-.045.026-.123.032-.175l.084-.292c.013-.04.04-.084.045-.123 0 0-.142.28-.058.15.045-.07.078-.155.116-.227l.136-.214c.065-.123-.09.117-.104.123.052-.032.097-.117.136-.162.058-.065.116-.123.18-.18.04-.04.265-.227.078-.078-.18.15.045-.026.097-.058l.26-.143c.214-.123-.317.1.013 0l.252-.07c.058-.013.356-.058.1-.032-.252.026.097-.006.162-.006l50.27.013c.265.013-.29-.065-.032 0l.298.078c.058.02.33.123.1.032s.045.026.097.058c.078.04.15.084.22.13.02.013.078.07.104.07-.006 0-.233-.2-.13-.097l.22.2.175.188c.168.188-.15-.24-.02-.026.065.1.155.376.252.447l-.065-.15.045.123c.032.097.058.194.078.298.006.04.013.09.026.13 0 .006-.032-.324-.02-.168-.006.097.006.2.006.304.013.764.66 1.5 1.456 1.458.776-.032 1.47-.64 1.456-1.458-.032-2.028-1.385-3.874-3.364-4.4C55.176.04 54.71 0 54.245 0H4.59c-1.25.006-2.49.5-3.345 1.425-.81.88-1.242 2.002-1.242 3.2l.006 37c.116 1.995 1.527 3.842 3.533 4.256.666.136 1.32.117 1.993.117H54.42c2.562-.02 4.574-2.086 4.58-4.64V4.567c0-.764-.666-1.5-1.456-1.458-.802.026-1.47.628-1.47 1.445z"/><path d="M15.712 61.27l8.664-16.056-1.267.727h11.765l-1.267-.727L42.27 61.27c.366.68 1.358.95 2.01.53.686-.445.92-1.3.53-2.017l-8.664-16.056c-.242-.452-.764-.727-1.267-.727H23.115c-.503 0-1.025.275-1.267.727l-8.664 16.056c-.366.674-.19 1.637.53 2.017.68.36 1.613.196 1.998-.53h0z"/></g><path d="M12.5 32.576l13.2-13.347h-2.077l9.105 9.206a1.48 1.48 0 0 0 2.077 0l12.77-12.912c.542-.548.588-1.56 0-2.1s-1.496-.588-2.077 0L32.73 26.335h2.077l-9.105-9.206a1.48 1.48 0 0 0-2.077 0l-13.2 13.347c-.542.548-.588 1.56 0 2.1s1.502.588 2.077 0h0z" fill="#e98316"/></svg>