<svg xmlns="http://www.w3.org/2000/svg" width="17" height="21"><path d="M6.053 16.106h.95l-1.246 3.74a.45.45 0 0 1-.427.308c-.047 0-.094-.007-.142-.022a.45.45 0 0 1-.286-.569l1.15-3.456zm5.298 0h-.95l1.246 3.74a.45.45 0 0 0 .427.308c.047 0 .094-.007.142-.022a.45.45 0 0 0 .286-.569l-1.15-3.456zm5.22-13.49a.45.45 0 0 1-.45.45h-1.8v12.142H3.08V3.064h-1.8a.45.45 0 0 1-.45-.45.45.45 0 0 1 .45-.45h6.746V1.5c0-.37.304-.675.675-.675s.675.304.675.675v.675h6.746a.45.45 0 0 1 .45.45zm-3.598 4.488l-.007-.05c0-.013-.002-.027-.004-.038s-.01-.03-.013-.043-.007-.027-.013-.04-.013-.025-.02-.036l-.022-.04c-.007-.01-.016-.02-.025-.03s-.02-.027-.034-.038-.022-.018-.03-.025c-.013-.01-.027-.02-.04-.03s-.025-.016-.038-.02a.59.59 0 0 0-.038-.02l-.045-.013c-.013-.004-.025-.007-.04-.01s-.03-.004-.05-.007c-.01 0-.02-.002-.03-.002h-2.25a.45.45 0 0 0-.45.45.45.45 0 0 0 .45.45h1.22L9.763 9.44l-1.927-1.35-.05-.027a.18.18 0 0 0-.036-.018c-.013-.007-.027-.01-.04-.013s-.03-.01-.043-.013l-.038-.004c-.016-.002-.03-.004-.05-.004a.25.25 0 0 0-.038.004l-.047.002c-.013.004-.025.01-.038.01l-.043.013a.18.18 0 0 0-.036.018c-.013.007-.03.013-.043.022s-.018.013-.027.02a.35.35 0 0 0-.045.036l-2.7 2.703c-.178.175-.178.46 0 .634a.45.45 0 0 0 .317.133.45.45 0 0 0 .317-.133l2.433-2.43 1.938 1.358a.46.46 0 0 0 .117.056l.022.007c.038.01.08.018.12.018.034 0 .065-.004.1-.01.01-.002.018-.007.03-.01.022-.007.043-.013.063-.025.01-.004.022-.01.034-.018l.052-.034c.01-.01.022-.018.03-.03s.016-.01.022-.018l1.918-2.078V9.36a.45.45 0 0 0 .45.45.45.45 0 0 0 .45-.45V7.103z" fill="#fff" fill-rule="nonzero"/></svg>