<svg xmlns="http://www.w3.org/2000/svg" xmlns:xlink="http://www.w3.org/1999/xlink" width="487" height="75"><style><![CDATA[.B{fill:#fff}.C{font-family:CerebriSans-Light, Cerebri Sans}.D{font-weight:300}]]></style><defs><linearGradient x1="26.340971%" y1="4.83708273%" x2="78.5826972%" y2="92.4748447%" id="A"><stop stop-color="#67c9cb" offset="0%"/><stop stop-color="#b1d8b7" offset="100%"/></linearGradient><path d="M36.5 65C52.24 65 65 52.24 65 36.5S52.24 8 36.5 8 8 20.76 8 36.5 20.76 65 36.5 65zm0 8C16.342 73 0 56.658 0 36.5S16.342 0 36.5 0 73 16.342 73 36.5 56.658 73 36.5 73z" id="B"/></defs><g transform="translate(-1 -2)" fill="none" fill-rule="evenodd"><g transform="translate(202 4)"><mask id="C" class="B"><use xlink:href="#B"/></mask><use fill="url(#A)" fill-rule="nonzero" xlink:href="#B"/><path fill="#00a5a7" mask="url(#C)" d="M-2-10h38.5v46.5H-2z"/></g><text font-family="CerebriSans-Bold, Cerebri Sans" font-size="25" font-weight="bold" class="B"><tspan y="54" x="0">2,900,000</tspan></text><text font-size="16" class="B C D"><tspan x="1" y="16.7">Indonesia has</tspan></text><text font-size="20" class="B C D"><tspan x="296" y="27.7">Almost 1/4 of all </tspan><tspan x="296" y="48.7">mangroves ecosystem </tspan><tspan x="296" y="69.7">on earth</tspan></text><text font-size="23" class="B C D"><tspan x="218.5" y="52">25%</tspan></text><text opacity=".64" font-size="14" class="B C D"><tspan x="1" y="70.7">hectares of mangrove forests</tspan></text></g></svg>