<svg xmlns="http://www.w3.org/2000/svg" xmlns:xlink="http://www.w3.org/1999/xlink" width="213" height="213"><style><![CDATA[.B{fill-rule:nonzero}]]></style><defs><linearGradient x1="26.340971%" y1="4.83708273%" x2="78.5826972%" y2="92.4748447%" id="A"><stop stop-color="#67c9cb" offset="0%"/><stop stop-color="#b1d8b7" offset="100%"/></linearGradient><path d="M36.5 65C52.24 65 65 52.24 65 36.5S52.24 8 36.5 8 8 20.76 8 36.5 20.76 65 36.5 65zm0 8C16.342 73 0 56.658 0 36.5S16.342 0 36.5 0 73 16.342 73 36.5 56.658 73 36.5 73z" id="B"/></defs><g fill="none" fill-rule="evenodd"><g transform="translate(0 111.7)"><mask id="C" fill="#fff"><use xlink:href="#B"/></mask><use fill="url(#A)" xlink:href="#B" class="B"/><path fill="#00a5a7" mask="url(#C)" d="M-2-10h38.5v46.5H-2z"/></g><path d="M6.14 41.163h7.52V44.3H1.22v-2.65l7.02-7.166c1.017-1.025 1.526-2.04 1.526-3.04 0-.692-.2-1.237-.63-1.636s-1-.598-1.776-.598c-1.668 0-2.502.948-2.502 2.844v1.306l-3.503-.354v-.88c0-1.83.537-3.245 1.6-4.242s2.53-1.495 4.37-1.495c1.742 0 3.16.452 4.254 1.355s1.642 2.144 1.642 3.723c0 .88-.185 1.685-.555 2.417s-.958 1.518-1.764 2.356L6.14 41.16zm13.074 7.63H16.7l1.526-7.983h3.613l-2.625 7.983zM30.627 26.43c1.204 0 2.3.267 3.3.8s1.768 1.27 2.338 2.2a5.92 5.92 0 0 1 .854 3.13c0 1.44-.525 2.873-1.575 4.297L30.042 44.3h-4.004l4.565-5.97c-.236.033-.5.05-.793.05a5.77 5.77 0 0 1-2.795-.702c-.863-.468-1.565-1.15-2.106-2.045s-.812-1.912-.812-3.052c-.008-1.766.63-3.233 1.917-4.4s2.824-1.752 4.614-1.752zm3.174 6.274c.016-.928-.254-1.678-.812-2.252s-1.312-.86-2.264-.86c-.928 0-1.7.287-2.3.86s-.9 1.312-.9 2.216c-.016.92.27 1.676.854 2.27s1.355.9 2.307.9c.92 0 1.664-.297 2.234-.9s.863-1.34.88-2.234zm11.743 11.84c-2.06 0-3.64-.76-4.742-2.283s-1.654-3.784-1.654-6.787c0-3 .55-5.273 1.648-6.787s2.68-2.27 4.75-2.27c2.06 0 3.638.757 4.736 2.27s1.648 3.776 1.648 6.787c0 3.003-.55 5.265-1.654 6.787s-2.68 2.283-4.73 2.283zm0-3.174c.9 0 1.617-.482 2.118-1.447s.75-2.447.75-4.45-.252-3.485-.757-4.45-1.208-1.447-2.112-1.447c-1.92 0-2.88 1.965-2.88 5.896s.96 5.896 2.88 5.896zm14.93 3.174c-2.06 0-3.64-.76-4.742-2.283s-1.654-3.784-1.654-6.787c0-3 .55-5.273 1.648-6.787s2.68-2.27 4.75-2.27c2.06 0 3.638.757 4.736 2.27s1.648 3.776 1.648 6.787c0 3.003-.55 5.265-1.654 6.787s-2.68 2.283-4.73 2.283zm0-3.174c.9 0 1.617-.482 2.118-1.447s.75-2.447.75-4.45-.252-3.485-.757-4.45-1.208-1.447-2.112-1.447c-1.92 0-2.88 1.965-2.88 5.896s.96 5.896 2.88 5.896zm11.73 7.422H69.7l1.526-7.983h3.613l-2.625 7.983zm11.4-4.248c-2.06 0-3.64-.76-4.742-2.283s-1.654-3.784-1.654-6.787c0-3 .55-5.273 1.648-6.787s2.68-2.27 4.75-2.27c2.06 0 3.638.757 4.736 2.27S90 32.463 90 35.474c0 3.003-.55 5.265-1.654 6.787s-2.68 2.283-4.73 2.283zm0-3.174c.9 0 1.617-.482 2.118-1.447s.75-2.447.75-4.45-.252-3.485-.757-4.45-1.208-1.447-2.112-1.447c-1.92 0-2.88 1.965-2.88 5.896s.96 5.896 2.88 5.896zm14.93 3.174c-2.06 0-3.64-.76-4.742-2.283s-1.654-3.784-1.654-6.787c0-3 .55-5.273 1.648-6.787s2.68-2.27 4.75-2.27c2.06 0 3.638.757 4.736 2.27s1.648 3.776 1.648 6.787c0 3.003-.55 5.265-1.654 6.787s-2.68 2.283-4.73 2.283zm0-3.174c.9 0 1.617-.482 2.118-1.447s.75-2.447.75-4.45-.252-3.485-.757-4.45-1.208-1.447-2.112-1.447c-1.92 0-2.88 1.965-2.88 5.896s.96 5.896 2.88 5.896zm14.93 3.174c-2.06 0-3.64-.76-4.742-2.283s-1.654-3.784-1.654-6.787c0-3 .55-5.273 1.648-6.787s2.68-2.27 4.75-2.27c2.06 0 3.638.757 4.736 2.27s1.648 3.776 1.648 6.787c0 3.003-.55 5.265-1.654 6.787s-2.68 2.283-4.73 2.283zm0-3.174c.9 0 1.617-.482 2.118-1.447s.75-2.447.75-4.45-.252-3.485-.757-4.45-1.208-1.447-2.112-1.447c-1.92 0-2.88 1.965-2.88 5.896s.96 5.896 2.88 5.896zM2.813 12V1.102H3.9V12H2.813zm7.602-7.703c.755 0 1.367.228 1.836.684s.703 1.1.703 1.934V12h-1.047V7.148c0-.656-.164-1.145-.492-1.465s-.747-.48-1.258-.48c-.573 0-1.04.185-1.402.555s-.543.9-.543 1.594V12H7.156V4.438H8.2V5.46c.484-.776 1.22-1.164 2.203-1.164zM21.367 0h1.047v12H21.4l-.016-1.64a3.19 3.19 0 0 1-1.137 1.305 2.95 2.95 0 0 1-1.66.492 3.31 3.31 0 0 1-1.36-.285c-.428-.2-.798-.454-1.113-.793a3.72 3.72 0 0 1-.75-1.25c-.185-.495-.277-1.03-.277-1.6s.094-1.113.28-1.605.44-.906.754-1.242a3.4 3.4 0 0 1 1.113-.79 3.29 3.29 0 0 1 1.352-.285 3.02 3.02 0 0 1 1.66.477 3.03 3.03 0 0 1 1.129 1.289V0zM18.8 11.22c.74 0 1.365-.3 1.875-.867s.766-1.3.766-2.133-.257-1.548-.77-2.13-1.137-.87-1.87-.87c-.75 0-1.38.28-1.9.84s-.766 1.28-.766 2.16.255 1.6.766 2.16 1.14.84 1.9.84zm9.594.93c-.693 0-1.318-.16-1.875-.477s-1-.777-1.328-1.38-.492-1.296-.492-2.082c0-1.177.35-2.124 1.047-2.84s1.58-1.074 2.648-1.074 1.948.358 2.64 1.074 1.04 1.663 1.04 2.84-.348 2.134-1.043 2.855-1.574 1.082-2.637 1.082zm-1.898-1.742c.505.557 1.135.836 1.9.836s1.387-.28 1.895-.836.762-1.3.762-2.195c0-.9-.254-1.628-.762-2.18a2.47 2.47 0 0 0-1.895-.828c-.755 0-1.384.276-1.887.828s-.754 1.28-.754 2.18c0 .906.25 1.638.75 2.195zm11.102-6.1c.755 0 1.367.228 1.836.684s.703 1.1.703 1.934V12H39.08V7.148c0-.656-.164-1.145-.492-1.465s-.747-.48-1.258-.48c-.573 0-1.04.185-1.402.555s-.543.9-.543 1.594V12H34.33V4.438h1.055V5.46c.484-.776 1.22-1.164 2.203-1.164zm11.734 3.75l-.023.32h-6.02c.016.922.272 1.632.77 2.13s1.116.746 1.855.746a2.4 2.4 0 0 0 1.348-.398 2.67 2.67 0 0 0 .95-1.086l.938.242a3.54 3.54 0 0 1-1.29 1.57 3.38 3.38 0 0 1-1.93.578c-1.073 0-1.95-.353-2.633-1.06s-1.023-1.663-1.023-2.87a4.71 4.71 0 0 1 .277-1.652 3.47 3.47 0 0 1 .766-1.242 3.38 3.38 0 0 1 1.152-.766c.443-.18.922-.27 1.438-.27 1.026 0 1.852.326 2.477.977s.94 1.578.945 2.78zM45.898 5.14c-.682 0-1.257.206-1.723.617s-.75 1.003-.855 1.773h4.938c-.047-.786-.283-1.382-.707-1.785s-.975-.605-1.652-.605zm7.977 7.008c-.792 0-1.452-.185-1.98-.555s-.848-.885-.957-1.547l.938-.273a1.71 1.71 0 0 0 .648 1.121c.354.273.8.4 1.336.4.297 0 .566-.04.8-.117s.448-.22.617-.422.25-.46.238-.773a1.13 1.13 0 0 0-.105-.461 1 1 0 0 0-.262-.34 1.84 1.84 0 0 0-.41-.25c-.164-.076-.336-.14-.516-.195l-.62-.184-.258-.07-.656-.207c-.172-.06-.366-.147-.582-.262s-.385-.24-.508-.375-.228-.3-.316-.523a1.93 1.93 0 0 1-.133-.727c0-.688.243-1.208.73-1.562s1.098-.53 1.832-.53c.708 0 1.307.165 1.797.496s.786.822.9 1.473l-.898.242c-.073-.458-.275-.806-.605-1.043a1.95 1.95 0 0 0-1.168-.355 2.22 2.22 0 0 0-.566.07 1.85 1.85 0 0 0-.5.211 1.06 1.06 0 0 0-.371.387 1.12 1.12 0 0 0-.141.566 1.03 1.03 0 0 0 .059.355c.04.107.083.198.133.273s.132.15.246.223l.28.168a2.24 2.24 0 0 0 .367.14l.375.113.422.1.734.2c.182.055.4.142.652.262s.45.25.594.395.267.333.37.57a1.99 1.99 0 0 1 .156.809c0 .73-.254 1.275-.762 1.637s-1.145.543-1.9.543zm6.047-9.945a.73.73 0 0 1-.547.234.76.76 0 0 1-.555-.234c-.157-.156-.234-.34-.234-.555a.74.74 0 0 1 .234-.555.77.77 0 0 1 .555-.227.76.76 0 0 1 .551.227c.154.15.23.336.23.555a.76.76 0 0 1-.234.555zM58.836 12V4.438h1.055V12h-1.055zm5.664.148c-.672 0-1.22-.176-1.645-.527s-.637-.868-.637-1.55c0-.375.066-.7.2-.973a1.73 1.73 0 0 1 .594-.68c.263-.18.557-.323.883-.43s.712-.197 1.16-.27l1.273-.195c.438-.078.656-.315.656-.7 0-.568-.168-.986-.504-1.254s-.767-.402-1.293-.402c-.495 0-.913.12-1.254.363s-.54.608-.598 1.098l-.96-.234c.104-.682.408-1.2.9-1.55s1.147-.527 1.934-.527c.4 0 .75.048 1.078.145s.622.242.883.438.465.464.613.805.223.738.223 1.2v3.258c0 .422.062.703.188.844s.33.2.617.2h.125V12h-.547c-.776 0-1.23-.346-1.36-1.04h-.047c-.594.792-1.424 1.188-2.492 1.188zm.242-.875c.72 0 1.288-.27 1.707-.8s.63-1.3.63-2.254l-2.047.36c-.604.094-1.05.25-1.34.47s-.434.536-.434.953c0 .432.137.754.4.965s.632.316 1.074.316zm13.656-6.977c.745 0 1.35.232 1.816.695s.7 1.12.7 1.97V12h-1.047V7.172c0-.667-.164-1.16-.492-1.484s-.75-.484-1.266-.484c-.563 0-1.026.185-1.4.555s-.547.9-.547 1.594V12h-1.055V0h1.055v5.477c.234-.38.542-.672.922-.875s.815-.305 1.305-.305zm6.977 7.852c-.672 0-1.22-.176-1.645-.527s-.637-.868-.637-1.55c0-.375.066-.7.2-.973a1.73 1.73 0 0 1 .594-.68c.263-.18.557-.323.883-.43s.712-.197 1.16-.27l1.273-.195c.438-.078.656-.315.656-.7 0-.568-.168-.986-.504-1.254s-.767-.402-1.293-.402c-.495 0-.913.12-1.254.363s-.54.608-.598 1.098l-.96-.234c.104-.682.408-1.2.9-1.55s1.147-.527 1.934-.527c.4 0 .75.048 1.078.145s.622.242.883.438.465.464.613.805.223.738.223 1.2v3.258c0 .422.062.703.188.844s.33.2.617.2h.125V12h-.547c-.776 0-1.23-.346-1.36-1.04h-.047c-.594.792-1.424 1.188-2.492 1.188zm.242-.875c.72 0 1.288-.27 1.707-.8s.63-1.3.63-2.254l-2.047.36c-.604.094-1.05.25-1.34.47s-.434.536-.434.953c0 .432.137.754.4.965s.632.316 1.074.316zm8.516.875c-.792 0-1.452-.185-1.98-.555s-.848-.885-.957-1.547l.938-.273a1.71 1.71 0 0 0 .648 1.121c.354.273.8.4 1.336.4.297 0 .566-.04.8-.117s.448-.22.617-.422.25-.46.238-.773a1.13 1.13 0 0 0-.105-.461 1 1 0 0 0-.262-.34 1.84 1.84 0 0 0-.41-.25c-.164-.076-.336-.14-.516-.195l-.62-.184-.258-.07-.656-.207c-.172-.06-.366-.147-.582-.262s-.385-.24-.508-.375-.228-.3-.316-.523a1.93 1.93 0 0 1-.133-.727c0-.688.243-1.208.73-1.562s1.098-.53 1.832-.53c.708 0 1.307.165 1.797.496s.786.822.9 1.473l-.898.242c-.073-.458-.275-.806-.605-1.043a1.95 1.95 0 0 0-1.168-.355 2.22 2.22 0 0 0-.566.07 1.85 1.85 0 0 0-.5.211 1.06 1.06 0 0 0-.371.387 1.12 1.12 0 0 0-.141.566 1.03 1.03 0 0 0 .059.355c.04.107.083.198.133.273s.132.15.246.223l.28.168a2.24 2.24 0 0 0 .367.14l.375.113.422.1.734.2c.182.055.4.142.652.262s.45.25.594.395.267.333.37.57a1.99 1.99 0 0 1 .156.809c0 .73-.254 1.275-.762 1.637s-1.145.543-1.9.543z" fill="#3f3f3f" class="B"/><path d="M104.898 128.7l-1.23-3.418H97.35l-1.23 3.418h-1.436l5.02-13.623h1.602l5.02 13.623h-1.426zm-7.1-4.658h5.42l-2.715-7.54-2.705 7.54zm11.016 4.658v-15h1.328v15h-1.328zm14.063-9.63c.866 0 1.57.27 2.114.81s.815 1.296.815 2.266v6.553h-1.318v-6.23c0-.742-.184-1.305-.552-1.69s-.832-.576-1.392-.576c-.632 0-1.136.212-1.514.635s-.566 1.035-.566 1.836v6.025h-1.328v-6.143c0-.775-.187-1.36-.562-1.758s-.85-.596-1.43-.596c-.612 0-1.1.213-1.494.64s-.576 1.047-.576 1.86v5.996h-1.318v-9.453h1.318v1.28c.26-.47.61-.828 1.045-1.08s.93-.376 1.484-.376c.586 0 1.105.138 1.558.415s.793.675 1.02 1.196c.267-.52.633-.92 1.1-1.196s.998-.415 1.597-.415zm10.225 9.814c-.866 0-1.647-.2-2.344-.596s-1.25-.972-1.66-1.724-.615-1.62-.615-2.603c0-1.47.436-2.655 1.31-3.55s1.976-1.343 3.31-1.343 2.435.448 3.3 1.343 1.3 2.078 1.3 3.55c0 1.478-.435 2.668-1.304 3.57s-1.968 1.353-3.296 1.353zm-2.373-2.178c.632.697 1.42 1.045 2.363 1.045a3.07 3.07 0 0 0 2.368-1.045c.635-.697.952-1.61.952-2.744 0-1.126-.317-2.035-.952-2.725s-1.424-1.035-2.368-1.035-1.73.345-2.358 1.035-.942 1.598-.942 2.725c0 1.133.312 2.048.938 2.744zm12.676 2.178c-1 0-1.815-.23-2.476-.693a2.82 2.82 0 0 1-1.196-1.934l1.172-.342c.098.592.368 1.06.81 1.4s1 .513 1.67.513a3.28 3.28 0 0 0 1.011-.146c.303-.098.56-.273.77-.527s.31-.576.298-.967c-.007-.215-.05-.407-.132-.576a1.25 1.25 0 0 0-.327-.425 2.3 2.3 0 0 0-.513-.312 5.07 5.07 0 0 0-.645-.244l-.776-.23-.322-.088-.82-.26c-.215-.075-.457-.184-.728-.327s-.482-.3-.635-.47-.285-.387-.396-.654-.166-.57-.166-.908c0-.86.304-1.5.913-1.953s1.372-.664 2.3-.664c.885 0 1.634.207 2.246.62s.983 1.027 1.113 1.84l-1.123.303c-.09-.573-.343-1.007-.757-1.304a2.44 2.44 0 0 0-1.46-.444c-.247 0-.483.03-.708.088s-.433.146-.625.264-.347.278-.464.483-.176.44-.176.708c0 .163.024.31.073.444s.104.247.166.342.164.187.308.278l.352.2c.09.05.244.107.46.176l.47.142.527.137.918.25c.228.068.5.177.815.327s.563.314.742.493a2.31 2.31 0 0 1 .464.713c.13.296.195.633.195 1.01 0 .91-.317 1.593-.952 2.046s-1.43.68-2.388.68zm9.053-.186c-.736 0-1.318-.213-1.748-.64s-.645-1.024-.645-1.792v-5.947h-1.963v-1.074h.752c.475 0 .806-.103.99-.308s.278-.542.278-1.01v-1.865h1.25v3.184h2.256v1.074h-2.256v5.82c0 .462.13.824.386 1.084s.59.39 1 .39h.87v1.084h-1.172zm12.87-13.623h1.21V128.7h-1.3v-12.13l-3.32 2.813v-1.445l3.408-2.86zm5.264 17.14l9.678-18.516h1.28l-9.668 18.516h-1.29zm21.63-7.55v1.24h-2.266v2.793h-1.31v-2.793h-6.61v-1.24l5.957-9.6h1.963v9.6h2.266zm-8.74 0h5.166v-8.486l-5.166 8.486zm-83.838 25.22c-.866 0-1.647-.2-2.344-.596s-1.25-.972-1.66-1.724-.615-1.62-.615-2.603c0-1.47.436-2.655 1.31-3.55s1.976-1.343 3.31-1.343 2.435.448 3.3 1.343 1.3 2.078 1.3 3.55c0 1.478-.435 2.668-1.304 3.57s-1.968 1.353-3.296 1.353zm-2.373-2.178c.632.697 1.42 1.045 2.363 1.045a3.07 3.07 0 0 0 2.368-1.045c.635-.697.952-1.61.952-2.744 0-1.126-.317-2.035-.952-2.725s-1.424-1.035-2.368-1.035-1.73.345-2.358 1.035-.942 1.598-.942 2.725c0 1.133.312 2.048.938 2.744zm13.79-11.875l-.38.005-.36.02a1.56 1.56 0 0 0-.356.054l-.308.112c-.124.05-.22.107-.288.176a2.58 2.58 0 0 0-.225.264 1.17 1.17 0 0 0-.186.371 3.66 3.66 0 0 0-.107.493c-.03.19-.044.4-.044.635v2.285h2.256v1.074h-2.256v8.38h-1.3v-8.38h-1.816v-1.074h1.816v-2.324c0-.547.06-1.017.18-1.41s.278-.706.474-.937.452-.413.77-.547a3.75 3.75 0 0 1 .967-.264c.326-.042.713-.063 1.162-.063v1.133zm9.414 14.053c-.84 0-1.525-.22-2.056-.66s-.796-1.086-.796-1.938c0-.47.083-.874.25-1.216a2.16 2.16 0 0 1 .742-.85c.33-.225.697-.404 1.104-.537s.9-.246 1.45-.337l1.592-.244c.547-.098.82-.394.82-.89 0-.7-.2-1.232-.63-1.567s-.96-.503-1.616-.503c-.618 0-1.14.15-1.567.454s-.675.76-.747 1.372l-1.2-.293c.13-.853.51-1.5 1.138-1.938s1.434-.66 2.417-.66c.488 0 .937.06 1.348.18s.778.303 1.104.547.58.58.767 1.006.278.923.278 1.49v4.072c0 .527.078.88.234 1.055s.413.264.77.264h.156v1.006h-.684c-.97 0-1.536-.433-1.7-1.3h-.06c-.742 1-1.78 1.484-3.115 1.484zm.303-1.094c.898 0 1.6-.337 2.134-1.01s.786-1.613.786-2.817l-2.56.45c-.755.117-1.313.312-1.675.586s-.542.67-.542 1.19c0 .54.17.942.513 1.206s.79.396 1.343.396zm7.773.908v-15h1.328v15h-1.328zm4.94 0v-15h1.328v15h-1.328zm-28.564 11.37c.866 0 1.57.27 2.114.81s.815 1.296.815 2.266v6.553h-1.318v-6.23c0-.742-.184-1.305-.552-1.69s-.832-.576-1.392-.576c-.632 0-1.136.212-1.514.635s-.566 1.035-.566 1.836v6.025h-1.328v-6.143c0-.775-.187-1.36-.562-1.758s-.85-.596-1.43-.596c-.612 0-1.1.213-1.494.64s-.576 1.047-.576 1.86v5.996h-1.318v-9.453h1.318v1.28c.26-.47.61-.828 1.045-1.08s.93-.376 1.484-.376c.586 0 1.105.138 1.558.415s.793.675 1.02 1.196c.267-.52.633-.92 1.1-1.196s.998-.415 1.597-.415zm8.525 9.814c-.84 0-1.525-.22-2.056-.66s-.796-1.086-.796-1.938c0-.47.083-.874.25-1.216a2.16 2.16 0 0 1 .742-.85c.33-.225.697-.404 1.104-.537s.9-.246 1.45-.337l1.592-.244c.547-.098.82-.394.82-.89 0-.7-.2-1.232-.63-1.567s-.96-.503-1.616-.503c-.618 0-1.14.15-1.567.454s-.675.76-.747 1.372l-1.2-.293c.13-.853.51-1.5 1.138-1.938s1.434-.66 2.417-.66c.488 0 .937.06 1.348.18s.778.303 1.104.547.58.58.767 1.006.278.923.278 1.49v4.072c0 .527.078.88.234 1.055s.413.264.77.264H119v1.006h-.684c-.97 0-1.536-.433-1.7-1.3h-.06c-.742 1-1.78 1.484-3.115 1.484zm.303-1.094c.898 0 1.6-.337 2.134-1.01s.786-1.613.786-2.817l-2.56.45c-.755.117-1.313.312-1.675.586s-.542.67-.542 1.19c0 .54.17.942.513 1.206s.79.396 1.343.396zm11.846-8.72c.944 0 1.71.285 2.295.854s.88 1.375.88 2.417v6.357h-1.31v-6.064c0-.82-.205-1.43-.615-1.83s-.934-.6-1.572-.6c-.716 0-1.3.23-1.753.693s-.68 1.126-.68 1.992v5.81h-1.318v-9.453h1.318v1.28c.605-.97 1.523-1.455 2.754-1.455zm13.584.176h1.29v9.043c0 1.536-.394 2.74-1.182 3.608s-1.882 1.304-3.28 1.304c-1.1 0-2.028-.247-2.783-.742s-1.325-1.208-1.71-2.14l1.094-.586c.56 1.55 1.683 2.324 3.37 2.324 1.022 0 1.807-.33 2.354-.986s.82-1.566.82-2.725v-2.012c-.3.632-.767 1.143-1.4 1.533s-1.326.586-2.075.586a4.05 4.05 0 0 1-1.675-.356c-.53-.238-1-.562-1.377-.972a4.6 4.6 0 0 1-.928-1.499 5.1 5.1 0 0 1-.347-1.88c0-1.34.423-2.456 1.27-3.345s1.868-1.333 3.066-1.333a3.9 3.9 0 0 1 2.08.581c.632.387 1.097.903 1.396 1.548l.02-1.953zm-3.252 8.047c.918 0 1.7-.35 2.344-1.05s.967-1.532.967-2.495-.322-1.795-.967-2.495-1.426-1.05-2.344-1.05c-.91 0-1.686.34-2.324 1.016s-.957 1.52-.957 2.53c0 1.003.32 1.844.962 2.524a3.07 3.07 0 0 0 2.319 1.021zm9.453-6.31c.234-.56.618-1.003 1.152-1.328s1.136-.495 1.807-.508v1.29c-.93 0-1.655.247-2.173.742s-.776 1.266-.776 2.314v5.205h-1.31v-9.453h1.3v1.738zm8.896 7.9c-.866 0-1.647-.2-2.344-.596s-1.25-.972-1.66-1.724-.615-1.62-.615-2.603c0-1.47.436-2.655 1.31-3.55s1.976-1.343 3.31-1.343 2.435.448 3.3 1.343 1.3 2.078 1.3 3.55c0 1.478-.435 2.668-1.304 3.57s-1.968 1.353-3.296 1.353zm-2.373-2.178c.632.697 1.42 1.045 2.363 1.045a3.07 3.07 0 0 0 2.368-1.045c.635-.697.952-1.61.952-2.744 0-1.126-.317-2.035-.952-2.725s-1.424-1.035-2.368-1.035-1.73.345-2.358 1.035-.942 1.598-.942 2.725c0 1.133.312 2.048.938 2.744zm15.615-7.46h1.406l-3.78 9.453h-1.094l-3.78-9.453h1.406l2.92 7.88 2.92-7.88zm11.64 4.512l-.03.4h-7.52c.02 1.152.34 2.04.962 2.66s1.395.933 2.32.933a3.03 3.03 0 0 0 1.685-.498 3.32 3.32 0 0 0 1.187-1.357l1.172.303c-.358.827-.895 1.48-1.61 1.963s-1.52.723-2.412.723c-1.34 0-2.438-.44-3.29-1.323s-1.28-2.078-1.28-3.59c0-.755.116-1.444.347-2.065s.55-1.14.957-1.553.887-.732 1.44-.957 1.152-.337 1.797-.337c1.283 0 2.314.407 3.096 1.22s1.175 1.973 1.182 3.477zm-4.277-3.633c-.853 0-1.57.257-2.153.77s-.94 1.253-1.07 2.217h6.172c-.06-.983-.353-1.727-.884-2.23s-1.22-.757-2.065-.757zm9.97 8.76c-1 0-1.815-.23-2.476-.693a2.82 2.82 0 0 1-1.196-1.934l1.172-.342c.098.592.368 1.06.81 1.4s1 .513 1.67.513a3.28 3.28 0 0 0 1.011-.146c.303-.098.56-.273.77-.527s.31-.576.298-.967c-.007-.215-.05-.407-.132-.576a1.25 1.25 0 0 0-.327-.425 2.3 2.3 0 0 0-.513-.312 5.07 5.07 0 0 0-.645-.244l-.776-.23-.322-.088-.82-.26c-.215-.075-.457-.184-.728-.327s-.482-.3-.635-.47-.285-.387-.396-.654-.166-.57-.166-.908c0-.86.304-1.5.913-1.953s1.372-.664 2.3-.664c.885 0 1.634.207 2.246.62s.983 1.027 1.113 1.84l-1.123.303c-.09-.573-.343-1.007-.757-1.304a2.44 2.44 0 0 0-1.46-.444c-.247 0-.483.03-.708.088s-.433.146-.625.264-.347.278-.464.483-.176.44-.176.708c0 .163.024.31.073.444s.104.247.166.342.164.187.308.278l.352.2c.09.05.244.107.46.176l.47.142.527.137.918.25c.228.068.5.177.815.327s.563.314.742.493a2.31 2.31 0 0 1 .464.713c.13.296.195.633.195 1.01 0 .91-.317 1.593-.952 2.046s-1.43.68-2.388.68zm-80.996 15.873l-.03.4h-7.52c.02 1.152.34 2.04.962 2.66s1.395.933 2.32.933a3.03 3.03 0 0 0 1.685-.498 3.32 3.32 0 0 0 1.187-1.357l1.172.303c-.358.827-.895 1.48-1.61 1.963s-1.52.723-2.412.723c-1.34 0-2.438-.44-3.29-1.323s-1.28-2.078-1.28-3.59c0-.755.116-1.444.347-2.065s.55-1.14.957-1.553.887-.732 1.44-.957 1.152-.337 1.797-.337c1.283 0 2.314.407 3.096 1.22s1.175 1.973 1.182 3.477zm-4.277-3.633c-.853 0-1.57.257-2.153.77s-.94 1.253-1.07 2.217h6.172c-.06-.983-.353-1.727-.884-2.23s-1.22-.757-2.065-.757zm10.89 8.74c-1.322 0-2.417-.452-3.286-1.357s-1.304-2.087-1.304-3.545.435-2.638 1.304-3.54 1.965-1.353 3.286-1.353c.996 0 1.87.265 2.622.796s1.284 1.26 1.597 2.192l-1.24.254c-.24-.664-.628-1.182-1.162-1.553s-1.14-.557-1.816-.557c-.944 0-1.727.345-2.35 1.035s-.933 1.598-.933 2.725.31 2.036.933 2.73 1.405 1.04 2.35 1.04c.677 0 1.283-.186 1.816-.557s.92-.89 1.162-1.553l1.24.244c-.313.938-.845 1.672-1.597 2.202s-1.626.796-2.622.796zm10.713.02c-.866 0-1.647-.2-2.344-.596s-1.25-.972-1.66-1.724-.615-1.62-.615-2.603c0-1.47.436-2.655 1.31-3.55s1.976-1.343 3.31-1.343 2.435.448 3.3 1.343 1.3 2.078 1.3 3.55c0 1.478-.435 2.668-1.304 3.57s-1.968 1.353-3.296 1.353zm-2.373-2.178c.632.697 1.42 1.045 2.363 1.045a3.07 3.07 0 0 0 2.368-1.045c.635-.697.952-1.61.952-2.744 0-1.126-.317-2.035-.952-2.725s-1.424-1.035-2.368-1.035-1.73.345-2.358 1.035-.942 1.598-.942 2.725c0 1.133.312 2.048.938 2.744zm12.676 2.178c-1 0-1.815-.23-2.476-.693a2.82 2.82 0 0 1-1.196-1.934l1.172-.342c.098.592.368 1.06.81 1.4s1 .513 1.67.513a3.28 3.28 0 0 0 1.011-.146c.303-.098.56-.273.77-.527s.31-.576.298-.967c-.007-.215-.05-.407-.132-.576a1.25 1.25 0 0 0-.327-.425 2.3 2.3 0 0 0-.513-.312 5.07 5.07 0 0 0-.645-.244l-.776-.23-.322-.088-.82-.26c-.215-.075-.457-.184-.728-.327s-.482-.3-.635-.47-.285-.387-.396-.654-.166-.57-.166-.908c0-.86.304-1.5.913-1.953s1.372-.664 2.3-.664c.885 0 1.634.207 2.246.62s.983 1.027 1.113 1.84l-1.123.303c-.09-.573-.343-1.007-.757-1.304a2.44 2.44 0 0 0-1.46-.444c-.247 0-.483.03-.708.088s-.433.146-.625.264-.347.278-.464.483-.176.44-.176.708c0 .163.024.31.073.444s.104.247.166.342.164.187.308.278l.352.2c.09.05.244.107.46.176l.47.142.527.137.918.25c.228.068.5.177.815.327s.563.314.742.493a2.31 2.31 0 0 1 .464.713c.13.296.195.633.195 1.01 0 .91-.317 1.593-.952 2.046s-1.43.68-2.388.68zm11.904-9.64h1.426l-5.352 13.906h-1.387l1.807-4.63-3.594-9.277h1.475l2.822 7.773 2.803-7.773zm6.504 9.64c-1 0-1.815-.23-2.476-.693a2.82 2.82 0 0 1-1.196-1.934l1.172-.342c.098.592.368 1.06.81 1.4s1 .513 1.67.513a3.28 3.28 0 0 0 1.011-.146c.303-.098.56-.273.77-.527s.31-.576.298-.967c-.007-.215-.05-.407-.132-.576a1.25 1.25 0 0 0-.327-.425 2.3 2.3 0 0 0-.513-.312 5.07 5.07 0 0 0-.645-.244l-.776-.23-.322-.088-.82-.26c-.215-.075-.457-.184-.728-.327s-.482-.3-.635-.47-.285-.387-.396-.654-.166-.57-.166-.908c0-.86.304-1.5.913-1.953s1.372-.664 2.3-.664c.885 0 1.634.207 2.246.62s.983 1.027 1.113 1.84l-1.123.303c-.09-.573-.343-1.007-.757-1.304a2.44 2.44 0 0 0-1.46-.444c-.247 0-.483.03-.708.088s-.433.146-.625.264-.347.278-.464.483-.176.44-.176.708c0 .163.024.31.073.444s.104.247.166.342.164.187.308.278l.352.2c.09.05.244.107.46.176l.47.142.527.137.918.25c.228.068.5.177.815.327s.563.314.742.493a2.31 2.31 0 0 1 .464.713c.13.296.195.633.195 1.01 0 .91-.317 1.593-.952 2.046s-1.43.68-2.388.68zm9.053-.186c-.736 0-1.318-.213-1.748-.64s-.645-1.024-.645-1.792v-5.947h-1.963v-1.074h.752c.475 0 .806-.103.99-.308s.278-.542.278-1.01v-1.865h1.25v3.184h2.256v1.074h-2.256v5.82c0 .462.13.824.386 1.084s.59.39 1 .39h.87v1.084h-1.172zm11.748-4.94l-.03.4h-7.52c.02 1.152.34 2.04.962 2.66s1.395.933 2.32.933a3.03 3.03 0 0 0 1.685-.498 3.32 3.32 0 0 0 1.187-1.357l1.172.303c-.358.827-.895 1.48-1.61 1.963s-1.52.723-2.412.723c-1.34 0-2.438-.44-3.29-1.323s-1.28-2.078-1.28-3.59c0-.755.116-1.444.347-2.065s.55-1.14.957-1.553.887-.732 1.44-.957 1.152-.337 1.797-.337c1.283 0 2.314.407 3.096 1.22s1.175 1.973 1.182 3.477zm-4.277-3.633c-.853 0-1.57.257-2.153.77s-.94 1.253-1.07 2.217h6.172c-.06-.983-.353-1.727-.884-2.23s-1.22-.757-2.065-.757zm16.22-1.055c.866 0 1.57.27 2.114.81s.815 1.296.815 2.266v6.553h-1.318v-6.23c0-.742-.184-1.305-.552-1.69s-.832-.576-1.392-.576c-.632 0-1.136.212-1.514.635s-.566 1.035-.566 1.836v6.025h-1.328v-6.143c0-.775-.187-1.36-.562-1.758s-.85-.596-1.43-.596c-.612 0-1.1.213-1.494.64s-.576 1.047-.576 1.86v5.996h-1.318v-9.453h1.318v1.28c.26-.47.61-.828 1.045-1.08s.93-.376 1.484-.376c.586 0 1.105.138 1.558.415s.793.675 1.02 1.196c.267-.52.633-.92 1.1-1.196s.998-.415 1.597-.415zm15.42 9.814c-.866 0-1.647-.2-2.344-.596s-1.25-.972-1.66-1.724-.615-1.62-.615-2.603c0-1.47.436-2.655 1.31-3.55s1.976-1.343 3.31-1.343 2.435.448 3.3 1.343 1.3 2.078 1.3 3.55c0 1.478-.435 2.668-1.304 3.57s-1.968 1.353-3.296 1.353zm-2.373-2.178c.632.697 1.42 1.045 2.363 1.045a3.07 3.07 0 0 0 2.368-1.045c.635-.697.952-1.61.952-2.744 0-1.126-.317-2.035-.952-2.725s-1.424-1.035-2.368-1.035-1.73.345-2.358 1.035-.942 1.598-.942 2.725c0 1.133.312 2.048.938 2.744zm13.877-7.637c.944 0 1.71.285 2.295.854s.88 1.375.88 2.417v6.357h-1.31v-6.064c0-.82-.205-1.43-.615-1.83s-.934-.6-1.572-.6c-.716 0-1.3.23-1.753.693s-.68 1.126-.68 1.992v5.81h-1.318v-9.453h1.318v1.28c.605-.97 1.523-1.455 2.754-1.455zM103.863 207.76l-.03.4h-7.52c.02 1.152.34 2.04.962 2.66s1.395.933 2.32.933a3.03 3.03 0 0 0 1.685-.498 3.32 3.32 0 0 0 1.187-1.357l1.172.303c-.358.827-.895 1.48-1.61 1.963s-1.52.723-2.412.723c-1.34 0-2.438-.44-3.29-1.323s-1.28-2.078-1.28-3.59c0-.755.116-1.444.347-2.065s.55-1.14.957-1.553.887-.732 1.44-.957 1.152-.337 1.797-.337c1.283 0 2.314.407 3.096 1.22s1.175 1.973 1.182 3.477zm-4.277-3.633c-.853 0-1.57.257-2.153.77s-.94 1.253-1.07 2.217h6.172c-.06-.983-.353-1.727-.884-2.23s-1.22-.757-2.065-.757zm9.238 8.76c-.84 0-1.525-.22-2.056-.66s-.796-1.086-.796-1.938c0-.47.083-.874.25-1.216a2.16 2.16 0 0 1 .742-.85c.33-.225.697-.404 1.104-.537s.9-.246 1.45-.337l1.592-.244c.547-.098.82-.394.82-.89 0-.7-.2-1.232-.63-1.567s-.96-.503-1.616-.503c-.618 0-1.14.15-1.567.454s-.675.76-.747 1.372l-1.2-.293c.13-.853.51-1.5 1.138-1.938s1.434-.66 2.417-.66c.488 0 .937.06 1.348.18s.778.303 1.104.547.58.58.767 1.006.278.923.278 1.49v4.072c0 .527.078.88.234 1.055s.413.264.77.264h.156v1.006h-.684c-.97 0-1.536-.433-1.7-1.3h-.06c-.742 1-1.78 1.484-3.115 1.484zm.303-1.094c.898 0 1.6-.337 2.134-1.01s.786-1.613.786-2.817l-2.56.45c-.755.117-1.313.312-1.675.586s-.542.67-.542 1.19c0 .54.17.942.513 1.206s.79.396 1.343.396zm9.072-6.807c.234-.56.618-1.003 1.152-1.328s1.136-.495 1.807-.508v1.29c-.93 0-1.655.247-2.173.742s-.776 1.266-.776 2.314v5.205h-1.31v-9.453h1.3v1.738zm7.9 7.715c-.736 0-1.318-.213-1.748-.64s-.645-1.024-.645-1.792v-5.947h-1.963v-1.074h.752c.475 0 .806-.103.99-.308s.278-.542.278-1.01v-1.865h1.25v3.184h2.256v1.074h-2.256v5.82c0 .462.13.824.386 1.084s.59.39 1 .39h.87v1.084h-1.172zm7.793-9.63c.93 0 1.688.3 2.27.87s.874 1.4.874 2.46v6.3h-1.31v-6.035c0-.833-.205-1.452-.615-1.855s-.937-.605-1.582-.605c-.703 0-1.283.23-1.738.693s-.684 1.126-.684 1.992v5.81H129.8v-15h1.318v6.846c.293-.475.677-.84 1.152-1.094s1.02-.38 1.63-.38z" fill="#494949" class="B"/><path d="M19.847 153.274h8.187v1.426h-10.41v-1.146l6.3-6.525c.75-.786 1.262-1.466 1.54-2.038s.416-1.144.416-1.713c0-.988-.3-1.754-.87-2.297s-1.32-.814-2.218-.814c-.973 0-1.748.294-2.325.882s-.865 1.5-.865 2.735v1.157l-1.505-.135v-1.033c0-1.617.43-2.85 1.286-3.7s1.997-1.275 3.42-1.275c1.325 0 2.416.395 3.274 1.185s1.286 1.866 1.286 3.23c0 .83-.182 1.598-.545 2.302s-.94 1.475-1.735 2.313l-5.233 5.447zm15.296-8.625c1.864 0 3.26.447 4.183 1.342s1.387 2.117 1.387 3.667c0 1.527-.477 2.78-1.432 3.762s-2.196 1.47-3.723 1.47c-.666 0-1.3-.103-1.898-.31s-1.138-.503-1.617-.893-.86-.9-1.14-1.533-.42-1.342-.42-2.128c0-.15.015-.42.045-.81l1.583-.18-.1.943c0 .487.07.93.208 1.33s.322.73.55.988.496.477.803.657.62.307.943.382a4.4 4.4 0 0 0 1 .112c1.093 0 1.977-.352 2.65-1.056s1.01-1.602 1.01-2.695c0-1.138-.337-2.035-1.01-2.7s-1.718-.983-3.133-.983h-3.93l1.09-6.974h7.86v1.438h-6.626l-.65 4.155h2.358zm11.275.326c-.846 0-1.567-.3-2.162-.904s-.893-1.335-.893-2.196a2.95 2.95 0 0 1 .898-2.167 2.94 2.94 0 0 1 2.156-.898c.846 0 1.567.3 2.162.904s.893 1.323.893 2.162a3.02 3.02 0 0 1-.887 2.19 2.91 2.91 0 0 1-2.167.91zm-1.27 9.748L53.538 139h1.47l-8.4 15.723h-1.46zm1.27-10.916c.54 0 .996-.19 1.37-.567a1.87 1.87 0 0 0 .562-1.365 1.83 1.83 0 0 0-.562-1.353c-.374-.37-.83-.556-1.37-.556-.524 0-.977.185-1.36.556s-.573.822-.573 1.353c0 .54.19.996.573 1.37s.835.562 1.36.562zm7.468 11.096c-.854 0-1.58-.3-2.18-.904a2.97 2.97 0 0 1-.898-2.173c0-.854.3-1.58.904-2.18a2.97 2.97 0 0 1 2.173-.898 2.9 2.9 0 0 1 2.139.904 2.98 2.98 0 0 1 .893 2.173 2.99 2.99 0 0 1-.887 2.173c-.59.603-1.306.904-2.145.904zm0-1.146c.524 0 .977-.19 1.36-.573s.573-.835.573-1.36a1.83 1.83 0 0 0-.573-1.359c-.382-.374-.835-.562-1.36-.562-.547 0-1.005.183-1.376.55s-.556.824-.556 1.37c0 .524.187.977.562 1.36s.83.573 1.37.573z" fill="#67a87e" class="B"/><path d="M5.136 62.26c.652 0 1.18.203 1.59.608s.612.98.612 1.723V69H6.42v-4.225c0-.583-.144-1.016-.43-1.3s-.656-.424-1.107-.424c-.492 0-.898.162-1.217.485s-.48.788-.48 1.395V69h-.923V58.5h.923v4.792c.205-.333.474-.588.807-.766s.713-.267 1.142-.267zm10.247 3.28l-.02.28H10.1c.014.807.238 1.428.673 1.863s.976.653 1.624.653a2.12 2.12 0 0 0 1.179-.349c.358-.232.635-.55.83-.95l.82.212a3.1 3.1 0 0 1-1.128 1.374c-.5.337-1.064.506-1.688.506-.94 0-1.707-.31-2.304-.926S9.2 66.75 9.2 65.69c0-.53.08-1.01.243-1.446s.385-.798.67-1.087a2.96 2.96 0 0 1 1.008-.67c.387-.157.807-.236 1.258-.236.898 0 1.62.285 2.167.854s.823 1.38.827 2.434zm-2.994-2.543c-.597 0-1.1.18-1.507.54s-.657.877-.75 1.552h4.32c-.04-.688-.247-1.21-.62-1.562s-.853-.53-1.446-.53zm7.622 6.118c-.925 0-1.692-.317-2.3-.95s-.913-1.46-.913-2.48.304-1.847.913-2.478 1.375-.947 2.3-.947c.697 0 1.31.186 1.835.557a2.98 2.98 0 0 1 1.118 1.535l-.868.178c-.17-.465-.44-.827-.813-1.087s-.798-.4-1.27-.4c-.66 0-1.21.242-1.644.725s-.653 1.12-.653 1.907.218 1.425.653 1.91.983.728 1.644.728c.474 0 .898-.13 1.27-.4s.645-.622.813-1.087l.868.17c-.22.656-.59 1.17-1.118 1.542s-1.138.557-1.835.557zM26.82 69c-.515 0-.923-.15-1.224-.448s-.45-.717-.45-1.254v-4.163H23.77v-.752h.526c.333 0 .564-.072.694-.215s.195-.38.195-.708v-1.306h.875v2.23h1.58v.752h-1.58v4.074c0 .324.1.576.27.76s.414.273.7.273h.608V69h-.82zm4.08.13c-.588 0-1.068-.154-1.44-.46s-.557-.76-.557-1.357c0-.328.058-.612.174-.85s.29-.437.52-.595a3.04 3.04 0 0 1 .772-.376c.285-.093.623-.172 1.015-.236l1.114-.17c.383-.068.574-.276.574-.622 0-.497-.147-.862-.44-1.097s-.67-.352-1.13-.352c-.433 0-.8.106-1.097.318s-.473.532-.523.96l-.84-.205c.09-.597.357-1.05.796-1.357s1.004-.46 1.692-.46c.342 0 .656.042.943.126s.545.212.772.383a1.71 1.71 0 0 1 .537.704c.13.3.195.646.195 1.042v2.85c0 .37.055.615.164.738s.29.185.54.185h.11V69h-.48c-.68 0-1.076-.303-1.19-.91h-.04c-.52.693-1.246 1.04-2.18 1.04zm.212-.766c.63 0 1.127-.236 1.494-.708s.55-1.13.55-1.972l-1.79.314c-.53.082-.92.22-1.172.4s-.38.47-.38.834c0 .378.12.66.36.844s.553.277.94.277zm6.35-4.765a1.95 1.95 0 0 1 .807-.93c.374-.228.795-.346 1.265-.355v.902c-.652 0-1.16.173-1.52.52s-.543.886-.543 1.62V69h-.916v-6.617h.91V63.6zm9.18 1.94l-.02.28H41.36c.014.807.238 1.428.673 1.863s.976.653 1.624.653a2.12 2.12 0 0 0 1.179-.349c.358-.232.635-.55.83-.95l.82.212a3.1 3.1 0 0 1-1.128 1.374c-.5.337-1.064.506-1.688.506-.94 0-1.707-.31-2.304-.926s-.896-1.455-.896-2.512c0-.53.08-1.01.243-1.446s.385-.798.67-1.087a2.96 2.96 0 0 1 1.008-.67c.387-.157.807-.236 1.258-.236.898 0 1.62.285 2.167.854s.823 1.38.827 2.434zm-2.994-2.543c-.597 0-1.1.18-1.507.54s-.657.877-.75 1.552h4.32c-.04-.688-.247-1.21-.62-1.562s-.853-.53-1.446-.53zm6.98 6.132c-.693 0-1.27-.162-1.733-.485s-.742-.775-.837-1.354l.82-.24c.068.415.257.742.567.98s.7.36 1.17.36c.26 0 .496-.034.708-.103s.392-.19.54-.37.218-.403.208-.677a.99.99 0 0 0-.092-.403c-.057-.118-.133-.218-.23-.297a1.61 1.61 0 0 0-.359-.219 3.55 3.55 0 0 0-.451-.171l-.543-.16-.226-.062-.574-.18a3.73 3.73 0 0 1-.509-.229c-.19-.1-.337-.2-.444-.328s-.2-.27-.277-.458-.116-.4-.116-.636c0-.602.213-1.057.64-1.367s.96-.465 1.603-.465c.62 0 1.144.145 1.572.434s.688.72.78 1.29l-.786.212c-.064-.4-.24-.705-.53-.913s-.63-.31-1.022-.31c-.173 0-.338.02-.496.062a1.62 1.62 0 0 0-.437.185c-.134.082-.243.195-.325.338a.98.98 0 0 0-.123.496.9.9 0 0 0 .051.311 1.17 1.17 0 0 0 .116.239c.043.066.115.13.215.195l.246.147c.064.034.17.075.32.123l.328.1.37.096.643.174c.16.048.35.124.57.23s.394.22.52.345.234.292.325.5.137.443.137.708c0 .638-.222 1.115-.667 1.432s-1 .475-1.67.475zm10.664 0c-.606 0-1.153-.14-1.64-.417s-.875-.68-1.162-1.207-.43-1.134-.43-1.822c0-1.03.305-1.858.916-2.485s1.383-.94 2.317-.94 1.704.313 2.31.94.91 1.455.91 2.485-.304 1.867-.913 2.5-1.377.947-2.307.947zm-1.66-1.524a2.14 2.14 0 0 0 1.654.731 2.15 2.15 0 0 0 1.658-.731c.444-.488.667-1.128.667-1.92s-.222-1.424-.667-1.907a2.16 2.16 0 0 0-1.658-.725c-.66 0-1.21.242-1.65.725s-.66 1.12-.66 1.907.22 1.433.656 1.92zm9.652-8.312l-.267.003-.253.014a1.09 1.09 0 0 0-.25.038l-.215.08c-.087.034-.154.075-.202.123s-.1.11-.157.185-.1.162-.13.26-.055.213-.075.345-.03.28-.03.444v1.6h1.58v.752h-1.58V69h-.91v-5.865h-1.27v-.752h1.27v-1.627c0-.383.042-.712.126-.988s.195-.494.332-.656.317-.29.54-.383.45-.155.677-.185.5-.044.813-.044v.793zm11.478 2.967c.606 0 1.1.19 1.48.567s.57.907.57 1.586V69H81.9v-4.36c0-.52-.13-.914-.386-1.183a1.29 1.29 0 0 0-.974-.403c-.442 0-.795.148-1.06.444s-.396.725-.396 1.285V69h-.93v-4.3c0-.542-.13-.952-.393-1.23s-.596-.417-1-.417c-.428 0-.777.15-1.046.448s-.403.733-.403 1.302V69h-.923v-6.617h.923v.896a1.93 1.93 0 0 1 .731-.755c.305-.175.652-.263 1.04-.263.4 0 .774.097 1.1.29s.555.473.714.837c.187-.365.443-.644.77-.837s.698-.29 1.118-.29zm5.968 6.87c-.588 0-1.068-.154-1.44-.46s-.557-.76-.557-1.357c0-.328.058-.612.174-.85s.29-.437.52-.595a3.04 3.04 0 0 1 .772-.376c.285-.093.623-.172 1.015-.236l1.114-.17c.383-.068.574-.276.574-.622 0-.497-.147-.862-.44-1.097s-.67-.352-1.13-.352c-.433 0-.8.106-1.097.318s-.473.532-.523.96l-.84-.205c.09-.597.357-1.05.796-1.357s1.004-.46 1.692-.46c.342 0 .656.042.943.126s.545.212.772.383a1.71 1.71 0 0 1 .537.704c.13.3.195.646.195 1.042v2.85c0 .37.055.615.164.738s.29.185.54.185h.11V69h-.48c-.68 0-1.076-.303-1.19-.91h-.04c-.52.693-1.246 1.04-2.18 1.04zm.212-.766c.63 0 1.127-.236 1.494-.708s.55-1.13.55-1.972l-1.79.314c-.53.082-.92.22-1.172.4s-.38.47-.38.834c0 .378.12.66.36.844s.553.277.94.277zm8.292-6.104c.66 0 1.196.2 1.606.598s.615.963.615 1.692V69h-.916v-4.245c0-.574-.144-1-.43-1.282s-.654-.42-1.1-.42c-.5 0-.9.162-1.227.485s-.475.788-.475 1.395V69h-.923v-6.617h.923v.896c.424-.68 1.066-1.02 1.928-1.02zm9.51.123h.902v6.33c0 1.076-.276 1.917-.827 2.526s-1.317.913-2.297.913c-.77 0-1.42-.173-1.948-.52s-.927-.845-1.196-1.497l.766-.4c.392 1.085 1.178 1.627 2.358 1.627.715 0 1.265-.23 1.647-.7s.574-1.096.574-1.907v-1.408c-.2.442-.537.8-.98 1.073a2.72 2.72 0 0 1-1.453.41c-.4 0-.8-.083-1.172-.25s-.693-.393-.964-.68a3.22 3.22 0 0 1-.649-1.049 3.57 3.57 0 0 1-.243-1.316c0-.94.296-1.72.89-2.34s1.308-.933 2.146-.933a2.73 2.73 0 0 1 1.456.407c.442.27.768.632.978 1.083l.014-1.367zm-2.276 5.633c.643 0 1.19-.245 1.64-.735a2.49 2.49 0 0 0 .677-1.747 2.49 2.49 0 0 0-.677-1.747c-.45-.5-.998-.735-1.64-.735a2.15 2.15 0 0 0-1.627.711c-.447.474-.67 1.064-.67 1.77s.224 1.29.673 1.767a2.15 2.15 0 0 0 1.624.714zm6.617-4.416a1.95 1.95 0 0 1 .807-.93c.374-.228.795-.346 1.265-.355v.902c-.652 0-1.16.173-1.52.52s-.543.886-.543 1.62V69h-.916v-6.617h.91V63.6zm6.228 5.53c-.606 0-1.153-.14-1.64-.417s-.875-.68-1.162-1.207-.43-1.134-.43-1.822c0-1.03.305-1.858.916-2.485s1.383-.94 2.317-.94 1.704.313 2.31.94.91 1.455.91 2.485-.304 1.867-.913 2.5-1.377.947-2.307.947zm-1.66-1.524a2.14 2.14 0 0 0 1.654.731 2.15 2.15 0 0 0 1.658-.731c.444-.488.667-1.128.667-1.92s-.222-1.424-.667-1.907a2.16 2.16 0 0 0-1.658-.725c-.66 0-1.21.242-1.65.725s-.66 1.12-.66 1.907.22 1.433.656 1.92zm10.93-5.223h.984L122.92 69h-.766l-2.646-6.617h.984l2.044 5.517 2.044-5.517zm8.148 3.158l-.02.28h-5.264c.014.807.238 1.428.673 1.863s.976.653 1.624.653a2.12 2.12 0 0 0 1.179-.349c.358-.232.635-.55.83-.95l.82.212a3.1 3.1 0 0 1-1.128 1.374c-.5.337-1.064.506-1.688.506-.94 0-1.707-.31-2.304-.926s-.896-1.455-.896-2.512c0-.53.08-1.01.243-1.446s.385-.798.67-1.087a2.96 2.96 0 0 1 1.008-.67c.387-.157.807-.236 1.258-.236.898 0 1.62.285 2.167.854s.823 1.38.827 2.434zm-2.994-2.543c-.597 0-1.1.18-1.507.54s-.657.877-.75 1.552h4.32c-.04-.688-.247-1.21-.62-1.562s-.853-.53-1.446-.53zm11.396-3.705l-.267.003-.253.014a1.09 1.09 0 0 0-.25.038l-.215.08c-.087.034-.154.075-.202.123s-.1.11-.157.185-.1.162-.13.26-.055.213-.075.345-.03.28-.03.444v1.6h1.58v.752h-1.58V69h-.91v-5.865h-1.27v-.752h1.27v-1.627c0-.383.042-.712.126-.988s.195-.494.332-.656.317-.29.54-.383.45-.155.677-.185.5-.044.813-.044v.793zm4.143 9.837c-.606 0-1.153-.14-1.64-.417s-.875-.68-1.162-1.207-.43-1.134-.43-1.822c0-1.03.305-1.858.916-2.485s1.383-.94 2.317-.94 1.704.313 2.31.94.91 1.455.91 2.485-.304 1.867-.913 2.5-1.377.947-2.307.947zm-1.66-1.524a2.14 2.14 0 0 0 1.654.731 2.15 2.15 0 0 0 1.658-.731c.444-.488.667-1.128.667-1.92s-.222-1.424-.667-1.907a2.16 2.16 0 0 0-1.658-.725c-.66 0-1.21.242-1.65.725s-.66 1.12-.66 1.907.22 1.433.656 1.92zm7.772-4.006a1.95 1.95 0 0 1 .807-.93c.374-.228.795-.346 1.265-.355v.902c-.652 0-1.16.173-1.52.52s-.543.886-.543 1.62V69h-.916v-6.617h.91V63.6zm9.18 1.94l-.02.28h-5.264c.014.807.238 1.428.673 1.863s.976.653 1.624.653a2.12 2.12 0 0 0 1.179-.349c.358-.232.635-.55.83-.95l.82.212a3.1 3.1 0 0 1-1.128 1.374c-.5.337-1.064.506-1.688.506-.94 0-1.707-.31-2.304-.926s-.896-1.455-.896-2.512c0-.53.08-1.01.243-1.446s.385-.798.67-1.087a2.96 2.96 0 0 1 1.008-.67c.387-.157.807-.236 1.258-.236.898 0 1.62.285 2.167.854s.823 1.38.827 2.434zm-2.994-2.543c-.597 0-1.1.18-1.507.54s-.657.877-.75 1.552h4.32c-.04-.688-.247-1.21-.62-1.562s-.853-.53-1.446-.53zm6.98 6.132c-.693 0-1.27-.162-1.733-.485s-.742-.775-.837-1.354l.82-.24c.068.415.257.742.567.98s.7.36 1.17.36c.26 0 .496-.034.708-.103s.392-.19.54-.37.218-.403.208-.677a.99.99 0 0 0-.092-.403c-.057-.118-.133-.218-.23-.297a1.61 1.61 0 0 0-.359-.219 3.55 3.55 0 0 0-.451-.171l-.543-.16-.226-.062-.574-.18a3.73 3.73 0 0 1-.509-.229c-.19-.1-.337-.2-.444-.328s-.2-.27-.277-.458-.116-.4-.116-.636c0-.602.213-1.057.64-1.367s.96-.465 1.603-.465c.62 0 1.144.145 1.572.434s.688.72.78 1.29l-.786.212c-.064-.4-.24-.705-.53-.913s-.63-.31-1.022-.31c-.173 0-.338.02-.496.062a1.62 1.62 0 0 0-.437.185c-.134.082-.243.195-.325.338a.98.98 0 0 0-.123.496.9.9 0 0 0 .051.311 1.17 1.17 0 0 0 .116.239c.043.066.115.13.215.195l.246.147c.064.034.17.075.32.123l.328.1.37.096.643.174c.16.048.35.124.57.23s.394.22.52.345.234.292.325.5.137.443.137.708c0 .638-.222 1.115-.667 1.432s-1 .475-1.67.475zm6.337-.13c-.515 0-.923-.15-1.224-.448s-.45-.717-.45-1.254v-4.163h-1.374v-.752h.526c.333 0 .564-.072.694-.215s.195-.38.195-.708v-1.306h.875v2.23h1.58v.752h-1.58v4.074c0 .324.1.576.27.76s.414.273.7.273h.608V69h-.82zm4.594.13c-.693 0-1.27-.162-1.733-.485s-.742-.775-.837-1.354l.82-.24c.068.415.257.742.567.98s.7.36 1.17.36c.26 0 .496-.034.708-.103s.392-.19.54-.37.218-.403.208-.677a.99.99 0 0 0-.092-.403c-.057-.118-.133-.218-.23-.297a1.61 1.61 0 0 0-.359-.219 3.55 3.55 0 0 0-.451-.171l-.543-.16-.226-.062-.574-.18a3.73 3.73 0 0 1-.509-.229c-.19-.1-.337-.2-.444-.328s-.2-.27-.277-.458-.116-.4-.116-.636c0-.602.213-1.057.64-1.367s.96-.465 1.603-.465c.62 0 1.144.145 1.572.434s.688.72.78 1.29l-.786.212c-.064-.4-.24-.705-.53-.913s-.63-.31-1.022-.31c-.173 0-.338.02-.496.062a1.62 1.62 0 0 0-.437.185c-.134.082-.243.195-.325.338a.98.98 0 0 0-.123.496.9.9 0 0 0 .051.311 1.17 1.17 0 0 0 .116.239c.043.066.115.13.215.195l.246.147c.064.034.17.075.32.123l.328.1.37.096.643.174c.16.048.35.124.57.23s.394.22.52.345.234.292.325.5.137.443.137.708c0 .638-.222 1.115-.667 1.432s-1 .475-1.67.475z" fill="#3f3f3f" opacity=".64" class="B"/></g></svg>