<?xml version="1.0" encoding="UTF-8"?>
<svg width="64px" height="54px" viewBox="0 0 64 54" version="1.1" xmlns="http://www.w3.org/2000/svg" xmlns:xlink="http://www.w3.org/1999/xlink">
    <!-- Generator: Sketch 64 (93537) - https://sketch.com -->
    <title>Artboard</title>
    <desc>Created with Sketch.</desc>
    <g id="Artboard" stroke="none" stroke-width="1" fill="none" fill-rule="evenodd">
        <g id="Group-4">
            <g id="cifor-logo">
                <g id="XMLID_33_" transform="translate(0.000000, 24.000000)" fill="#62BA46">
                    <g id="XMLID_45_" fill-rule="nonzero">
                        <path d="M53.387629,7.94782603 L53.4605629,7.8768633 L53.8252325,7.80590057 L53.8981665,7.73493783 L53.9711004,7.59301237 L54.1899021,7.52204964 L54.33577,7.4510869 L54.4087039,7.23819871 L54.1899021,7.02531051 L53.9711004,6.81242231 L53.7522986,6.74145958 L53.4605629,6.67049685 L53.6793647,6.59953411 L53.7522986,6.45760865 L53.8981665,6.38664592 L53.9711004,6.24472045 L54.0440343,6.17375772 L54.0440343,6.10279499 L54.1169682,6.03183226 L54.1899021,6.03183226 L54.1899021,5.81894406 L53.8252325,5.81894406 L53.7522986,5.81894406 L53.6793647,5.74798133 L53.8252325,5.4641304 L53.8981665,5.39316766 L53.6793647,5.39316766 L53.6793647,5.4641304 L53.1688273,5.4641304 L52.9500255,5.53509313 L52.8770916,5.60605586 L52.8041577,5.81894406 L52.512422,5.39316766 L52.8770916,5.2512422 L53.2417612,4.96739127 L53.8252325,4.89642854 L52.8041577,4.96739127 L52.7312237,4.96739127 L52.5853559,5.038354 L52.2936202,5.2512422 L52.2206863,5.32220493 L51.8560167,5.39316766 L51.4184132,5.4641304 L51.2725454,5.53509313 L51.1996114,5.60605586 L50.9808097,5.74798133 L50.7620079,5.81894406 L50.5432062,5.81894406 L50.1056026,5.81894406 L50.1056026,5.60605586 L50.1056026,5.53509313 L50.1785366,5.4641304 L50.7620079,5.4641304 L51.7101489,5.39316766 L51.9289506,5.2512422 L51.9289506,5.038354 L51.9289506,4.96739127 L52.0018846,4.89642854 L52.4394881,4.8254658 L52.9500255,4.68354034 L53.8252325,4.47065214 L53.7522986,4.11583848 L53.4605629,4.04487575 L53.2417612,4.04487575 L52.8041577,4.04487575 L52.6582898,4.11583848 L52.512422,4.11583848 L52.2936202,3.97391302 L52.2206863,3.90295028 L52.0748185,3.83198755 L52.0018846,3.97391302 L51.9289506,4.04487575 L51.9289506,4.11583848 L51.9289506,4.25776395 L51.7830828,4.32872668 L51.564281,4.11583848 L51.3454793,4.04487575 L51.1266775,4.11583848 L50.9808097,4.32872668 L50.4702722,4.47065214 L50.3973383,4.39968941 L50.3973383,4.32872668 L50.4702722,3.97391302 L50.4702722,3.83198755 L50.5432062,3.83198755 L50.9808097,3.83198755 L51.7101489,3.54813662 L52.0748185,3.47717389 L52.2206863,3.33524842 L52.5853559,3.40621116 L52.9500255,3.33524842 L53.0229594,3.12236023 L52.5853559,3.12236023 L52.7312237,3.05139749 L53.2417612,3.05139749 L53.6793647,2.98043476 L53.6793647,2.90947203 L52.8770916,2.8385093 L52.8770916,2.6256211 L52.8041577,2.55465837 L52.3665542,2.55465837 L52.0018846,2.69658383 L51.4913471,2.8385093 L51.2725454,2.76754656 L51.1996114,2.69658383 L51.2725454,2.55465837 L51.4913471,2.4127329 L51.7830828,2.1998447 L51.7830828,1.98695651 L51.8560167,1.77406831 L52.0748185,1.70310558 L52.1477524,1.56118011 L52.0748185,1.63214285 L51.7830828,1.77406831 L51.7830828,1.70310558 L51.9289506,1.41925465 L52.0018846,1.20636645 L52.0018846,1.13540372 L51.9289506,1.20636645 L51.4913471,1.41925465 L50.9808097,1.41925465 L50.689074,1.63214285 L50.4702722,1.70310558 L50.0326687,1.77406831 L49.813867,1.84503104 L49.6679991,1.91599378 L49.5950652,1.84503104 L49.4491974,1.77406831 L49.3762635,1.70310558 L49.4491974,1.56118011 L49.6679991,1.49021738 L50.6161401,1.27732918 L51.637215,0.922515521 L52.0748185,0.851552789 L52.1477524,0.567701859 L52.1477524,0.496739127 L51.9289506,0.496739127 L50.7620079,0.567701859 L50.6161401,0.638664592 L49.5950652,0.851552789 L49.1574617,0.922515521 L48.865726,0.922515521 L48.0634529,1.27732918 L47.7717172,1.34829192 L46.5318406,1.56118011 L46.3130388,1.63214285 L45.9483692,1.70310558 L45.3648979,1.77406831 L44.343823,2.1998447 L43.3956821,2.55465837 L42.8122107,2.76754656 L42.3016733,3.12236023 L41.9370037,3.26428569 L41.4264662,3.40621116 L40.5512592,3.69006209 L39.8948539,3.76102482 L39.2384487,3.90295028 L37.9256381,4.11583848 L37.5609685,4.32872668 L37.1962989,4.47065214 L36.4669597,4.61257761 L36.175224,4.68354034 L35.9564223,4.8254658 L35.6646866,4.89642854 L35.3729509,4.96739127 L34.6436117,5.18027947 L33.9142725,5.39316766 L33.6954708,5.53509313 L33.5496029,5.60605586 L33.1849333,5.81894406 L32.3097263,6.03183226 L32.1638585,6.10279499 L31.8721228,6.17375772 L31.5803871,6.24472045 L32.0179906,5.81894406 L31.8721228,5.81894406 L31.5803871,6.03183226 L31.3615854,6.10279499 L31.3615854,6.17375772 L31.3615854,6.24472045 L31.2886514,6.24472045 L30.7051801,6.45760865 L29.9758409,6.81242231 L29.3194356,7.09627324 L28.8088982,7.23819871 L28.4442286,7.30916144 L28.079559,7.52204964 L27.6419555,7.6639751 L27.2772859,7.80590057 L27.2772859,7.73493783 L27.4960876,7.59301237 L29.0276999,6.88338504 L28.7359643,6.88338504 L27.4231537,7.4510869 L26.9855502,7.59301237 L26.7667484,7.6639751 L26.6208806,7.73493783 L26.256211,7.80590057 L25.8186075,7.8768633 L25.8186075,7.94782603 L25.8186075,8.01878876 L26.0374092,7.94782603 L26.256211,7.8768633 L26.5479467,8.0897515 L25.9644753,8.30263969 L25.5268718,8.37360243 L25.0892683,8.44456516 L24.2869952,8.65745336 L23.7035238,8.87034155 L23.3388542,9.01226702 L23.0471185,9.22515521 L22.4636472,9.57996888 L22.0260437,9.72189434 L21.4425723,9.86381981 L21.2967045,9.93478254 L21.1508366,10.0057453 L20.859101,10.076708 L20.4214974,10.076708 L20.0568278,10.076708 L19.9838939,10.1476707 L19.7650922,10.2186335 L19.5462904,10.2895962 L19.1086869,10.4315217 L18.6710834,10.6444099 L17.9417442,11.2121117 L17.3582728,11.3540372 L16.7018675,11.5669254 L16.264264,11.5669254 L15.8995944,11.7088508 L15.5349248,11.7798136 L15.6807927,11.7798136 L16.0454623,11.7088508 L16.1913301,11.6378881 L16.264264,11.5669254 L16.337198,11.6378881 L16.337198,11.7088508 L16.0454623,11.921739 L15.6807927,12.1346272 L15.1702552,12.3475154 L14.6597178,12.5604036 L14.0762465,12.8442546 L13.7115769,12.98618 L13.2739733,13.270031 L12.6175681,13.4829192 L11.9611628,13.6958074 L11.0130218,14.050621 L9.91901304,14.4763974 L9.62727736,14.5473601 L9.26260777,14.6183229 L8.89793817,14.9021738 L8.53326857,15.0440993 L8.02273114,15.3989129 L7.5121937,15.6118011 L7.1475241,15.6827639 L6.78285451,15.8956521 L6.41818491,15.9666148 L5.90764747,16.3214285 L5.39711004,16.5343167 L5.83471355,16.5343167 L6.05351531,16.5343167 L6.05351531,16.6052794 L5.83471355,16.8181676 L5.47004396,17.0310558 L4.59483692,17.4568322 L4.23016733,17.6697204 L3.64669597,17.6697204 L3.20909245,17.9535713 L2.9902907,18.0954968 L2.77148894,18.1664595 L2.6256211,18.2374222 L2.2609515,18.308385 L1.53161231,18.7341614 L0.802273114,19.1599378 L0.729339194,19.4437887 L0.510537436,19.5147514 L0.437603517,19.5857141 L0.364669597,19.7276396 L0.291735678,19.7986023 L0.145867839,19.8695651 L0.0729339194,19.8695651 L0,20.0114905 L0.291735678,20.0824533 L0.364669597,20.0114905 L0.437603517,20.0824533 L0.437603517,20.153416 L0.218801758,20.2243787 L0.145867839,20.4372669 L0.0729339194,20.5082297 L0.0729339194,20.5791924 L0.218801758,20.6501551 L0.291735678,20.9340061 L0.364669597,20.9340061 L0.218801758,21.0049688 L0.364669597,21.0049688 L0.364669597,21.0759315 L0.364669597,21.2888197 L0.437603517,21.3597825 L0.583471355,21.2888197 L0.729339194,21.3597825 L0.729339194,21.4307452 L0.802273114,21.8565216 L0.729339194,22.2113352 L0.802273114,22.282298 L1.09400879,22.6371116 L1.23987663,22.7790371 L1.31281055,23.062888 L1.38574447,23.4177017 L1.45867839,23.7725154 L1.60454623,24.0563663 L1.60454623,24.2692545 L1.67748015,24.4821427 L1.82334799,24.5531054 L2.11508366,24.8369563 L2.04214974,25.1208073 L2.04214974,25.3336955 L2.18801758,25.4756209 L2.33388542,26.0433228 L2.55268718,26.256211 L2.69855502,26.4690992 L2.84442286,26.7529501 L3.06322462,27.0368011 L3.06322462,27.5335402 L3.13615854,28.101242 L3.50082813,28.385093 L3.64669597,28.5979812 L3.64669597,28.9527948 L4.01136557,29.3076085 L4.08429949,29.2366458 L4.23016733,29.2366458 L4.44896909,29.165683 L4.521903,28.9527948 L4.8865726,28.8818321 L5.68884572,28.385093 L6.05351531,28.2431675 L6.41818491,28.0302793 L6.49111883,27.9593166 L6.56405275,27.7464284 L6.92872235,27.6754656 L7.22045802,27.6045029 L7.80392938,27.2496892 L8.09566506,27.1077638 L8.46033465,27.0368011 L8.89793817,26.7529501 L9.33554169,26.6110247 L9.70021128,26.3981365 L9.91901304,26.3271737 L10.1378148,26.1142855 L10.4295505,25.9723601 L10.7212862,25.8304346 L11.0859558,25.6885091 L11.0859558,25.5465837 L11.3047575,25.4756209 L12.0340967,25.0498445 L12.7634359,24.6240681 L13.3469073,24.4821427 L14.0762465,24.1982918 L14.7326517,23.8434781 L15.3161231,23.7015526 L16.0454623,23.2757762 L16.7748015,22.9209626 L17.6500085,22.5661489 L18.5252155,22.2113352 L18.6710834,22.1403725 L18.7440173,22.0694098 L18.8169512,22.0694098 L18.8898851,21.998447 L19.1086869,21.8565216 L19.4733565,21.7855589 L19.8380261,21.6436334 L20.2026957,21.4307452 L20.5673653,21.3597825 L20.859101,21.2888197 L21.1508366,21.217857 L21.5155062,21.0759315 L21.9531097,21.0049688 L22.1719115,20.9340061 L22.3907133,20.8630433 L22.7553829,20.6501551 L22.3907133,20.7211179 L21.8072419,21.2888197 L21.8072419,20.9340061 L22.3907133,20.7211179 L22.7553829,20.5791924 L23.1929864,20.5082297 L23.3388542,20.5082297 L23.3388542,20.5791924 L23.6305899,20.5791924 L23.7035238,20.5082297 L24.1411273,20.3663042 L24.5787308,20.153416 L24.5057969,20.0824533 L24.7245987,19.8695651 L24.9434004,19.7276396 L25.381004,19.6566769 L24.9434004,20.0114905 L25.0163344,20.0114905 L25.2351361,20.0114905 L25.30807,19.7986023 L25.5268718,19.6566769 L25.7456736,19.5147514 L25.8915414,19.372826 L26.256211,19.1599378 L26.7667484,19.0180123 L27.8607572,18.6631986 L28.3712947,18.5212732 L28.8818321,18.308385 L29.902907,17.8826086 L30.4863783,17.7406831 L31.0698497,17.6697204 L31.5074532,17.4568322 L31.9450567,17.3149067 L33.1119994,16.960093 L33.6225369,16.7472049 L38.2903077,15.0440993 L39.82192,14.4763974 L41.3535323,13.9086956 L41.7911358,13.8377328 L42.8122107,13.4829192 L44.343823,13.0571428 L44.9272944,12.7732918 L45.4378318,12.5604036 L46.167171,12.4894409 L46.4589067,12.4184782 L46.6777084,12.3475154 L47.042378,12.1346272 L47.4799815,12.0636645 L47.6258494,12.0636645 L47.9175851,11.9927018 L48.5010564,11.8507763 L49.0845278,11.6378881 L49.5950652,11.4249999 L50.5432062,11.141149 L50.8349418,11.0701863 L51.3454793,11.141149 L51.9289506,11.0701863 L52.1477524,10.9282608 L52.2206863,10.8572981 L52.5853559,10.8572981 L52.6582898,10.5734471 L52.8770916,10.4315217 L53.0958933,10.3605589 L53.0958933,10.1476707 L52.8770916,10.076708 L52.8770916,9.93478254 L52.8041577,9.72189434 L52.9500255,9.72189434 L53.1688273,9.65093161 L53.0958933,9.50900614 L53.1688273,9.29611795 L53.387629,8.94130428 L53.8252325,8.79937882 L54.2628361,8.58649062 L54.33577,8.44456516 L54.2628361,8.37360243 L54.1899021,8.23167696 L53.8252325,8.23167696 L53.7522986,8.37360243 L53.3146951,8.44456516 L53.2417612,8.37360243 L53.387629,8.23167696 L53.387629,8.0897515 L53.3146951,8.16071423 L53.2417612,8.0897515 L53.2417612,8.01878876 L53.387629,7.94782603 Z M16.1913301,12.4894409 L15.3161231,12.8442546 L14.440916,13.270031 L14.0762465,13.4119564 L13.9303786,13.4829192 L13.7115769,13.6248446 L13.4198412,13.6958074 L12.690502,13.9086956 L12.3258324,14.050621 L11.9611628,14.1925465 L11.9611628,14.1215838 L12.3987663,13.8377328 L12.9093037,13.6958074 L13.3469073,13.4829192 L13.7115769,13.4119564 L14.0762465,13.3409937 L15.0243874,12.8442546 L15.9725284,12.4894409 L16.1913301,12.4894409 L16.1913301,12.4894409 Z M34.42481,5.81894406 L34.2789421,5.96086952 L34.0601404,6.03183226 L33.6225369,6.10279499 L33.4037351,6.10279499 L33.1849333,6.24472045 L32.4555941,6.45760865 L31.7991889,6.67049685 L30.778114,7.02531051 L30.3405105,7.16723597 L29.902907,7.4510869 L29.3923695,7.52204964 L29.0276999,7.73493783 L28.6630303,7.80590057 L28.5900964,7.80590057 L28.5900964,7.73493783 L29.0276999,7.4510869 L29.4653035,7.23819871 L29.902907,7.16723597 L30.3405105,6.95434778 L31.2157175,6.59953411 L32.601462,6.17375772 L33.5496029,5.96086952 L34.1330743,5.74798133 L34.2060082,5.53509313 L34.2789421,5.4641304 L34.3518761,5.39316766 L34.42481,5.60605586 L34.42481,5.81894406 Z M41.4264662,3.61909935 L41.645268,3.61909935 L41.7911358,3.54813662 L41.8640698,3.47717389 L42.0828715,3.33524842 L42.3016733,3.26428569 L42.3016733,3.26428569 L42.2287394,3.33524842 L42.0828715,3.69006209 L41.8640698,3.76102482 L41.7911358,3.76102482 L41.4264662,3.61909935 L41.4264662,3.61909935 Z M40.4783253,10.5024844 L40.6241931,10.4315217 L41.0617966,10.2186335 L41.1347306,10.1476707 L41.2076645,10.076708 L41.4264662,10.076708 L41.8640698,10.0057453 L41.9370037,10.0057453 L41.9370037,10.076708 L41.8640698,10.1476707 L41.7182019,10.2186335 L41.4994002,10.2895962 L41.4264662,10.3605589 L41.2076645,10.3605589 L41.1347306,10.5024844 L40.697127,10.5734471 L40.6241931,10.7153726 L40.3324574,10.7863353 L40.2595235,10.7153726 L40.4783253,10.5024844 Z M44.343823,10.2895962 L43.9062195,10.3605589 L43.7603517,10.4315217 L43.6874177,10.5024844 L43.3956821,10.5024844 L43.2498142,10.5734471 L43.0310125,10.7153726 L42.8122107,10.7153726 L42.5934089,10.7863353 L42.3016733,10.8572981 L41.9370037,10.9992235 L41.8640698,11.0701863 L41.7182019,11.0701863 L41.4264662,11.2830745 L41.0617966,11.3540372 L40.6241931,11.3540372 L40.5512592,11.5669254 L40.4053914,11.6378881 L40.1865896,11.7088508 L40.1136557,11.4959627 L40.1865896,11.4249999 L40.4053914,11.3540372 L40.6241931,11.3540372 L40.8429949,11.2121117 L40.9159288,11.141149 L40.9888627,10.9992235 L41.8640698,10.9282608 L42.0099376,10.7863353 L42.2287394,10.7153726 L42.5934089,10.6444099 L42.9580785,10.5734471 L43.2498142,10.5024844 L43.468616,10.3605589 L43.6874177,10.3605589 L43.8332856,10.2895962 L43.9062195,10.2186335 L43.9791534,10.1476707 L44.1250213,10.1476707 L44.343823,10.1476707 L44.4167569,10.2186335 L44.343823,10.2895962 Z M46.3130388,2.76754656 L46.3859728,2.69658383 L46.5318406,2.6256211 L46.8965102,2.34177017 L46.8235763,2.6256211 L46.3859728,2.8385093 L46.167171,2.8385093 L45.9483692,2.8385093 L46.3130388,2.76754656 Z M46.6047745,3.90295028 L46.3859728,3.97391302 L46.3130388,3.97391302 L45.9483692,4.04487575 L45.5836996,4.11583848 L45.5107657,4.18680121 L45.4378318,4.25776395 L45.3648979,4.39968941 L45.21903,4.39968941 L45.1460961,4.32872668 L45.3648979,4.04487575 L45.7295675,3.97391302 L46.0213032,3.90295028 L46.2401049,3.83198755 L46.4589067,3.76102482 L46.8235763,3.61909935 L47.4799815,3.54813662 L47.8446511,3.33524842 L48.0634529,3.19332296 L48.1363868,3.19332296 L48.3551886,3.12236023 L48.5010564,3.12236023 L48.5010564,3.19332296 L48.3551886,3.40621116 L48.2093207,3.47717389 L48.0634529,3.61909935 L47.9175851,3.61909935 L47.6258494,3.61909935 L47.1882459,3.69006209 L46.6047745,3.90295028 Z M47.115312,6.67049685 L47.1882459,6.38664592 L47.4070476,6.38664592 L47.7717172,6.31568319 L47.8446511,6.31568319 L48.0634529,6.24472045 L48.2822547,6.24472045 L48.3551886,6.17375772 L48.6469243,6.03183226 L48.865726,6.03183226 L49.0845278,6.03183226 L49.0845278,6.17375772 L48.7198582,6.24472045 L48.3551886,6.24472045 L48.1363868,6.31568319 L48.0634529,6.38664592 L47.7717172,6.38664592 L47.6258494,6.38664592 L47.5529155,6.45760865 L47.4070476,6.59953411 L47.115312,6.67049685 Z M47.8446511,9.50900614 L47.6987833,9.65093161 L47.6987833,9.43804341 L47.8446511,9.50900614 L47.8446511,9.50900614 L47.990519,9.43804341 L47.8446511,9.50900614 Z M48.0634529,9.43804341 L47.9175851,9.43804341 L47.990519,9.36708068 L48.1363868,9.22515521 L48.2822547,9.22515521 L48.2822547,9.36708068 L48.3551886,9.43804341 L48.0634529,9.43804341 L48.0634529,9.43804341 Z M50.9078758,10.5734471 L50.689074,10.5734471 L50.4702722,10.5734471 L50.2514705,10.7153726 L50.0326687,10.7863353 L50.0326687,10.7153726 L50.1056026,10.5734471 L50.3244044,10.5024844 L50.3973383,10.5024844 L50.6161401,10.3605589 L50.9078758,10.3605589 L51.0537436,10.2895962 L51.1996114,10.2895962 L51.3454793,10.5024844 L50.9078758,10.5734471 Z M51.9289506,6.95434778 L51.7830828,7.09627324 L51.4184132,7.09627324 L51.1266775,7.16723597 L50.6161401,7.38012417 L50.0326687,7.59301237 L49.5950652,7.80590057 L49.2303956,7.80590057 L49.1574617,7.80590057 L48.7198582,7.8768633 L48.2822547,8.0897515 L48.0634529,8.23167696 L47.7717172,8.30263969 L47.4799815,8.44456516 L47.5529155,8.37360243 L47.6258494,8.30263969 L47.8446511,8.16071423 L48.1363868,8.0897515 L48.2093207,8.01878876 L48.3551886,7.80590057 L48.7927921,7.80590057 L49.1574617,7.73493783 L49.2303956,7.6639751 L49.3033295,7.59301237 L49.5950652,7.59301237 L49.9597348,7.4510869 L50.3973383,7.38012417 L50.5432062,7.23819871 L50.6161401,7.23819871 L50.689074,7.23819871 L51.1996114,7.16723597 L51.4913471,7.02531051 L51.8560167,6.95434778 L51.9289506,6.88338504 L52.1477524,6.88338504 L52.2936202,6.95434778 L51.9289506,6.95434778 Z" id="XMLID_46_"></path>
                    </g>
                    <polygon id="XMLID_44_" points="52.2936202 2.1998447 52.1477524 2.1998447 51.9289506 2.1998447 51.9289506 2.12888197 52.0748185 1.98695651 52.2936202 1.84503104 52.3665542 1.84503104 52.4394881 1.77406831 52.7312237 1.84503104 52.4394881 2.12888197 52.2936202 2.1998447"></polygon>
                    <polygon id="XMLID_43_" points="52.2936202 10.9992235 52.1477524 11.0701863 51.9289506 11.2121117 51.8560167 11.2830745 51.9289506 11.3540372 51.9289506 11.3540372 52.0748185 11.3540372 52.2206863 11.2121117 52.2936202 11.2121117 52.512422 10.9992235 52.512422 10.9992235 52.4394881 10.9992235 52.2936202 10.9992235"></polygon>
                    <polygon id="XMLID_42_" points="49.2303956 11.7798136 48.7198582 11.8507763 48.7198582 11.9927018 48.865726 12.1346272 49.0845278 12.0636645 49.1574617 11.9927018 49.2303956 11.921739 49.5950652 11.7798136 49.6679991 11.7088508 49.6679991 11.6378881 49.6679991 11.6378881 49.5221313 11.7088508 49.2303956 11.7798136"></polygon>
                    <polygon id="XMLID_41_" points="33.6954708 5.32220493 33.6954708 5.32220493 34.3518761 5.10931673 34.9353474 4.8254658 34.2060082 5.10931673 33.6954708 5.32220493"></polygon>
                    <polygon id="XMLID_40_" points="33.6954708 5.32220493 33.6954708 5.32220493 33.476669 5.39316766 32.6743959 5.39316766 32.5285281 5.74798133 33.0390655 5.4641304 33.6954708 5.32220493 33.6954708 5.32220493"></polygon>
                    <polyline id="XMLID_39_" fill-rule="nonzero" points="48.0634529 9.29611795 47.990519 9.43804341 48.0634529 9.43804341 48.2822547 9.43804341 48.2822547 9.36708068 48.2822547 9.22515521 48.1363868 9.22515521 48.0634529 9.29611795"></polyline>
                    <polyline id="XMLID_38_" fill-rule="nonzero" points="49.2303956 7.59301237 49.5950652 7.59301237 49.8868009 7.4510869 50.3244044 7.38012417 50.4702722 7.23819871 50.6161401 7.23819871 50.689074 7.16723597 50.689074 7.16723597 51.1996114 7.09627324 51.4913471 6.95434778 51.7830828 6.88338504 51.9289506 6.81242231 52.0748185 6.81242231 52.2206863 6.88338504 51.9289506 6.95434778 51.7830828 7.09627324 51.4913471 7.09627324 51.1996114 7.16723597 50.689074 7.38012417 50.689074 7.38012417 50.0326687 7.59301237 49.5950652 7.80590057 49.2303956 7.80590057 49.1574617 7.80590057 48.7198582 7.8768633 48.2822547 8.01878876 48.0634529 8.16071423 48.0634529 8.16071423 47.7717172 8.23167696 47.7717172 8.23167696 47.4799815 8.37360243 47.5529155 8.30263969 47.6258494 8.23167696 47.7717172 8.0897515 48.0634529 8.0897515 48.1363868 8.01878876 48.2822547 7.8768633 48.7198582 7.8768633 49.0115939 7.73493783 49.0845278 7.6639751 49.2303956 7.59301237"></polyline>
                    <polyline id="XMLID_37_" fill-rule="nonzero" points="47.6987833 6.24472045 47.7717172 6.24472045 48.0634529 6.24472045 48.0634529 6.24472045 48.2822547 6.24472045 48.3551886 6.17375772 48.6469243 6.03183226 48.865726 6.03183226 49.0845278 6.03183226 49.0845278 6.17375772 48.7198582 6.24472045 48.4281225 6.24472045 48.1363868 6.31568319 48.0634529 6.38664592 47.7717172 6.38664592 47.7717172 6.38664592 47.6258494 6.38664592 47.4799815 6.45760865 47.4070476 6.59953411 47.115312 6.67049685 47.1882459 6.38664592 47.3341137 6.38664592 47.6987833 6.24472045"></polyline>
                    <polyline id="XMLID_36_" fill-rule="nonzero" points="41.8640698 3.47717389 42.0828715 3.33524842 42.2287394 3.26428569 42.3016733 3.26428569 42.2287394 3.26428569 42.0828715 3.61909935 41.8640698 3.69006209"></polyline>
                    <polyline id="XMLID_35_" fill-rule="nonzero" points="41.8640698 3.69006209 41.8640698 3.69006209 41.4264662 3.69006209 41.4264662 3.61909935 41.645268 3.61909935 41.7911358 3.54813662 41.8640698 3.47717389"></polyline>
                    <polyline id="XMLID_34_" fill-rule="nonzero" points="14.1491804 13.4119564 13.9303786 13.4829192 13.7115769 13.6248446 13.4198412 13.6958074 12.690502 13.8377328 12.2528985 13.9796583 11.9611628 14.1925465 11.9611628 14.1215838 12.3987663 13.8377328 12.9093037 13.6958074 13.3469073 13.4829192 13.7115769 13.3409937 14.0762465 13.270031 15.0243874 12.7732918 15.9725284 12.4184782 16.1913301 12.4184782 16.1913301 12.4894409 15.389057 12.8442546 14.51385 13.270031 14.1491804 13.4119564 14.0762465 13.4119564"></polyline>
                </g>
                <g id="XMLID_15_" transform="translate(1.000000, 0.000000)" fill="#000000" fill-rule="nonzero">
                    <path d="M24.0681934,10.4119457 L23.6155001,10.1101502 L23.1628068,9.80835468 L23.0873579,9.58200804 L23.0119091,9.35566139 L22.7101135,8.97841698 L22.2574202,8.52572369 L21.5783803,8.4502748 L20.9747892,8.52572369 L20.4466471,8.67662145 L19.843056,8.9029681 L19.3903627,9.05386586 L18.9376694,9.35566139 L17.7304873,9.43111027 L17.3532429,9.28021251 L16.9005496,8.9029681 L16.4478563,8.67662145 L15.995163,8.52572369 L15.5424697,8.4502748 L15.391572,8.4502748 L15.6179186,8.22392816 L15.7688164,8.07303039 L15.995163,7.99758151 L16.3724074,7.92213263 L16.674203,7.99758151 L16.9005496,8.14847927 L17.1268963,8.4502748 L17.5041407,8.82751921 L17.8813851,8.97841698 L19.0131183,8.97841698 L19.3903627,8.82751921 L19.6921582,8.67662145 L20.0694027,8.4502748 L20.4466471,8.37482592 L21.0502381,7.84668375 L21.5783803,7.46943933 L21.9556247,7.24309269 L22.408318,7.01674604 L22.408318,6.56405275 L22.408318,6.41315498 L22.1819714,6.26225722 L21.9556247,6.11135946 L21.8801758,5.73411504 L21.8047269,5.43231952 L21.8801758,5.13052399 L21.8801758,4.90417734 L21.8047269,4.67783069 L21.4274825,4.07423964 L20.9747892,3.62154634 L20.3711982,3.31975082 L19.7676071,3.24430193 L18.7113228,3.16885305 L18.2586295,3.24430193 L17.3532429,3.24430193 L17.1268963,3.16885305 L17.0514474,3.16885305 L16.8251007,3.16885305 L16.5987541,3.01795529 L16.2969585,2.79160864 L15.2406742,2.56526199 L14.7879809,2.48981311 L14.3352876,2.56526199 L14.3352876,2.56526199 L14.3352876,2.33891535 L14.3352876,2.18801758 L14.2598387,2.1125687 L14.1843898,1.96167094 L14.0334921,1.73532429 L13.5807988,1.35807988 L12.5999633,0.829937704 L12.0718211,0.754488822 L11.9963723,0.754488822 L11.543679,0.528142175 L11.4682301,0.528142175 L11.0909857,0.452693293 L10.7137413,0.377244411 L9.80835468,0.377244411 L9.43111027,0.603591057 L9.20476362,0.754488822 L8.75207033,0.980835468 L8.22392816,1.35807988 L7.77123486,1.81077317 L7.69578598,1.88622205 L6.94129716,2.26346647 L6.11135946,2.64071088 L6.03591057,2.64071088 L5.58321728,2.71615976 L5.35687063,2.86705752 L5.5077684,3.09340417 L5.80956393,3.24430193 L6.11135946,3.31975082 L6.71495051,3.3951997 L6.7903994,3.47064858 L6.94129716,3.54609746 L7.24309269,3.77244411 L7.54488822,4.14968852 L7.69578598,4.37603517 L7.92213263,4.52693293 L7.69578598,5.13052399 L7.69578598,5.28142175 L7.69578598,5.5077684 L7.31854157,5.05507511 L7.09219492,4.52693293 L6.71495051,4.07423964 L6.18680834,3.84789299 L6.11135946,3.84789299 L5.5077684,3.77244411 L5.05507511,3.84789299 L4.67783069,4.07423964 L4.45148405,4.2251374 L4.30058628,4.45148405 L4.2251374,4.75327958 L4.2251374,5.05507511 L4.2251374,5.43231952 L4.14968852,5.65866616 L3.92334187,5.88501281 L3.62154634,6.11135946 L3.01795529,6.48860387 L2.33891535,6.86584828 L1.88622205,7.16764381 L1.50897764,7.6203371 L1.13173323,8.07303039 L0.905386586,8.52572369 L0.829937704,8.97841698 L0.905386586,9.43111027 L1.282631,9.88380356 L1.88622205,10.261048 L1.81077317,10.9400879 L1.81077317,11.3173323 L1.88622205,11.543679 L2.1125687,11.7700256 L2.48981311,11.8454745 L3.01795529,11.8454745 L3.77244411,12.5999633 L3.77244411,12.6754122 L3.69699523,12.7508611 L3.54609746,12.7508611 L2.26346647,12.82631 L1.43352876,13.0526566 L0.754488822,13.429901 L0.301795529,13.8825943 L0.150897764,14.108941 L0,14.4107365 L0,14.8634298 L0,15.3161231 L0.0754488822,15.6179186 L0.528142175,16.0706119 L0.980835468,16.1460608 L1.43352876,16.3724074 L2.18801758,17.1268963 L2.56526199,17.4286918 L3.01795529,17.5795895 L4.30058628,17.5795895 L4.52693293,17.6550384 L4.52693293,17.6550384 L4.67783069,17.8059362 L4.97962622,18.2586295 L5.13052399,18.2586295 L4.97962622,18.4849761 L4.67783069,18.8622205 L4.60238181,19.3149138 L4.82872846,19.7676071 L5.35687063,20.2203004 L5.73411504,20.4466471 L6.03591057,20.5975448 L6.18680834,20.6729937 L7.24309269,21.125687 L7.46943933,21.125687 L7.69578598,21.5029314 L8.14847927,22.1819714 L8.82751921,23.3137046 L9.20476362,23.9172956 L9.43111027,24.2945401 L9.50655915,24.3699889 L9.80835468,24.97358 L10.0347013,25.6526199 L9.95925245,28.2178819 L9.88380356,31.0094906 L9.80835468,33.5747526 L9.58200804,35.9136679 L9.43111027,38.8561743 L9.35566139,40.2897031 L9.35566139,41.2705385 L9.35566139,41.7986807 L9.12931474,43.7603517 L8.82751921,45.6465737 L8.60117257,46.4010625 L8.37482592,47.0046536 L7.99758151,47.5327958 L7.6203371,47.9100402 L7.46943933,48.0609379 L7.46943933,48.0609379 L7.46943933,48.1363868 L7.16764381,48.3627335 L6.7903994,48.8908756 L6.18680834,49.2681201 L5.58321728,49.5699156 L4.97962622,49.8717111 L5.58321728,49.8717111 L6.18680834,49.8717111 L7.77123486,49.8717111 L7.84668375,49.8717111 L9.35566139,49.8717111 L9.58200804,49.8717111 L9.65745692,49.8717111 L11.2418834,49.8717111 L11.6191279,49.8717111 L11.6945767,49.8717111 L12.14727,49.8717111 L14.4107365,49.8717111 L15.1652253,49.8717111 L15.1652253,49.7962622 L14.3352876,49.4190178 L14.1843898,49.3435689 L13.7316966,48.9663245 L12.82631,48.2872846 L12.4490656,47.9100402 L12.14727,47.4573469 L11.9209234,47.0801025 L11.6945767,46.6274092 L11.4682301,45.9483692 L11.4682301,45.7220226 L11.4682301,45.4202271 L11.4682301,45.3447782 L11.4682301,45.3447782 L11.4682301,44.7411871 L11.543679,35.4609746 L11.6191279,30.8585928 L11.543679,26.256211 L11.543679,25.9544155 L11.7700256,25.8035177 L12.0718211,25.4262733 L12.4490656,24.8981311 L12.82631,23.9927445 L13.1281055,23.3891535 L13.5053499,22.8610113 L14.1843898,21.8801758 L14.4107365,21.5783803 L14.7879809,20.9747892 L15.2406742,20.2203004 L15.6933675,20.1448515 L16.2969585,20.0694027 L18.0322828,19.5412605 L18.6358739,19.3149138 L19.0131183,19.0885672 L19.239465,18.7113228 L19.4658116,18.3340784 L19.5412605,17.8813851 L19.4658116,17.4286918 L19.1640161,17.1268963 L19.0131183,16.8251007 L18.9376694,16.5233052 L18.9376694,16.1460608 L19.0131183,15.9197141 L19.1640161,15.8442653 L19.6921582,15.7688164 L20.5975448,15.6933675 L21.3520337,15.6179186 L21.8047269,15.4670208 L21.9556247,15.391572 L22.0310736,15.3161231 L21.8801758,15.0897764 L21.5029314,15.0143276 L20.1448515,14.7879809 L19.3903627,14.712532 L18.560425,14.6370831 L18.4849761,14.6370831 L18.4095272,14.5616343 L18.4849761,14.3352876 L18.560425,14.108941 L18.8622205,14.3352876 L19.3903627,14.2598387 L20.0694027,13.8825943 L20.6729937,13.6562477 L21.5029314,13.5807988 L22.3328691,13.3544521 L22.5592158,13.2790033 L22.6346647,13.2035544 L23.1628068,12.2981678 L23.3891535,11.8454745 L23.6155001,11.4682301 L24.1436423,10.864639 L24.1436423,10.5628435 L24.1436423,10.4873946 L24.0681934,10.4119457 Z M15.5424697,12.9772077 L15.4670208,13.1281055 L15.1652253,13.2035544 L14.9388787,13.5053499 L14.6370831,13.7316966 L14.2598387,14.0334921 L13.9580432,14.2598387 L13.6562477,14.1843898 L13.429901,14.0334921 L13.1281055,13.9580432 L13.0526566,13.8825943 L13.0526566,13.7316966 L13.0526566,13.5807988 L13.1281055,13.5053499 L13.5053499,13.429901 L13.5807988,13.2790033 L13.6562477,13.1281055 L13.7316966,12.9772077 L13.6562477,12.6754122 L13.0526566,12.5999633 L13.1281055,12.3736167 L13.2035544,12.2227189 L13.6562477,12.14727 L14.2598387,12.2227189 L14.4107365,12.2227189 L14.6370831,12.2981678 L14.9388787,12.4490656 L15.5424697,12.9772077 Z M14.108941,7.92213263 L14.2598387,7.92213263 L15.1652253,7.92213263 L15.391572,7.92213263 L15.4670208,7.99758151 L15.391572,8.07303039 L14.9388787,8.82751921 L14.7879809,8.82751921 L14.4107365,8.67662145 L14.2598387,8.67662145 L14.0334921,8.67662145 L13.5807988,8.67662145 L13.2035544,8.52572369 L13.2035544,8.4502748 L13.2035544,8.37482592 L13.2035544,7.99758151 L14.108941,7.92213263 Z M10.4119457,3.92334187 L10.4873946,3.77244411 L10.5628435,3.77244411 L10.7137413,3.47064858 L10.9400879,3.24430193 L11.1664346,3.16885305 L11.2418834,3.09340417 L11.6191279,3.09340417 L12.14727,3.09340417 L12.5999633,3.01795529 L13.7316966,2.79160864 L13.7316966,3.16885305 L13.3544521,3.3951997 L13.1281055,3.47064858 L12.82631,3.62154634 L12.14727,3.69699523 L12.0718211,3.77244411 L11.4682301,3.77244411 L11.0909857,3.77244411 L10.7891902,3.92334187 L10.5628435,4.14968852 L10.4119457,4.07423964 L10.4119457,3.92334187 Z M12.9017589,8.14847927 L12.9017589,8.22392816 L12.82631,8.4502748 L12.0718211,8.52572369 L11.543679,8.52572369 L11.2418834,8.60117257 L11.1664346,8.67662145 L11.0155368,8.75207033 L10.7891902,8.97841698 L10.4873946,9.43111027 L10.4119457,9.65745692 L10.4119457,9.95925245 L10.4873946,10.1855991 L10.6382924,10.4119457 L10.864639,10.4873946 L11.0909857,10.5628435 L11.1664346,10.6382924 L11.2418834,10.6382924 L11.3173323,10.7137413 L11.3927812,10.9400879 L11.3173323,11.1664346 L11.2418834,11.3173323 L11.1664346,11.3927812 L11.0909857,11.3927812 L10.9400879,11.3173323 L10.7137413,11.3173323 L10.1101502,11.3173323 L10.0347013,11.3927812 L10.1101502,11.7700256 L10.0347013,12.0718211 L9.95925245,12.2227189 L9.80835468,12.2981678 L9.50655915,12.14727 L9.50655915,12.0718211 L9.43111027,11.7700256 L9.28021251,11.6945767 L9.28021251,11.6191279 L9.20476362,11.3927812 L9.12931474,10.7891902 L9.20476362,10.7137413 L9.20476362,9.43111027 L9.12931474,9.20476362 L9.05386586,8.97841698 L9.12931474,8.82751921 L9.20476362,8.75207033 L9.28021251,8.67662145 L9.35566139,8.60117257 L9.50655915,8.52572369 L9.7329058,8.4502748 L11.0155368,8.37482592 L11.0909857,8.29937704 L11.0909857,7.01674604 L11.0155368,6.94129716 L11.0909857,6.86584828 L11.3173323,6.7903994 L11.3927812,6.71495051 L11.4682301,6.63950163 L11.6191279,6.48860387 L11.7700256,6.56405275 L11.8454745,6.63950163 L11.9209234,6.86584828 L11.9963723,7.16764381 L12.0718211,7.24309269 L12.2227189,7.31854157 L12.4490656,7.46943933 L12.6754122,7.54488822 L12.7508611,7.69578598 L12.82631,7.77123486 L12.9017589,7.84668375 L12.82631,8.07303039 L12.9017589,8.14847927 Z M12.6754122,12.2981678 L12.6754122,12.3736167 L12.6754122,12.5999633 L12.0718211,12.5999633 L11.6191279,12.5999633 L11.543679,12.6754122 L11.1664346,12.6754122 L10.5628435,12.7508611 L10.3364969,12.9017589 L10.1855991,12.9017589 L10.1101502,12.82631 L10.0347013,12.6754122 L10.1855991,12.3736167 L10.5628435,12.14727 L10.864639,12.0718211 L11.0909857,12.14727 L11.3173323,12.2227189 L11.4682301,12.2227189 L11.9963723,12.2227189 L12.5245144,12.2227189 L12.6754122,12.2981678 Z M7.92213263,5.5077684 L7.99758151,5.28142175 L8.14847927,4.90417734 L8.22392816,4.60238181 L8.9029681,4.75327958 L9.12931474,4.75327958 L9.20476362,4.75327958 L9.43111027,4.67783069 L9.50655915,4.67783069 L9.7329058,4.60238181 L9.88380356,4.52693293 L10.1101502,4.30058628 L10.1855991,4.45148405 L10.261048,4.52693293 L10.3364969,4.52693293 L10.3364969,4.60238181 L10.3364969,4.97962622 L10.4873946,5.28142175 L10.7137413,5.5077684 L10.9400879,5.58321728 L11.0155368,5.80956393 L11.0909857,5.96046169 L11.3173323,6.18680834 L11.3173323,6.3377061 L11.3173323,6.48860387 L11.0909857,6.56405275 L11.0155368,6.56405275 L10.864639,6.63950163 L10.7891902,6.56405275 L10.7137413,6.48860387 L10.6382924,6.41315498 L10.5628435,6.3377061 L9.95925245,6.03591057 L9.43111027,5.80956393 L9.35566139,5.73411504 L9.20476362,5.73411504 L8.75207033,5.58321728 L8.14847927,5.5077684 L7.69578598,5.5077684 L7.92213263,5.5077684 Z M4.60238181,12.5245144 L4.45148405,12.5999633 L4.37603517,12.5999633 L4.14968852,12.5245144 L3.3951997,11.7700256 L3.69699523,11.6945767 L4.45148405,11.2418834 L4.60238181,11.1664346 L4.67783069,11.0909857 L4.90417734,11.0155368 L5.35687063,10.9400879 L5.43231952,11.0155368 L5.5077684,11.3927812 L5.5077684,11.8454745 L5.13052399,12.0718211 L4.60238181,12.5245144 Z M7.16764381,17.3532429 L6.71495051,17.4286918 L6.3377061,17.5795895 L6.11135946,17.6550384 L5.88501281,17.7304873 L5.5077684,17.956834 L5.28142175,17.5795895 L5.05507511,17.5041407 L4.97962622,17.277794 L5.05507511,17.2023451 L5.43231952,17.1268963 L6.03591057,17.0514474 L6.11135946,17.0514474 L6.63950163,17.0514474 L7.01674604,17.1268963 L7.16764381,17.2023451 L7.24309269,17.4286918 L7.16764381,17.4286918 L7.16764381,17.3532429 Z M7.69578598,11.6191279 L7.46943933,11.3927812 L7.24309269,11.3173323 L6.11135946,11.3173323 L6.03591057,11.2418834 L6.03591057,10.7891902 L6.11135946,10.7891902 L6.18680834,10.7891902 L7.6203371,11.0155368 L7.77123486,11.0909857 L8.22392816,11.1664346 L8.67662145,11.0909857 L8.9029681,11.4682301 L9.05386586,11.6191279 L9.28021251,11.7700256 L9.35566139,12.14727 L9.43111027,12.2981678 L9.58200804,12.6754122 L9.65745692,12.82631 L9.65745692,12.9017589 L9.58200804,12.9772077 L9.35566139,12.9017589 L8.97841698,12.6754122 L8.67662145,12.5245144 L8.4502748,12.2981678 L7.69578598,11.6191279 L7.69578598,11.6191279 Z M10.1101502,23.9927445 L9.50655915,22.9364602 L9.35566139,22.6346647 L9.28021251,22.5592158 L8.9029681,22.1065225 L8.4502748,21.5783803 L8.67662145,21.5783803 L9.28021251,21.5783803 L9.50655915,21.5783803 L9.58200804,21.6538292 L9.95925245,22.0310736 L10.1101502,22.2574202 L10.1855991,22.5592158 L10.1855991,23.9927445 L10.1101502,23.9927445 Z M11.1664346,18.560425 L11.0909857,18.6358739 L11.0155368,18.7113228 L10.9400879,18.7113228 L10.4873946,18.6358739 L10.1101502,18.4849761 L9.88380356,18.2586295 L9.88380356,17.8813851 L9.80835468,17.5795895 L9.58200804,17.4286918 L9.50655915,17.4286918 L9.28021251,17.4286918 L9.20476362,17.3532429 L8.67662145,17.4286918 L8.4502748,17.4286918 L7.99758151,17.3532429 L8.07303039,17.1268963 L8.22392816,16.9759985 L9.20476362,16.9759985 L9.43111027,16.9759985 L9.88380356,16.9759985 L10.1855991,16.9005496 L10.5628435,16.7496518 L10.7137413,16.8251007 L10.7891902,16.9005496 L10.9400879,17.3532429 L10.5628435,17.3532429 L10.3364969,17.4286918 L10.3364969,17.6550384 L10.4119457,17.8813851 L10.4873946,17.956834 L10.7891902,18.0322828 L11.0155368,18.0322828 L11.0909857,18.2586295 L11.1664346,18.4849761 L11.1664346,18.560425 L11.1664346,18.560425 Z M11.3927812,16.9759985 L11.3173323,16.8251007 L11.2418834,16.674203 L11.0909857,16.5987541 L11.0155368,16.5233052 L11.0155368,16.3724074 L11.0909857,16.3724074 L11.3173323,16.2969585 L11.3927812,16.1460608 L11.4682301,16.0706119 L11.543679,16.0706119 L11.7700256,15.8442653 L11.8454745,15.9197141 L11.9209234,15.995163 L11.9963723,16.0706119 L11.9963723,16.2215097 L11.9209234,16.4478563 L11.9209234,16.5987541 L11.9209234,16.8251007 L11.8454745,16.8251007 L11.9209234,17.2023451 L11.8454745,17.277794 L11.7700256,17.3532429 L11.543679,17.3532429 L11.3927812,16.9759985 Z M11.4682301,21.2765848 L11.4682301,21.2765848 L11.6945767,21.0502381 L11.7700256,20.8238915 L11.8454745,20.3711982 L12.0718211,20.2957493 L12.5245144,20.1448515 L12.7508611,19.9185049 L12.82631,19.6921582 L12.7508611,19.4658116 L12.5245144,19.239465 L12.2227189,18.8622205 L12.2981678,17.956834 L13.0526566,17.956834 L13.429901,18.1077317 L13.5807988,18.2586295 L13.6562477,18.4849761 L13.6562477,18.6358739 L13.5807988,18.7113228 L13.5053499,18.7867717 L13.429901,18.9376694 L13.2790033,19.0131183 L13.2035544,19.0885672 L13.1281055,19.4658116 L13.2035544,19.9185049 L13.2790033,20.0694027 L13.5053499,20.1448515 L12.7508611,20.8238915 L11.9963723,21.5783803 L11.9209234,21.5783803 L11.7700256,21.6538292 L11.6945767,21.7292781 L11.6191279,21.6538292 L11.4682301,21.5783803 L11.3927812,21.5029314 L11.4682301,21.2765848 Z M14.2598387,20.7484426 L13.9580432,21.2011359 L12.82631,22.7855624 L12.3736167,23.4646024 L11.9963723,23.9172956 L11.8454745,24.1436423 L11.6191279,24.0681934 L11.543679,23.8418468 L11.7700256,22.8610113 L11.9209234,22.5592158 L12.0718211,22.408318 L12.14727,22.3328691 L12.5999633,21.8047269 L12.82631,21.3520337 L13.2035544,20.9747892 L13.8071454,20.2957493 L14.0334921,20.522096 L14.2598387,20.3711982 L14.3352876,20.3711982 L14.4861854,20.2957493 L14.2598387,20.7484426 Z M17.6550384,14.4861854 L17.3532429,14.8634298 L15.6179186,14.8634298 L14.8634298,15.1652253 L14.4861854,15.391572 L14.3352876,15.6933675 L14.2598387,15.995163 L14.2598387,16.0706119 L14.3352876,16.2969585 L14.5616343,16.5233052 L14.9388787,16.7496518 L14.9388787,16.9759985 L14.712532,17.1268963 L14.5616343,17.2023451 L14.2598387,17.1268963 L14.0334921,17.0514474 L13.5807988,16.7496518 L13.1281055,16.5987541 L12.9017589,16.674203 L12.6754122,16.8251007 L12.4490656,16.8251007 L12.5245144,16.4478563 L12.6754122,16.0706119 L12.9017589,15.8442653 L13.1281055,15.6179186 L13.3544521,15.5424697 L13.6562477,15.4670208 L14.0334921,15.2406742 L14.1843898,15.1652253 L14.2598387,15.0897764 L14.3352876,14.8634298 L14.4107365,14.5616343 L15.1652253,13.7316966 L15.5424697,13.429901 L15.9197141,13.2035544 L16.1460608,13.429901 L16.3724074,13.6562477 L16.5987541,13.8825943 L16.9759985,14.1843898 L17.5795895,14.2598387 L17.6550384,14.2598387 L17.6550384,14.4861854 Z" id="XMLID_16_"></path>
                </g>
                <g id="XMLID_2_" transform="translate(17.000000, 38.000000)" fill="#231F20" fill-rule="nonzero">
                    <path d="M7.73683017,1.12526619 L7.28172252,2.32555012 C6.82661486,2.02547913 6.14395337,1.8004259 5.15788678,1.8004259 C4.24767147,1.8004259 3.48915871,2.17551463 2.95819977,3.00070983 C2.42724084,3.75088729 2.12383573,4.80113572 2.12383573,6.00141966 C2.12383573,7.20170359 2.42724084,8.10191654 2.95819977,8.85209399 C3.48915871,9.60227145 4.24767147,9.97736018 5.15788678,9.97736018 C6.14395337,9.97736018 6.90246613,9.60227145 7.43342507,8.92711174 L8.19193783,9.97736018 C7.35757379,10.8025554 6.29565593,11.1776441 5.00618423,11.1776441 C3.64086126,11.1776441 2.57894339,10.7275376 1.82043063,9.75230694 C1.06191787,8.77707625 0.682661486,7.50177457 0.682661486,5.92640191 C0.682661486,4.426047 1.06191787,3.15074532 1.89628191,2.10049688 C2.73064594,1.05024844 3.79256381,0.600141966 5.15788678,0.600141966 C6.14395337,0.600141966 7.05416869,0.750177457 7.73683017,1.12526619 Z" id="XMLID_13_"></path>
                    <polygon id="XMLID_11_" points="10.0123685 11.0276086 10.0123685 0.750177457 11.4535427 0.750177457 11.4535427 11.0276086"></polygon>
                    <polygon id="XMLID_9_" points="15.2461065 2.02547913 15.2461065 4.87615347 18.8869678 4.87615347 18.8869678 6.0764374 15.2461065 6.0764374 15.2461065 11.0276086 13.8049323 11.0276086 13.8049323 0.750177457 20.2522907 0.750177457 20.2522907 2.02547913"></polygon>
                    <path d="M20.9349522,5.85138416 C20.9349522,4.35102925 21.3142086,3.15074532 22.0727214,2.10049688 C22.8312341,1.12526619 23.8173007,0.600141966 25.1067724,0.600141966 C26.5479467,0.600141966 27.6857158,1.05024844 28.4442286,1.95046139 C29.2027413,2.85067434 29.5819977,4.12597601 29.5819977,5.77636642 C29.5819977,7.42675682 29.2027413,8.77707625 28.4442286,9.75230694 C27.6857158,10.7275376 26.5479467,11.1776441 25.1067724,11.1776441 C23.8173007,11.1776441 22.7553829,10.6525199 21.9968701,9.6772892 C21.3142086,8.7020585 20.9349522,7.42675682 20.9349522,5.85138416 Z M22.3761265,5.85138416 C22.3761265,7.0516681 22.6036803,8.02689879 23.058788,8.77707625 C23.5138956,9.60227145 24.1965571,9.97736018 25.0309211,9.97736018 C26.0169877,9.97736018 26.7755005,9.60227145 27.2306082,8.92711174 C27.7615671,8.17693428 27.9891209,7.20170359 27.9891209,5.85138416 C27.9891209,3.22576307 27.0030543,1.87544364 25.0309211,1.87544364 C24.1207058,1.87544364 23.5138956,2.25053237 23.058788,2.92569208 C22.6036803,3.60085179 22.3761265,4.57608249 22.3761265,5.85138416 Z" id="XMLID_6_"></path>
                    <path d="M36.9395715,11.0276086 L34.1330743,6.60156162 C33.8296692,6.60156162 33.2987103,6.60156162 32.6160488,6.52654388 L32.6160488,11.0276086 L31.1748745,11.0276086 L31.1748745,0.750177457 C31.2507258,0.750177457 31.6299822,0.750177457 32.3126437,0.675159711 C32.9953052,0.675159711 33.5262641,0.600141966 33.8296692,0.600141966 C36.3327613,0.600141966 37.5463817,1.57537266 37.5463817,3.52583405 C37.5463817,4.20099376 37.3188279,4.72611798 36.9395715,5.2512422 C36.5603151,5.77636642 36.0293562,6.0764374 35.4983973,6.22647289 L38.5324483,10.9525909 L36.9395715,10.9525909 L36.9395715,11.0276086 Z M32.6919,2.02547913 L32.6919,5.32625994 C32.9953052,5.40127769 33.3745615,5.40127769 33.6779666,5.40127769 C34.5123307,5.40127769 35.1191409,5.2512422 35.4983973,5.02618896 C35.8776536,4.72611798 36.1052075,4.2760115 36.1052075,3.60085179 C36.1052075,3.00070983 35.8776536,2.6256211 35.4983973,2.32555012 C35.1191409,2.10049688 34.4364794,1.95046139 33.5262641,1.95046139 C33.3745615,1.95046139 33.0711564,2.02547913 32.6919,2.02547913 Z" id="XMLID_3_"></path>
                </g>
            </g>
            <g id="Group-6" transform="translate(29.000000, 2.000000)">
                <rect id="Rectangle" stroke="#231F20" x="0.5" y="0.816377313" width="33.5920232" height="13.8600097" rx="1"></rect>
                <path d="M7.87856277,12 C8.80434402,12 9.49575027,11.7871094 9.95278152,11.3613281 C10.4098128,10.9355469 10.6383284,10.34375 10.6383284,9.5859375 C10.6383284,8.484375 10.1207503,7.78320312 9.08559402,7.48242188 C9.71450027,7.15820312 10.0289534,6.60546875 10.0289534,5.82421875 C10.0289534,5.06640625 9.7838362,4.48242188 9.29360183,4.07226562 C8.80336745,3.66210938 8.07973464,3.45703125 7.12270339,3.45703125 L7.12270339,3.45703125 L4.29848464,3.45703125 L4.29848464,12 L7.87856277,12 Z M7.19301589,6.86132812 L6.22035964,6.86132812 L6.22035964,5.09765625 L7.15200027,5.09765625 C7.50746902,5.09765625 7.77114089,5.17480469 7.94301589,5.32910156 C8.11489089,5.48339844 8.20082839,5.69140625 8.20082839,5.953125 C8.20082839,6.23046875 8.12075027,6.45117188 7.96059402,6.61523438 C7.80043777,6.77929688 7.54457839,6.86132812 7.19301589,6.86132812 L7.19301589,6.86132812 Z M7.49770339,10.3066406 L6.22035964,10.3066406 L6.22035964,8.37890625 L7.48598464,8.37890625 C8.30239089,8.37890625 8.71059402,8.70703125 8.71059402,9.36328125 C8.71059402,9.63671875 8.61782058,9.86230469 8.4322737,10.0400391 C8.24672683,10.2177734 7.93520339,10.3066406 7.49770339,10.3066406 L7.49770339,10.3066406 Z M16.756665,12 L16.756665,10.2421875 L13.6863525,10.2421875 L13.6863525,8.58984375 L16.4168213,8.58984375 L16.4168213,6.8671875 L13.6863525,6.8671875 L13.6863525,5.203125 L16.756665,5.203125 L16.756665,3.45703125 L11.6824463,3.45703125 L11.6824463,12 L16.756665,12 Z M21.2460954,12 L21.2460954,5.203125 L23.2207048,5.203125 L23.2207048,3.45703125 L17.2792985,3.45703125 L17.2792985,5.203125 L19.271486,5.203125 L19.271486,12 L21.2460954,12 Z M24.4523226,12 L25.0382601,10.3300781 L28.536307,10.3300781 L29.1222445,12 L31.1554476,12 L28.0148226,3.45703125 L25.5597445,3.45703125 L22.4191195,12 L24.4523226,12 Z M27.9562289,8.671875 L25.6183383,8.671875 L26.7902133,5.32617188 L27.9562289,8.671875 Z" id="BETA" fill="#171717" fill-rule="nonzero"></path>
            </g>
        </g>
    </g>
</svg>