<svg xmlns="http://www.w3.org/2000/svg" width="137" height="137"><style><![CDATA[.B{stroke-linejoin:round}.C{stroke-width:5}.D{stroke-linecap:round}]]></style><g fill="none" class="B C"><g stroke="#3aa393"><path d="M54.82 91.93s-9.988.47-14.334 5.67-5.57 13.55-5.57 13.55h68.16s-2.1-11.102-5.55-14.446C92.712 92.018 80.78 91.78 80.78 91.78" class="D"/><path d="M68.31 92.16c4.8-.178 8.92-4.298 10.98-6.785s2.692-10.898 2.692-10.898 1.697 1.24 3.166.596 3.313-5.036 3.928-7.606c.75-3.132.452-5.97-1.056-7.61-1.418-1.54-4.526.745-4.526.745l.142-10.27s-.687-8.595-3.66-9.498-11.195-.317-16.7 2.17c-4 1.806-10.065 4.84-11.205 6.874s-.455 11.078-.455 11.078-3.424-1.583-4.343-.45-.918 3.39-.918 6.557 1.37 8.594 2.745 8.818l1.376.228 1.595-1.133s.23 5.43 3.434 9.722 6.626 7.688 12.807 7.464z"/></g><g stroke="#026264"><path d="M42.692 25.69c-3.886 0-8.003 3.165-8.003 6.33 0 2.75 1.146 18.087 7.777 18.087 6.862 0 8.774-14.373 8.732-17.99-.042-3.717-3.922-6.426-8.505-6.426z"/><path d="M35.372 51.688s-4.342-.45-7.088 3.165-3.202 7.912-3.202 7.912" class="D"/><path d="M94.246 25.69c3.885 0 8 3.165 8 6.33 0 2.75-1.145 18.087-7.776 18.087-6.86 0-8.773-14.373-8.73-17.99.042-3.717 3.92-6.426 8.506-6.426z"/><path d="M101.565 51.688s4.343-.45 7.087 3.165 3.205 7.912 3.205 7.912" class="D"/></g></g></svg>