<svg xmlns="http://www.w3.org/2000/svg" xmlns:xlink="http://www.w3.org/1999/xlink" width="137" height="137"><g fill-rule="evenodd"><g fill="#3aa393"><path d="M39.538 39.91l-1.88 3.752 8.886 4.416h8.936v-4.195h-7.946l-7.996-3.973z"/><path d="M62.148 39.17c-3.527 0-6.823 1.767-8.78 4.704L43.213 59.127a2.12 2.12 0 0 0-.108 2.173c.367.69 1.084 1.12 1.864 1.12h10.403c2.115 0 4.094-1.06 5.268-2.823l1.715-2.575c.392-.59 1.05-.94 1.756-.94h2.795a2.1 2.1 0 0 1 1.171.355l32.28 21.54c1.535 1.025 1.882 3.06.775 4.54l-.132.173a3.13 3.13 0 0 1-4.155.817L79.822 73.28a2.11 2.11 0 0 0-2.17-.109c-.688.367-1.118 1.084-1.12 1.864s.427 1.498 1.113 1.868L94.67 87.13c3.232 1.94 7.45 1.12 9.71-1.898l.132-.173c2.528-3.374 1.692-8.258-1.814-10.597l-32.28-21.55c-1.04-.694-2.26-1.065-3.512-1.065H64.1c-2.115 0-4.094 1.06-5.268 2.823l-1.715 2.575c-.392.59-1.05.94-1.756.94h-6.455l7.963-11.96c1.175-1.764 3.15-2.822 5.268-2.822h13.297c.588 0 1.166.076 1.73.24l12.06 3.45a6.33 6.33 0 0 0 4.575-.423l2.753-1.378a2.12 2.12 0 0 0 .944-2.843c-.524-1.046-1.795-1.47-2.84-.945l-2.753 1.378c-.472.237-1.01.287-1.517.14l-12.06-3.45a10.47 10.47 0 0 0-2.893-.406H62.148v.003z"/><path d="M108.578 63.673l-8.544 10.7 3.337 2.666 8.544-10.7zM25.716 65.9l-2.9 2.9 8.23 8.23 2.9-2.9z"/><path d="M45.12 31.003c-.686.036-1.3.415-1.668 1.01l-23.91 38.57L6.7 63.108a2.05 2.05 0 0 0-2.137-.057 2.13 2.13 0 0 0-1.062 1.89c.015.78.45 1.5 1.132 1.847L19.2 75.274c.97.565 2.205.25 2.8-.713l24.977-40.285c.426-.67.448-1.525.056-2.215s-1.13-1.1-1.912-1.058h0z"/><g fill-rule="nonzero"><path d="M45.62 71.232a6.17 6.17 0 0 0-3.908 2.67l-8.246 12.653c-1.86 2.855-1.058 6.763 1.77 8.635l.21.147c2.838 1.872 6.695 1.065 8.555-1.79l8.246-12.653c1.86-2.856 1.06-6.763-1.77-8.635l-.21-.147c-1.423-.936-3.097-1.205-4.647-.88h0zm2.356 4.396h.008l.21.147a1.97 1.97 0 0 1 .577 2.802L40.525 91.23a1.96 1.96 0 0 1-2.787.591l-.22-.147a1.97 1.97 0 0 1-.577-2.802l8.246-12.653a1.96 1.96 0 0 1 2.787-.591h0z"/><path d="M50.78 79.405c-1.603.334-3.08 1.264-4.038 2.72l-5.825 8.856c-1.916 2.913-1.083 6.89 1.845 8.798a6.44 6.44 0 0 0 8.833-1.844l5.825-8.856c1.916-2.914 1.083-6.884-1.845-8.8a6.38 6.38 0 0 0-4.795-.885h0zm2.468 4.432c1.017.662 1.28 1.915.615 2.927l-5.825 8.856c-.665 1.01-1.933 1.274-2.95.612s-1.28-1.915-.615-2.927l5.825-8.856c.666-1.012 1.933-1.274 2.95-.612h0z"/><path d="M56.03 86.094a6.29 6.29 0 0 0-3.975 2.758L48.3 94.708c-1.874 2.93-1.03 6.9 1.873 8.796a6.31 6.31 0 0 0 8.723-1.888l3.745-5.856c1.874-2.93 1.03-6.9-1.873-8.796-1.45-.948-3.165-1.212-4.747-.87h0zm2.464 4.423a2.09 2.09 0 0 1 .624 2.941l-3.745 5.864a2.03 2.03 0 0 1-2.899.629 2.09 2.09 0 0 1-.632-2.94l3.754-5.865a2.03 2.03 0 0 1 2.899-.629h0zM35.98 71.243a6.28 6.28 0 0 0-3.968 2.758l-3.754 5.856a6.44 6.44 0 0 0 1.88 8.797 6.3 6.3 0 0 0 8.716-1.888L42.6 80.9c1.874-2.93 1.03-6.9-1.873-8.797a6.25 6.25 0 0 0-4.748-.87h0zm2.464 4.43a2.08 2.08 0 0 1 .624 2.932l-3.746 5.864a2.03 2.03 0 0 1-2.9.629 2.09 2.09 0 0 1-.624-2.94l3.746-5.864c.65-1.018 1.9-1.28 2.9-.62z"/></g><path d="M91.777 31c-.775-.02-1.496.398-1.874 1.087s-.348 1.534.075 2.195l24.975 40.28c.594.964 1.83 1.278 2.8.713L132.32 66.8c.682-.357 1.117-1.066 1.132-1.847a2.13 2.13 0 0 0-1.062-1.889 2.05 2.05 0 0 0-2.137.057l-12.84 7.474-23.9-38.564a2.08 2.08 0 0 0-1.725-1.02h0zM74.585 81.495c-.923.023-1.72.664-1.956 1.573s.145 1.867.936 2.353l11.67 7.422c3.68 2.342 8.553 1.374 11.102-2.202l1.782-2.5c.462-.6.56-1.428.26-2.134a2.08 2.08 0 0 0-1.709-1.262 2.06 2.06 0 0 0-1.91.914l-1.782 2.498c-1.3 1.8-3.685 2.283-5.547 1.097l-11.66-7.422a2.05 2.05 0 0 0-1.182-.338h0z"/><path d="M70.3 90.407c-.983-.032-1.86.597-2.12 1.52s.164 1.9 1.026 2.362l9.7 5.393c3.862 2.15 8.818 1.116 11.43-2.4l1.873-2.52c.69-.925.482-2.22-.468-2.895s-2.28-.47-2.972.456l-1.873 2.527c-1.36 1.824-3.868 2.346-5.877 1.227l-9.7-5.393a2.17 2.17 0 0 0-1.011-.289v-.001z"/><path d="M60.696 97.09l-1.503 3.8 12.543 4.65c3.17 1.177 6.8.045 8.648-2.713l1.83-2.72-3.503-2.23-1.83 2.72c-.793 1.178-2.297 1.645-3.65 1.143l-12.535-4.65z"/></g><g fill="#026264"><use xlink:href="#B"/><use xlink:href="#B" x="105.444"/></g></g><defs ><path id="B" d="M17.61 60.703a2.23 2.23 0 0 1-2.228 2.228 2.23 2.23 0 0 1-2.228-2.228 2.23 2.23 0 0 1 2.228-2.228 2.23 2.23 0 0 1 2.228 2.228z"/></defs></svg>