<svg xmlns="http://www.w3.org/2000/svg" width="137" height="137" fill-rule="nonzero"><path d="M62.452 58.782h0v-4.684c1.26.156 2.52.625 3.62 1.405l1.574-2.342c-1.732-1.093-3.463-1.718-5.352-1.874v-1.25H60.72v1.25c-1.574.156-3 .625-3.936 1.56-1.102.937-1.574 2.186-1.574 3.6s.472 2.498 1.26 3.28c.945.78 2.36 1.405 4.25 1.718v4.84c-1.574-.312-3-.937-4.408-2.186l-1.9 2.186c1.9 1.56 3.936 2.498 6.297 2.8v1.874h1.574v-1.874c1.732-.156 3.148-.625 4.093-1.56 1.102-.937 1.574-2.186 1.574-3.6s-.472-2.654-1.417-3.435c-.787-.625-2.204-1.25-4.093-1.718zm-1.732-.468c-.945-.312-1.574-.625-1.9-.937s-.472-.78-.472-1.405.157-1.093.63-1.405 1.102-.625 1.732-.625v4.372zm3.62 7.34c-.472.312-1.102.625-1.9.78v-4.528c.945.312 1.732.625 2.047.937s.63.78.63 1.405c-.157.625-.315 1.093-.787 1.405zM61.5 44.5a15.65 15.65 0 0 0-15.692 15.692A15.65 15.65 0 0 0 61.5 75.885a15.65 15.65 0 0 0 15.692-15.692c0-8.7-7.147-15.692-15.692-15.692zm0 28.277a12.53 12.53 0 0 1-12.585-12.585A12.53 12.53 0 0 1 61.5 47.607a12.53 12.53 0 0 1 12.585 12.585c0 6.992-5.75 12.585-12.585 12.585z" fill="#026264"/><path d="M117.476 52.734h-5.155v-6.556c0-.937-.625-1.56-1.562-1.56h-5.155V38.06c0-.937-.625-1.56-1.562-1.56h-84.98c-.937 0-1.562.624-1.562 1.56v44.644c0 .937.625 1.56 1.562 1.56h5.155v6.556c0 .937.625 1.56 1.562 1.56h5.155v6.556c0 .937.625 1.56 1.562 1.56h84.98c.937 0 1.562-.624 1.562-1.56V54.295c0-.937-.625-1.56-1.562-1.56zm-14.996 28.4h-9.53c.625-4.995 4.686-8.898 9.53-9.522v9.522zm0-12.8c-6.717.78-12.028 6.088-12.653 12.644h-56.55c-.78-6.712-6.092-12.02-12.653-12.8V52.422c6.717-.78 12.028-6.088 12.653-12.644H89.67c.78 6.712 6.092 12.02 12.653 12.644v15.922h.156zm0-28.722V49.3c-5-.624-8.904-4.683-9.53-9.522h9.53v-.156zm-81.856 0h9.53c-.625 4.995-4.686 8.898-9.53 9.522v-9.522zm0 31.844c5 .624 8.904 4.683 9.53 9.522h-9.53v-9.522zm6.717 12.8h76.544c.47 0 .78-.156 1.093-.468.156-.156.312-.312.312-.468.156-.156.156-.468.156-.624V47.74h3.593V89.26h-81.7v-4.995zm88.573 12.956H34.06v-4.995h76.544c.937 0 1.562-.624 1.562-1.56v-34.8h3.593v41.366h.156z" fill="#3aa393"/></svg>