<svg xmlns="http://www.w3.org/2000/svg" width="17" height="17"><path d="M3.25 2.908a.31.31 0 0 1-.355.355H.355A.31.31 0 0 1 0 2.908V.37A.31.31 0 0 1 .355.013h2.54a.31.31 0 0 1 .355.355v2.54zm6.5 0a.31.31 0 0 1-.355.355h-2.54a.31.31 0 0 1-.355-.355V.37a.31.31 0 0 1 .355-.355h2.54a.31.31 0 0 1 .355.355v2.54zm6.5 0a.31.31 0 0 1-.355.355h-2.54A.31.31 0 0 1 13 2.908V.37a.31.31 0 0 1 .355-.355h2.54a.31.31 0 0 1 .355.355v2.54zm-13 6.5a.31.31 0 0 1-.355.355H.355A.31.31 0 0 1 0 9.408V6.87a.31.31 0 0 1 .355-.355h2.54a.31.31 0 0 1 .355.355v2.54zm6.5 0a.31.31 0 0 1-.355.355h-2.54a.31.31 0 0 1-.355-.355V6.87a.31.31 0 0 1 .355-.355h2.54a.31.31 0 0 1 .355.355v2.54zm6.5 0a.31.31 0 0 1-.355.355h-2.54A.31.31 0 0 1 13 9.408V6.87a.31.31 0 0 1 .355-.355h2.54a.31.31 0 0 1 .355.355v2.54zm-13 6.5a.31.31 0 0 1-.355.355H.355A.31.31 0 0 1 0 15.908v-2.54a.31.31 0 0 1 .355-.355h2.54a.31.31 0 0 1 .355.355v2.54zm6.5 0a.31.31 0 0 1-.355.355h-2.54a.31.31 0 0 1-.355-.355v-2.54a.31.31 0 0 1 .355-.355h2.54a.31.31 0 0 1 .355.355v2.54zm6.5 0a.31.31 0 0 1-.355.355h-2.54a.31.31 0 0 1-.355-.355v-2.54a.31.31 0 0 1 .355-.355h2.54a.31.31 0 0 1 .355.355v2.54z" fill="#3a393a" fill-rule="nonzero"/></svg>