<svg xmlns="http://www.w3.org/2000/svg" width="26" height="17"><path d="M2.438 6.888a.78.78 0 0 1 .571.241.78.78 0 0 1 .241.571v1.625a.78.78 0 0 1-.241.571.78.78 0 0 1-.571.241H.813a.78.78 0 0 1-.571-.241A.78.78 0 0 1 0 9.326V7.7a.78.78 0 0 1 .241-.571.78.78 0 0 1 .571-.241h1.625zm22.75.813a.78.78 0 0 1 .571.241.78.78 0 0 1 .241.571.78.78 0 0 1-.241.571.78.78 0 0 1-.571.241H8.125a.78.78 0 0 1-.571-.241.78.78 0 0 1-.241-.571.78.78 0 0 1 .241-.571.78.78 0 0 1 .571-.241h17.063zm-22.75 5.687a.78.78 0 0 1 .571.241.78.78 0 0 1 .241.571v1.625a.78.78 0 0 1-.241.571.78.78 0 0 1-.571.241H.813a.78.78 0 0 1-.571-.241.78.78 0 0 1-.241-.571V14.2a.78.78 0 0 1 .241-.571.78.78 0 0 1 .571-.241h1.625zm22.75.813a.78.78 0 0 1 .571.241.78.78 0 0 1 .241.571.78.78 0 0 1-.241.571.78.78 0 0 1-.571.241H8.125a.78.78 0 0 1-.571-.241.78.78 0 0 1-.241-.571.78.78 0 0 1 .241-.571.78.78 0 0 1 .571-.241h17.063zM2.438.388a.78.78 0 0 1 .571.241.78.78 0 0 1 .241.571v1.625a.78.78 0 0 1-.241.571.78.78 0 0 1-.571.241H.813a.78.78 0 0 1-.571-.241A.78.78 0 0 1 0 2.826V1.2A.78.78 0 0 1 .241.629.78.78 0 0 1 .813.388h1.625zm5.688 2.438a.78.78 0 0 1-.571-.241.78.78 0 0 1-.241-.571.78.78 0 0 1 .241-.571.78.78 0 0 1 .571-.241h17.063a.78.78 0 0 1 .571.241.78.78 0 0 1 .241.571.78.78 0 0 1-.241.571.78.78 0 0 1-.571.241H8.125z" fill="#3a393a" fill-rule="nonzero"/></svg>